<svg width="344" height="256" viewBox="0 0 344 256" fill="none" xmlns="http://www.w3.org/2000/svg">
<g clip-path="url(#clip0_570_10610)">
<path d="M343.553 224.973H0.0304565V225.145H343.553V224.973Z" fill="#EBEBEB"/>
<path d="M58.8278 231.514H36.0729V231.685H58.8278V231.514Z" fill="#EBEBEB"/>
<path d="M149.731 229.652H117.611V229.824H149.731V229.652Z" fill="#EBEBEB"/>
<path d="M90.7136 236.825H77.5292V236.996H90.7136V236.825Z" fill="#EBEBEB"/>
<path d="M235.371 233.836H214.615V234.008H235.371V233.836Z" fill="#EBEBEB"/>
<path d="M254.759 233.836H241.486V234.008H254.759V233.836Z" fill="#EBEBEB"/>
<path d="M309.139 236.742H268.906V236.914H309.139V236.742Z" fill="#EBEBEB"/>
<path d="M162.867 194.331H30.1986C28.0344 194.331 26.2756 192.572 26.2756 190.408V3.92303C26.2756 1.75884 28.0344 0 30.1986 0H162.867C165.031 0 166.79 1.75884 166.79 3.92303V190.408C166.79 192.572 165.031 194.331 162.867 194.331ZM30.1986 0.171761C28.1306 0.171761 26.4474 1.85502 26.4474 3.92303V190.408C26.4474 192.476 28.1306 194.159 30.1986 194.159H162.867C164.935 194.159 166.618 192.476 166.618 190.408V3.92303C166.618 1.85502 164.935 0.171761 162.867 0.171761H30.1986Z" fill="#EBEBEB"/>
<path d="M311.475 194.331H178.807C176.642 194.331 174.884 192.572 174.884 190.408V3.92303C174.884 1.75884 176.642 0 178.807 0H311.475C313.639 0 315.398 1.75884 315.398 3.92303V190.408C315.398 192.572 313.639 194.331 311.475 194.331ZM178.807 0.171761C176.739 0.171761 175.055 1.85502 175.055 3.92303V190.408C175.055 192.476 176.739 194.159 178.807 194.159H311.475C313.543 194.159 315.226 192.476 315.226 190.408V3.92303C315.226 1.85502 313.543 0.171761 311.475 0.171761H178.807Z" fill="#EBEBEB"/>
<path d="M61.5279 130.724L224.997 130.724V28.4299L61.5279 28.4299V130.724Z" fill="#F0F0F0"/>
<path d="M221.795 125.915V33.2393L64.7227 33.2393V125.915L221.795 125.915Z" fill="#FAFAFA"/>
<path d="M201.122 125.915L185.004 33.2393H173.125L189.243 125.915H201.122Z" fill="white"/>
<path d="M186.501 125.915L170.383 33.2393H165.073L181.184 125.915H186.501Z" fill="white"/>
<path d="M160.497 125.915L144.386 33.2393H132.507L148.618 125.915H160.497Z" fill="white"/>
<path d="M130.549 125.915L114.43 33.2393H109.12L125.231 125.915H130.549Z" fill="white"/>
<path d="M180.531 125.915V33.2393H179.72V125.915H180.531Z" fill="#E0E0E0"/>
<path d="M221.802 125.915V33.2393H220.991V125.915H221.802Z" fill="#E0E0E0"/>
<path d="M183.726 125.915V33.2393H180.524V125.915H183.726Z" fill="#F0F0F0"/>
<path d="M140.875 125.915V33.2393H140.064V125.915H140.875Z" fill="#E0E0E0"/>
<path d="M144.07 125.915V33.2393H140.868V125.915H144.07Z" fill="#F0F0F0"/>
<path d="M101.205 125.915V33.2393H100.394V125.915H101.205Z" fill="#E0E0E0"/>
<path d="M104.4 125.915V33.2393H101.198V125.915H104.4Z" fill="#F0F0F0"/>
<path d="M61.5279 130.724L61.5279 28.4299H60.7172L60.7172 130.724H61.5279Z" fill="#E0E0E0"/>
<path d="M44.9151 21.4084H232.252C232.843 21.4084 233.324 20.9274 233.324 20.3366C233.324 19.7457 232.843 19.2648 232.252 19.2648H44.9151C44.3243 19.2648 43.8434 19.7457 43.8434 20.3366C43.8434 20.9274 44.3243 21.4084 44.9151 21.4084Z" fill="#E0E0E0"/>
<g opacity="0.6">
<path d="M158.552 203.853H229.634L229.634 17.2036H158.552L158.552 203.853Z" fill="#F5F5F5"/>
<path d="M201.775 205.385H207.731L206.062 18.7357H203.396L201.775 205.385Z" fill="#E6E6E6"/>
<path d="M214.918 205.385H217.796L216.986 18.7357H215.701L214.918 205.385Z" fill="#E6E6E6"/>
<path d="M184.502 205.385H187.374L186.57 18.7357H185.285L184.502 205.385Z" fill="#E6E6E6"/>
<path d="M169.868 205.385H172.74L171.936 18.7357H170.651L169.868 205.385Z" fill="#E6E6E6"/>
</g>
<g opacity="0.6">
<path d="M48.584 203.853H84.1248L84.1248 17.2036H48.584L48.584 203.853Z" fill="#F5F5F5"/>
<path d="M70.1984 205.385H73.1733L72.342 18.7357H71.0091L70.1984 205.385Z" fill="#E6E6E6"/>
<path d="M76.7666 205.385H78.2025L77.804 18.7357H77.1582L76.7666 205.385Z" fill="#E6E6E6"/>
<path d="M61.5623 205.385H62.9982L62.5928 18.7357H61.947L61.5623 205.385Z" fill="#E6E6E6"/>
<path d="M54.2452 205.385H55.6811L55.2758 18.7357H54.63L54.2452 205.385Z" fill="#E6E6E6"/>
</g>
<path d="M295.274 46.0664H248.123V104.919H295.274V46.0664Z" fill="#E6E6E6"/>
<path d="M297.349 46.0664H248.83V104.919H297.349V46.0664Z" fill="#F5F5F5"/>
<path d="M293.632 100.741V50.2437H252.554V100.741H293.632Z" fill="#FAFAFA"/>
<path d="M293.632 100.741V50.2437H293.248V100.741H293.632Z" fill="#E6E6E6"/>
<path d="M286.684 72.1706C289.002 69.8524 289.002 66.0939 286.684 63.7757C284.366 61.4575 280.607 61.4575 278.289 63.7757C275.971 66.0939 275.971 69.8524 278.289 72.1706C280.607 74.4888 284.366 74.4888 286.684 72.1706Z" fill="#F0F0F0"/>
<path d="M281.529 85.4076C286.24 80.6961 286.24 73.0573 281.528 68.3458C276.817 63.6343 269.178 63.6343 264.467 68.3458C259.755 73.0573 259.755 80.6961 264.467 85.4076C269.178 90.1191 276.817 90.1191 281.529 85.4076Z" fill="white"/>
<path d="M269.862 69.3366C270.615 66.1459 268.639 62.9488 265.448 62.1957C262.258 61.4427 259.061 63.4188 258.308 66.6095C257.554 69.8002 259.531 72.9973 262.721 73.7504C265.912 74.5035 269.109 72.5274 269.862 69.3366Z" fill="#F0F0F0"/>
<path d="M246.721 154.867H240.277V220.562H246.721V154.867Z" fill="#F0F0F0"/>
<path d="M307.291 150.937H238.71V154.867H307.291V150.937Z" fill="#F0F0F0"/>
<path d="M303.093 220.555H242.901V224.966H303.093V220.555Z" fill="#F0F0F0"/>
<path d="M305.724 154.867H246.721V220.562H305.724V154.867Z" fill="#FAFAFA"/>
<path d="M252.094 182.342H300.345V162.184H252.094V182.342Z" fill="#F0F0F0"/>
<path d="M252.094 211.988H300.345V191.83H252.094V211.988Z" fill="#F0F0F0"/>
<path d="M281.719 160.995H270.72C270.029 160.995 269.469 161.555 269.469 162.246V162.878C269.469 163.568 270.029 164.128 270.72 164.128H281.719C282.41 164.128 282.97 163.568 282.97 162.878V162.246C282.97 161.555 282.41 160.995 281.719 160.995Z" fill="#FAFAFA"/>
<path d="M281.719 190.648H270.72C270.029 190.648 269.469 191.208 269.469 191.899V192.531C269.469 193.221 270.029 193.781 270.72 193.781H281.719C282.41 193.781 282.97 193.221 282.97 192.531V191.899C282.97 191.208 282.41 190.648 281.719 190.648Z" fill="#FAFAFA"/>
<path d="M131.645 224.775C139.72 223.464 145.204 215.855 143.893 207.78C142.582 199.705 134.973 194.221 126.898 195.532C118.823 196.843 113.339 204.451 114.65 212.527C115.961 220.602 123.57 226.085 131.645 224.775Z" fill="#EBEBEB"/>
<path d="M109.479 224.731C119.558 223.095 126.403 213.598 124.767 203.519C123.13 193.44 113.634 186.596 103.555 188.232C93.4757 189.868 86.6314 199.365 88.2675 209.444C89.9035 219.523 99.4004 226.367 109.479 224.731Z" fill="#F5F5F5"/>
<path d="M171.792 256C245.362 256 305.003 252.518 305.003 248.223C305.003 243.927 245.362 240.445 171.792 240.445C98.2213 240.445 38.5806 243.927 38.5806 248.223C38.5806 252.518 98.2213 256 171.792 256Z" fill="#F5F5F5"/>
<path d="M87.0173 97.9659C82.4828 97.9659 80.3461 93.397 80.2499 93.1978C80.0438 92.7443 80.243 92.2084 80.6965 92.0023C81.1499 91.7962 81.6858 91.9954 81.8919 92.4489C81.9194 92.5038 83.6989 96.2551 87.1547 96.1589C87.6562 96.1314 88.0685 96.5368 88.0822 97.0383C88.096 97.5399 87.7043 97.9521 87.2028 97.9659C87.141 97.9659 87.0791 97.9659 87.0173 97.9659Z" fill="#407BFF"/>
<path d="M146.344 34.5103C145.67 34.5103 145.224 34.4416 145.162 34.4347C144.667 34.3592 144.331 33.8989 144.406 33.4042C144.482 32.9095 144.942 32.5729 145.43 32.6484C145.471 32.6484 149.6 33.2324 151.421 30.285C151.682 29.859 152.239 29.7285 152.664 29.9896C153.09 30.2506 153.221 30.8071 152.96 31.2331C151.201 34.0844 148.061 34.5103 146.351 34.5103H146.344Z" fill="#407BFF"/>
<path opacity="0.6" d="M146.344 34.5103C145.67 34.5103 145.224 34.4416 145.162 34.4347C144.667 34.3592 144.331 33.8989 144.406 33.4042C144.482 32.9095 144.942 32.5729 145.43 32.6484C145.471 32.6484 149.6 33.2324 151.421 30.285C151.682 29.859 152.239 29.7285 152.664 29.9896C153.09 30.2506 153.221 30.8071 152.96 31.2331C151.201 34.0844 148.061 34.5103 146.351 34.5103H146.344Z" fill="white"/>
<path d="M44.4136 68.9176C41.7891 68.9176 39.6455 67.4679 39.5218 67.3855C39.1096 67.1038 39.0066 66.5404 39.2882 66.1282C39.5699 65.7159 40.1333 65.6129 40.5387 65.8946C40.573 65.9152 44.0426 68.2374 46.9625 66.3755C47.3816 66.1075 47.9381 66.2312 48.2061 66.6503C48.474 67.0694 48.3504 67.6259 47.9313 67.8939C46.7496 68.6427 45.5335 68.9107 44.4136 68.9107V68.9176Z" fill="#407BFF"/>
<path opacity="0.6" d="M44.4136 68.9176C41.7891 68.9176 39.6455 67.4679 39.5218 67.3855C39.1096 67.1038 39.0066 66.5404 39.2882 66.1282C39.5699 65.7159 40.1333 65.6129 40.5387 65.8946C40.573 65.9152 44.0426 68.2374 46.9625 66.3755C47.3816 66.1075 47.9381 66.2312 48.2061 66.6503C48.474 67.0694 48.3504 67.6259 47.9313 67.8939C46.7496 68.6427 45.5335 68.9107 44.4136 68.9107V68.9176Z" fill="white"/>
<path d="M280.091 44.8297C277.466 44.8297 275.323 43.3801 275.199 43.2976C274.787 43.0159 274.684 42.4526 274.965 42.0403C275.247 41.6281 275.811 41.525 276.216 41.8067C276.25 41.8273 279.72 44.1496 282.64 42.2877C283.059 42.0197 283.615 42.1434 283.883 42.5625C284.151 42.9816 284.028 43.5381 283.609 43.806C282.427 44.5549 281.211 44.8229 280.091 44.8229V44.8297Z" fill="#407BFF"/>
<path opacity="0.6" d="M280.091 44.8297C277.466 44.8297 275.323 43.3801 275.199 43.2976C274.787 43.0159 274.684 42.4526 274.965 42.0403C275.247 41.6281 275.811 41.525 276.216 41.8067C276.25 41.8273 279.72 44.1496 282.64 42.2877C283.059 42.0197 283.615 42.1434 283.883 42.5625C284.151 42.9816 284.028 43.5381 283.609 43.806C282.427 44.5549 281.211 44.8229 280.091 44.8229V44.8297Z" fill="white"/>
<path d="M169.6 115.788C165.389 115.788 163.094 111.707 162.991 111.521C162.75 111.082 162.908 110.539 163.348 110.298C163.781 110.058 164.331 110.216 164.571 110.656C164.598 110.711 166.66 114.304 170.095 113.96C170.59 113.912 171.036 114.269 171.084 114.764C171.132 115.259 170.775 115.705 170.28 115.753C170.047 115.781 169.82 115.788 169.593 115.788H169.6Z" fill="#407BFF"/>
<path opacity="0.6" d="M169.6 115.788C165.389 115.788 163.094 111.707 162.991 111.521C162.75 111.082 162.908 110.539 163.348 110.298C163.781 110.058 164.331 110.216 164.571 110.656C164.598 110.711 166.66 114.304 170.095 113.96C170.59 113.912 171.036 114.269 171.084 114.764C171.132 115.259 170.775 115.705 170.28 115.753C170.047 115.781 169.82 115.788 169.593 115.788H169.6Z" fill="white"/>
<path d="M54.307 134.146C53.9017 134.146 53.5307 133.871 53.4345 133.459C53.3177 132.978 53.6131 132.49 54.0941 132.366C54.1353 132.359 58.1682 131.301 58.7179 127.887C58.7935 127.392 59.2606 127.062 59.7553 127.138C60.25 127.213 60.5798 127.68 60.5042 128.168C59.7622 132.778 54.7468 134.063 54.5338 134.118C54.4582 134.139 54.3895 134.146 54.3208 134.146H54.307Z" fill="#407BFF"/>
<path opacity="0.6" d="M54.307 134.146C53.9017 134.146 53.5307 133.871 53.4345 133.459C53.3177 132.978 53.6131 132.49 54.0941 132.366C54.1353 132.359 58.1682 131.301 58.7179 127.887C58.7935 127.392 59.2606 127.062 59.7553 127.138C60.25 127.213 60.5798 127.68 60.5042 128.168C59.7622 132.778 54.7468 134.063 54.5338 134.118C54.4582 134.139 54.3895 134.146 54.3208 134.146H54.307Z" fill="black"/>
<path d="M254.897 71.5214C254.491 71.5214 254.12 71.2466 254.024 70.8344C253.907 70.3535 254.203 69.8657 254.684 69.742C254.725 69.7351 258.758 68.6771 259.308 65.2625C259.383 64.7678 259.85 64.438 260.345 64.5136C260.84 64.5892 261.17 65.0563 261.094 65.5441C260.352 70.1542 255.337 71.439 255.124 71.494C255.048 71.5146 254.979 71.5214 254.911 71.5214H254.897Z" fill="#407BFF"/>
<path opacity="0.6" d="M254.897 71.5214C254.491 71.5214 254.12 71.2466 254.024 70.8344C253.907 70.3535 254.203 69.8657 254.684 69.742C254.725 69.7351 258.758 68.6771 259.308 65.2625C259.383 64.7678 259.85 64.438 260.345 64.5136C260.84 64.5892 261.17 65.0563 261.094 65.5441C260.352 70.1542 255.337 71.439 255.124 71.494C255.048 71.5146 254.979 71.5214 254.911 71.5214H254.897Z" fill="black"/>
<path d="M291.839 105.771C291.791 105.771 291.736 105.771 291.681 105.757C291.468 105.723 286.37 104.781 285.312 100.233C285.202 99.7453 285.505 99.2644 285.986 99.1476C286.473 99.0376 286.954 99.3399 287.071 99.8209C287.854 103.194 291.949 103.964 291.99 103.971C292.478 104.06 292.808 104.527 292.719 105.015C292.643 105.455 292.258 105.764 291.832 105.764L291.839 105.771Z" fill="#407BFF"/>
<path d="M275.735 138.893C274.354 138.893 272.808 138.536 271.413 137.375C271.029 137.059 270.981 136.489 271.297 136.104C271.613 135.719 272.183 135.671 272.568 135.987C275.227 138.199 278.957 136.344 278.998 136.324C279.445 136.097 279.988 136.276 280.215 136.715C280.441 137.155 280.269 137.698 279.823 137.931C279.706 137.993 277.92 138.893 275.728 138.893H275.735Z" fill="#407BFF"/>
<path d="M233.592 26.149C233.44 26.149 233.289 26.1146 233.152 26.0322C232.96 25.9222 228.473 23.3321 229.002 18.6945C229.057 18.1998 229.504 17.8426 229.998 17.8975C230.493 17.9525 230.85 18.3991 230.795 18.8938C230.404 22.3359 234.004 24.4382 234.038 24.4588C234.471 24.7062 234.622 25.2558 234.375 25.6886C234.21 25.9841 233.901 26.149 233.592 26.149Z" fill="#407BFF"/>
<path d="M54.1628 29.804C53.7024 29.804 53.304 29.4468 53.2627 28.9796C53.2215 28.4849 53.5856 28.0452 54.0872 28.004C57.5362 27.7085 58.8828 23.758 58.8896 23.7168C59.0477 23.2427 59.5561 22.9885 60.0301 23.1397C60.5042 23.2977 60.7584 23.7993 60.6072 24.2733C60.5385 24.4794 58.8896 29.3918 54.2383 29.7972C54.2109 29.7972 54.1834 29.7972 54.1628 29.7972V29.804Z" fill="#407BFF"/>
<path d="M121.198 56.9905C118.752 58.1241 116.608 63.6136 117.302 71.4871C118.003 79.3607 101.693 73.8368 99.4803 82.6585C95.4748 98.6254 122.331 108.223 133.778 98.6254C140.861 92.6894 147.519 73.1223 146.543 62.4456C145.499 50.9651 127.69 43.2633 121.198 56.9905Z" fill="#263238"/>
<path d="M146.969 77.1346C147.271 77.0522 147.711 76.9148 148.089 76.7911L149.27 76.3926C150.061 76.1178 150.844 75.8155 151.62 75.4857C153.173 74.8399 154.698 74.1391 156.148 73.3215C159.033 71.7001 161.733 69.7352 163.781 67.3511C165.725 65.0426 167.12 61.8891 168.212 58.6669C168.769 57.0454 169.236 55.3759 169.641 53.6789C170.06 51.9956 170.411 50.2437 170.706 48.5742L173.509 48.7528C173.523 52.4972 173.097 56.1317 172.3 59.8074C171.888 61.6349 171.359 63.4624 170.644 65.2625C169.923 67.0557 169.044 68.8489 167.779 70.5184C165.334 73.7406 162.249 76.2209 158.944 78.1789C157.288 79.1546 155.584 80.0202 153.832 80.7691C152.953 81.1332 152.067 81.4768 151.167 81.7928C150.713 81.9508 150.26 82.102 149.799 82.2394C149.325 82.3837 148.899 82.5005 148.336 82.6447L146.976 77.1415L146.969 77.1346Z" fill="#7F3E3B"/>
<path d="M173.482 49.6941L174.65 45.4962L170.012 45.8603C170.012 45.8603 169.683 48.6085 171.283 50.2643L173.482 49.7009V49.6941Z" fill="#7F3E3B"/>
<path d="M175.344 40.6182L171.112 41.7243L170.012 45.8603L174.65 45.4962L175.344 40.6182Z" fill="#7F3E3B"/>
<path d="M141.72 78.1996C143.857 76.2621 149.284 74.7781 149.284 74.7781L155.227 83.7509C155.227 83.7509 148.446 88.2716 145.56 87.2205C142.558 86.1281 139.721 80.0065 141.713 78.1996H141.72Z" fill="#407BFF"/>
<path d="M122.146 205.248L125.849 209.315L136.478 201.737L132.774 197.677L122.146 205.248Z" fill="#7F3E3B"/>
<path d="M101.246 221.318L106.213 223.778L113.517 213.067L108.549 210.6L101.246 221.318Z" fill="#7F3E3B"/>
<path d="M107.003 223.173L103.17 218.261C103.032 218.082 102.792 218.034 102.599 218.144L98.2779 220.617C97.8314 220.871 97.7214 221.517 98.0443 221.923C99.4116 223.613 100.154 224.362 101.837 226.519C102.874 227.845 104.97 230.943 106.406 232.778C107.807 234.571 109.731 233.293 109.298 232.4C107.361 228.401 107.237 226.024 107.306 224.107C107.319 223.764 107.21 223.427 107.003 223.166V223.173Z" fill="#263238"/>
<path d="M126.955 209.391L124.427 203.317C124.338 203.098 124.097 202.96 123.857 202.995L118.505 203.675C117.948 203.743 117.632 204.307 117.852 204.815C118.773 206.924 119.329 207.907 120.435 210.579C121.122 212.222 122.716 216.543 123.657 218.81C124.578 221.029 127.017 220.562 126.838 219.559C126.035 215.059 126.303 212.167 126.976 210.394C127.1 210.078 127.086 209.721 126.948 209.398L126.955 209.391Z" fill="#263238"/>
<path opacity="0.2" d="M136.471 201.744L130.995 205.646L126.852 201.888L132.768 197.677L136.471 201.744Z" fill="black"/>
<path opacity="0.2" d="M108.549 210.607L113.517 213.073L109.745 218.59L104.777 216.124L108.549 210.607Z" fill="black"/>
<path d="M149.202 78.8934C149.202 78.8934 149.374 78.6461 146.364 111.48C137.446 112.105 128.233 112.751 123.898 113.053C123.637 103.881 124.324 97.4162 120.037 78.5843C120.037 78.5843 124.764 77.5812 129.607 77.3751C133.4 77.2102 136.505 77.1071 139.837 77.43C144.228 77.856 149.202 78.9003 149.202 78.9003V78.8934Z" fill="#407BFF"/>
<path d="M121.727 84.0257C120.057 83.2493 118.594 82.4317 117.076 81.5592C115.578 80.6935 114.121 79.7454 112.692 78.756C109.834 76.7774 107.093 74.5788 104.619 72.0093L103.706 71.0268L103.472 70.7794C103.341 70.6214 103.204 70.4634 103.094 70.3054C102.861 69.9825 102.696 69.6596 102.544 69.3366C101.995 68.0656 101.912 66.9595 101.885 65.9426C101.864 63.9227 102.215 62.157 102.627 60.4257C103.513 56.9904 104.722 53.8163 106.241 50.704L108.858 51.7139C108.46 53.2735 108.068 54.895 107.732 56.482C107.381 58.076 107.1 59.6699 106.9 61.2364C106.701 62.7891 106.591 64.3624 106.722 65.6884C106.784 66.3411 106.955 66.9182 107.106 67.1725C107.148 67.2274 107.175 67.2755 107.196 67.2824C107.203 67.2961 107.21 67.2824 107.216 67.2893L107.423 67.4885L108.268 68.2992C110.562 70.4222 113.146 72.3253 115.818 74.0979C117.158 74.9842 118.553 75.8017 119.934 76.6193C121.308 77.4232 122.778 78.2133 124.125 78.8935L121.72 84.0257H121.727Z" fill="#7F3E3B"/>
<path d="M128.879 79.8347C126.33 76.2827 121.349 76.3376 121.349 76.3376L115.317 85.2486C115.317 85.2486 122.057 89.8381 124.949 88.8212C127.958 87.7563 130.459 82.0264 128.886 79.8347H128.879Z" fill="#407BFF"/>
<path d="M139.83 77.4232L129.6 77.3682C128.041 78.0003 127.127 82.0745 137.508 85.5303C144.695 81.4424 140.868 77.8079 139.83 77.4232Z" fill="white"/>
<path d="M130.679 65.8602C131.304 69.1511 131.916 75.1902 129.607 77.3682C129.607 77.3682 130.5 80.7141 137.515 85.5303C142.427 80.6042 139.837 77.4231 139.837 77.4231C136.175 76.53 136.278 73.8024 136.931 71.2535L130.679 65.8602Z" fill="#7F3E3B"/>
<path d="M151.888 98.5361C151.854 98.5361 151.813 98.5361 151.778 98.5361C151.022 98.4742 150.459 97.8147 150.521 97.0589C150.768 93.9947 148.473 91.6794 145.815 88.9999C142.764 85.9288 139.315 82.4455 139.171 77.0247C139.15 76.2689 139.748 75.6369 140.511 75.6162C141.266 75.5956 141.898 76.1934 141.919 76.956C142.029 81.2844 144.942 84.2249 147.766 87.0693C150.638 89.9686 153.613 92.9641 153.262 97.2857C153.207 98.0071 152.603 98.5498 151.895 98.5498L151.888 98.5361Z" fill="#263238"/>
<path d="M131.785 105.496C131.675 105.496 131.565 105.482 131.455 105.455C130.72 105.276 130.267 104.527 130.452 103.792C131.778 98.4055 130.04 94.1871 128.199 89.7213C126.55 85.7227 124.846 81.5867 125.677 76.7499C125.808 76.001 126.516 75.4994 127.264 75.63C128.013 75.7605 128.515 76.4682 128.384 77.2171C127.69 81.2706 129.174 84.8707 130.741 88.677C132.582 93.1359 134.664 98.1994 133.125 104.452C132.974 105.077 132.41 105.496 131.792 105.496H131.785Z" fill="#263238"/>
<path opacity="0.2" d="M135.639 70.1405L132.857 70.4634C132.912 70.8482 133.194 71.8993 133.64 72.552C134.183 73.3696 135.392 73.7338 136.588 73.7612C136.56 72.9574 136.718 72.0917 136.931 71.2535L135.646 70.1405H135.639Z" fill="black"/>
<path d="M124.599 62.5555C126.612 67.6809 127.347 69.8932 130.858 71.7207C136.134 74.4757 141.988 70.8825 141.548 65.2625C141.156 60.2058 137.934 52.6758 132.142 52.2498C126.44 51.8307 122.586 57.4302 124.599 62.5555Z" fill="#7F3E3B"/>
<path d="M130.116 51.501C134.032 53.9056 130.679 68.0588 124.063 67.3236C117.447 66.5885 124.338 47.9489 130.116 51.501Z" fill="#263238"/>
<path d="M129.971 51.549C127.024 53.5071 129.03 56.9149 138.965 54.9018C138.965 54.9018 134.856 48.2993 129.971 51.549Z" fill="#263238"/>
<path d="M125.313 67.5366C125.767 68.5809 126.667 69.3229 127.546 69.6527C128.865 70.1474 129.648 68.9931 129.38 67.6878C129.14 66.506 128.164 64.8296 126.79 64.8983C125.437 64.9671 124.791 66.348 125.313 67.5435V67.5366Z" fill="#7F3E3B"/>
<path d="M146.357 111.48C146.357 111.48 158.381 150.731 159.349 167.618C160.353 185.186 134.265 206.031 134.265 206.031L127.773 198.907C127.773 198.907 148.968 180.906 146.062 167.866C142.056 149.893 129.91 112.634 129.91 112.634L146.364 111.48H146.357Z" fill="#263238"/>
<path opacity="0.2" d="M138.875 124.328C137.769 120.879 135.33 123.208 134.478 126.842C136.175 132.318 138.14 138.769 140.009 145.207C140.724 139.491 141.026 131.061 138.875 124.328Z" fill="black"/>
<path d="M126.028 198.563L134.265 207.062L137.79 205.117L129.078 195.643L126.028 198.563Z" fill="#407BFF"/>
<path d="M140.428 111.899C140.428 111.899 137.007 150.367 133.558 171.803C130.768 189.116 111.875 217.395 111.875 217.395L104.949 214.173C104.949 214.173 117.653 183.888 119.631 172.119C125.98 134.448 117.398 123.586 123.898 113.053L140.435 111.899H140.428Z" fill="#263238"/>
<path d="M104.461 214.241L112.273 218.082L114.836 214.894L105.698 210.593L104.461 214.241Z" fill="#407BFF"/>
<path d="M123.465 111.762L122.592 113.843C122.524 114.008 122.723 114.153 122.977 114.132L146.543 112.483C146.742 112.469 146.907 112.359 146.907 112.229L146.969 110.202C146.969 110.065 146.79 109.955 146.57 109.969L123.815 111.562C123.651 111.576 123.506 111.652 123.458 111.755L123.465 111.762Z" fill="white"/>
<path d="M126.694 114.091L126.083 114.132C125.959 114.139 125.863 114.084 125.87 114.008L125.973 111.377C125.973 111.301 126.076 111.233 126.199 111.219L126.811 111.178C126.935 111.171 127.031 111.226 127.024 111.301L126.921 113.933C126.921 114.008 126.818 114.077 126.694 114.091Z" fill="#263238"/>
<path d="M144.846 112.82L144.234 112.861C144.111 112.868 144.015 112.813 144.021 112.737L144.124 110.106C144.124 110.03 144.228 109.962 144.351 109.948L144.963 109.907C145.086 109.9 145.183 109.955 145.176 110.03L145.073 112.662C145.073 112.737 144.97 112.806 144.846 112.82Z" fill="#263238"/>
<path d="M135.77 113.452L135.159 113.493C135.035 113.5 134.939 113.445 134.946 113.369L135.049 110.738C135.049 110.662 135.152 110.594 135.275 110.58L135.887 110.539C136.01 110.532 136.107 110.587 136.1 110.662L135.997 113.294C135.997 113.369 135.894 113.438 135.77 113.452Z" fill="#263238"/>
<path d="M132.878 60.6318C132.548 60.7417 132.41 61.2364 132.575 61.7517L133.778 61.3601C133.613 60.8517 133.207 60.5219 132.878 60.6318Z" fill="#263238"/>
<path d="M138.092 58.9692C137.762 59.0791 137.625 59.5737 137.79 60.089L138.999 59.6974C138.834 59.189 138.429 58.8592 138.099 58.9692H138.092Z" fill="#263238"/>
<path d="M137.955 59.0447L139.061 58.2958C139.061 58.2958 138.745 59.4569 137.955 59.0447Z" fill="#263238"/>
<path d="M136.78 61.044C136.78 61.044 138.092 62.6448 139.178 63.27C138.786 63.9777 137.756 64.0464 137.756 64.0464L136.787 61.044H136.78Z" fill="#630F0F"/>
<path d="M136.835 66.1831C136.876 66.1487 136.89 66.0938 136.876 66.0457C136.856 65.977 136.78 65.9358 136.711 65.9632C134.849 66.5678 133.551 65.5441 133.537 65.5304C133.482 65.4823 133.4 65.4892 133.352 65.551C133.304 65.606 133.317 65.6884 133.372 65.7365C133.427 65.7846 134.788 66.8564 136.794 66.2106C136.814 66.2106 136.828 66.1968 136.842 66.1831H136.835Z" fill="#263238"/>
<path d="M131.139 60.3226C131.139 60.3226 131.201 60.2539 131.215 60.2126C131.6 59.1065 132.534 58.866 132.548 58.8592C132.692 58.8248 132.775 58.6805 132.74 58.5431C132.706 58.4057 132.562 58.3164 132.424 58.3508C132.376 58.3645 131.201 58.6668 130.72 60.0409C130.672 60.1783 130.748 60.3294 130.885 60.3775C130.974 60.4119 131.077 60.3844 131.146 60.3294L131.139 60.3226Z" fill="#263238"/>
<path d="M139.37 56.9286C139.37 56.9286 139.391 56.908 139.404 56.8943C139.494 56.7775 139.473 56.6126 139.363 56.5233C138.223 55.6232 137.069 55.9942 137.02 56.008C136.883 56.0561 136.807 56.2004 136.856 56.3378C136.904 56.4752 137.048 56.5508 137.185 56.5027C137.227 56.4889 138.127 56.2141 139.033 56.9286C139.137 57.0111 139.274 57.0042 139.37 56.9218V56.9286Z" fill="#263238"/>
<path d="M111.847 52.7514C111.689 52.7514 111.524 52.7102 111.373 52.614L90.4662 39.7388C90.0403 39.4777 89.9097 38.9212 90.1708 38.4952C90.4319 38.0692 90.9884 37.9387 91.4144 38.1998L112.321 51.075C112.747 51.3361 112.878 51.8926 112.617 52.3186C112.445 52.5934 112.149 52.7445 111.847 52.7445V52.7514Z" fill="#407BFF"/>
<path d="M95.2068 41.1678C96.3748 41.1128 97.5909 41.0579 97.7489 40.0067C97.9069 38.9555 96.7664 38.5433 95.6672 38.1448C95.5779 38.1104 95.4748 38.0761 95.3717 38.0349C95.3511 37.9318 95.3236 37.8287 95.2962 37.7257C95.3786 37.6295 95.4611 37.5402 95.5366 37.4577C96.3061 36.6058 97.11 35.7264 96.4916 34.8882C95.8733 34.05 94.7946 34.5515 93.7572 35.0325C93.661 35.0737 93.5511 35.1286 93.4343 35.1836C93.345 35.1286 93.2556 35.0737 93.1663 35.0187C93.1663 34.9088 93.1526 34.7989 93.1526 34.7027C93.0976 33.5347 93.0427 32.3186 91.9915 32.1606C90.9403 32.0026 90.5281 33.1431 90.1296 34.2424C90.0952 34.3317 90.0609 34.4347 90.0197 34.5378C89.9166 34.5584 89.8135 34.5859 89.7105 34.6134C89.6143 34.5309 89.525 34.4416 89.4425 34.3729C88.5906 33.6034 87.7112 32.7996 86.873 33.4248C86.0348 34.0431 86.5363 35.1218 87.0173 36.1592C87.0585 36.2554 87.1135 36.3653 87.1684 36.4821C87.1135 36.5714 87.0585 36.6608 87.0035 36.7501C86.8936 36.7501 86.7837 36.7638 86.6875 36.7638C85.5195 36.8188 84.3034 36.8737 84.1454 37.9249C83.9874 38.9761 85.1279 39.3883 86.2272 39.7868C86.3165 39.8212 86.4195 39.8555 86.5226 39.8967C86.5432 39.9998 86.5707 40.1029 86.5982 40.2059C86.5157 40.3021 86.4264 40.3914 86.3577 40.4739C85.5882 41.3258 84.7844 42.2052 85.4096 43.0434C86.0348 43.8816 87.1066 43.3801 88.144 42.8991C88.2402 42.8579 88.3501 42.8029 88.4669 42.748C88.5562 42.8029 88.6456 42.8579 88.7349 42.9129C88.7349 43.0228 88.7486 43.1327 88.7486 43.2289C88.8036 44.3969 88.8586 45.613 89.9097 45.771C90.9609 45.929 91.3731 44.7885 91.7716 43.6892C91.806 43.5999 91.8403 43.4969 91.8815 43.3938C91.9846 43.3732 92.0877 43.3457 92.1907 43.3182C92.2869 43.4007 92.3762 43.4831 92.4587 43.5587C93.3106 44.3282 94.19 45.132 95.0282 44.5137C95.8733 43.8954 95.3717 42.8167 94.8839 41.7793C94.8427 41.6831 94.7877 41.5731 94.7328 41.4563C94.7877 41.367 94.8427 41.2777 94.8977 41.1884C95.0076 41.1884 95.1175 41.1747 95.2137 41.1747L95.2068 41.1678Z" fill="#407BFF"/>
<path opacity="0.7" d="M95.2068 41.1678C96.3748 41.1128 97.5909 41.0579 97.7489 40.0067C97.9069 38.9555 96.7664 38.5433 95.6672 38.1448C95.5779 38.1104 95.4748 38.0761 95.3717 38.0349C95.3511 37.9318 95.3236 37.8287 95.2962 37.7257C95.3786 37.6295 95.4611 37.5402 95.5366 37.4577C96.3061 36.6058 97.11 35.7264 96.4916 34.8882C95.8733 34.05 94.7946 34.5515 93.7572 35.0325C93.661 35.0737 93.5511 35.1286 93.4343 35.1836C93.345 35.1286 93.2556 35.0737 93.1663 35.0187C93.1663 34.9088 93.1526 34.7989 93.1526 34.7027C93.0976 33.5347 93.0427 32.3186 91.9915 32.1606C90.9403 32.0026 90.5281 33.1431 90.1296 34.2424C90.0952 34.3317 90.0609 34.4347 90.0197 34.5378C89.9166 34.5584 89.8135 34.5859 89.7105 34.6134C89.6143 34.5309 89.525 34.4416 89.4425 34.3729C88.5906 33.6034 87.7112 32.7996 86.873 33.4248C86.0348 34.0431 86.5363 35.1218 87.0173 36.1592C87.0585 36.2554 87.1135 36.3653 87.1684 36.4821C87.1135 36.5714 87.0585 36.6608 87.0035 36.7501C86.8936 36.7501 86.7837 36.7638 86.6875 36.7638C85.5195 36.8188 84.3034 36.8737 84.1454 37.9249C83.9874 38.9761 85.1279 39.3883 86.2272 39.7868C86.3165 39.8212 86.4195 39.8555 86.5226 39.8967C86.5432 39.9998 86.5707 40.1029 86.5982 40.2059C86.5157 40.3021 86.4264 40.3914 86.3577 40.4739C85.5882 41.3258 84.7844 42.2052 85.4096 43.0434C86.0348 43.8816 87.1066 43.3801 88.144 42.8991C88.2402 42.8579 88.3501 42.8029 88.4669 42.748C88.5562 42.8029 88.6456 42.8579 88.7349 42.9129C88.7349 43.0228 88.7486 43.1327 88.7486 43.2289C88.8036 44.3969 88.8586 45.613 89.9097 45.771C90.9609 45.929 91.3731 44.7885 91.7716 43.6892C91.806 43.5999 91.8403 43.4969 91.8815 43.3938C91.9846 43.3732 92.0877 43.3457 92.1907 43.3182C92.2869 43.4007 92.3762 43.4831 92.4587 43.5587C93.3106 44.3282 94.19 45.132 95.0282 44.5137C95.8733 43.8954 95.3717 42.8167 94.8839 41.7793C94.8427 41.6831 94.7877 41.5731 94.7328 41.4563C94.7877 41.367 94.8427 41.2777 94.8977 41.1884C95.0076 41.1884 95.1175 41.1747 95.2137 41.1747L95.2068 41.1678Z" fill="white"/>
<path d="M105.609 52.9712L104.75 47.468L110.356 50.1887C110.356 50.1887 110.253 51.1917 108.955 52.6139C108.371 53.2529 107.471 53.514 106.639 53.2735L105.609 52.9712Z" fill="#7F3E3B"/>
<path d="M107.897 44.7748L110.768 47.3031L110.356 50.1887L104.75 47.468L107.897 44.7748Z" fill="#7F3E3B"/>
<path d="M108.803 225.804C108.858 225.763 108.913 225.722 108.968 225.667C109.126 225.509 109.126 225.344 109.099 225.234C108.934 224.547 107.038 223.887 106.825 223.812C106.777 223.798 106.722 223.812 106.687 223.846C106.653 223.887 106.646 223.942 106.667 223.991C106.976 224.664 107.594 225.804 108.288 225.921C108.474 225.955 108.645 225.914 108.81 225.804H108.803ZM107.038 224.169C107.787 224.458 108.755 224.932 108.845 225.296C108.858 225.344 108.858 225.406 108.783 225.481C108.639 225.633 108.494 225.688 108.329 225.66C107.952 225.598 107.484 225.042 107.038 224.162V224.169Z" fill="#407BFF"/>
<path d="M109.154 223.97C109.202 223.936 109.243 223.901 109.278 223.867C109.36 223.778 109.463 223.578 109.298 223.29C109.188 223.111 109.03 223.001 108.817 222.96C108.027 222.816 106.763 223.791 106.708 223.833C106.674 223.86 106.653 223.908 106.66 223.956C106.66 224.004 106.694 224.046 106.742 224.059C107.258 224.272 108.625 224.341 109.161 223.977L109.154 223.97ZM107.106 223.86C107.553 223.558 108.302 223.132 108.762 223.214C108.9 223.242 108.996 223.31 109.065 223.42C109.154 223.565 109.113 223.64 109.071 223.688C108.817 223.984 107.725 224.039 107.065 223.881C107.079 223.874 107.086 223.867 107.1 223.853L107.106 223.86Z" fill="#407BFF"/>
<path d="M127.079 212.503C127.271 212.97 127.525 213.383 127.855 213.568C128.082 213.699 128.316 213.719 128.57 213.637C128.755 213.575 128.817 213.444 128.838 213.348C128.982 212.641 127.182 210.964 126.818 210.634C126.777 210.593 126.715 210.586 126.667 210.614C126.619 210.641 126.591 210.696 126.598 210.751C126.68 211.232 126.838 211.912 127.079 212.503ZM128.529 213.032C128.57 213.135 128.59 213.225 128.577 213.293C128.577 213.328 128.556 213.362 128.48 213.389C128.309 213.451 128.144 213.438 127.986 213.348C127.567 213.101 127.182 212.276 126.935 211.108C127.574 211.72 128.329 212.551 128.529 213.039V213.032Z" fill="#407BFF"/>
<path d="M126.605 210.779C126.605 210.779 126.619 210.806 126.632 210.82C127.196 211.39 128.879 212.311 129.422 211.995C129.539 211.926 129.662 211.775 129.573 211.445C129.216 210.181 126.811 210.579 126.708 210.6C126.66 210.607 126.619 210.641 126.605 210.689C126.598 210.717 126.598 210.751 126.605 210.779ZM129.291 211.431C129.291 211.431 129.312 211.486 129.319 211.514C129.353 211.644 129.346 211.734 129.291 211.761C128.975 211.947 127.704 211.356 127.031 210.813C127.629 210.751 128.989 210.696 129.291 211.425V211.431Z" fill="#407BFF"/>
<path d="M132.74 60.7074L133.846 59.9585C133.846 59.9585 133.53 61.1196 132.74 60.7074Z" fill="#263238"/>
<path d="M222.558 240.686L217.233 240.693L215.797 228.36L221.122 228.353L222.558 240.686Z" fill="#FFC3BD"/>
<path d="M268.39 217.807L264.357 221.284L255.227 212.881L259.253 209.405L268.39 217.807Z" fill="#FFC3BD"/>
<path d="M263.574 221.153L268.487 216.907C268.652 216.763 268.885 216.763 269.057 216.893L272.801 219.916C273.193 220.232 273.186 220.844 272.801 221.167C271.2 222.507 269.971 223.407 267.978 225.124C266.755 226.182 263.169 229.508 261.472 230.964C259.816 232.393 258.181 230.888 258.751 230.133C261.293 226.746 262.867 223.757 263.121 221.971C263.169 221.648 263.327 221.359 263.574 221.146V221.153Z" fill="#263238"/>
<path d="M217.267 240.074H223.08C223.3 240.067 223.485 240.218 223.533 240.431L224.591 245.165C224.701 245.653 224.33 246.12 223.829 246.113C221.733 246.079 218.703 245.962 216.065 245.969C212.98 245.969 211.18 246.052 207.566 246.058C205.381 246.058 204.77 243.853 205.684 243.654C209.847 242.733 212.389 242.726 215.989 240.5C216.381 240.26 216.814 240.081 217.274 240.081L217.267 240.074Z" fill="#263238"/>
<path d="M199.974 87.6326C198.903 87.2273 197.982 86.8425 197.02 86.4028C196.065 85.9769 195.131 85.5303 194.196 85.07C192.334 84.1356 190.507 83.1256 188.721 82.0126C186.921 80.9202 185.182 79.6766 183.492 78.33C183.073 77.9865 182.647 77.6499 182.235 77.2926L181.012 76.1727C180.607 75.8017 180.222 75.3757 179.83 74.9773C179.631 74.7643 179.452 74.5994 179.233 74.3383C179.013 74.0772 178.786 73.823 178.587 73.5619C177.776 72.5108 177.185 71.439 176.69 70.3672C176.189 69.2954 175.797 68.2305 175.468 67.1724C174.815 65.0494 174.409 62.954 174.128 60.8653C173.571 56.6881 173.503 52.6208 173.825 48.4573L177.824 48.4161C178.092 50.278 178.381 52.236 178.765 54.1186C179.129 56.0079 179.535 57.8836 180.029 59.6974C180.517 61.5112 181.081 63.2837 181.775 64.9052C182.441 66.5266 183.3 67.9969 184.193 69.0137L184.53 69.3572C184.633 69.4671 184.839 69.632 184.99 69.7695C185.32 70.0511 185.622 70.3466 185.972 70.6214C186.666 71.171 187.367 71.7138 188.116 72.2291C189.607 73.2665 191.166 74.249 192.802 75.1628C194.437 76.0765 196.106 76.9559 197.81 77.7804C198.662 78.1995 199.514 78.6117 200.373 78.9965C201.218 79.3812 202.132 79.7797 202.901 80.1095L199.981 87.6326H199.974Z" fill="#FFC3BD"/>
<path d="M200.813 92.174C196.436 89.5701 192.252 85.7708 192.252 85.7708L194.375 74.8948C194.375 74.8948 200.936 76.7911 206.391 77.5193C213.083 78.4125 205.588 95.0184 200.806 92.174H200.813Z" fill="#263238"/>
<path d="M177.9 49.4123L178.271 42.6312L172.644 44.4381C172.644 44.4381 171.325 49.2955 174.987 50.5734L177.9 49.4123Z" fill="#FFC3BD"/>
<path d="M177.597 38.9761L172.946 40.9135L172.644 44.4381L178.278 42.6312L177.597 38.9761Z" fill="#FFC3BD"/>
<path opacity="0.2" d="M215.797 228.367L216.539 234.722L221.864 234.715L221.129 228.36L215.797 228.367Z" fill="black"/>
<path opacity="0.2" d="M259.26 209.405L255.227 212.888L259.94 217.216L263.966 213.733L259.26 209.405Z" fill="black"/>
<path d="M226.865 77.3269C226.914 75.7398 225.67 74.407 224.083 74.3726C208.885 74.0909 198.999 78.3506 198.319 78.6254C197.797 78.8316 197.432 79.2919 197.336 79.8415C196.704 83.6477 194.911 99.6009 203.698 124.568C212.19 123.359 227.759 121.14 231.895 120.542C231.489 116.385 226.247 97.3062 226.872 77.3269H226.865Z" fill="#263238"/>
<path d="M204.11 76.7155C202.441 78.9484 201.685 84.0943 207.216 87.8594C214.018 82.7821 217.508 77.3201 218.559 74.4757C212.52 74.7986 207.594 75.7811 204.11 76.7155Z" fill="white"/>
<path d="M202.819 78.8041C202.063 78.8041 201.445 78.1857 201.445 77.43C201.445 76.2964 202.427 75.3139 203.252 74.6955C206.041 72.5932 211.476 71.0611 218.353 73.0398C219.081 73.2528 219.5 74.0085 219.294 74.7436C219.081 75.4719 218.325 75.891 217.59 75.6849C209.621 73.3833 204.715 76.6536 204.179 77.5949C204.097 78.2751 203.52 78.8041 202.812 78.8041H202.819Z" fill="#407BFF"/>
<path d="M214.237 61.4081C214.031 65.3724 214.286 72.5451 217.35 74.7299C215.55 77.114 213.152 79.9102 208.597 80.7278C205.862 81.2156 204.907 80.1988 204.791 78.914C204.674 77.6636 205.381 76.4613 206.467 75.8292C209.428 74.1116 208.837 71.3497 207.772 68.732L214.231 61.4012L214.237 61.4081Z" fill="#FFC3BD"/>
<path d="M202.4 110.326C202.249 110.326 202.091 110.298 201.939 110.25C201.225 109.996 200.847 109.213 201.101 108.498C201.582 107.145 201.342 106.485 200.991 105.496L200.854 105.104C200.73 104.754 200.325 104.307 199.933 103.874C199.308 103.187 198.607 102.411 198.374 101.374C198.119 100.247 198.477 99.1887 198.758 98.3437C198.91 97.8902 199.081 97.3681 199.054 97.1001C199.013 96.7428 198.717 96.2207 198.429 95.726C197.968 94.9359 197.453 94.0359 197.46 92.9916C197.467 91.8236 198.064 90.8961 198.545 90.1472C198.779 89.7899 199.061 89.3434 199.088 89.1166C199.129 88.7937 199.033 88.4846 198.868 88.0036C198.648 87.3441 198.374 86.5265 198.635 85.5303C198.944 84.3554 199.707 83.6821 200.27 83.1943C200.524 82.9744 200.785 82.7477 200.84 82.5966C200.957 82.3218 200.916 82.0469 200.84 81.5797C200.737 80.9477 200.6 80.0889 201.149 79.2163C201.63 78.4674 201.582 78.2682 201.541 78.1102C201.5 77.9384 201.431 77.6842 201.452 77.3682C201.493 76.6124 202.139 76.0353 202.894 76.0628C203.609 76.0971 204.172 76.6811 204.2 77.3888V77.43C204.406 78.2064 204.461 79.1339 203.499 80.6522C203.499 80.7484 203.533 80.9683 203.561 81.1332C203.657 81.724 203.808 82.6241 203.389 83.6409C203.08 84.3898 202.53 84.8707 202.084 85.2623C201.644 85.6471 201.39 85.8806 201.3 86.2173C201.252 86.4097 201.335 86.6776 201.486 87.1311C201.685 87.7357 201.939 88.4983 201.823 89.4464C201.72 90.2984 201.266 91.006 200.861 91.6312C200.545 92.1259 200.215 92.6343 200.215 93.0053C200.215 93.3007 200.531 93.8573 200.82 94.3451C201.232 95.0596 201.699 95.8634 201.802 96.7909C201.898 97.6635 201.623 98.4811 201.383 99.2093C201.191 99.7864 200.991 100.384 201.074 100.769C201.149 101.099 201.596 101.587 201.987 102.026C202.544 102.638 203.169 103.325 203.471 104.211L203.595 104.568C204.007 105.716 204.516 107.138 203.712 109.412C203.513 109.975 202.984 110.326 202.413 110.326H202.4Z" fill="#407BFF"/>
<path d="M226.611 77.1002C227.36 77.7804 227.978 78.3644 228.617 79.0239C229.249 79.6698 229.868 80.3225 230.479 80.982C231.702 82.3012 232.856 83.689 233.969 85.1249C236.182 88.0105 238.209 91.1091 239.741 94.6817C240.118 95.5817 240.462 96.5093 240.744 97.4849C240.895 97.9658 241.012 98.4673 241.128 98.9689L241.17 99.1544L241.232 99.4773C241.273 99.6971 241.293 99.9239 241.314 100.144C241.341 100.597 241.335 101.051 241.273 101.49C241.163 102.377 240.881 103.174 240.531 103.84C240.187 104.506 239.782 105.07 239.37 105.544C238.545 106.499 237.679 107.179 236.821 107.756C235.103 108.904 233.379 109.666 231.64 110.298C230.775 110.614 229.902 110.882 229.023 111.109C228.136 111.343 227.291 111.549 226.336 111.714L225.1 107.914C225.766 107.529 226.522 107.124 227.216 106.712C227.917 106.286 228.61 105.867 229.277 105.434C230.61 104.568 231.881 103.641 232.87 102.7C233.351 102.225 233.756 101.745 233.99 101.36C234.231 100.968 234.21 100.707 234.141 100.79C234.127 100.803 234.114 100.831 234.107 100.858C234.1 100.872 234.107 100.886 234.093 100.893C234.093 100.893 234.093 100.913 234.093 100.899L234.052 100.776C233.949 100.453 233.846 100.13 233.715 99.8071C233.475 99.1544 233.166 98.5017 232.836 97.8421C232.176 96.523 231.386 95.2107 230.493 93.9328C229.614 92.6412 228.652 91.377 227.635 90.1403C226.632 88.8968 225.553 87.6876 224.468 86.4853C223.925 85.8875 223.368 85.2967 222.805 84.7264C222.248 84.1699 221.651 83.5447 221.149 83.0638L226.597 77.1071L226.611 77.1002Z" fill="#FFC3BD"/>
<path d="M224.839 74.4963C227.944 74.9498 232.815 82.7202 232.815 82.7202L224.907 93.3214C224.907 93.3214 220.689 89.309 219.459 85.7639C217.102 78.9965 218.738 73.6031 224.839 74.4963Z" fill="#263238"/>
<path d="M220.696 101.181C220.229 101.181 219.775 100.941 219.514 100.515C218.923 99.5254 218.923 98.4124 218.93 97.5192C218.93 97.0383 218.93 96.4955 218.82 96.2482C218.669 95.9184 218.222 95.5199 217.79 95.1352C217.102 94.5237 216.333 93.8367 216.01 92.8405C215.653 91.7275 215.928 90.6625 216.147 89.8037C216.251 89.3915 216.388 88.8762 216.34 88.6564C216.271 88.306 215.928 87.825 215.598 87.3578C215.083 86.6296 214.499 85.7983 214.43 84.7883C214.354 83.5722 214.918 82.6104 215.371 81.8409C215.543 81.5454 215.804 81.0989 215.818 80.9408C215.845 80.5423 215.639 79.979 215.447 79.4293C215.144 78.5911 214.835 77.7255 215.062 76.8186C215.584 74.7712 216.47 73.9124 216.896 73.507L216.986 73.4246C217.515 72.8749 218.38 72.8612 218.93 73.3902C219.48 73.9192 219.493 74.7849 218.964 75.3345C218.916 75.3826 218.868 75.4307 218.806 75.4926C218.511 75.7811 218.057 76.214 217.728 77.5056C217.728 77.643 217.906 78.1652 218.037 78.5087C218.305 79.2507 218.635 80.1713 218.566 81.147C218.504 81.9508 218.106 82.6378 217.748 83.2424C217.453 83.7371 217.157 84.2524 217.178 84.6234C217.192 84.857 217.577 85.3929 217.851 85.7845C218.325 86.4509 218.854 87.2067 219.04 88.1273C219.205 88.9655 218.999 89.7831 218.813 90.5045C218.669 91.0748 218.518 91.6587 218.628 92.016C218.717 92.2977 219.219 92.7443 219.624 93.1015C220.235 93.6443 220.929 94.2695 221.321 95.1146C221.685 95.9116 221.685 96.7772 221.678 97.5399C221.678 98.1513 221.678 98.7834 221.877 99.1201C222.269 99.7728 222.056 100.618 221.403 101.003C221.183 101.133 220.936 101.195 220.703 101.195L220.696 101.181Z" fill="#407BFF"/>
<path opacity="0.2" d="M211.599 64.4036L207.772 68.7389C208.054 69.4191 208.295 70.1198 208.446 70.8138C210.053 70.3397 212.053 68.2167 211.984 66.4716C211.95 65.5991 211.792 64.7815 211.599 64.4036Z" fill="black"/>
<path d="M203.568 50.1405C201.871 53.0948 202.956 57.2927 202.956 57.2927C204.53 58.3301 206.034 57.437 206.034 57.437L205.553 49.5978L203.561 50.1337L203.568 50.1405Z" fill="#263238"/>
<path d="M216.944 57.6431C215.646 62.7616 215.144 65.8258 212.018 67.99C207.326 71.2466 201.376 67.6602 201.122 62.2532C200.888 57.3889 203.059 49.8314 208.521 48.7253C213.901 47.6397 218.243 52.5178 216.944 57.6431Z" fill="#FFC3BD"/>
<path d="M201.981 63.6067C201.919 63.6067 201.857 63.6067 201.795 63.586L190.15 61.1195C189.511 60.9821 188.968 60.6111 188.611 60.0615C188.253 59.5187 188.137 58.866 188.267 58.2271C188.405 57.5881 188.776 57.0454 189.325 56.6881C189.875 56.3308 190.521 56.214 191.16 56.3446C191.647 56.4476 191.957 56.9286 191.854 57.4164C191.751 57.9042 191.27 58.2202 190.782 58.1103C190.617 58.0759 190.445 58.1103 190.301 58.1996C190.157 58.2889 190.06 58.4332 190.026 58.5981C189.992 58.763 190.026 58.9347 190.115 59.079C190.205 59.2233 190.349 59.3195 190.514 59.3538L202.159 61.8203C202.647 61.9234 202.956 62.4043 202.853 62.8921C202.764 63.3181 202.386 63.6067 201.974 63.6067H201.981Z" fill="#407BFF"/>
<path d="M201.932 63.8059L200.524 63.5105L200.971 61.415L202.379 61.7104C202.956 61.8341 203.327 62.4043 203.204 62.9814C203.08 63.5586 202.51 63.9296 201.932 63.8059Z" fill="white"/>
<path d="M213.763 54.8194C213.763 52.875 212.293 51.4528 207.388 51.8238C203.382 52.1261 201.438 50.2574 202.578 47.6535C205.821 49.3436 205.285 47.1313 211.469 46.8634C217.652 46.5954 219.445 48.9657 220.098 52.5521C223.884 58.1653 217.35 60.4944 217.35 60.4944L214.794 62.7273C214.794 62.7273 213.104 63.1944 211.86 61.786C211.86 61.786 211.359 57.2378 213.763 54.8262V54.8194Z" fill="#263238"/>
<path d="M207.195 45.8946L207.037 45.9839C206.391 46.3275 206.364 47.2412 206.989 47.626L221.335 56.4957C221.912 56.853 222.668 56.5026 222.771 55.8293C222.908 54.9224 222.496 54.0224 221.713 53.5414L209.483 45.9633C208.789 45.5305 207.924 45.503 207.202 45.8878L207.195 45.8946Z" fill="#407BFF"/>
<path d="M209.779 46.8427L213.454 41.4769C213.674 41.1609 214.1 41.0647 214.43 41.2639L224.557 47.3237C224.928 47.5435 225.024 48.0451 224.763 48.3886L220.366 54.1872L209.779 46.8359V46.8427Z" fill="#407BFF"/>
<path d="M209.779 46.8427L211.242 44.2319L222.551 51.707L220.366 54.1941L209.779 46.8427Z" fill="#407BFF"/>
<path opacity="0.6" d="M209.779 46.8427L211.242 44.2319L222.551 51.707L220.366 54.1941L209.779 46.8427Z" fill="white"/>
<path d="M217.597 63.9227C216.505 64.6715 215.192 64.8639 214.162 64.6647C212.609 64.3692 212.602 62.7822 213.681 61.6623C214.65 60.6523 216.635 59.5943 217.886 60.4737C219.115 61.3394 218.848 63.0639 217.597 63.9227Z" fill="#FFC3BD"/>
<path d="M214.54 233.492L223.554 233.472C223.554 233.472 222.138 201.414 220.194 184.939C219.603 179.923 220.242 173.053 220.304 165.379C220.387 155.712 220.833 145.18 221.273 136.914C221.74 128.209 222.132 121.937 222.132 121.937L203.691 124.568C203.691 124.568 201.857 170.215 204.729 186.21C207.711 202.843 214.54 233.492 214.54 233.492Z" fill="#407BFF"/>
<path opacity="0.2" d="M220.304 165.386C220.387 155.719 220.833 145.186 221.273 136.921L218.504 133.246C215.131 139.601 217.487 156.523 220.311 165.386H220.304Z" fill="black"/>
<path d="M212.479 123.318C212.479 123.318 223.939 168.546 229.373 183.166C235.33 199.181 257.274 217.89 257.274 217.89L262.812 211.789C262.812 211.789 251.207 193.699 242.661 176.289C238.566 153.692 231.888 120.535 231.888 120.535L212.479 123.311V123.318Z" fill="#407BFF"/>
<path d="M256.525 218.817L265.209 211.308L262.97 208.711L253.111 216.935L256.525 218.817Z" fill="#263238"/>
<path d="M213.413 233.705L224.152 233.692V230.222L212.135 230.057L213.413 233.705Z" fill="#263238"/>
<path d="M209.03 56.64C208.693 56.5301 208.288 56.8667 208.123 57.382L209.346 57.7736C209.511 57.2584 209.366 56.75 209.03 56.64Z" fill="#263238"/>
<path d="M203.671 55.6301C203.32 55.6095 203.004 56.0285 202.963 56.5713L204.248 56.6538C204.282 56.111 204.028 55.6575 203.671 55.6301Z" fill="#263238"/>
<path d="M205.519 57.1965C205.519 57.1965 204.097 59.45 202.819 60.4256C203.43 61.2638 204.763 61.1883 204.763 61.1883L205.519 57.2034V57.1965Z" fill="#ED847E"/>
<path d="M210.775 56.0835C210.816 56.0903 210.857 56.0903 210.905 56.0835C211.036 56.0422 211.111 55.9048 211.07 55.7674C210.665 54.4346 209.552 54.0979 209.504 54.0842C209.366 54.0429 209.229 54.1254 209.195 54.2559C209.153 54.3865 209.229 54.5307 209.366 54.5651C209.401 54.5788 210.266 54.8468 210.589 55.9117C210.617 56.001 210.692 56.0629 210.775 56.0835Z" fill="#263238"/>
<path d="M202.084 54.9087C202.166 54.9224 202.249 54.8949 202.31 54.8262C203.059 54.0018 203.959 54.1254 203.994 54.1254C204.131 54.1461 204.262 54.0499 204.282 53.9125C204.303 53.7751 204.214 53.6445 204.076 53.6239C204.028 53.6239 202.874 53.4453 201.939 54.4827C201.843 54.5858 201.857 54.7438 201.96 54.84C202.001 54.8743 202.042 54.8949 202.091 54.9018L202.084 54.9087Z" fill="#263238"/>
<path d="M262.818 223.035C263.189 222.713 263.526 222.287 263.753 221.977C263.78 221.936 263.787 221.881 263.76 221.833C263.732 221.792 263.684 221.764 263.636 221.771C263.416 221.806 261.458 222.101 261.197 222.719C261.156 222.816 261.135 222.967 261.259 223.139C261.424 223.372 261.63 223.489 261.87 223.489C262.179 223.489 262.509 223.297 262.812 223.029L262.818 223.035ZM263.368 222.074C262.798 222.809 262.248 223.235 261.877 223.235C261.712 223.235 261.575 223.152 261.465 222.987C261.41 222.905 261.417 222.857 261.431 222.822C261.561 222.5 262.585 222.218 263.368 222.074Z" fill="#407BFF"/>
<path d="M263.732 221.991C263.732 221.991 263.767 221.957 263.773 221.929C263.787 221.881 263.773 221.833 263.746 221.799C263.705 221.751 262.647 220.631 261.863 220.638C261.657 220.638 261.486 220.713 261.355 220.864C261.149 221.091 261.204 221.29 261.259 221.387C261.541 221.922 263.073 222.142 263.677 222.019C263.698 222.019 263.719 222.005 263.732 221.991ZM261.575 221.002C261.65 220.933 261.747 220.899 261.863 220.899C262.365 220.899 263.052 221.483 263.375 221.792C262.702 221.826 261.637 221.579 261.472 221.256C261.458 221.229 261.424 221.16 261.534 221.036C261.534 221.036 261.561 221.009 261.575 220.995V221.002Z" fill="#407BFF"/>
<path d="M216.745 240.809C216.786 240.796 216.821 240.754 216.828 240.706C216.834 240.651 216.807 240.603 216.759 240.576C216.518 240.452 214.375 239.367 213.729 239.731C213.605 239.799 213.53 239.916 213.523 240.067C213.502 240.322 213.585 240.528 213.763 240.679C214.347 241.194 215.873 240.981 216.731 240.809H216.745ZM213.901 239.93C214.299 239.793 215.46 240.232 216.305 240.631C215.131 240.83 214.251 240.775 213.928 240.486C213.811 240.383 213.763 240.253 213.777 240.081C213.777 240.012 213.805 239.978 213.86 239.944C213.873 239.937 213.887 239.93 213.908 239.923L213.901 239.93Z" fill="#407BFF"/>
<path d="M216.745 240.809C216.745 240.809 216.766 240.803 216.78 240.796C216.814 240.768 216.835 240.727 216.835 240.679C216.835 240.617 216.683 239.181 216.003 238.631C215.797 238.46 215.563 238.391 215.302 238.418C214.959 238.453 214.856 238.631 214.835 238.769C214.739 239.373 216.017 240.521 216.656 240.809C216.683 240.823 216.718 240.823 216.752 240.809H216.745ZM215.199 238.693C215.199 238.693 215.275 238.673 215.33 238.666C215.522 238.645 215.687 238.7 215.845 238.824C216.292 239.188 216.484 240.047 216.553 240.466C215.893 240.074 215.028 239.167 215.089 238.81C215.089 238.789 215.103 238.728 215.206 238.693H215.199Z" fill="#407BFF"/>
<path d="M225.759 107.584L220.641 109.206L224.619 113.163C224.619 113.163 229.263 111.15 227.807 109.103L225.759 107.584Z" fill="#FFC3BD"/>
<path d="M218.525 113.727L222.173 115.932L224.612 113.163L220.634 109.206L218.525 113.727Z" fill="#FFC3BD"/>
</g>
<defs>
<clipPath id="clip0_570_10610">
<rect width="343.523" height="256" fill="white" transform="translate(0.0304565)"/>
</clipPath>
</defs>
</svg>
