<svg width="278" height="256" viewBox="0 0 278 256" fill="none" xmlns="http://www.w3.org/2000/svg">
<g clip-path="url(#clip0_570_9500)">
<path d="M29.9705 176.178H14.2039V182.841H29.9705V176.178Z" fill="#EBEBEB"/>
<path d="M21.1762 184.58H5.40955V191.242H21.1762V184.58Z" fill="#EBEBEB"/>
<path d="M52.9597 0.869324H37.193V7.53205H52.9597V0.869324Z" fill="#EBEBEB"/>
<path d="M44.1594 9.27063H28.3927V15.9334H44.1594V9.27063Z" fill="#EBEBEB"/>
<path d="M35.4008 0.869324H19.6342V7.53205H35.4008V0.869324Z" fill="#EBEBEB"/>
<path d="M273.294 168.694H257.528V175.357H273.294V168.694Z" fill="#EBEBEB"/>
<path d="M178.67 0.869324H162.904V7.53205H178.67V0.869324Z" fill="#EBEBEB"/>
<path d="M265.411 104.299H249.644V110.962H265.411V104.299Z" fill="#EBEBEB"/>
<path d="M254.937 0H239.171V6.66273H254.937V0Z" fill="#EBEBEB"/>
<path d="M263.732 8.40137H247.965V15.0641H263.732V8.40137Z" fill="#EBEBEB"/>
<path d="M19.6341 56.7255H3.86743V63.3882H19.6341V56.7255Z" fill="#EBEBEB"/>
<path d="M37.711 90.8965H21.9443V97.5593H37.711V90.8965Z" fill="#EBEBEB"/>
<path d="M135.27 256C205.59 256 262.595 253.268 262.595 249.897C262.595 246.526 205.59 243.794 135.27 243.794C64.951 243.794 7.94604 246.526 7.94604 249.897C7.94604 253.268 64.951 256 135.27 256Z" fill="#EBEBEB"/>
<path d="M0.753418 229.325L35.2877 229.176L69.8219 229.129L138.896 229.028L207.965 229.123L242.505 229.176L277.039 229.325L242.505 229.468L207.965 229.522L138.896 229.623L69.8219 229.522L35.2877 229.468L0.753418 229.325Z" fill="#001640"/>
<path d="M257.528 25.2338H58.4019V224.359H257.528V25.2338Z" fill="#455A64"/>
<path d="M248.12 36.1061H67.8035V213.207H248.12V36.1061Z" fill="#DBDBDB"/>
<path d="M248.12 168.878H67.8035V175.172H248.12V168.878Z" fill="#455A64"/>
<path d="M248.12 121.864H67.8035V128.158H248.12V121.864Z" fill="#455A64"/>
<path d="M248.12 74.8381H67.8035V81.1316H248.12V74.8381Z" fill="#455A64"/>
<path d="M74.103 57.2733H87.9822C89.0004 57.2733 89.8221 58.1009 89.8221 59.1131V72.9923C89.8221 74.0105 88.9944 74.8321 87.9822 74.8321H74.103C73.0849 74.8321 72.2632 74.0045 72.2632 72.9923V59.1131C72.2632 58.0949 73.0908 57.2733 74.103 57.2733Z" fill="white"/>
<path d="M106.113 57.2733H92.2275C91.2114 57.2733 90.3877 58.097 90.3877 59.1131V72.9982C90.3877 74.0144 91.2114 74.8381 92.2275 74.8381H106.113C107.129 74.8381 107.953 74.0144 107.953 72.9982V59.1131C107.953 58.097 107.129 57.2733 106.113 57.2733Z" fill="white"/>
<path d="M87.9882 39.3214H74.103C73.0869 39.3214 72.2632 40.1451 72.2632 41.1613V55.0464C72.2632 56.0625 73.0869 56.8862 74.103 56.8862H87.9882C89.0043 56.8862 89.828 56.0625 89.828 55.0464V41.1613C89.828 40.1451 89.0043 39.3214 87.9882 39.3214Z" fill="white"/>
<path d="M106.113 39.3214H92.2275C91.2114 39.3214 90.3877 40.1451 90.3877 41.1613V55.0464C90.3877 56.0625 91.2114 56.8862 92.2275 56.8862H106.113C107.129 56.8862 107.953 56.0625 107.953 55.0464V41.1613C107.953 40.1451 107.129 39.3214 106.113 39.3214Z" fill="white"/>
<path d="M124.213 57.2733H110.328C109.312 57.2733 108.488 58.097 108.488 59.1131V72.9982C108.488 74.0144 109.312 74.8381 110.328 74.8381H124.213C125.23 74.8381 126.053 74.0144 126.053 72.9982V59.1131C126.053 58.097 125.23 57.2733 124.213 57.2733Z" fill="white"/>
<path d="M124.213 39.3214H110.328C109.312 39.3214 108.488 40.1451 108.488 41.1613V55.0464C108.488 56.0625 109.312 56.8862 110.328 56.8862H124.213C125.23 56.8862 126.053 56.0625 126.053 55.0464V41.1613C126.053 40.1451 125.23 39.3214 124.213 39.3214Z" fill="white"/>
<path d="M126.857 52.1288H71.0962V66.0616H126.857V52.1288Z" fill="#C7C7C7"/>
<path d="M145.381 57.2733H131.495C130.479 57.2733 129.656 58.097 129.656 59.1131V72.9982C129.656 74.0144 130.479 74.8381 131.495 74.8381H145.381C146.397 74.8381 147.22 74.0144 147.22 72.9982V59.1131C147.22 58.097 146.397 57.2733 145.381 57.2733Z" fill="white"/>
<path d="M163.511 57.2733H149.626C148.61 57.2733 147.786 58.097 147.786 59.1131V72.9982C147.786 74.0144 148.61 74.8381 149.626 74.8381H163.511C164.527 74.8381 165.351 74.0144 165.351 72.9982V59.1131C165.351 58.097 164.527 57.2733 163.511 57.2733Z" fill="white"/>
<path d="M145.381 39.3214H131.495C130.479 39.3214 129.656 40.1451 129.656 41.1613V55.0464C129.656 56.0625 130.479 56.8862 131.495 56.8862H145.381C146.397 56.8862 147.22 56.0625 147.22 55.0464V41.1613C147.22 40.1451 146.397 39.3214 145.381 39.3214Z" fill="white"/>
<path d="M163.511 39.3214H149.626C148.61 39.3214 147.786 40.1451 147.786 41.1613V55.0464C147.786 56.0625 148.61 56.8862 149.626 56.8862H163.511C164.527 56.8862 165.351 56.0625 165.351 55.0464V41.1613C165.351 40.1451 164.527 39.3214 163.511 39.3214Z" fill="white"/>
<path d="M181.612 57.2733H167.727C166.71 57.2733 165.887 58.097 165.887 59.1131V72.9982C165.887 74.0144 166.71 74.8381 167.727 74.8381H181.612C182.628 74.8381 183.452 74.0144 183.452 72.9982V59.1131C183.452 58.097 182.628 57.2733 181.612 57.2733Z" fill="white"/>
<path d="M181.612 39.3214H167.727C166.71 39.3214 165.887 40.1451 165.887 41.1613V55.0464C165.887 56.0625 166.71 56.8862 167.727 56.8862H181.612C182.628 56.8862 183.452 56.0625 183.452 55.0464V41.1613C183.452 40.1451 182.628 39.3214 181.612 39.3214Z" fill="white"/>
<path d="M184.255 52.1288H128.495V66.0616H184.255V52.1288Z" fill="#EBEBEB"/>
<path d="M86.2674 112.361V121.864H71.0962V112.361C71.0962 108.027 73.46 105.383 73.46 104.026C73.46 102.668 71.7035 100.572 71.7035 97.9284C71.7035 95.2848 75.1569 93.0817 75.1569 91.1168V85.5616H82.1948V91.1168C82.1948 93.0817 85.6482 95.2848 85.6482 97.9284C85.6482 100.572 83.8917 102.674 83.8917 104.026C83.8917 105.377 86.2555 108.027 86.2555 112.361H86.2674Z" fill="#C7C7C7"/>
<path d="M83.2844 83.6682H74.0732V86.7822H83.2844V83.6682Z" fill="#EBEBEB"/>
<path d="M86.2674 112.939H71.0962V118.458H86.2674V112.939Z" fill="white"/>
<path d="M103.124 112.361V121.864H87.9524V112.361C87.9524 108.027 90.3162 105.383 90.3162 104.026C90.3162 102.668 88.5597 100.572 88.5597 97.9284C88.5597 95.2848 92.0131 93.0817 92.0131 91.1168V85.5616H99.051V91.1168C99.051 93.0817 102.504 95.2848 102.504 97.9284C102.504 100.572 100.748 102.674 100.748 104.026C100.748 105.377 103.112 108.027 103.112 112.361H103.124Z" fill="#C7C7C7"/>
<path d="M100.147 83.6682H90.9354V86.7822H100.147V83.6682Z" fill="#EBEBEB"/>
<path d="M103.13 112.939H87.9584V118.458H103.13V112.939Z" fill="white"/>
<path d="M179.319 93.8319V118.042C179.319 119.733 177.95 121.102 176.259 121.102H162.344C160.653 121.102 159.284 119.733 159.284 118.042V93.8319C159.284 92.1469 160.653 90.7774 162.344 90.7774H162.439V89.3187H176.164V90.7774H176.259C177.95 90.7774 179.319 92.1469 179.319 93.8319Z" fill="white"/>
<path d="M175.544 95.3979H163.064C161.683 95.3979 160.564 96.5175 160.564 97.8986V117.369C160.564 118.75 161.683 119.87 163.064 119.87H175.544C176.926 119.87 178.045 118.75 178.045 117.369V97.8986C178.045 96.5175 176.926 95.3979 175.544 95.3979Z" fill="#A6A6A6"/>
<path d="M178.117 86.3297H160.415V89.2412H178.117V86.3297Z" fill="#C7C7C7"/>
<path d="M174.502 105.21H164.106V115.702H174.502V105.21Z" fill="#EBEBEB"/>
<path d="M80.7895 153.368V167.14C80.7895 168.098 80.0095 168.878 79.0509 168.878H71.1378C70.1792 168.878 69.3992 168.098 69.3992 167.14V153.368C69.3992 152.409 70.1792 151.629 71.1378 151.629H71.1914V150.802H78.9973V151.629H79.0509C80.0095 151.629 80.7895 152.409 80.7895 153.368Z" fill="white"/>
<path d="M79.0568 154.255H71.114C70.5615 154.255 70.1136 154.703 70.1136 155.255V167.176C70.1136 167.728 70.5615 168.176 71.114 168.176H79.0568C79.6093 168.176 80.0571 167.728 80.0571 167.176V155.255C80.0571 154.703 79.6093 154.255 79.0568 154.255Z" fill="#EBEBEB"/>
<path d="M80.0988 149.099H70.0303V150.754H80.0988V149.099Z" fill="#A6A6A6"/>
<path d="M80.7359 133.606V147.378C80.7359 148.337 79.9559 149.116 78.9973 149.116H71.0842C70.1256 149.116 69.3456 148.337 69.3456 147.378V133.606C69.3456 132.647 70.1256 131.867 71.0842 131.867H71.1378V131.04H78.9437V131.867H78.9973C79.9559 131.867 80.7359 132.647 80.7359 133.606Z" fill="white"/>
<path d="M79.0092 134.499H71.0663C70.5139 134.499 70.066 134.947 70.066 135.499V147.42C70.066 147.972 70.5139 148.42 71.0663 148.42H79.0092C79.5617 148.42 80.0095 147.972 80.0095 147.42V135.499C80.0095 134.947 79.5617 134.499 79.0092 134.499Z" fill="#EBEBEB"/>
<path d="M80.0512 129.337H69.9827V130.992H80.0512V129.337Z" fill="#A6A6A6"/>
<path d="M92.8468 153.368V167.14C92.8468 168.098 92.0668 168.878 91.1082 168.878H83.195C82.2364 168.878 81.4564 168.098 81.4564 167.14V153.368C81.4564 152.409 82.2364 151.629 83.195 151.629H83.2486V150.802H91.0546V151.629H91.1082C92.0668 151.629 92.8468 152.409 92.8468 153.368Z" fill="white"/>
<path d="M91.1141 154.255H83.1712C82.6187 154.255 82.1709 154.703 82.1709 155.255V167.176C82.1709 167.728 82.6187 168.176 83.1712 168.176H91.1141C91.6665 168.176 92.1144 167.728 92.1144 167.176V155.255C92.1144 154.703 91.6665 154.255 91.1141 154.255Z" fill="#EBEBEB"/>
<path d="M92.156 149.099H82.0875V150.754H92.156V149.099Z" fill="#A6A6A6"/>
<path d="M92.7932 133.606V147.378C92.7932 148.337 92.0132 149.116 91.0546 149.116H83.1415C82.1828 149.116 81.4028 148.337 81.4028 147.378V133.606C81.4028 132.647 82.1828 131.867 83.1415 131.867H83.195V131.04H91.001V131.867H91.0546C92.0132 131.867 92.7932 132.647 92.7932 133.606Z" fill="white"/>
<path d="M91.0665 134.499H83.1236C82.5711 134.499 82.1233 134.947 82.1233 135.499V147.42C82.1233 147.972 82.5711 148.42 83.1236 148.42H91.0665C91.6189 148.42 92.0668 147.972 92.0668 147.42V135.499C92.0668 134.947 91.6189 134.499 91.0665 134.499Z" fill="#EBEBEB"/>
<path d="M92.1084 129.337H82.0399V130.992H92.1084V129.337Z" fill="#A6A6A6"/>
<path d="M104.904 153.368V167.14C104.904 168.098 104.124 168.878 103.165 168.878H95.2523C94.2937 168.878 93.5137 168.098 93.5137 167.14V153.368C93.5137 152.409 94.2937 151.629 95.2523 151.629H95.3059V150.802H103.112V151.629H103.165C104.124 151.629 104.904 152.409 104.904 153.368Z" fill="white"/>
<path d="M103.171 154.255H95.2284C94.676 154.255 94.2281 154.703 94.2281 155.255V167.176C94.2281 167.728 94.676 168.176 95.2284 168.176H103.171C103.724 168.176 104.172 167.728 104.172 167.176V155.255C104.172 154.703 103.724 154.255 103.171 154.255Z" fill="#EBEBEB"/>
<path d="M104.213 149.099H94.1448V150.754H104.213V149.099Z" fill="#A6A6A6"/>
<path d="M104.85 133.606V147.378C104.85 148.337 104.07 149.116 103.112 149.116H95.1987C94.2401 149.116 93.4601 148.337 93.4601 147.378V133.606C93.4601 132.647 94.2401 131.867 95.1987 131.867H95.2523V131.04H103.058V131.867H103.112C104.07 131.867 104.85 132.647 104.85 133.606Z" fill="white"/>
<path d="M103.124 134.499H95.1808C94.6284 134.499 94.1805 134.947 94.1805 135.499V147.42C94.1805 147.972 94.6284 148.42 95.1808 148.42H103.124C103.676 148.42 104.124 147.972 104.124 147.42V135.499C104.124 134.947 103.676 134.499 103.124 134.499Z" fill="#EBEBEB"/>
<path d="M104.166 129.337H94.0972V130.992H104.166V129.337Z" fill="#A6A6A6"/>
<path d="M116.955 153.368V167.14C116.955 168.098 116.175 168.878 115.217 168.878H107.304C106.345 168.878 105.565 168.098 105.565 167.14V153.368C105.565 152.409 106.345 151.629 107.304 151.629H107.357V150.802H115.163V151.629H115.217C116.175 151.629 116.955 152.409 116.955 153.368Z" fill="white"/>
<path d="M115.229 154.255H107.286C106.733 154.255 106.285 154.703 106.285 155.255V167.176C106.285 167.728 106.733 168.176 107.286 168.176H115.229C115.781 168.176 116.229 167.728 116.229 167.176V155.255C116.229 154.703 115.781 154.255 115.229 154.255Z" fill="#EBEBEB"/>
<path d="M116.271 149.099H106.202V150.754H116.271V149.099Z" fill="#A6A6A6"/>
<path d="M116.908 133.606V147.378C116.908 148.337 116.128 149.116 115.169 149.116H107.256C106.297 149.116 105.517 148.337 105.517 147.378V133.606C105.517 132.647 106.297 131.867 107.256 131.867H107.31V131.04H115.115V131.867H115.169C116.128 131.867 116.908 132.647 116.908 133.606Z" fill="white"/>
<path d="M115.181 134.499H107.238C106.686 134.499 106.238 134.947 106.238 135.499V147.42C106.238 147.972 106.686 148.42 107.238 148.42H115.181C115.733 148.42 116.181 147.972 116.181 147.42V135.499C116.181 134.947 115.733 134.499 115.181 134.499Z" fill="#EBEBEB"/>
<path d="M116.217 129.337H106.148V130.992H116.217V129.337Z" fill="#A6A6A6"/>
<path d="M129.012 153.368V167.14C129.012 168.098 128.232 168.878 127.274 168.878H119.361C118.402 168.878 117.622 168.098 117.622 167.14V153.368C117.622 152.409 118.402 151.629 119.361 151.629H119.414V150.802H127.22V151.629H127.274C128.232 151.629 129.012 152.409 129.012 153.368Z" fill="white"/>
<path d="M127.286 154.255H119.343C118.79 154.255 118.343 154.703 118.343 155.255V167.176C118.343 167.728 118.79 168.176 119.343 168.176H127.286C127.838 168.176 128.286 167.728 128.286 167.176V155.255C128.286 154.703 127.838 154.255 127.286 154.255Z" fill="#EBEBEB"/>
<path d="M128.328 149.099H118.259V150.754H128.328V149.099Z" fill="#A6A6A6"/>
<path d="M128.965 133.606V147.378C128.965 148.337 128.185 149.116 127.226 149.116H119.313C118.354 149.116 117.574 148.337 117.574 147.378V133.606C117.574 132.647 118.354 131.867 119.313 131.867H119.367V131.04H127.173V131.867H127.226C128.185 131.867 128.965 132.647 128.965 133.606Z" fill="white"/>
<path d="M127.238 134.499H119.295C118.743 134.499 118.295 134.947 118.295 135.499V147.42C118.295 147.972 118.743 148.42 119.295 148.42H127.238C127.791 148.42 128.238 147.972 128.238 147.42V135.499C128.238 134.947 127.791 134.499 127.238 134.499Z" fill="#EBEBEB"/>
<path d="M128.274 129.337H118.206V130.992H128.274V129.337Z" fill="#A6A6A6"/>
<path d="M141.07 153.368V167.14C141.07 168.098 140.29 168.878 139.331 168.878H131.418C130.459 168.878 129.679 168.098 129.679 167.14V153.368C129.679 152.409 130.459 151.629 131.418 151.629H131.472V150.802H139.277V151.629H139.331C140.29 151.629 141.07 152.409 141.07 153.368Z" fill="white"/>
<path d="M139.349 154.255H131.4C130.848 154.255 130.4 154.703 130.4 155.255V167.176C130.4 167.728 130.848 168.176 131.4 168.176H139.349C139.901 168.176 140.349 167.728 140.349 167.176V155.255C140.349 154.703 139.901 154.255 139.349 154.255Z" fill="#EBEBEB"/>
<path d="M140.385 149.099H130.316V150.754H140.385V149.099Z" fill="#A6A6A6"/>
<path d="M141.022 133.606V147.378C141.022 148.337 140.242 149.116 139.283 149.116H131.37C130.412 149.116 129.632 148.337 129.632 147.378V133.606C129.632 132.647 130.412 131.867 131.37 131.867H131.424V131.04H139.23V131.867H139.283C140.242 131.867 141.022 132.647 141.022 133.606Z" fill="white"/>
<path d="M139.295 134.499H131.352C130.8 134.499 130.352 134.947 130.352 135.499V147.42C130.352 147.972 130.8 148.42 131.352 148.42H139.295C139.848 148.42 140.296 147.972 140.296 147.42V135.499C140.296 134.947 139.848 134.499 139.295 134.499Z" fill="#EBEBEB"/>
<path d="M140.331 129.337H130.263V130.992H140.331V129.337Z" fill="#A6A6A6"/>
<path d="M153.127 153.368V167.14C153.127 168.098 152.347 168.878 151.388 168.878H143.475C142.517 168.878 141.737 168.098 141.737 167.14V153.368C141.737 152.409 142.517 151.629 143.475 151.629H143.529V150.802H151.335V151.629H151.388C152.347 151.629 153.127 152.409 153.127 153.368Z" fill="white"/>
<path d="M151.4 154.255H143.457C142.905 154.255 142.457 154.703 142.457 155.255V167.176C142.457 167.728 142.905 168.176 143.457 168.176H151.4C151.953 168.176 152.401 167.728 152.401 167.176V155.255C152.401 154.703 151.953 154.255 151.4 154.255Z" fill="#EBEBEB"/>
<path d="M152.442 149.099H142.374V150.754H152.442V149.099Z" fill="#A6A6A6"/>
<path d="M153.079 133.606V147.378C153.079 148.337 152.299 149.116 151.341 149.116H143.428C142.469 149.116 141.689 148.337 141.689 147.378V133.606C141.689 132.647 142.469 131.867 143.428 131.867H143.481V131.04H151.287V131.867H151.341C152.299 131.867 153.079 132.647 153.079 133.606Z" fill="white"/>
<path d="M151.353 134.499H143.41C142.857 134.499 142.409 134.947 142.409 135.499V147.42C142.409 147.972 142.857 148.42 143.41 148.42H151.353C151.905 148.42 152.353 147.972 152.353 147.42V135.499C152.353 134.947 151.905 134.499 151.353 134.499Z" fill="#EBEBEB"/>
<path d="M152.389 129.337H142.32V130.992H152.389V129.337Z" fill="#A6A6A6"/>
<path d="M201.505 93.8319V118.042C201.505 119.733 200.135 121.102 198.444 121.102H184.529C182.838 121.102 181.469 119.733 181.469 118.042V93.8319C181.469 92.1469 182.838 90.7774 184.529 90.7774H184.625V89.3187H198.349V90.7774H198.444C200.135 90.7774 201.505 92.1469 201.505 93.8319Z" fill="white"/>
<path d="M197.724 95.3979H185.244C183.863 95.3979 182.743 96.5175 182.743 97.8986V117.369C182.743 118.75 183.863 119.87 185.244 119.87H197.724C199.105 119.87 200.225 118.75 200.225 117.369V97.8986C200.225 96.5175 199.105 95.3979 197.724 95.3979Z" fill="#A6A6A6"/>
<path d="M200.296 86.3297H182.594V89.2412H200.296V86.3297Z" fill="#C7C7C7"/>
<path d="M196.688 105.21H186.292V115.702H196.688V105.21Z" fill="#EBEBEB"/>
<path d="M223.684 93.8319V118.042C223.684 119.733 222.315 121.102 220.624 121.102H206.709C205.018 121.102 203.648 119.733 203.648 118.042V93.8319C203.648 92.1469 205.018 90.7774 206.709 90.7774H206.804V89.3187H220.528V90.7774H220.624C222.315 90.7774 223.684 92.1469 223.684 93.8319Z" fill="white"/>
<path d="M219.909 95.3979H207.429C206.048 95.3979 204.928 96.5175 204.928 97.8986V117.369C204.928 118.75 206.048 119.87 207.429 119.87H219.909C221.29 119.87 222.41 118.75 222.41 117.369V97.8986C222.41 96.5175 221.29 95.3979 219.909 95.3979Z" fill="#A6A6A6"/>
<path d="M222.481 86.3297H204.78V89.2412H222.481V86.3297Z" fill="#C7C7C7"/>
<path d="M218.867 105.21H208.471V115.702H218.867V105.21Z" fill="#EBEBEB"/>
<path d="M245.869 93.8319V118.042C245.869 119.733 244.5 121.102 242.809 121.102H228.894C227.203 121.102 225.833 119.733 225.833 118.042V93.8319C225.833 92.1469 227.203 90.7774 228.894 90.7774H228.989V89.3187H242.714V90.7774H242.809C244.5 90.7774 245.869 92.1469 245.869 93.8319Z" fill="white"/>
<path d="M242.088 95.3979H229.608C228.227 95.3979 227.108 96.5175 227.108 97.8986V117.369C227.108 118.75 228.227 119.87 229.608 119.87H242.088C243.47 119.87 244.589 118.75 244.589 117.369V97.8986C244.589 96.5175 243.47 95.3979 242.088 95.3979Z" fill="#A6A6A6"/>
<path d="M244.661 86.3297H226.959V89.2412H244.661V86.3297Z" fill="#C7C7C7"/>
<path d="M241.052 105.21H230.656V115.702H241.052V105.21Z" fill="#EBEBEB"/>
<path d="M182.743 130.135H155.27V168.819H182.743V130.135Z" fill="#C7C7C7"/>
<path d="M178.831 141.489H159.188V143.186H178.831V141.489Z" fill="#A6A6A6"/>
<path d="M176.819 144.71H161.201V146.407H176.819V144.71Z" fill="#A6A6A6"/>
<path d="M176.819 135.565H161.201V137.262H176.819V135.565Z" fill="#EBEBEB"/>
<path d="M179.683 157.214C179.683 160.501 174.901 163.168 169.007 163.168C163.112 163.168 158.331 160.501 158.331 157.214C158.331 153.927 163.112 151.26 169.007 151.26C174.901 151.26 179.683 153.927 179.683 157.214Z" fill="white"/>
<path d="M213.097 130.135H185.625V168.819H213.097V130.135Z" fill="#C7C7C7"/>
<path d="M209.18 141.489H189.537V143.186H209.18V141.489Z" fill="#A6A6A6"/>
<path d="M207.167 144.71H191.549V146.407H207.167V144.71Z" fill="#A6A6A6"/>
<path d="M207.167 135.565H191.549V137.262H207.167V135.565Z" fill="#EBEBEB"/>
<path d="M210.031 157.214C210.031 160.501 205.25 163.168 199.355 163.168C193.461 163.168 188.679 160.501 188.679 157.214C188.679 153.927 193.461 151.26 199.355 151.26C205.25 151.26 210.031 153.927 210.031 157.214Z" fill="white"/>
<path d="M243.446 130.135H215.973V168.819H243.446V130.135Z" fill="#C7C7C7"/>
<path d="M239.528 141.489H219.885V143.186H239.528V141.489Z" fill="#A6A6A6"/>
<path d="M237.516 144.71H221.898V146.407H237.516V144.71Z" fill="#A6A6A6"/>
<path d="M237.516 135.565H221.898V137.262H237.516V135.565Z" fill="#EBEBEB"/>
<path d="M240.385 157.214C240.385 160.501 235.604 163.168 229.71 163.168C223.815 163.168 219.034 160.501 219.034 157.214C219.034 153.927 223.815 151.26 229.71 151.26C235.604 151.26 240.385 153.927 240.385 157.214Z" fill="white"/>
<path d="M117.461 213.201H136.842V188.307H117.461V213.201Z" fill="#EBEBEB"/>
<path d="M120.182 200.632H134.413V195.327H120.182V200.632Z" fill="white"/>
<path d="M120.182 211.219H134.413V203.157H120.182V211.219Z" fill="white"/>
<path d="M116.33 192.189H137.974V188.307H116.33V192.189Z" fill="#C7C7C7"/>
<path d="M94.7462 213.201H114.127V188.307H94.7462V213.201Z" fill="#EBEBEB"/>
<path d="M97.4672 200.632H111.698V195.327H97.4672V200.632Z" fill="white"/>
<path d="M97.4672 211.219H111.698V203.157H97.4672V211.219Z" fill="white"/>
<path d="M93.6148 192.189H115.258V188.307H93.6148V192.189Z" fill="#C7C7C7"/>
<path d="M140.177 213.201H159.557V188.307H140.177V213.201Z" fill="#EBEBEB"/>
<path d="M142.892 200.632H157.122V195.327H142.892V200.632Z" fill="white"/>
<path d="M142.892 211.219H157.122V203.157H142.892V211.219Z" fill="white"/>
<path d="M139.045 192.189H160.689V188.307H139.045V192.189Z" fill="#C7C7C7"/>
<path d="M72.037 213.201H91.4178V188.307H72.037V213.201Z" fill="#EBEBEB"/>
<path d="M74.7461 200.632H88.9766V195.327H74.7461V200.632Z" fill="white"/>
<path d="M74.7461 211.219H88.9766V203.157H74.7461V211.219Z" fill="white"/>
<path d="M70.9056 192.189H92.5491V188.307H70.9056V192.189Z" fill="#C7C7C7"/>
<path d="M248.12 224.354H67.8035V229.17H248.12V224.354Z" fill="#001640"/>
<path d="M188.108 74.8381C188.108 74.8381 184.928 65.8711 186.25 61.5364C187.137 58.6248 191.513 56.6838 191.513 53.5995V50.2354H195.3C195.3 50.2354 201.862 63.9419 196.408 74.844H188.108V74.8381Z" fill="#EBEBEB"/>
<path d="M195.122 50.801H190.96C190.805 50.801 190.68 50.9263 190.68 51.0809V51.6584C190.68 51.813 190.805 51.9383 190.96 51.9383H195.122C195.276 51.9383 195.402 51.813 195.402 51.6584V51.0809C195.402 50.9263 195.276 50.801 195.122 50.801Z" fill="#EBEBEB"/>
<path d="M195.122 51.9383H190.96C190.805 51.9383 190.68 52.0636 190.68 52.2181V52.7957C190.68 52.9502 190.805 53.0755 190.96 53.0755H195.122C195.276 53.0755 195.402 52.9502 195.402 52.7957V52.2181C195.402 52.0636 195.276 51.9383 195.122 51.9383Z" fill="#EBEBEB"/>
<path d="M195.122 53.0756H190.96C190.805 53.0756 190.68 53.2009 190.68 53.3554V53.933C190.68 54.0875 190.805 54.2128 190.96 54.2128H195.122C195.276 54.2128 195.402 54.0875 195.402 53.933V53.3554C195.402 53.2009 195.276 53.0756 195.122 53.0756Z" fill="#EBEBEB"/>
<path d="M188.834 45.3232C188.834 45.3232 189.483 46.1568 189.4 47.0202C189.316 47.8835 188.917 48.6933 189.048 48.7469C189.179 48.7945 190.329 47.9907 190.501 46.9249C190.674 45.865 190.394 45.3173 190.394 45.3173H188.834V45.3232Z" fill="#EBEBEB"/>
<path d="M195.664 49.6221V47.294C195.664 46.9427 196.116 46.2163 196.926 46.2163C198.325 46.2163 200.022 47.8775 200.105 47.3119C200.189 46.7462 199.23 42.5366 195.932 42.5366H188.12V45.3172H189.709C190.061 45.3172 191.216 45.5316 191.216 47.2285V49.6161H195.664V49.6221Z" fill="white"/>
<path d="M195.842 48.1871H191.043C190.882 48.1871 190.751 48.3178 190.751 48.4789V50.414C190.751 50.5751 190.882 50.7058 191.043 50.7058H195.842C196.003 50.7058 196.134 50.5751 196.134 50.414V48.4789C196.134 48.3178 196.003 48.1871 195.842 48.1871Z" fill="#C7C7C7"/>
<path d="M188.12 42.1556V45.7102L186.667 45.3946V42.4711L188.12 42.1556Z" fill="#C7C7C7"/>
<path d="M193.443 56.0765C195.824 56.0765 197.224 59.4644 197.224 64.0551C197.224 67.0084 196.735 69.4912 196.414 70.8786C196.247 71.5871 195.616 72.0873 194.89 72.0873H189.828C189.12 72.0873 188.501 71.6169 188.316 70.9262C187.685 68.5564 186.494 63.2036 187.941 61.1673C189.888 58.4343 191.543 57.7675 192.252 56.0765H193.449H193.443Z" fill="white"/>
<path d="M218.289 74.8381C218.289 74.8381 215.11 65.8711 216.432 61.5364C217.319 58.6248 221.695 56.6838 221.695 53.5995V50.2354H225.482C225.482 50.2354 232.044 63.9419 226.59 74.844H218.289V74.8381Z" fill="#EBEBEB"/>
<path d="M225.309 50.801H221.147C220.993 50.801 220.868 50.9263 220.868 51.0809V51.6584C220.868 51.813 220.993 51.9383 221.147 51.9383H225.309C225.464 51.9383 225.589 51.813 225.589 51.6584V51.0809C225.589 50.9263 225.464 50.801 225.309 50.801Z" fill="#EBEBEB"/>
<path d="M225.309 51.9383H221.147C220.993 51.9383 220.868 52.0636 220.868 52.2181V52.7957C220.868 52.9502 220.993 53.0755 221.147 53.0755H225.309C225.464 53.0755 225.589 52.9502 225.589 52.7957V52.2181C225.589 52.0636 225.464 51.9383 225.309 51.9383Z" fill="#EBEBEB"/>
<path d="M225.309 53.0756H221.147C220.993 53.0756 220.868 53.2009 220.868 53.3554V53.933C220.868 54.0875 220.993 54.2128 221.147 54.2128H225.309C225.464 54.2128 225.589 54.0875 225.589 53.933V53.3554C225.589 53.2009 225.464 53.0756 225.309 53.0756Z" fill="#EBEBEB"/>
<path d="M219.022 45.3232C219.022 45.3232 219.671 46.1568 219.587 47.0202C219.504 47.8835 219.105 48.6933 219.236 48.7469C219.367 48.7945 220.516 47.9907 220.689 46.9249C220.862 45.865 220.582 45.3173 220.582 45.3173H219.022V45.3232Z" fill="#EBEBEB"/>
<path d="M225.851 49.6221V47.294C225.851 46.9427 226.304 46.2163 227.113 46.2163C228.513 46.2163 230.21 47.8775 230.293 47.3119C230.376 46.7462 229.418 42.5366 226.119 42.5366H218.307V45.3172H219.897C220.248 45.3172 221.403 45.5316 221.403 47.2285V49.6161H225.851V49.6221Z" fill="white"/>
<path d="M226.03 48.1871H221.231C221.07 48.1871 220.939 48.3178 220.939 48.4789V50.414C220.939 50.5751 221.07 50.7058 221.231 50.7058H226.03C226.191 50.7058 226.322 50.5751 226.322 50.414V48.4789C226.322 48.3178 226.191 48.1871 226.03 48.1871Z" fill="#C7C7C7"/>
<path d="M218.307 42.1556V45.7102L216.854 45.3946V42.4711L218.307 42.1556Z" fill="#C7C7C7"/>
<path d="M223.63 56.0765C226.012 56.0765 227.411 59.4644 227.411 64.0551C227.411 67.0084 226.923 69.4912 226.601 70.8786C226.435 71.5871 225.804 72.0873 225.077 72.0873H220.016C219.308 72.0873 218.688 71.6169 218.504 70.9262C217.873 68.5564 216.682 63.2036 218.129 61.1673C220.076 58.4343 221.731 57.7675 222.439 56.0765H223.636H223.63Z" fill="white"/>
<path d="M233.383 74.8381C233.383 74.8381 230.204 65.8711 231.526 61.5364C232.413 58.6248 236.789 56.6838 236.789 53.5995V50.2354H240.576C240.576 50.2354 247.138 63.9419 241.683 74.844H233.383V74.8381Z" fill="#EBEBEB"/>
<path d="M240.403 50.801H236.241C236.087 50.801 235.961 50.9263 235.961 51.0809V51.6584C235.961 51.813 236.087 51.9383 236.241 51.9383H240.403C240.558 51.9383 240.683 51.813 240.683 51.6584V51.0809C240.683 50.9263 240.558 50.801 240.403 50.801Z" fill="#EBEBEB"/>
<path d="M240.403 51.9383H236.241C236.087 51.9383 235.961 52.0636 235.961 52.2181V52.7957C235.961 52.9502 236.087 53.0755 236.241 53.0755H240.403C240.558 53.0755 240.683 52.9502 240.683 52.7957V52.2181C240.683 52.0636 240.558 51.9383 240.403 51.9383Z" fill="#EBEBEB"/>
<path d="M240.403 53.0756H236.241C236.087 53.0756 235.961 53.2009 235.961 53.3554V53.933C235.961 54.0875 236.087 54.2128 236.241 54.2128H240.403C240.558 54.2128 240.683 54.0875 240.683 53.933V53.3554C240.683 53.2009 240.558 53.0756 240.403 53.0756Z" fill="#EBEBEB"/>
<path d="M234.116 45.3232C234.116 45.3232 234.765 46.1568 234.681 47.0202C234.598 47.8835 234.199 48.6933 234.33 48.7469C234.461 48.7945 235.61 47.9907 235.783 46.9249C235.956 45.865 235.676 45.3173 235.676 45.3173H234.116V45.3232Z" fill="#EBEBEB"/>
<path d="M240.945 49.6221V47.294C240.945 46.9427 241.398 46.2163 242.207 46.2163C243.607 46.2163 245.304 47.8775 245.387 47.3119C245.47 46.7462 244.512 42.5366 241.213 42.5366H233.401V45.3172H234.991C235.342 45.3172 236.497 45.5316 236.497 47.2285V49.6161H240.945V49.6221Z" fill="white"/>
<path d="M241.124 48.1871H236.325C236.164 48.1871 236.033 48.3178 236.033 48.4789V50.414C236.033 50.5751 236.164 50.7058 236.325 50.7058H241.124C241.285 50.7058 241.416 50.5751 241.416 50.414V48.4789C241.416 48.3178 241.285 48.1871 241.124 48.1871Z" fill="#C7C7C7"/>
<path d="M233.401 42.1556V45.7102L231.942 45.3946V42.4711L233.401 42.1556Z" fill="#C7C7C7"/>
<path d="M238.724 56.0765C241.106 56.0765 242.505 59.4644 242.505 64.0551C242.505 67.0084 242.017 69.4912 241.695 70.8786C241.529 71.5871 240.897 72.0873 240.171 72.0873H235.11C234.401 72.0873 233.782 71.6169 233.598 70.9262C232.966 68.5564 231.776 63.2036 233.222 61.1673C235.17 58.4343 236.825 57.7675 237.533 56.0765H238.73H238.724Z" fill="white"/>
<path d="M118.956 107.485H108.197C106.697 107.485 105.482 108.7 105.482 110.2V119.149C105.482 120.649 106.697 121.864 108.197 121.864H118.956C120.455 121.864 121.671 120.649 121.671 119.149V110.2C121.671 108.7 120.455 107.485 118.956 107.485Z" fill="white"/>
<path d="M119.837 105.681H107.315V107.479H119.837V105.681Z" fill="#A6A6A6"/>
<path d="M121.778 110.968H105.482V118.375H121.778V110.968Z" fill="#EBEBEB"/>
<path d="M118.515 114.672C118.515 116.392 116.306 117.786 113.573 117.786C110.84 117.786 108.631 116.392 108.631 114.672C108.631 112.951 110.84 111.558 113.573 111.558C116.306 111.558 118.515 112.951 118.515 114.672Z" fill="white"/>
<path d="M136.717 107.485H125.958C124.459 107.485 123.243 108.7 123.243 110.2V119.149C123.243 120.649 124.459 121.864 125.958 121.864H136.717C138.217 121.864 139.432 120.649 139.432 119.149V110.2C139.432 108.7 138.217 107.485 136.717 107.485Z" fill="white"/>
<path d="M137.598 105.681H125.077V107.479H137.598V105.681Z" fill="#A6A6A6"/>
<path d="M139.54 110.968H123.243V118.375H139.54V110.968Z" fill="#EBEBEB"/>
<path d="M136.277 114.672C136.277 116.392 134.068 117.786 131.335 117.786C128.602 117.786 126.393 116.392 126.393 114.672C126.393 112.951 128.602 111.558 131.335 111.558C134.068 111.558 136.277 112.951 136.277 114.672Z" fill="white"/>
<path d="M154.484 107.485H143.725C142.226 107.485 141.01 108.7 141.01 110.2V119.149C141.01 120.649 142.226 121.864 143.725 121.864H154.484C155.984 121.864 157.2 120.649 157.2 119.149V110.2C157.2 108.7 155.984 107.485 154.484 107.485Z" fill="white"/>
<path d="M155.366 105.681H142.844V107.479H155.366V105.681Z" fill="#A6A6A6"/>
<path d="M157.307 110.968H141.01V118.375H157.307V110.968Z" fill="#EBEBEB"/>
<path d="M154.044 114.672C154.044 116.392 151.835 117.786 149.102 117.786C146.369 117.786 144.16 116.392 144.16 114.672C144.16 112.951 146.369 111.558 149.102 111.558C151.835 111.558 154.044 112.951 154.044 114.672Z" fill="white"/>
<path d="M118.956 90.9203H108.197C106.697 90.9203 105.482 92.1359 105.482 93.6355V102.585C105.482 104.084 106.697 105.3 108.197 105.3H118.956C120.455 105.3 121.671 104.084 121.671 102.585V93.6355C121.671 92.1359 120.455 90.9203 118.956 90.9203Z" fill="white"/>
<path d="M119.837 89.1222H107.315V90.9204H119.837V89.1222Z" fill="#A6A6A6"/>
<path d="M121.778 94.4095H105.482V101.816H121.778V94.4095Z" fill="#EBEBEB"/>
<path d="M118.515 98.113C118.515 99.8338 116.306 101.227 113.573 101.227C110.84 101.227 108.631 99.8338 108.631 98.113C108.631 96.3922 110.84 94.999 113.573 94.999C116.306 94.999 118.515 96.3922 118.515 98.113Z" fill="white"/>
<path d="M154.484 90.9203H143.725C142.226 90.9203 141.01 92.1359 141.01 93.6355V102.585C141.01 104.084 142.226 105.3 143.725 105.3H154.484C155.984 105.3 157.2 104.084 157.2 102.585V93.6355C157.2 92.1359 155.984 90.9203 154.484 90.9203Z" fill="white"/>
<path d="M155.366 89.1222H142.844V90.9204H155.366V89.1222Z" fill="#A6A6A6"/>
<path d="M157.307 94.4095H141.01V101.816H157.307V94.4095Z" fill="#EBEBEB"/>
<path d="M154.044 98.113C154.044 99.8338 151.835 101.227 149.102 101.227C146.369 101.227 144.16 99.8338 144.16 98.113C144.16 96.3922 146.369 94.999 149.102 94.999C151.835 94.999 154.044 96.3922 154.044 98.113Z" fill="white"/>
<path d="M234.503 178.131H228.429V185.443H234.503V178.131Z" fill="#EBEBEB"/>
<path d="M244.845 210.004L240.278 188.283C239.665 185.407 237.349 183.252 234.509 182.799C234.145 182.74 233.77 182.71 233.395 182.71H229.442C229.09 182.71 228.751 182.775 228.429 182.9C227.465 183.311 226.792 184.264 226.792 185.366V210.546C226.792 212.01 227.971 213.201 229.436 213.201H242.237C243.928 213.201 245.19 211.647 244.839 209.998L244.845 210.004ZM236.914 190.105C237.051 190.069 237.188 190.057 237.313 190.057C238.176 190.057 238.939 190.647 239.129 191.522L241.046 200.209C241.249 201.21 240.624 202.198 239.617 202.424C238.617 202.627 237.629 201.996 237.402 200.995L235.497 192.32C235.283 191.32 235.92 190.331 236.914 190.105Z" fill="#C7C7C7"/>
<path d="M230.293 186.3H232.639C233.616 186.3 234.342 187.241 234.044 188.17C233.717 189.2 233.514 190.677 233.866 192.665C234.652 197.155 235.747 202.728 236.11 203.46C236.414 204.068 237.849 205.217 240.07 204.609C240.874 204.389 241.713 204.848 241.91 205.663L242.404 207.718C242.624 208.64 241.928 209.528 240.981 209.528H230.299C229.489 209.528 228.834 208.873 228.834 208.063V187.771C228.834 186.961 229.489 186.306 230.299 186.306L230.293 186.3Z" fill="white"/>
<path d="M193.55 178.131H187.477V185.443H193.55V178.131Z" fill="#EBEBEB"/>
<path d="M203.886 210.004L199.319 188.283C198.706 185.407 196.39 183.252 193.55 182.799C193.187 182.74 192.812 182.71 192.436 182.71H188.483C188.132 182.71 187.792 182.775 187.471 182.9C186.506 183.311 185.833 184.264 185.833 185.366V210.546C185.833 212.01 187.012 213.201 188.477 213.201H201.278C202.969 213.201 204.232 211.647 203.88 209.998L203.886 210.004ZM195.955 190.105C196.092 190.069 196.229 190.057 196.354 190.057C197.218 190.057 197.98 190.647 198.17 191.522L200.088 200.209C200.29 201.21 199.665 202.198 198.659 202.424C197.658 202.627 196.67 201.996 196.444 200.995L194.538 192.32C194.324 191.32 194.961 190.331 195.955 190.105Z" fill="#C7C7C7"/>
<path d="M189.334 186.3H191.674C192.651 186.3 193.377 187.241 193.08 188.17C192.752 189.2 192.55 190.677 192.901 192.665C193.687 197.155 194.782 202.728 195.146 203.46C195.449 204.068 196.884 205.217 199.105 204.609C199.909 204.389 200.749 204.848 200.945 205.663L201.439 207.718C201.66 208.64 200.963 209.528 200.016 209.528H189.334C188.525 209.528 187.87 208.873 187.87 208.063V187.771C187.87 186.961 188.525 186.306 189.334 186.306V186.3Z" fill="white"/>
<path d="M173.068 178.131H166.994V185.443H173.068V178.131Z" fill="#EBEBEB"/>
<path d="M183.41 210.004L178.843 188.283C178.23 185.407 175.914 183.252 173.073 182.799C172.71 182.74 172.335 182.71 171.96 182.71H168.006C167.655 182.71 167.316 182.775 166.994 182.9C166.03 183.311 165.357 184.264 165.357 185.366V210.546C165.357 212.01 166.536 213.201 168 213.201H180.802C182.493 213.201 183.755 211.647 183.404 209.998L183.41 210.004ZM175.479 190.105C175.616 190.069 175.753 190.057 175.878 190.057C176.741 190.057 177.503 190.647 177.694 191.522L179.611 200.209C179.814 201.21 179.188 202.198 178.182 202.424C177.182 202.627 176.193 201.996 175.967 200.995L174.062 192.32C173.847 191.32 174.485 190.331 175.479 190.105Z" fill="#C7C7C7"/>
<path d="M168.858 186.3H171.198C172.174 186.3 172.901 187.241 172.603 188.17C172.276 189.2 172.073 190.677 172.424 192.665C173.21 197.155 174.306 202.728 174.669 203.46C174.973 204.068 176.408 205.217 178.629 204.609C179.433 204.389 180.272 204.848 180.469 205.663L180.963 207.718C181.183 208.64 180.486 209.528 179.54 209.528H168.858C168.048 209.528 167.393 208.873 167.393 208.063V187.771C167.393 186.961 168.048 186.306 168.858 186.306V186.3Z" fill="white"/>
<path d="M214.026 178.131H207.953V185.443H214.026V178.131Z" fill="#3F80FF"/>
<path d="M224.369 210.004L219.802 188.283C219.189 185.407 216.872 183.252 214.032 182.799C213.669 182.74 213.294 182.71 212.919 182.71H208.965C208.614 182.71 208.275 182.775 207.953 182.9C206.988 183.311 206.316 184.264 206.316 185.366V210.546C206.316 212.01 207.495 213.201 208.959 213.201H221.761C223.452 213.201 224.714 211.647 224.363 209.998L224.369 210.004ZM216.438 190.105C216.575 190.069 216.712 190.057 216.837 190.057C217.7 190.057 218.462 190.647 218.653 191.522L220.57 200.209C220.772 201.21 220.147 202.198 219.141 202.424C218.141 202.627 217.152 201.996 216.926 200.995L215.021 192.32C214.806 191.32 215.443 190.331 216.438 190.105Z" fill="#37474F"/>
<path d="M209.811 186.3H212.157C213.127 186.3 213.86 187.241 213.562 188.17C213.234 189.2 213.032 190.677 213.383 192.665C214.169 197.155 215.265 202.728 215.628 203.46C215.932 204.068 217.367 205.217 219.588 204.609C220.391 204.389 221.231 204.848 221.427 205.663L221.922 207.718C222.142 208.64 221.445 209.528 220.499 209.528H209.817C209.007 209.528 208.352 208.873 208.352 208.063V187.771C208.352 186.961 209.007 186.306 209.817 186.306L209.811 186.3Z" fill="white"/>
<path d="M240.058 199.981C242.428 186.354 233.304 173.386 219.678 171.015C206.051 168.645 193.083 177.769 190.712 191.395C188.342 205.022 197.466 217.99 211.092 220.361C224.719 222.731 237.687 213.607 240.058 199.981Z" stroke="#001640" stroke-width="2" stroke-miterlimit="10"/>
<path d="M231.711 199.949C234.079 190.922 228.681 181.684 219.654 179.316C210.627 176.948 201.389 182.346 199.021 191.373C196.653 200.4 202.051 209.638 211.078 212.006C220.105 214.374 229.343 208.976 231.711 199.949Z" stroke="#001640" stroke-miterlimit="10"/>
<path d="M215.372 170.623V175.529" stroke="#001640" stroke-width="2" stroke-miterlimit="10"/>
<path d="M190.329 195.672H195.235" stroke="#001640" stroke-width="2" stroke-miterlimit="10"/>
<path d="M215.372 220.716V215.809" stroke="#001640" stroke-width="2" stroke-miterlimit="10"/>
<path d="M240.415 195.672H235.509" stroke="#001640" stroke-width="2" stroke-miterlimit="10"/>
<path d="M217.825 195.672H212.919" stroke="#001640" stroke-miterlimit="10"/>
<path d="M215.372 198.125V193.219" stroke="#001640" stroke-miterlimit="10"/>
<path d="M136.717 90.9203H125.958C124.458 90.9203 123.243 92.1359 123.243 93.6355V102.585C123.243 104.084 124.458 105.3 125.958 105.3H136.717C138.217 105.3 139.432 104.084 139.432 102.585V93.6355C139.432 92.1359 138.217 90.9203 136.717 90.9203Z" fill="#3F80FF"/>
<path opacity="0.7" d="M136.717 90.9203H125.958C124.458 90.9203 123.243 92.1359 123.243 93.6355V102.585C123.243 104.084 124.458 105.3 125.958 105.3H136.717C138.217 105.3 139.432 104.084 139.432 102.585V93.6355C139.432 92.1359 138.217 90.9203 136.717 90.9203Z" fill="white"/>
<path d="M137.598 89.1222H125.077V90.9204H137.598V89.1222Z" fill="#37474F"/>
<path d="M139.539 94.4095H123.243V101.816H139.539V94.4095Z" fill="#3F80FF"/>
<path d="M136.277 98.113C136.277 99.8338 134.068 101.227 131.335 101.227C128.602 101.227 126.393 99.8338 126.393 98.113C126.393 96.3922 128.602 94.999 131.335 94.999C134.068 94.999 136.277 96.3922 136.277 98.113Z" fill="white"/>
<path d="M131.394 122.257C145.225 122.257 156.437 111.045 156.437 97.2139C156.437 83.3829 145.225 72.1706 131.394 72.1706C117.563 72.1706 106.351 83.3829 106.351 97.2139C106.351 111.045 117.563 122.257 131.394 122.257Z" stroke="#001640" stroke-width="2" stroke-miterlimit="10"/>
<path d="M131.394 114.112C140.727 114.112 148.292 106.546 148.292 97.2139C148.292 87.8814 140.727 80.3159 131.394 80.3159C122.062 80.3159 114.496 87.8814 114.496 97.2139C114.496 106.546 122.062 114.112 131.394 114.112Z" stroke="#001640" stroke-miterlimit="10"/>
<path d="M131.394 72.1647V77.0709" stroke="#001640" stroke-width="2" stroke-miterlimit="10"/>
<path d="M106.345 97.2139H111.251" stroke="#001640" stroke-width="2" stroke-miterlimit="10"/>
<path d="M131.394 122.257V117.351" stroke="#001640" stroke-width="2" stroke-miterlimit="10"/>
<path d="M156.437 97.2139H151.531" stroke="#001640" stroke-width="2" stroke-miterlimit="10"/>
<path d="M133.847 97.2139H128.935" stroke="#001640" stroke-miterlimit="10"/>
<path d="M131.394 99.6671V94.7608" stroke="#001640" stroke-miterlimit="10"/>
<path d="M203.202 74.8381C203.202 74.8381 200.022 65.8711 201.344 61.5364C202.231 58.6248 206.607 56.6838 206.607 53.5995V50.2354H210.394C210.394 50.2354 216.956 63.9419 211.502 74.844H203.202V74.8381Z" fill="#3F80FF"/>
<path d="M210.216 50.801H206.054C205.899 50.801 205.774 50.9263 205.774 51.0809V51.6584C205.774 51.813 205.899 51.9383 206.054 51.9383H210.216C210.37 51.9383 210.495 51.813 210.495 51.6584V51.0809C210.495 50.9263 210.37 50.801 210.216 50.801Z" fill="#3F80FF"/>
<path d="M210.216 51.9383H206.054C205.899 51.9383 205.774 52.0636 205.774 52.2181V52.7957C205.774 52.9502 205.899 53.0755 206.054 53.0755H210.216C210.37 53.0755 210.495 52.9502 210.495 52.7957V52.2181C210.495 52.0636 210.37 51.9383 210.216 51.9383Z" fill="#3F80FF"/>
<path d="M210.216 53.0756H206.054C205.899 53.0756 205.774 53.2009 205.774 53.3554V53.933C205.774 54.0875 205.899 54.2128 206.054 54.2128H210.216C210.37 54.2128 210.495 54.0875 210.495 53.933V53.3554C210.495 53.2009 210.37 53.0756 210.216 53.0756Z" fill="#3F80FF"/>
<path d="M203.928 45.3232C203.928 45.3232 204.577 46.1568 204.494 47.0202C204.41 47.8835 204.011 48.6933 204.142 48.7469C204.273 48.7945 205.422 47.9907 205.595 46.9249C205.768 45.865 205.488 45.3173 205.488 45.3173H203.928V45.3232Z" fill="#3F80FF"/>
<path d="M210.757 49.6221V47.294C210.757 46.9427 211.21 46.2163 212.02 46.2163C213.419 46.2163 215.116 47.8775 215.199 47.3119C215.283 46.7462 214.324 42.5366 211.025 42.5366H203.214V45.3172H204.803C205.155 45.3172 206.31 45.5316 206.31 47.2285V49.6161H210.757V49.6221Z" fill="white"/>
<path d="M210.936 48.1871H206.137C205.976 48.1871 205.845 48.3178 205.845 48.4789V50.414C205.845 50.5751 205.976 50.7058 206.137 50.7058H210.936C211.097 50.7058 211.228 50.5751 211.228 50.414V48.4789C211.228 48.3178 211.097 48.1871 210.936 48.1871Z" fill="#001640"/>
<path d="M203.213 42.1556V45.7102L201.761 45.3946V42.4711L203.213 42.1556Z" fill="#001640"/>
<path d="M208.537 56.0765C210.918 56.0765 212.317 59.4644 212.317 64.0551C212.317 67.0084 211.829 69.4912 211.508 70.8786C211.341 71.5871 210.71 72.0873 209.983 72.0873H204.922C204.214 72.0873 203.595 71.6169 203.41 70.9262C202.779 68.5564 201.588 63.2036 203.035 61.1673C204.982 58.4343 206.637 57.7675 207.346 56.0765H208.542H208.537Z" fill="white"/>
<path d="M232.214 65.3487C235.996 52.0448 228.277 38.1939 214.973 34.4117C201.669 30.6295 187.818 38.3484 184.036 51.6522C180.254 64.9561 187.973 78.807 201.277 82.5892C214.581 86.3714 228.432 78.6525 232.214 65.3487Z" stroke="#001640" stroke-width="2" stroke-miterlimit="10"/>
<path d="M224.789 61.2277C226.297 52.0179 220.054 43.3292 210.844 41.8211C201.634 40.3129 192.945 46.5563 191.437 55.7662C189.929 64.976 196.172 73.6646 205.382 75.1728C214.592 76.681 223.281 70.4375 224.789 61.2277Z" stroke="#001640" stroke-miterlimit="10"/>
<path d="M208.114 33.4506V38.3568" stroke="#001640" stroke-width="2" stroke-miterlimit="10"/>
<path d="M183.064 58.4998H187.971" stroke="#001640" stroke-width="2" stroke-miterlimit="10"/>
<path d="M208.114 83.5431V78.6368" stroke="#001640" stroke-width="2" stroke-miterlimit="10"/>
<path d="M233.157 58.4998H228.251" stroke="#001640" stroke-width="2" stroke-miterlimit="10"/>
<path d="M210.567 58.4998H205.661" stroke="#001640" stroke-miterlimit="10"/>
<path d="M208.114 60.9529V56.0467" stroke="#001640" stroke-miterlimit="10"/>
<path d="M186.423 243.853H114.401C113.609 243.853 112.96 243.21 112.96 242.413V233.886C112.96 233.886 112.96 233.844 112.96 233.827C112.96 233.797 112.96 233.767 112.96 233.743C112.96 233.69 112.972 233.642 112.984 233.588L121.689 201.615L110.406 131.712L94.6568 126.383C93.8946 126.163 93.46 125.359 93.6803 124.597C93.9065 123.835 94.6985 123.4 95.4665 123.621L112.097 129.206C112.632 129.361 113.031 129.819 113.115 130.373L124.577 201.424C124.6 201.585 124.594 201.746 124.565 201.906L116.116 232.546L183.201 237.316C183.577 237.34 183.922 237.512 184.172 237.786L187.482 241.442C187.864 241.865 187.959 242.472 187.733 242.99C187.5 243.508 186.988 243.848 186.417 243.848L186.423 243.853ZM115.842 240.978H183.184L182.439 240.156L115.842 235.416V240.978Z" fill="#A6A6A6"/>
<path d="M107.292 125.615C101.647 123.722 96.0024 121.834 90.3579 119.941C86.2614 118.572 84.5049 125.038 88.5776 126.401C94.2221 128.295 99.8667 130.182 105.511 132.076C109.608 133.445 111.364 126.979 107.292 125.615Z" fill="#3F80FF"/>
<path d="M197.67 191.016H121.82C121.552 191.016 121.338 190.802 121.338 190.534C121.338 190.266 121.552 190.051 121.82 190.051H197.67C197.938 190.051 198.152 190.266 198.152 190.534C198.152 190.802 197.938 191.016 197.67 191.016Z" fill="#A6A6A6"/>
<path d="M199.599 185.181H120.933C120.665 185.181 120.45 184.967 120.45 184.699C120.45 184.431 120.665 184.216 120.933 184.216H199.599C199.867 184.216 200.082 184.431 200.082 184.699C200.082 184.967 199.867 185.181 199.599 185.181Z" fill="#A6A6A6"/>
<path d="M201.385 179.352H120.039C119.771 179.352 119.557 179.137 119.557 178.869C119.557 178.602 119.771 178.387 120.039 178.387H201.385C201.653 178.387 201.868 178.602 201.868 178.869C201.868 179.137 201.653 179.352 201.385 179.352Z" fill="#A6A6A6"/>
<path d="M203.315 173.517H119.14C118.872 173.517 118.658 173.302 118.658 173.034C118.658 172.766 118.872 172.552 119.14 172.552H203.315C203.577 172.552 203.797 172.766 203.797 173.034C203.797 173.302 203.583 173.517 203.315 173.517Z" fill="#A6A6A6"/>
<path d="M205.161 167.682H118.247C117.979 167.682 117.765 167.467 117.765 167.199C117.765 166.931 117.979 166.717 118.247 166.717H205.161C205.428 166.717 205.643 166.931 205.643 167.199C205.643 167.467 205.428 167.682 205.161 167.682Z" fill="#A6A6A6"/>
<path d="M207.137 161.847H117.354C117.086 161.847 116.872 161.632 116.872 161.364C116.872 161.096 117.086 160.882 117.354 160.882H207.137C207.405 160.882 207.619 161.096 207.619 161.364C207.619 161.632 207.405 161.847 207.137 161.847Z" fill="#A6A6A6"/>
<path d="M209.025 156.017H116.461C116.193 156.017 115.979 155.803 115.979 155.535C115.979 155.267 116.193 155.053 116.461 155.053H209.025C209.293 155.053 209.507 155.267 209.507 155.535C209.507 155.803 209.293 156.017 209.025 156.017Z" fill="#A6A6A6"/>
<path d="M129.703 198.334C129.453 198.334 129.245 198.143 129.227 197.893L125.553 149.843C125.535 149.581 125.732 149.349 125.994 149.331C126.232 149.307 126.488 149.509 126.512 149.771L130.185 197.822C130.203 198.084 130.007 198.316 129.745 198.34C129.733 198.34 129.721 198.34 129.709 198.34L129.703 198.334Z" fill="#A6A6A6"/>
<path d="M189.173 195.202C189.132 195.202 189.09 195.202 189.048 195.184C188.792 195.113 188.644 194.851 188.709 194.594L200.921 149.676C200.992 149.42 201.254 149.271 201.511 149.337C201.767 149.408 201.915 149.67 201.85 149.926L189.638 194.845C189.578 195.059 189.388 195.196 189.173 195.196V195.202Z" fill="#A6A6A6"/>
<path d="M137.366 197.976C137.104 197.976 136.896 197.768 136.884 197.506L135.699 149.813C135.693 149.545 135.901 149.331 136.163 149.319H136.175C136.437 149.319 136.646 149.527 136.658 149.789L137.842 197.482C137.848 197.75 137.64 197.965 137.378 197.976H137.366Z" fill="#A6A6A6"/>
<path d="M145.232 197.548H145.22C144.958 197.548 144.743 197.322 144.749 197.06L145.631 149.789C145.631 149.527 145.851 149.319 146.113 149.319H146.125C146.387 149.319 146.601 149.545 146.595 149.807L145.714 197.077C145.714 197.339 145.494 197.548 145.232 197.548Z" fill="#A6A6A6"/>
<path d="M180.802 195.577C180.772 195.577 180.736 195.577 180.707 195.565C180.445 195.511 180.278 195.255 180.332 194.999L189.614 149.706C189.668 149.444 189.924 149.277 190.18 149.331C190.442 149.384 190.608 149.64 190.555 149.896L181.272 195.19C181.225 195.416 181.028 195.571 180.802 195.571V195.577Z" fill="#A6A6A6"/>
<path d="M171.263 196.149C171.263 196.149 171.21 196.149 171.186 196.143C170.924 196.101 170.745 195.851 170.793 195.595L178.307 149.73C178.349 149.468 178.599 149.289 178.855 149.337C179.117 149.378 179.295 149.629 179.248 149.885L171.734 195.75C171.698 195.982 171.489 196.149 171.263 196.149Z" fill="#A6A6A6"/>
<path d="M153.282 197.095C153.282 197.095 153.258 197.095 153.246 197.095C152.984 197.077 152.782 196.845 152.805 196.583L156.306 149.771C156.324 149.509 156.557 149.307 156.818 149.331C157.08 149.349 157.283 149.581 157.259 149.843L153.758 196.655C153.74 196.905 153.526 197.101 153.282 197.101V197.095Z" fill="#A6A6A6"/>
<path d="M162.707 196.482C162.707 196.482 162.671 196.482 162.654 196.482C162.392 196.452 162.201 196.214 162.231 195.952L167.369 149.748C167.399 149.486 167.625 149.289 167.899 149.325C168.161 149.355 168.352 149.593 168.322 149.855L163.184 196.059C163.154 196.303 162.951 196.488 162.707 196.488V196.482Z" fill="#A6A6A6"/>
<path d="M212.794 151.242H115.705C114.913 151.242 114.264 150.599 114.264 149.801C114.264 149.003 114.907 148.36 115.705 148.36H212.794C213.586 148.36 214.235 149.003 214.235 149.801C214.235 150.599 213.592 151.242 212.794 151.242Z" fill="#A6A6A6"/>
<path d="M123.159 198.947C122.903 198.947 122.695 198.75 122.683 198.494C122.671 198.232 122.874 198.006 123.136 197.988L196.068 194.088L210.43 149.658C210.513 149.408 210.781 149.265 211.031 149.349C211.281 149.432 211.424 149.7 211.341 149.95L196.878 194.69C196.819 194.88 196.646 195.011 196.449 195.023L123.189 198.941C123.189 198.941 123.171 198.941 123.165 198.941L123.159 198.947Z" fill="#A6A6A6"/>
<path d="M123.433 250.927C126.561 250.927 129.096 248.392 129.096 245.265C129.096 242.137 126.561 239.602 123.433 239.602C120.306 239.602 117.771 242.137 117.771 245.265C117.771 248.392 120.306 250.927 123.433 250.927Z" fill="#001640"/>
<path d="M126.006 245.265C126.006 246.688 124.856 247.837 123.433 247.837C122.01 247.837 120.861 246.688 120.861 245.265C120.861 243.842 122.01 242.692 123.433 242.692C124.856 242.692 126.006 243.842 126.006 245.265Z" fill="#A6A6A6"/>
<path d="M179.73 245.265C179.73 248.391 177.194 250.927 174.068 250.927C170.942 250.927 168.405 248.391 168.405 245.265C168.405 242.139 170.942 239.602 174.068 239.602C177.194 239.602 179.73 242.139 179.73 245.265Z" fill="#001640"/>
<path d="M176.64 245.265C176.64 246.688 175.491 247.837 174.068 247.837C172.645 247.837 171.495 246.688 171.495 245.265C171.495 243.842 172.645 242.692 174.068 242.692C175.491 242.692 176.64 243.842 176.64 245.265Z" fill="#A6A6A6"/>
<path d="M20.4906 210.873C20.4906 210.873 19.8535 236.071 19.8535 236.089C19.8714 240.745 19.9666 244.83 20.2108 246.938C20.2108 246.95 20.2108 246.962 20.2108 246.973C20.3001 247.771 20.4192 248.277 20.5561 248.408C20.568 248.42 20.574 248.432 20.5859 248.438C21.9732 249.373 59.1987 250.338 60.5087 249.933C61.8245 249.534 60.7707 245.765 59.3595 244.574C57.9365 243.383 43.8548 236.637 43.8548 236.637L44.2597 211.451L20.4906 210.867V210.873Z" fill="#D3766A"/>
<path d="M19.8127 231.088C19.8127 231.088 19.8544 236.071 19.8544 236.089C19.8723 240.745 19.9675 244.83 20.2116 246.938C20.2116 246.95 20.2116 246.962 20.2116 246.973C20.3486 247.759 20.4736 248.277 20.557 248.408C20.5689 248.42 20.5749 248.432 20.5868 248.438C21.9741 249.373 59.1996 250.338 60.5096 249.933C61.8254 249.534 60.7715 245.765 59.3604 244.574C57.9373 243.383 43.8557 236.637 43.8557 236.637L43.8795 231.564L19.8068 231.082L19.8127 231.088Z" fill="white"/>
<path d="M46.1361 236.655C43.6592 236.244 40.6463 236.691 38.7946 238.489C38.7231 238.56 38.8244 238.661 38.9018 238.632C41.3192 237.81 43.5877 237.268 46.1301 236.965C46.3088 236.941 46.3088 236.679 46.1301 236.655H46.1361Z" fill="#001640"/>
<path d="M47.9402 237.691C45.4632 237.28 42.4504 237.727 40.5987 239.525C40.5272 239.596 40.6284 239.697 40.7058 239.668C43.1232 238.846 45.3918 238.304 47.9342 238.001C48.1128 237.977 48.1128 237.715 47.9342 237.691H47.9402Z" fill="#001640"/>
<path d="M49.7444 238.727C47.2674 238.316 44.2546 238.763 42.4029 240.561C42.3314 240.632 42.4326 240.733 42.51 240.704C44.9274 239.882 47.196 239.34 49.7384 239.037C49.917 239.013 49.917 238.751 49.7384 238.727H49.7444Z" fill="#001640"/>
<path d="M60.5154 249.933C59.2055 250.338 21.9859 249.373 20.5926 248.432C20.0567 248.087 19.884 242.651 19.8602 236.083C19.8602 236.012 19.8602 235.946 19.8602 235.875L43.8794 236.232L43.8615 236.637C43.8615 236.637 57.9432 243.377 59.3662 244.574C60.7774 245.759 61.8313 249.534 60.5213 249.933H60.5154Z" fill="#37474F"/>
<path d="M19.8544 235.875V236.089C19.8841 242.657 20.0509 248.087 20.5927 248.432C21.2238 248.855 29.2917 249.29 38.0087 249.599C48.4404 249.968 59.801 250.153 60.5155 249.933C61.8254 249.528 60.7715 245.759 59.3604 244.574C57.9373 243.383 43.8557 236.643 43.8557 236.643L43.8795 236.238L35.8711 236.119L19.8544 235.881V235.875Z" fill="#3F80FF"/>
<path d="M60.1284 248.48C53.8587 248.164 28.5415 247.48 22.3194 247.64C22.2717 247.64 22.2658 247.676 22.3194 247.682C28.5296 248.135 53.8527 248.611 60.1284 248.587C60.2594 248.587 60.2654 248.492 60.1284 248.486V248.48Z" fill="#001640"/>
<path opacity="0.1" d="M35.8651 236.119C36.4546 240.144 37.3477 246.068 38.0027 249.605C48.4344 249.974 59.795 250.159 60.5095 249.939C61.8194 249.534 60.7655 245.765 59.3544 244.58C57.9313 243.389 43.8497 236.649 43.8497 236.649L43.8735 236.244L35.8651 236.125V236.119Z" fill="black"/>
<path d="M17.6871 236.226L44.6238 236.482C44.6238 236.482 46.154 192.63 46.2672 178C46.3982 161.299 45.4515 111.188 45.4515 111.188H25.3144C25.3144 111.188 19.908 122.233 22.9982 134.66L23.8497 179.364L17.6812 236.226H17.6871Z" fill="#001640"/>
<path d="M19.6877 231.505C20.3843 231.379 21.1286 231.385 21.8312 231.332C22.6291 231.278 23.421 231.219 24.2188 231.183C25.7491 231.118 27.2852 231.094 28.8155 231.088C31.9057 231.076 35.0019 231.1 38.0921 231.195C39.8486 231.249 41.611 231.32 43.3675 231.421C43.4389 231.421 43.433 231.528 43.3675 231.534C40.3011 231.647 37.2347 231.695 34.1683 231.755C31.1078 231.814 28.0355 231.874 24.975 231.814C24.0938 231.796 23.2185 231.79 22.3373 231.737C21.468 231.689 20.563 231.737 19.6996 231.612C19.646 231.606 19.6282 231.516 19.6877 231.51V231.505Z" fill="#37474F"/>
<path d="M42.6828 207.301C42.9983 200.049 43.2306 192.79 43.427 185.538C43.826 171.028 43.9212 156.506 43.7426 141.989C43.6414 133.844 43.4211 125.705 43.177 117.559C43.177 117.464 43.3139 117.47 43.3199 117.559C44.0939 132.135 44.3857 146.735 44.4035 161.329C44.4214 175.845 44.1177 190.367 43.3973 204.866C42.9924 213.005 42.4982 221.15 41.7361 229.26C41.7301 229.331 41.6229 229.331 41.6229 229.26C41.9504 221.936 42.3612 214.618 42.6828 207.295V207.301Z" fill="#37474F"/>
<path d="M49.3038 214.874C49.3038 214.874 49.5122 239.227 49.5063 239.245C49.5241 243.901 49.6194 247.986 49.8635 250.093C49.8635 250.105 49.8635 250.117 49.8635 250.129C49.9528 250.927 50.0719 251.433 50.2089 251.564C50.2208 251.576 50.2267 251.588 50.2386 251.594C51.626 252.529 88.8515 253.493 90.1614 253.088C91.4773 252.689 90.4234 248.92 89.0123 247.73C87.5892 246.539 73.5076 239.793 73.5076 239.793L73.0729 215.452L49.3038 214.868V214.874Z" fill="#D3766A"/>
<path d="M49.4706 234.243C49.4706 234.243 49.5122 239.227 49.5122 239.245C49.5301 243.901 49.6254 247.986 49.8695 250.093C49.8695 250.105 49.8695 250.117 49.8695 250.129C50.0064 250.915 50.1315 251.433 50.2148 251.564C50.2267 251.576 50.2327 251.588 50.2446 251.594C51.6319 252.529 88.8575 253.493 90.1674 253.088C91.4833 252.689 90.4294 248.92 89.0182 247.73C87.5952 246.539 73.5135 239.793 73.5135 239.793L73.5374 234.72L49.4646 234.237L49.4706 234.243Z" fill="white"/>
<path d="M75.7941 239.811C73.3171 239.4 70.3043 239.846 68.4525 241.644C68.3811 241.716 68.4823 241.817 68.5597 241.787C70.9771 240.966 73.2457 240.424 75.7881 240.12C75.9667 240.096 75.9667 239.834 75.7881 239.811H75.7941Z" fill="#001640"/>
<path d="M77.5981 240.853C75.1212 240.442 72.1084 240.888 70.2566 242.686C70.1852 242.758 70.2864 242.859 70.3638 242.829C72.7812 242.008 75.0497 241.466 77.5922 241.162C77.7708 241.138 77.7708 240.876 77.5922 240.853H77.5981Z" fill="#001640"/>
<path d="M79.4023 241.889C76.9254 241.478 73.9126 241.924 72.0608 243.722C71.9894 243.794 72.0906 243.895 72.168 243.865C74.5854 243.044 76.8539 242.502 79.3964 242.198C79.575 242.174 79.575 241.912 79.3964 241.889H79.4023Z" fill="#001640"/>
<path d="M90.1733 253.094C88.8634 253.499 51.6438 252.535 50.2506 251.594C49.7147 251.249 49.542 245.812 49.5182 239.245C49.5182 239.173 49.5182 239.108 49.5182 239.036L73.5374 239.394L73.5195 239.799C73.5195 239.799 87.6011 246.539 89.0242 247.736C90.4353 248.92 91.4892 252.695 90.1793 253.094H90.1733Z" fill="#3F80FF"/>
<path d="M89.7864 251.636C83.5166 251.32 58.1994 250.635 51.9773 250.796C51.9297 250.796 51.9237 250.832 51.9773 250.838C58.1875 251.29 83.5107 251.767 89.7864 251.743C89.9174 251.743 89.9233 251.647 89.7864 251.642V251.636Z" fill="#001640"/>
<path d="M37.0024 136.964C37.0024 136.964 48.0534 171.79 48.2499 178.191C48.4226 183.645 47.72 239.644 47.72 239.644L75.6927 239.811C75.6927 239.811 73.3289 182.704 72.8943 177.018C72.0785 166.384 62.7602 137.19 56.0975 111.182H25.9396C25.9396 111.182 26.2016 124.806 32.3939 134.654C32.3939 134.654 35.1983 135.952 36.9965 136.964H37.0024Z" fill="#001640"/>
<path d="M49.2085 234.487C52.4416 234.392 55.7878 234.297 59.021 234.38C62.2243 234.458 65.4396 234.511 68.6429 234.702C70.4589 234.809 72.269 234.869 74.085 235.047C74.1446 235.047 74.1446 235.142 74.085 235.142C70.8579 235.333 67.6128 235.291 64.3797 235.262C61.1704 235.232 57.9611 235.196 54.7578 235.053C52.9417 234.97 51.1317 234.88 49.3156 234.749C49.1191 234.738 49.0179 234.487 49.2144 234.482L49.2085 234.487Z" fill="#37474F"/>
<path d="M55.3234 127.592C56.3177 130.92 57.1632 134.296 58.0564 137.655C58.9554 141.037 59.8545 144.425 60.7417 147.812C62.4684 154.362 64.1713 160.93 65.4634 167.58C66.7614 174.273 67.5533 181.019 67.7021 187.836C67.851 194.767 67.7021 201.716 67.6604 208.646C67.6128 215.619 67.5533 222.591 67.4342 229.563C67.4163 230.433 67.3985 231.296 67.3687 232.165C67.3687 232.249 67.2437 232.243 67.2377 232.165C67.0531 225.229 67.1484 218.28 67.1722 211.344C67.196 204.407 67.2853 197.464 67.2258 190.528C67.1663 183.627 66.6363 176.786 65.4455 169.98C64.2785 163.305 62.6292 156.726 60.9263 150.17C59.9557 146.431 58.9733 142.692 58.0028 138.953C57.0263 135.19 55.9843 131.433 55.1209 127.64C55.0912 127.509 55.2817 127.461 55.3234 127.592Z" fill="#37474F"/>
<path d="M43.9152 137.637C42.5219 137.613 41.1346 137.518 39.7592 137.262C38.3718 137 37.0798 136.541 35.7341 136.148C34.454 135.773 33.0964 135.714 31.7865 135.505C30.4587 135.291 29.131 134.945 27.9163 134.356C27.8568 134.326 27.8091 134.416 27.8687 134.445C29.0714 135.059 30.2861 135.642 31.5781 136.053C32.9059 136.47 34.2932 136.529 35.6389 136.857C37.0262 137.196 38.354 137.643 39.783 137.809C41.1644 137.97 42.5576 137.964 43.9331 137.738C43.9866 137.732 43.9688 137.649 43.9211 137.643L43.9152 137.637Z" fill="#37474F"/>
<path d="M45.6836 165.342C45.4216 164.312 45.1715 163.275 44.8917 162.245C44.326 160.167 43.7485 158.083 43.1233 156.023C41.8729 151.927 40.694 147.807 39.3721 143.734C38.6219 141.424 37.9491 139.084 37.0738 136.815C37.05 136.762 36.9726 136.785 36.9845 136.839C37.4251 138.953 38.0503 141.019 38.61 143.103C39.1697 145.187 39.7711 147.253 40.3665 149.325C41.5573 153.439 42.7243 157.559 44.0283 161.644C44.3915 162.787 44.7666 163.93 45.1656 165.062C45.5704 166.223 45.886 167.42 46.3683 168.545C46.3921 168.604 46.4814 168.581 46.4695 168.515C46.2849 167.437 45.9515 166.39 45.6836 165.336V165.342Z" fill="#37474F"/>
<path d="M47.9939 76.8268C52.5845 79.5955 70.0303 88.9971 77.342 87.7646C82.2661 86.937 94.4305 75.243 96.6634 71.3251C97.5743 69.7235 85.9339 60.1432 84.3025 61.2507C82.5281 62.4534 74.5019 73.4627 73.0907 73.8914C71.6796 74.3201 58.5149 72.2242 50.8995 71.9503C46.3386 71.7836 45.4098 75.2727 47.9939 76.8327V76.8268Z" fill="#D3766A"/>
<path d="M93.9899 74.6476C96.5383 72.4028 103.207 62.7571 104.094 60.5659C104.981 58.3748 107.089 51.8788 105.476 51.0273C103.868 50.1759 103.1 52.0276 103.1 52.0276C103.1 52.0276 103.642 48.8779 101.855 48.4373C100.432 48.08 99.2117 50.6343 99.2117 50.6343C99.2117 50.6343 99.6225 47.1512 97.7946 46.9368C96.1274 46.7403 95.5082 49.8246 95.5082 49.8246C95.5082 49.8246 95.5558 46.8773 93.9184 46.9963C91.9476 47.1452 91.8583 52.242 90.6913 54.5939C90.4293 55.1298 80.6108 65.4364 80.6108 65.4364L93.9839 74.6476H93.9899Z" fill="#D3766A"/>
<path d="M95.401 49.7115C94.9426 53.5281 94.6448 55.094 92.6145 58.1783C92.5728 58.2379 92.6561 58.3093 92.7038 58.2498C94.9723 55.4096 95.4606 53.5757 95.5856 49.7055C95.5916 49.5209 95.4248 49.5328 95.401 49.7115Z" fill="#001640"/>
<path d="M99.176 50.6403C98.7592 54.5284 97.9732 56.2373 96.0798 59.6252C96.056 59.6728 96.1334 59.7264 96.1632 59.6788C98.2948 56.5112 99.4022 54.5701 99.307 50.6284C99.307 50.4498 99.1998 50.4677 99.176 50.6463V50.6403Z" fill="#001640"/>
<path d="M103.01 52.2003C102.332 55.9395 101.623 57.9163 99.3665 60.9708C99.3129 61.0422 99.4141 61.1256 99.4736 61.0601C102.082 58.1723 102.981 55.7073 103.124 52.236C103.135 51.9978 103.052 51.9681 103.01 52.2062V52.2003Z" fill="#001640"/>
<path d="M80.6168 65.4364C80.6168 65.4364 82.4328 61.3697 83.195 59.3989C83.9571 57.4281 85.3504 51.5572 87.095 51.0392C89.0539 50.4617 89.5064 55.9336 88.1727 59.4584C88.1727 59.4584 93.0789 63.2393 91.9595 66.6928C91.7154 67.437 89.0658 70.4975 88.1727 70.6344L80.6228 65.4305L80.6168 65.4364Z" fill="#D3766A"/>
<path d="M88.1607 59.8693C90.1256 61.2745 92.0607 63.7991 91.9178 66.1986C91.9178 66.27 92.0131 66.2819 92.025 66.2165C92.5311 63.6621 90.3161 60.7207 88.4882 59.5716C88.1369 59.3513 87.6546 59.5061 88.1607 59.8693Z" fill="#001640"/>
<path d="M80.6108 65.3412L94.2042 74.6297C94.2042 74.6297 94.5198 76.547 92.4239 78.5654C90.3281 80.5839 81.3492 88.1576 76.7347 88.2827C72.1202 88.4136 56.6869 82.6619 49.1609 77.8212C41.6348 72.9804 49.5896 71.5574 51.2448 71.6705C52.9001 71.7836 72.5012 73.4806 73.0907 73.2483C73.6802 73.0161 76.4727 68.6338 77.9612 67.0441C79.4498 65.4543 80.6108 65.3412 80.6108 65.3412Z" fill="#3F80FF"/>
<path d="M46.279 73.4031C46.279 73.4031 46.2612 73.4031 46.2552 73.3912C46.1838 73.4865 46.1302 73.5877 46.0885 73.6889C46.1004 73.6949 46.1064 73.7008 46.1183 73.7068C46.5112 73.9092 46.9161 74.0819 47.3687 74.1712C47.0412 73.8497 46.6661 73.6115 46.279 73.4031ZM77.8422 74.9333C77.4432 74.7369 77.0383 74.5582 76.5858 74.4689C76.9133 74.7964 77.2884 75.0286 77.6754 75.243C78.0744 75.4395 78.4793 75.6181 78.9318 75.7074C78.6043 75.3799 78.2292 75.1477 77.8422 74.9333ZM65.5349 84.6148C65.1419 84.4124 64.737 84.2338 64.2845 84.1504C64.612 84.4779 64.9871 84.7101 65.3741 84.9185C65.7671 85.1209 66.172 85.2996 66.6245 85.3829C66.297 85.0614 65.9219 84.8232 65.5349 84.6148ZM76.5084 86.1689C76.1154 85.9724 75.7106 85.7938 75.258 85.7045C75.5855 86.0319 75.9606 86.2642 76.3477 86.4785C76.7406 86.675 77.1455 86.8536 77.598 86.9429C77.2706 86.6154 76.8954 86.3832 76.5084 86.1689ZM71.7689 80.3159C71.5665 80.7089 71.3878 81.1138 71.3045 81.5663C71.6319 81.2388 71.8642 80.8637 72.0726 80.4767C72.275 80.0837 72.4536 79.6788 72.537 79.2204C72.2155 79.5478 71.9832 79.9289 71.7689 80.3159ZM59.795 73.3912C59.3723 73.5282 58.9614 73.6889 58.5804 73.945C59.0389 73.945 59.4735 73.8437 59.8963 73.7187C60.313 73.5817 60.7239 73.421 61.1109 73.165C60.6465 73.165 60.2178 73.2662 59.795 73.3912ZM81.2718 68.0027C81.1348 67.5799 80.9741 67.1691 80.7121 66.788C80.7121 67.2525 80.8133 67.6812 80.9383 68.1039C81.0753 68.5266 81.236 68.9375 81.498 69.3186C81.498 68.8541 81.3968 68.4254 81.2718 68.0027ZM81.7064 81.5127C81.5695 81.0959 81.4087 80.6851 81.1527 80.2981C81.1527 80.7625 81.2539 81.1912 81.3789 81.6199C81.5159 82.0367 81.6767 82.4475 81.9327 82.8286C81.9327 82.3701 81.8315 81.9414 81.7064 81.5127ZM52.5547 71.7776C52.4297 71.7717 52.3166 71.7598 52.2094 71.7479C52.3225 72.0813 52.4714 72.4147 52.6798 72.7184C52.6798 72.3909 52.6262 72.0813 52.5547 71.7776ZM70.2268 73.7961C69.8338 73.5937 69.4289 73.415 68.9704 73.3317C69.2979 73.6532 69.679 73.8854 70.066 74.0998C70.459 74.2962 70.8639 74.4749 71.3164 74.5642C70.9889 74.2367 70.6138 74.0045 70.2268 73.7961ZM55.1984 76.8565C54.8054 76.6541 54.4005 76.4755 53.948 76.3921C54.2755 76.7136 54.6506 76.9518 55.0376 77.1602C55.4306 77.3626 55.8355 77.5413 56.288 77.6246C55.9605 77.3031 55.5854 77.0649 55.1984 76.8565ZM85.8922 75.6538C85.6957 76.0468 85.5171 76.4517 85.4278 76.9042C85.7553 76.5827 85.9875 76.2016 86.2018 75.8146C86.3983 75.4216 86.5769 75.0167 86.6663 74.5642C86.3388 74.8917 86.1066 75.2668 85.8922 75.6538ZM89.7565 80.6077C89.8875 80.6077 90.0125 80.6017 90.1375 80.5839C90.3043 80.4469 90.4591 80.3159 90.6139 80.179C90.3162 80.2921 90.0363 80.4231 89.7565 80.6077ZM92.3585 74.1176C92.2394 73.7544 92.1024 73.3972 91.8881 73.0578C91.8643 72.9982 91.8345 72.9566 91.7988 72.9089C91.7988 72.9387 91.7988 72.9685 91.7988 72.9982C91.8107 73.4269 91.9059 73.8318 92.0191 74.2248C92.156 74.6416 92.3168 75.0524 92.5788 75.4394C92.5788 74.975 92.4775 74.5463 92.3525 74.1176H92.3585ZM63.2425 78.7142C63.0401 79.1132 62.8614 79.5181 62.7781 79.9706C63.1056 79.6431 63.3378 79.268 63.5462 78.875C63.7486 78.482 63.9272 78.0771 64.0106 77.6246C63.6891 77.9521 63.4569 78.3272 63.2425 78.7142Z" fill="white"/>
<g opacity="0.1">
<path d="M80.6108 65.3412L94.2042 74.6297C94.2042 74.6297 94.5198 76.547 92.4239 78.5654C90.3281 80.5839 81.3492 88.1576 76.7347 88.2827C72.1202 88.4136 56.6869 82.6619 49.1609 77.8212C41.6348 72.9804 49.5896 71.5574 51.2448 71.6705C52.9001 71.7836 72.5012 73.4806 73.0907 73.2483C73.6802 73.0161 76.4727 68.6338 77.9612 67.0441C79.4498 65.4543 80.6108 65.3412 80.6108 65.3412Z" fill="black"/>
</g>
<path d="M20.2176 119.887C20.3069 119.995 60.3071 122.454 60.6941 122.067C61.2359 121.519 53.9421 79.5895 51.5663 73.2603C50.5541 70.563 44.1891 69.3662 41.343 71.4204C34.2218 76.5589 27.2852 95.2788 25.6061 100.947C22.8196 110.277 19.902 119.5 20.2116 119.893L20.2176 119.887Z" fill="#3F80FF"/>
<path d="M46.279 73.4031C45.886 73.2007 45.4811 73.0221 45.0286 72.9387C45.3561 73.2602 45.7312 73.4984 46.1182 73.7068C46.5112 73.9093 46.9161 74.0819 47.3686 74.1712C47.0411 73.8497 46.666 73.6115 46.279 73.4031ZM41.8967 96.1898C41.5037 95.9874 41.0989 95.8087 40.6463 95.7254C40.9738 96.0529 41.3489 96.2851 41.736 96.4935C42.1289 96.6959 42.5338 96.8745 42.9863 96.9579C42.6589 96.6364 42.2837 96.4041 41.8967 96.1898ZM45.7491 113.225C45.3561 113.022 44.9512 112.85 44.4987 112.76C44.8262 113.088 45.2013 113.32 45.5883 113.528C45.9813 113.731 46.3862 113.909 46.8387 113.993C46.5112 113.671 46.1361 113.439 45.7491 113.225ZM32.1259 87.1335C31.8044 86.9727 31.465 86.812 31.0958 86.7226C31.078 86.7584 31.0601 86.7881 31.0482 86.8239C31.328 87.068 31.6436 87.2645 31.9711 87.4372C32.3641 87.6396 32.769 87.8182 33.2215 87.9016C32.894 87.5801 32.5189 87.3419 32.1259 87.1335ZM55.9486 103.168C55.5556 102.966 55.1507 102.793 54.6923 102.704C55.0197 103.031 55.4008 103.263 55.7878 103.472C56.1808 103.674 56.5857 103.853 57.0382 103.936C56.7107 103.615 56.3356 103.382 55.9486 103.168ZM33.4358 111.623C33.0429 111.421 32.638 111.242 32.1855 111.159C32.5129 111.48 32.888 111.712 33.2751 111.927C33.668 112.123 34.0729 112.302 34.5254 112.391C34.198 112.064 33.8229 111.831 33.4358 111.623ZM52.8286 87.592C52.4356 87.3895 52.0307 87.2109 51.5782 87.1275C51.9057 87.455 52.2808 87.6872 52.6678 87.8956C53.0608 88.0981 53.4657 88.2767 53.9182 88.36C53.5907 88.0385 53.2156 87.8063 52.8286 87.592ZM49.0715 80.0718C48.8691 80.4648 48.6904 80.8697 48.6071 81.3222C48.9286 80.9947 49.1608 80.6196 49.3752 80.2326C49.5717 79.8396 49.7503 79.4347 49.8396 78.9822C49.5121 79.3097 49.2799 79.6848 49.0715 80.0718ZM55.2996 115.362C55.0971 115.755 54.9185 116.16 54.8352 116.613C55.1567 116.285 55.3949 115.91 55.6033 115.523C55.8057 115.13 55.9784 114.725 56.0677 114.267C55.7402 114.6 55.508 114.975 55.2996 115.362ZM40.3963 107.205C40.1998 107.598 40.0212 108.003 39.9318 108.461C40.2593 108.134 40.4915 107.753 40.7059 107.366C40.9024 106.973 41.081 106.568 41.1703 106.115C40.8428 106.443 40.6106 106.818 40.3963 107.205ZM48.1308 92.9805C47.9283 93.3735 47.7497 93.7783 47.6663 94.2309C47.9938 93.9034 48.226 93.5283 48.4344 93.1413C48.6369 92.7483 48.8155 92.3434 48.8988 91.8909C48.5773 92.2184 48.3391 92.5935 48.1308 92.9805ZM26.0705 115.023C25.874 115.416 25.6954 115.821 25.6061 116.273C25.9336 115.946 26.1658 115.571 26.3801 115.184C26.5766 114.791 26.7552 114.386 26.8445 113.933C26.5171 114.261 26.2849 114.636 26.0705 115.023ZM27.7913 98.2916C27.5888 98.6846 27.4102 99.0895 27.3268 99.542C27.6484 99.2145 27.8865 98.8394 28.0949 98.4524C28.2974 98.0535 28.476 97.6486 28.5594 97.1961C28.2378 97.5235 27.9997 97.8986 27.7913 98.2916ZM35.5198 80.4648C35.3233 80.8578 35.1447 81.2627 35.0554 81.7152C35.3828 81.3877 35.6151 81.0126 35.8294 80.6256C36.0259 80.2326 36.2045 79.8277 36.2938 79.3752C35.9664 79.7027 35.7341 80.0778 35.5198 80.4648ZM41.3311 77.1721C40.9143 77.3091 40.4975 77.4699 40.1164 77.7318C40.5808 77.7259 41.0096 77.6247 41.4323 77.5056C41.855 77.3686 42.2659 77.2079 42.647 76.9459C42.1885 76.9459 41.7538 77.0471 41.3311 77.1721ZM50.6136 108.414C50.1969 108.551 49.7801 108.711 49.399 108.973C49.8634 108.967 50.2921 108.866 50.7149 108.747C51.1376 108.61 51.5485 108.449 51.9295 108.187C51.471 108.187 51.0364 108.289 50.6136 108.414ZM33.6859 120.352C33.3882 120.447 33.0845 120.56 32.7987 120.715L33.0488 120.733C33.2036 120.745 33.3525 120.751 33.5073 120.763H33.5251C33.6204 120.733 33.6919 120.703 33.7871 120.679C34.2099 120.536 34.6207 120.382 35.0018 120.12C34.5433 120.12 34.1087 120.227 33.6859 120.352ZM34.2099 103.728C33.7871 103.865 33.3763 104.025 32.9952 104.282C33.4596 104.282 33.8883 104.18 34.3111 104.055C34.7338 103.918 35.1447 103.758 35.5257 103.496C35.0613 103.502 34.6326 103.603 34.2099 103.728ZM39.6996 89.6997C39.2769 89.8367 38.866 89.9974 38.485 90.2594C38.9494 90.2535 39.3781 90.1523 39.8009 90.0272C40.2236 89.8962 40.6344 89.7355 41.0155 89.4735C40.5511 89.4735 40.1224 89.5747 39.6996 89.6997ZM55.8117 95.7849C55.6747 95.3681 55.5139 94.9513 55.2579 94.5703C55.2579 95.0347 55.3591 95.4634 55.4842 95.8861C55.6211 96.3089 55.7819 96.7197 56.0379 97.1008C56.0379 96.6423 55.9367 96.2077 55.8117 95.7849ZM40.1581 116.845C40.0212 116.428 39.8604 116.017 39.5984 115.636C39.5984 116.095 39.7056 116.523 39.8247 116.952C39.9616 117.369 40.1224 117.78 40.3844 118.161C40.3844 117.702 40.2831 117.274 40.1581 116.845ZM26.529 106.86C26.392 106.437 26.2313 106.026 25.9752 105.645C25.9752 106.104 26.0765 106.538 26.2015 106.961C26.3384 107.384 26.4992 107.794 26.7552 108.176C26.7552 107.711 26.654 107.282 26.529 106.86ZM33.8229 95.9754C33.6859 95.5587 33.5251 95.1419 33.2632 94.7608C33.2632 95.2252 33.3703 95.6539 33.4894 96.0767C33.6264 96.4994 33.7871 96.9102 34.0491 97.2913C34.0491 96.8328 33.9479 96.3982 33.8229 95.9754ZM49.3216 120.12C49.1787 119.703 49.0239 119.286 48.7619 118.905C48.7619 119.369 48.8631 119.798 48.9882 120.221C49.1251 120.644 49.2859 121.054 49.5478 121.436C49.5478 120.977 49.4407 120.542 49.3216 120.12ZM47.1483 101.697C47.0054 101.281 46.8447 100.864 46.5886 100.483C46.5886 100.947 46.6898 101.376 46.8149 101.799C46.9518 102.221 47.1126 102.632 47.3746 103.013C47.3746 102.555 47.2674 102.12 47.1483 101.697ZM44.7428 84.7161C44.6059 84.2933 44.4451 83.8825 44.1831 83.5014C44.1831 83.9659 44.2903 84.3946 44.4094 84.8173C44.5463 85.2401 44.7071 85.6509 44.9691 86.032C44.9691 85.5675 44.8679 85.1388 44.7428 84.7161Z" fill="white"/>
<path d="M51.7271 73.939C51.7271 73.939 51.6973 73.9212 51.6973 73.939C51.6973 75.761 51.5842 79.9766 48.75 79.5479C47.6128 79.3752 46.6065 78.5952 45.7789 77.839C44.9274 77.065 44.1772 76.1778 43.5163 75.243C42.778 74.201 42.0158 73.1114 41.4621 71.9622C41.4383 71.9146 41.3609 71.9622 41.3906 72.0099C41.998 73.159 42.4922 74.3499 43.2067 75.4395C43.8973 76.4934 44.6952 77.4818 45.6479 78.3094C46.535 79.0894 47.6068 79.8694 48.8215 79.9944C49.9706 80.1135 50.8578 79.4526 51.2627 78.4047C51.7926 77.0292 51.87 75.3859 51.733 73.939H51.7271Z" fill="#001640"/>
<path d="M49.0238 77.6246C46.9637 77.702 43.796 73.6889 42.9446 70.9857C42.8851 70.8012 43.4924 69.0863 44.1295 66.9726C44.5105 65.6865 44.9035 64.2516 45.1715 62.9119L53.1679 66.6154C53.1679 66.6154 51.7866 69.259 51.34 71.599C51.3043 71.7955 51.2864 71.9801 51.2864 72.1587C51.2864 72.1825 51.2864 72.2182 51.2864 72.254C51.2507 73.3317 51.0244 77.5532 49.0298 77.6246H49.0238Z" fill="#D3766A"/>
<path d="M51.2805 72.1587C51.2805 72.1587 51.2805 72.2123 51.2805 72.248C51.0126 72.2361 50.7208 72.1944 50.4112 72.1289C45.5704 71.0572 45.6062 64.8827 45.7133 63.1619L47.714 64.0848L53.1739 66.6153C53.1739 66.6153 51.7926 69.259 51.346 71.599C51.3103 71.7955 51.2924 71.9801 51.2924 72.1587H51.2805Z" fill="#001640"/>
<path d="M42.4921 55.6597C42.2599 58.8928 45.8383 67.2585 48.4344 68.7172C52.1914 70.831 57.3597 69.9378 58.9018 65.6449C60.4023 61.4829 55.5377 50.6582 52.7333 49.4376C48.6011 47.6394 42.8374 50.8785 42.4921 55.6538V55.6597Z" fill="#D3766A"/>
<path opacity="0.2" d="M43.7545 61.2686C44.987 64.5076 46.8864 67.8539 48.4404 68.7172C52.1975 70.831 57.3598 69.9378 58.9079 65.6449C59.4556 64.1087 59.152 61.6794 58.3898 59.1489C58.4018 59.2739 58.497 61.2328 57.4788 61.6913C56.425 62.1617 55.7105 61.3162 55.7105 61.3162L54.9543 61.346C54.9543 61.346 53.9183 62.7571 51.6616 63.1263C49.405 63.4954 47.5175 62.6976 46.5708 61.8402C45.6241 60.9828 45.5467 60.5719 45.5467 60.5719L43.7426 61.2626L43.7545 61.2686Z" fill="#001640"/>
<path d="M51.8818 59.1846C51.8818 59.1846 51.8461 59.2323 51.858 59.2501C52.1141 59.8098 52.3165 60.4886 51.8818 60.8935C51.8699 60.9054 51.8818 60.9352 51.8997 60.9233C52.4892 60.572 52.2093 59.6729 51.8818 59.1846Z" fill="#001640"/>
<path d="M51.1316 58.8095C50.1968 59.1251 50.8934 60.9768 51.7627 60.6851C52.6201 60.3993 51.9176 58.5475 51.1316 58.8095Z" fill="#001640"/>
<path d="M50.0777 57.7913C50.304 57.6305 50.4885 57.4459 50.6969 57.2673C50.9351 57.0649 51.1435 56.9279 51.2269 56.6124C51.2745 56.4456 51.1435 56.2253 50.9827 56.1598C50.6136 56.0169 50.2623 56.1956 49.9646 56.4278C49.6431 56.6838 49.4644 56.9577 49.3751 57.3566C49.2918 57.7437 49.7681 57.9997 50.0658 57.7913H50.0777Z" fill="#001640"/>
<path d="M56.2164 56.6541C55.9426 56.7077 55.6806 56.7136 55.4067 56.7434C55.0971 56.7732 54.8529 56.8267 54.5671 56.6719C54.4123 56.5886 54.3409 56.3445 54.4123 56.1837C54.5671 55.8205 54.9363 55.6895 55.3114 55.6359C55.7163 55.5823 56.0438 55.6359 56.3891 55.8503C56.7285 56.0527 56.5796 56.5767 56.2224 56.6481L56.2164 56.6541Z" fill="#001640"/>
<path d="M53.5967 64.6446C53.7872 64.728 53.9896 64.8589 54.204 64.7994C54.4124 64.7399 54.6089 64.5612 54.7637 64.4243C54.7815 64.4124 54.8054 64.4243 54.7994 64.4422C54.7339 64.716 54.4719 64.9721 54.1861 65.0257C53.9122 65.0792 53.6979 64.9006 53.5431 64.6863C53.5193 64.6565 53.5609 64.6267 53.5907 64.6386L53.5967 64.6446Z" fill="#001640"/>
<path d="M53.555 62.6976C54.0611 63.0727 54.6386 63.1679 55.1864 63.0727C55.4305 63.031 55.6747 62.9476 55.9009 62.8405C55.9486 62.8226 55.9902 62.7988 56.0319 62.775C56.0736 62.7511 56.1093 62.7333 56.151 62.7095C56.2165 62.6737 56.2284 62.6023 56.2165 62.5368C56.2165 62.5368 56.1986 62.4951 56.1867 62.4772L56.1689 62.4237C56.014 61.9771 55.7163 61.3221 55.7163 61.3221C55.9069 61.34 56.8714 61.3995 56.7702 61.1733C55.9366 59.3037 55.0078 57.2316 53.7812 55.5466C53.7455 55.487 53.6502 55.5406 53.68 55.6002C54.4124 57.4281 55.4603 59.1131 56.2224 60.9351C55.9247 60.9351 55.4246 60.9113 55.1924 61.0006C55.1388 61.0423 55.7878 62.2569 55.8414 62.4653C55.8414 62.4653 55.8414 62.4713 55.8414 62.4892C55.1328 62.8643 54.4898 62.8524 53.5847 62.6261C53.5312 62.6082 53.5014 62.6678 53.549 62.6976H53.555Z" fill="#001640"/>
<path d="M55.6151 62.8524C55.6151 62.8524 55.3829 63.5014 54.9006 63.8527C54.7219 63.9837 54.5195 64.0789 54.2754 64.0849C53.7812 64.1028 53.6442 63.686 53.6145 63.2989C53.5907 62.9834 53.6561 62.6857 53.6561 62.6857C53.6561 62.6857 54.5135 63.1084 55.6091 62.8524H55.6151Z" fill="#001640"/>
<path d="M54.9066 63.8527C54.728 63.9837 54.5255 64.0789 54.2814 64.0849C53.7872 64.1027 53.6503 63.6859 53.6205 63.2989C54.1266 63.2037 54.7161 63.3882 54.9006 63.8527H54.9066Z" fill="#FF98B9"/>
<path d="M56.6743 56.9875C56.5016 57.0173 56.3468 57.0828 56.192 57.1602C56.0372 57.2435 55.8943 57.3447 55.7633 57.4698C55.6383 57.6008 55.5251 57.7496 55.4537 57.9282C55.3822 58.1069 55.3525 58.3034 55.3644 58.4939L55.3882 58.8392L55.6621 58.6249C55.8467 58.476 56.067 58.3331 56.2873 58.226C56.5135 58.1188 56.7517 58.0354 57.0315 58.0533C56.7934 57.9104 56.4778 57.8985 56.198 57.9699C55.9181 58.0414 55.668 58.1664 55.4299 58.345L55.7276 58.476C55.7216 58.1962 55.8169 57.9282 55.9955 57.6841C56.1801 57.44 56.4123 57.2137 56.6743 56.9994V56.9875Z" fill="#001640"/>
<path d="M56.5797 58.6964C56.3118 58.7619 56.0736 58.8631 55.7878 58.8571C55.7223 58.8571 55.4603 58.8393 55.4484 58.7976C55.4008 58.6845 55.377 58.5415 55.3591 58.4046C55.3472 58.5415 55.3234 58.6785 55.371 58.8274C55.4544 58.9226 55.6092 58.9822 55.7878 58.9762C56.0796 58.9583 56.3773 58.8274 56.5738 58.6904L56.5797 58.6964Z" fill="#001640"/>
<path d="M44.981 62.4177C46.6064 61.8878 45.3978 57.8985 45.3978 57.8985C45.3978 57.8985 47.7973 56.791 48.1307 53.022C48.1307 53.022 51.8938 54.2128 54.4838 53.0161C58.5386 51.1345 56.9846 45.6388 55.1031 44.9243C52.4296 43.9121 49.0119 47.2881 49.0119 47.2881C49.0119 47.2881 42.4862 47.175 41.7419 51.7597C41.7419 51.7597 39.0565 52.5814 39.652 55.6299C40.2414 58.6785 43.7723 62.8166 44.981 62.4237V62.4177Z" fill="#001640"/>
<path d="M44.9274 58.5296C46.0765 57.9759 47.0828 57.1185 47.6544 55.9634C48.2498 54.7725 48.351 53.153 47.6544 51.986C47.6187 51.9205 47.7258 51.8669 47.7556 51.9324C48.4225 53.2602 48.7142 54.7249 48.1307 56.148C47.5948 57.446 46.3861 58.482 44.9691 58.6487C44.9036 58.6547 44.8619 58.5654 44.9274 58.5296Z" fill="#001640"/>
<path d="M38.9792 53.9271C39.5389 52.6469 40.7773 52.1468 42.0515 51.861C42.123 51.8431 42.1468 51.9622 42.0753 51.9741C40.7952 52.1527 39.7532 53.3138 39.3721 54.4987C38.997 55.6597 39.4674 56.8803 40.0092 57.9164C41.0512 59.905 42.7958 61.4889 44.9095 62.2629C44.9453 62.2748 44.9274 62.3284 44.8917 62.3165C42.5219 61.5544 40.4975 59.8455 39.4317 57.5829C38.9137 56.4814 38.4612 55.1 38.9792 53.9211V53.9271Z" fill="#001640"/>
<path d="M48.8928 47.5263C49.2382 46.5022 49.8455 45.6745 50.7624 45.1267C51.8223 44.4956 53.1798 44.3051 54.3885 44.567C55.4127 44.7874 56.1569 45.5793 56.4844 46.5736C56.8595 47.7049 56.6035 48.9315 56.1867 50.0032C56.1748 50.033 56.1272 50.0211 56.1391 49.9854C56.4427 48.997 56.5975 47.9193 56.2641 46.907C55.9366 45.9008 55.1745 45.1863 54.1504 45.0136C52.2034 44.6921 49.6847 45.484 49 47.5561C48.9762 47.6275 48.869 47.5858 48.8928 47.5203V47.5263Z" fill="#001640"/>
<path d="M45.9813 62.3522C45.9813 62.3522 43.3198 60.03 42.2183 61.0482C41.1167 62.0664 43.6056 65.7699 45.243 65.9544C46.8804 66.139 47.0769 64.6267 47.0769 64.6267L45.9813 62.3462V62.3522Z" fill="#D3766A"/>
<path d="M42.9565 62.0961C42.9565 62.0961 42.9387 62.1378 42.9565 62.1378C44.1117 62.3045 44.9095 63.1381 45.5466 64.0491C45.1358 63.7395 44.6594 63.6323 44.2307 64.1324C44.2069 64.1563 44.2427 64.1979 44.2724 64.1801C44.6773 63.9836 45.0107 63.9776 45.3859 64.2515C45.6538 64.4421 45.8681 64.7159 46.0884 64.9601C46.1599 65.0434 46.3207 64.9482 46.2552 64.8529C46.2552 64.8469 46.2433 64.841 46.2433 64.8291C45.9396 63.4834 44.4332 61.8698 42.9625 62.0902L42.9565 62.0961Z" fill="#001640"/>
<path d="M80.0571 59.774L55.9784 61.7031L55.2639 56.261L79.0211 51.8847L80.0571 59.774Z" fill="#001640"/>
<path d="M93.7517 60.2146L69.5837 61.4591L68.4584 52.9684L92.1262 47.9073L93.7517 60.2146Z" fill="#37474F"/>
<path d="M105.517 61.5722L86.9937 61.1732L85.3503 48.735L103.141 43.5429L105.517 61.5722Z" fill="#455A64"/>
<path d="M105.565 52.3908C106.166 56.9398 106.101 60.6969 105.416 60.7862C104.737 60.8755 103.695 57.2613 103.094 52.7183C102.492 48.1693 102.558 44.4122 103.243 44.3229C103.921 44.2336 104.963 47.8478 105.565 52.3908Z" fill="#3F80FF"/>
<path d="M43.1411 82.65C51.2031 90.0987 72.0546 101.834 76.3536 99.7385C84.2905 95.8742 85.8803 72.3195 86.6245 67.7169C86.9401 65.752 70.191 65.5377 69.804 67.6335C69.4705 69.4555 69.5182 81.7747 68.0237 82.3225C67.4104 82.5488 58.0325 79.4288 47.4996 77.7318C39.4317 76.4338 40.7535 80.4469 43.1411 82.65Z" fill="#D3766A"/>
<path d="M69.5598 71.4502C69.5598 71.4502 69.8456 69.5151 69.137 64.7874C68.5833 61.0958 69.8516 52.0395 78.8066 46.5915C82.2363 44.5015 85.2014 46.002 82.0219 48.8005C79.7831 50.7772 78.0624 51.9502 77.5086 52.8017C77.5086 52.8017 82.0755 52.5754 83.7129 54.6534C84.4453 55.5823 86.3863 58.1664 87.6069 60.3932C87.6069 60.3932 87.1961 60.7922 86.6007 61.2209C86.6007 61.2209 88.5775 63.9062 86.7019 67.1512L86.1779 71.2001L69.5538 71.4502H69.5598Z" fill="#D3766A"/>
<path d="M69.661 61.4769C70.6732 59.8038 72.8763 56.2968 75.6807 54.052C78.7947 51.5572 85.4634 47.5977 87.2794 49.9139C88.6132 51.6108 86.1958 53.3494 86.1958 53.3494C86.1958 53.3494 89.2979 52.2955 90.1672 54.0877C90.9591 55.7251 89.0121 56.9577 89.0121 56.9577C89.0121 56.9577 91.0008 56.6421 91.4593 58.3628C92.007 60.4349 87.7439 60.7624 86.4875 63.3465C86.2077 63.9241 69.661 61.4769 69.661 61.4769Z" fill="#D3766A"/>
<path d="M77.7647 57.7794C78.9734 56.3623 82.5519 53.8496 86.1184 53.3197C86.2018 53.3078 86.2494 53.3614 86.178 53.3911C82.3732 54.8082 79.1163 56.8624 77.7826 57.8151C77.7647 57.827 77.7468 57.8032 77.7587 57.7853L77.7647 57.7794Z" fill="#001640"/>
<path d="M80.3726 60.8458C81.5397 59.7323 85.3444 57.303 88.9764 56.8922C89.0598 56.8803 89.1074 56.9398 89.036 56.9636C84.999 58.2855 81.7778 60.0062 80.3964 60.8755C80.3786 60.8874 80.3607 60.8577 80.3726 60.8458Z" fill="#001640"/>
<path d="M86.428 69.3186C86.428 68.5862 86.4816 67.8598 86.5411 67.1334V67.1096L86.5709 67.0619C86.946 66.3832 87.1901 65.5913 87.2616 64.8053C87.3449 64.0134 87.2497 63.2155 87.0413 62.4296L87.0115 62.3284L87.077 62.2748C87.5533 61.8818 88.0594 61.5305 88.6191 61.2745C88.381 61.465 88.1487 61.6555 87.9284 61.8639C87.7141 62.0723 87.4878 62.2748 87.2854 62.4891L87.3211 62.3343C87.47 62.7273 87.6069 63.1381 87.6605 63.5668C87.7379 63.9896 87.7319 64.4242 87.7022 64.8529C87.6664 65.2816 87.5652 65.7044 87.4342 66.1093C87.2854 66.5142 87.1127 66.9012 86.8448 67.2644L86.8745 67.187C86.7495 67.9015 86.6126 68.6219 86.428 69.3305V69.3186Z" fill="#001640"/>
<path d="M69.5599 71.4501L86.1839 71.2001C86.1839 71.2001 89.2325 74.2188 88.4882 77.3865C87.7439 80.5541 81.3432 99.1907 75.7998 100.155C70.2565 101.114 50.959 89.8605 44.4451 84.2874C37.9312 78.7142 39.2293 76.3802 47.839 77.2674C56.4488 78.1546 67.8153 81.8521 67.9999 81.7687C68.1844 81.6854 67.4044 77.3567 67.5057 75.6359C67.6069 73.9152 69.5658 71.4561 69.5658 71.4561L69.5599 71.4501Z" fill="#3F80FF"/>
<path d="M84.1773 87.0739C84.3798 87.2764 84.6001 87.4431 84.8323 87.586C84.874 87.4967 84.9097 87.4014 84.9514 87.3121C84.7073 87.2109 84.4512 87.1215 84.1773 87.0739ZM77.8421 74.9333C77.4432 74.7368 77.0383 74.5582 76.5858 74.4689C76.9132 74.7964 77.2884 75.0286 77.6754 75.243C78.0743 75.4394 78.4792 75.6181 78.9317 75.7074C78.6042 75.3799 78.2291 75.1477 77.8421 74.9333ZM65.5348 84.6148C65.1418 84.4124 64.7369 84.2338 64.2844 84.1504C64.6119 84.4779 64.987 84.7101 65.374 84.9185C65.767 85.1209 66.1719 85.2996 66.6244 85.3829C66.2969 85.0614 65.9218 84.8232 65.5348 84.6148ZM76.5084 86.1689C76.1154 85.9724 75.7105 85.7938 75.258 85.7044C75.5855 86.0319 75.9606 86.2641 76.3476 86.4785C76.7406 86.675 77.1455 86.8536 77.598 86.9429C77.2705 86.6154 76.8954 86.3832 76.5084 86.1689ZM64.6536 94.1534C64.4511 94.5464 64.2725 94.9513 64.1892 95.4038C64.5166 95.0763 64.7488 94.7012 64.9572 94.3142C65.1597 93.9212 65.3383 93.5163 65.4217 93.0638C65.1001 93.3913 64.8679 93.7664 64.6536 94.1534ZM79.9916 91.4979C79.7891 91.8908 79.6105 92.2957 79.5271 92.7482C79.8546 92.4208 80.0868 92.0457 80.2952 91.6586C80.4977 91.2657 80.6763 90.8608 80.7596 90.4082C80.4381 90.7357 80.2059 91.1108 79.9916 91.4979ZM71.7688 80.3159C71.5664 80.7089 71.3878 81.1138 71.3044 81.5663C71.6319 81.2388 71.8641 80.8637 72.0725 80.4767C72.2749 80.0837 72.4536 79.6788 72.5369 79.2203C72.2154 79.5478 71.9832 79.9289 71.7688 80.3159ZM74.2517 95.7491C73.8349 95.8861 73.4181 96.0469 73.0371 96.3029C73.5015 96.3029 73.9302 96.2017 74.3529 96.0766C74.7757 95.9397 75.1865 95.7789 75.5676 95.5229C75.1091 95.5229 74.6745 95.6241 74.2517 95.7491ZM59.795 90.0927C59.3722 90.2296 58.9614 90.3904 58.5803 90.6464C59.0388 90.6464 59.4734 90.5452 59.8962 90.4202C60.313 90.2832 60.7238 90.1224 61.1108 89.8664C60.6464 89.8664 60.2177 89.9676 59.795 90.0927ZM81.7064 81.5127C81.5694 81.0959 81.4086 80.6851 81.1526 80.2981C81.1526 80.7625 81.2538 81.1912 81.3789 81.6199C81.5158 82.0367 81.6766 82.4475 81.9326 82.8286C81.9326 82.3701 81.8314 81.9414 81.7064 81.5127ZM57.4609 83.3109C57.324 82.8881 57.1632 82.4773 56.9012 82.0962C56.9012 82.5606 57.0084 82.9893 57.1335 83.4121C57.2644 83.8348 57.4252 84.2457 57.6872 84.6267C57.6872 84.1623 57.586 83.7336 57.4609 83.3109ZM69.9171 89.4199C69.7801 89.0031 69.6194 88.5922 69.3633 88.2052C69.3633 88.6696 69.4646 89.0983 69.5896 89.527C69.7265 89.9438 69.8873 90.3547 70.1433 90.7357C70.1433 90.2773 70.0421 89.8486 69.9171 89.4199ZM70.2267 73.7961C69.8337 73.5936 69.4288 73.415 68.9704 73.3317C69.2978 73.6532 69.6789 73.8854 70.0659 74.0998C70.4589 74.2962 70.8638 74.4749 71.3163 74.5642C70.9888 74.2367 70.6137 74.0045 70.2267 73.7961ZM85.8922 75.6538C85.6957 76.0468 85.517 76.4517 85.4277 76.9042C85.7552 76.5826 85.9874 76.2016 86.2018 75.8146C86.3982 75.4216 86.5769 75.0167 86.6662 74.5642C86.3387 74.8917 86.1065 75.2668 85.8922 75.6538ZM52.8286 87.5919C52.4356 87.3895 52.0307 87.2109 51.5782 87.1275C51.9057 87.455 52.2808 87.6872 52.6678 87.8956C53.0608 88.098 53.4657 88.2767 53.9182 88.36C53.5907 88.0385 53.2156 87.8063 52.8286 87.5919ZM49.0715 80.0718C48.869 80.4648 48.6904 80.8697 48.6071 81.3222C48.9286 80.9947 49.1608 80.6196 49.3752 80.2326C49.5716 79.8396 49.7503 79.4347 49.8396 78.9822C49.5121 79.3097 49.2799 79.6848 49.0715 80.0718ZM44.1831 83.5014C44.1831 83.7158 44.2069 83.9182 44.2486 84.1147C44.3141 84.1742 44.3796 84.2278 44.4451 84.2874L44.6594 84.466C44.5404 84.1325 44.3915 83.8051 44.1831 83.5014Z" fill="white"/>
<path d="M53.5491 77.3031C54.3231 77.6008 55.0853 77.9462 55.8295 78.3034C56.1689 78.4642 56.5083 78.6309 56.8537 78.7857C55.0734 78.3689 53.2811 77.9759 51.4889 77.6246C51.4354 77.6127 51.4175 77.702 51.4711 77.7199C54.2338 78.5773 57.0323 79.3513 59.8367 80.0658C62.5935 80.7625 65.3562 81.602 68.1785 81.9593C68.2619 81.9712 68.2797 81.8521 68.2083 81.8223C65.511 80.7803 62.6411 80.1968 59.8367 79.4942C59.152 79.3216 58.4672 79.1668 57.7766 79.006C57.5443 78.8572 57.3062 78.7142 57.0621 78.5773C56.7048 78.3808 56.3297 78.2081 55.9546 78.0474C55.1746 77.7199 54.3827 77.4579 53.5789 77.2138C53.5193 77.1959 53.4895 77.2793 53.5491 77.3031Z" fill="#001640"/>
<path d="M47.1483 88.1636C47.6783 88.372 48.2201 88.5506 48.7619 88.7173C49.006 88.7947 49.2561 88.8662 49.5002 88.9495C48.3928 88.3303 47.2972 87.6932 46.2076 87.0323C46.1719 87.0144 46.2076 86.9549 46.2374 86.9727C48.0415 87.8242 49.8277 88.7352 51.5961 89.6819C53.3288 90.6107 54.1624 90.9025 55.7879 92.0457C55.8355 92.0814 55.7938 92.1469 55.7462 92.129C53.8944 91.4026 53.1144 90.9322 51.3579 89.9796C50.9292 89.7474 50.5065 89.5032 50.0778 89.2651C49.8932 89.2353 49.7086 89.1996 49.5241 89.1519C49.2561 89.0865 48.9822 89.0031 48.7202 88.9078C48.1784 88.7113 47.6544 88.4791 47.1245 88.2231C47.0888 88.2052 47.1067 88.1457 47.1483 88.1636Z" fill="#001640"/>
<path d="M69.4706 71.3966C68.6191 72.4148 67.8808 73.6532 67.5116 74.9393C67.1246 76.285 67.3509 77.6782 67.5116 79.0418C67.6962 80.5601 67.9463 82.0724 68.2678 83.5669C68.2261 83.6682 68.2381 83.8289 68.2321 83.9361C68.2321 84.0969 68.2321 84.2576 68.2381 84.4124C68.2619 85.0317 68.3393 85.6449 68.4643 86.2523C68.4703 86.288 68.5179 86.2761 68.5179 86.2404C68.4584 85.7938 68.4226 85.3532 68.3929 84.9066C68.375 84.6744 68.3631 84.4422 68.3571 84.204C68.3571 84.1088 68.3571 84.0135 68.3512 83.9182C68.6429 85.2341 68.9883 86.5381 69.3991 87.8182C69.417 87.8718 69.5003 87.8599 69.4825 87.8004C68.8632 85.0198 68.3512 82.2213 68.0118 79.393C67.8451 77.9938 67.5533 76.4755 68.0118 75.106C68.4405 73.8497 69.0061 72.641 69.5718 71.4442C69.6016 71.3787 69.5063 71.349 69.4706 71.3906V71.3966Z" fill="#001640"/>
</g>
<defs>
<clipPath id="clip0_570_9500">
<rect width="276.286" height="256" fill="white" transform="translate(0.753418)"/>
</clipPath>
</defs>
</svg>
