<svg width="344" height="256" viewBox="0 0 344 256" fill="none" xmlns="http://www.w3.org/2000/svg">
<g clip-path="url(#clip0_570_8366)">
<path d="M343.563 224.973H0.0407715V225.145H343.563V224.973Z" fill="#EBEBEB"/>
<path d="M309.143 236.028H286.388V236.199H309.143V236.028Z" fill="#EBEBEB"/>
<path d="M227.604 237.896H221.633V238.068H227.604V237.896Z" fill="#EBEBEB"/>
<path d="M285.7 229.652H272.516V229.824H285.7V229.652Z" fill="#EBEBEB"/>
<path d="M65.7567 230.806H36.0832V230.978H65.7567V230.806Z" fill="#EBEBEB"/>
<path d="M76.2272 230.806H71.8782V230.978H76.2272V230.806Z" fill="#EBEBEB"/>
<path d="M154.729 233.705H90.3666V233.877H154.729V233.705Z" fill="#EBEBEB"/>
<path d="M162.877 194.331H30.2089C28.0447 194.331 26.2859 192.572 26.2859 190.408V3.92303C26.2859 1.75884 28.0447 0 30.2089 0H162.877C165.042 0 166.8 1.75884 166.8 3.92303V190.408C166.8 192.572 165.042 194.331 162.877 194.331ZM30.2089 0.171761C28.1409 0.171761 26.4576 1.85502 26.4576 3.92303V190.408C26.4576 192.476 28.1409 194.159 30.2089 194.159H162.877C164.945 194.159 166.629 192.476 166.629 190.408V3.92303C166.629 1.85502 164.945 0.171761 162.877 0.171761H30.2089Z" fill="#EBEBEB"/>
<path d="M311.485 194.331H178.817C176.653 194.331 174.894 192.572 174.894 190.408V3.92303C174.894 1.75884 176.653 0 178.817 0H311.485C313.65 0 315.408 1.75884 315.408 3.92303V190.408C315.408 192.572 313.65 194.331 311.485 194.331ZM178.817 0.171761C176.749 0.171761 175.066 1.85502 175.066 3.92303V190.408C175.066 192.476 176.749 194.159 178.817 194.159H311.485C313.553 194.159 315.237 192.476 315.237 190.408V3.92303C315.237 1.85502 313.553 0.171761 311.485 0.171761H178.817Z" fill="#EBEBEB"/>
<path d="M153.039 88.4777H45.4888V224.664H153.039V88.4777Z" fill="#F0F0F0"/>
<path d="M149.233 93.4382H49.2882V122.562H149.233V93.4382Z" fill="#E0E0E0"/>
<path d="M54.9632 98.1581H49.2882V122.562H54.9632V98.1581Z" fill="#EBEBEB"/>
<path d="M82.4175 98.1581H76.7426V122.562H82.4175V98.1581Z" fill="#EBEBEB"/>
<path d="M113.579 97.5445L107.987 98.5085L112.132 122.558L117.725 121.594L113.579 97.5445Z" fill="#EBEBEB"/>
<path d="M61.9985 101.374H56.3235V122.562H61.9985V101.374Z" fill="#EBEBEB"/>
<path d="M75.0455 101.374H69.3705V122.562H75.0455V101.374Z" fill="#EBEBEB"/>
<path d="M107.982 101.374H102.307V122.562H107.982V101.374Z" fill="#EBEBEB"/>
<path d="M89.872 100.642L84.3322 101.874L88.929 122.557L94.4688 121.326L89.872 100.642Z" fill="#EBEBEB"/>
<path d="M66.9109 96.9421H64.0734V122.562H66.9109V96.9421Z" fill="#EBEBEB"/>
<path d="M100.679 96.9421H97.8417V122.562H100.679V96.9421Z" fill="#EBEBEB"/>
<path d="M49.2882 156.296H149.233V127.172L49.2882 127.172V156.296Z" fill="#E0E0E0"/>
<path d="M143.558 156.296H149.233V131.892H143.558V156.296Z" fill="#EBEBEB"/>
<path d="M116.103 156.296H121.778V131.892H116.103V156.296Z" fill="#EBEBEB"/>
<path d="M80.7918 155.329L86.3843 156.293L90.5297 132.244L84.9372 131.28L80.7918 155.329Z" fill="#EBEBEB"/>
<path d="M136.515 156.296H142.19V135.107H136.515V156.296Z" fill="#EBEBEB"/>
<path d="M123.475 156.296H129.15V135.107H123.475V156.296Z" fill="#EBEBEB"/>
<path d="M90.5316 156.296H96.2065V135.107H90.5316V156.296Z" fill="#EBEBEB"/>
<path d="M104.058 155.061L109.598 156.292L114.195 135.608L108.655 134.377L104.058 155.061Z" fill="#EBEBEB"/>
<path d="M131.61 156.296H134.447V130.676H131.61V156.296Z" fill="#EBEBEB"/>
<path d="M97.8417 156.296H100.679V130.676H97.8417V156.296Z" fill="#EBEBEB"/>
<path d="M54.9632 131.885H49.2882V156.289H54.9632V131.885Z" fill="#EBEBEB"/>
<path d="M61.9985 135.101H56.3235V156.289H61.9985V135.101Z" fill="#EBEBEB"/>
<path d="M75.0455 135.101H69.3705V156.289H75.0455V135.101Z" fill="#EBEBEB"/>
<path d="M66.9109 130.676H64.0734V156.296H66.9109V130.676Z" fill="#EBEBEB"/>
<path d="M149.233 160.906H49.2882V190.03H149.233V160.906Z" fill="#E0E0E0"/>
<path d="M112.325 165.619H106.65V190.023H112.325V165.619Z" fill="#EBEBEB"/>
<path d="M143.499 165.01L137.906 165.974L142.051 190.023L147.644 189.059L143.499 165.01Z" fill="#EBEBEB"/>
<path d="M91.9057 168.835H86.2307V190.023H91.9057V168.835Z" fill="#EBEBEB"/>
<path d="M104.959 168.835H99.2845V190.023H104.959V168.835Z" fill="#EBEBEB"/>
<path d="M137.896 168.835H132.221V190.023H137.896V168.835Z" fill="#EBEBEB"/>
<path d="M119.79 168.1L114.25 169.331L118.847 190.015L124.386 188.784L119.79 168.1Z" fill="#EBEBEB"/>
<path d="M96.818 164.41H93.9805V190.03H96.818V164.41Z" fill="#EBEBEB"/>
<path d="M130.586 164.41H127.749V190.03H130.586V164.41Z" fill="#EBEBEB"/>
<path d="M78.1755 165.01L72.5829 165.974L76.7283 190.023L82.3208 189.059L78.1755 165.01Z" fill="#EBEBEB"/>
<path d="M72.579 168.835H66.9041V190.023H72.579V168.835Z" fill="#EBEBEB"/>
<path d="M54.4684 168.104L48.9285 169.335L53.5254 190.019L59.0652 188.788L54.4684 168.104Z" fill="#EBEBEB"/>
<path d="M65.2689 164.41H62.4314V190.03H65.2689V164.41Z" fill="#EBEBEB"/>
<path d="M209.782 143.373H270.386C276.961 143.373 282.293 148.704 282.293 155.279V202.603H197.882V155.279C197.882 148.704 203.214 143.373 209.789 143.373H209.782Z" fill="#E6E6E6"/>
<path d="M179.964 178.453H190.813C194.722 178.453 197.889 181.62 197.889 185.53V224.671H172.895V185.53C172.895 181.62 176.062 178.453 179.971 178.453H179.964Z" fill="#E0E0E0"/>
<path d="M179.964 178.453H180.191C184.1 178.453 187.268 181.62 187.268 185.53V224.671H172.895V185.53C172.895 181.62 176.062 178.453 179.971 178.453H179.964Z" fill="#EBEBEB"/>
<path d="M273.464 206.684H190.291V224.664H273.464V206.684Z" fill="#E6E6E6"/>
<path d="M270.386 190.243H190.174C186.201 190.243 182.98 193.463 182.98 197.436V201.909C182.98 205.882 186.201 209.102 190.174 209.102H270.386C274.359 209.102 277.58 205.882 277.58 201.909V197.436C277.58 193.463 274.359 190.243 270.386 190.243Z" fill="#F5F5F5"/>
<path d="M270.249 190.243H260.307C256.335 190.243 253.114 193.463 253.114 197.436V201.909C253.114 205.882 256.335 209.102 260.307 209.102H270.249C274.222 209.102 277.442 205.882 277.442 201.909V197.436C277.442 193.463 274.222 190.243 270.249 190.243Z" fill="#E0E0E0"/>
<path d="M271.327 178.453H282.176C286.085 178.453 289.253 181.62 289.253 185.53V224.671H264.258V185.53C264.258 181.62 267.425 178.453 271.334 178.453H271.327Z" fill="#E0E0E0"/>
<path d="M271.327 178.453H271.554C275.464 178.453 278.631 181.62 278.631 185.53V224.671H264.258V185.53C264.258 181.62 267.425 178.453 271.334 178.453H271.327Z" fill="#F0F0F0"/>
<path d="M103.277 71.9292C112.097 70.4975 118.087 62.1864 116.655 53.3659C115.224 44.5454 106.913 38.5557 98.0921 39.9875C89.2717 41.4192 83.282 49.7303 84.7137 58.5508C86.1455 67.3713 94.4566 73.361 103.277 71.9292Z" fill="#E0E0E0"/>
<path d="M102.89 69.5421C110.392 68.3243 115.486 61.2555 114.268 53.7534C113.051 46.2513 105.982 41.1569 98.4797 42.3746C90.9776 43.5924 85.8831 50.6612 87.1009 58.1633C88.3186 65.6654 95.3875 70.7599 102.89 69.5421Z" fill="#F0F0F0"/>
<path d="M100.026 65.393V55.7744L93.6575 59.3813" fill="#F0F0F0"/>
<path d="M100.026 65.393V55.7744L93.6575 59.3813" stroke="#E0E0E0" stroke-width="2" stroke-linecap="round" stroke-linejoin="round"/>
<path d="M294.515 35.5408H190.943V127.447H294.515V35.5408Z" fill="#E6E6E6"/>
<path d="M291.788 38.0623H193.533V124.98H291.788V38.0623Z" fill="#F0F0F0"/>
<path d="M216.591 38.0623L193.533 124.788V84.0325L205.708 38.0623H216.591Z" fill="white"/>
<path d="M224.76 38.0623L201.496 124.98H197.786L221.049 38.0623H224.76Z" fill="white"/>
<path d="M291.788 92.9091V106.794L287.081 124.98H283.371L291.788 92.9091Z" fill="white"/>
<path d="M227.803 36.4958H226.147V126.918H227.803V36.4958Z" fill="#E6E6E6"/>
<path d="M259.881 36.4958H258.226V126.918H259.881V36.4958Z" fill="#E6E6E6"/>
<path d="M171.802 256C245.373 256 305.013 252.518 305.013 248.223C305.013 243.927 245.373 240.445 171.802 240.445C98.2316 240.445 38.5909 243.927 38.5909 248.223C38.5909 252.518 98.2316 256 171.802 256Z" fill="#F5F5F5"/>
<path d="M276.164 231.04C276.164 231.04 279.428 223.922 275.697 216.9C271.966 209.879 270.888 208.23 273.265 206.787C275.642 205.344 276.735 212.4 276.735 212.4C276.735 212.4 278.741 207.55 277.085 202.472C275.429 197.395 274.392 189.123 276.652 188.237C278.912 187.35 277.085 198.556 279.043 202.376C279.043 202.376 280.692 198.123 280.96 194.042C281.228 189.961 280.809 183.448 282.595 181.778C284.381 180.109 285.522 181.263 283.77 190.263C282.018 199.264 282.032 206.581 282.032 206.581C282.032 206.581 285.907 194.77 288.504 194.427C291.101 194.083 291.101 197.903 288.875 201.222C286.649 204.54 282.361 210.483 281.654 213.541C281.654 213.541 285.907 204.657 289.727 207.378C293.553 210.098 286.401 215.471 283.213 217.409C280.025 219.346 277.813 231.507 277.813 231.507L276.171 231.04H276.164Z" fill="#3F80FF"/>
<path opacity="0.2" d="M276.164 231.04C276.164 231.04 279.428 223.922 275.697 216.9C271.966 209.879 270.888 208.23 273.265 206.787C275.642 205.344 276.735 212.4 276.735 212.4C276.735 212.4 278.741 207.55 277.085 202.472C275.429 197.395 274.392 189.123 276.652 188.237C278.912 187.35 277.085 198.556 279.043 202.376C279.043 202.376 280.692 198.123 280.96 194.042C281.228 189.961 280.809 183.448 282.595 181.778C284.381 180.109 285.522 181.263 283.77 190.263C282.018 199.264 282.032 206.581 282.032 206.581C282.032 206.581 285.907 194.77 288.504 194.427C291.101 194.083 291.101 197.903 288.875 201.222C286.649 204.54 282.361 210.483 281.654 213.541C281.654 213.541 285.907 204.657 289.727 207.378C293.553 210.098 286.401 215.471 283.213 217.409C280.025 219.346 277.813 231.507 277.813 231.507L276.171 231.04H276.164Z" fill="black"/>
<path d="M278.741 233.96C278.741 233.96 275.56 226.794 279.373 219.827C283.186 212.86 284.285 211.225 281.929 209.755C279.572 208.285 278.397 215.32 278.397 215.32C278.397 215.32 276.453 210.435 278.17 205.385C279.888 200.329 281.022 192.077 278.775 191.157C276.528 190.236 278.219 201.469 276.212 205.255C276.212 205.255 274.618 200.981 274.392 196.893C274.165 192.806 274.673 186.306 272.908 184.609C271.142 182.912 269.988 184.053 271.63 193.08C273.272 202.108 273.176 209.425 273.176 209.425C273.176 209.425 269.445 197.56 266.848 197.175C264.251 196.79 264.21 200.617 266.394 203.963C268.579 207.316 272.798 213.321 273.464 216.385C273.464 216.385 269.321 207.44 265.467 210.105C261.613 212.771 268.696 218.247 271.863 220.232C275.031 222.218 277.092 234.406 277.092 234.406L278.741 233.96Z" fill="#3F80FF"/>
<path d="M264.079 228.848H290.331L288.208 247.632H266.209L264.079 228.848Z" fill="#001640"/>
<path d="M166.718 244.616V247.082C166.718 247.391 166.471 247.632 166.161 247.632H96.4813C93.9049 247.632 92.1461 245.028 93.1079 242.644L115.19 187.955L150.875 188.195L149.659 195.293L141.785 241.222C141.531 242.706 142.671 244.059 144.176 244.059H166.161C166.471 244.059 166.718 244.3 166.718 244.609V244.616Z" fill="#001640"/>
<path opacity="0.5" d="M166.718 244.616V247.082C166.718 247.391 166.471 247.632 166.161 247.632H96.4813C93.9049 247.632 92.1461 245.028 93.1079 242.644L106.801 208.745L115.19 187.955L150.875 188.195L149.659 195.293L146.237 215.265L141.792 241.215C141.538 242.699 142.678 244.052 144.183 244.052H166.168C166.478 244.052 166.725 244.293 166.725 244.602L166.718 244.616Z" fill="white"/>
<path opacity="0.2" d="M144.176 244.066H98.8379C97.7042 244.066 96.9347 242.912 97.3676 241.867L116.729 195.306H149.659L141.785 241.235C141.531 242.719 142.671 244.073 144.176 244.073V244.066Z" fill="black"/>
<path opacity="0.1" d="M150.875 188.202L149.659 195.3L146.23 215.272L106.801 208.745L115.19 187.962L150.875 188.202Z" fill="black"/>
<path d="M220.259 86.2595H55.0594C52.7234 86.2595 50.834 88.1488 50.834 90.4848V202.322C50.834 204.658 52.7234 206.547 55.0594 206.547H220.259C222.595 206.547 224.485 204.658 224.485 202.322V90.4848C224.485 88.1488 222.588 86.2595 220.259 86.2595Z" fill="#001640"/>
<path opacity="0.6" d="M220.259 86.2595H55.0594C52.7234 86.2595 50.834 88.1488 50.834 90.4848V202.322C50.834 204.658 52.7234 206.547 55.0594 206.547H220.259C222.595 206.547 224.485 204.658 224.485 202.322V90.4848C224.485 88.1488 222.588 86.2595 220.259 86.2595Z" fill="white"/>
<path opacity="0.2" d="M58.5633 206.546H55.0594C52.7303 206.546 50.834 204.657 50.834 202.321V90.4838C50.834 88.1479 52.7234 86.2516 55.0594 86.2516H58.5633C56.2342 86.2516 54.338 88.141 54.338 90.4838V202.321C54.338 204.65 56.2274 206.546 58.5633 206.546Z" fill="black"/>
<path d="M220.685 89.8862H58.1511V197.732H220.685V89.8862Z" fill="#3F80FF"/>
<path opacity="0.4" d="M137.175 130.944C144.969 130.944 151.287 124.626 151.287 116.832C151.287 109.038 144.969 102.72 137.175 102.72C129.381 102.72 123.063 109.038 123.063 116.832C123.063 124.626 129.381 130.944 137.175 130.944Z" fill="white"/>
<path d="M133.808 114.689V113.369C133.808 112.085 134.853 111.047 136.131 111.047H138.212C139.497 111.047 140.535 112.091 140.535 113.369V114.689H142.039V113.369C142.039 111.26 140.322 109.543 138.212 109.543H136.131C134.021 109.543 132.304 111.26 132.304 113.369V114.689H133.808Z" fill="white"/>
<path d="M130.408 116.427V123.359C130.408 123.785 130.751 124.129 131.177 124.129H143.173C143.599 124.129 143.942 123.785 143.942 123.359V116.427C143.942 116.001 143.599 115.657 143.173 115.657H131.177C130.751 115.657 130.408 116.001 130.408 116.427ZM137.608 120.357V121.717H136.742V120.357C136.495 120.205 136.323 119.944 136.323 119.635C136.323 119.161 136.708 118.776 137.182 118.776C137.656 118.776 138.041 119.161 138.041 119.635C138.041 119.944 137.869 120.205 137.622 120.357H137.608Z" fill="white"/>
<path d="M102.747 142.631H89.4185C88.6254 142.631 87.9825 143.274 87.9825 144.067V157.395C87.9825 158.188 88.6254 158.831 89.4185 158.831H102.747C103.54 158.831 104.183 158.188 104.183 157.395V144.067C104.183 143.274 103.54 142.631 102.747 142.631Z" fill="white"/>
<path d="M123.297 142.61H109.968C109.175 142.61 108.532 143.253 108.532 144.046V157.375C108.532 158.168 109.175 158.811 109.968 158.811H123.297C124.09 158.811 124.733 158.168 124.733 157.375V144.046C124.733 143.253 124.09 142.61 123.297 142.61Z" fill="white"/>
<path d="M143.839 142.583H130.511C129.718 142.583 129.075 143.225 129.075 144.018V157.347C129.075 158.14 129.718 158.783 130.511 158.783H143.839C144.632 158.783 145.275 158.14 145.275 157.347V144.018C145.275 143.225 144.632 142.583 143.839 142.583Z" fill="white"/>
<path d="M164.382 142.562H151.053C150.26 142.562 149.617 143.205 149.617 143.998V157.327C149.617 158.12 150.26 158.762 151.053 158.762H164.382C165.175 158.762 165.818 158.12 165.818 157.327V143.998C165.818 143.205 165.175 142.562 164.382 142.562Z" fill="white"/>
<path d="M184.925 142.541H171.596C170.803 142.541 170.16 143.184 170.16 143.977V157.306C170.16 158.099 170.803 158.742 171.596 158.742H184.925C185.718 158.742 186.361 158.099 186.361 157.306V143.977C186.361 143.184 185.718 142.541 184.925 142.541Z" fill="white"/>
<path d="M174.695 150.958C174.695 148.106 176.22 146.485 178.267 146.485C180.315 146.485 181.826 148.113 181.826 150.958C181.826 153.802 180.301 155.43 178.267 155.43C176.233 155.43 174.695 153.809 174.695 150.958ZM180.582 150.958C180.582 148.718 179.634 147.598 178.267 147.598C176.9 147.598 175.945 148.725 175.945 150.958C175.945 153.191 176.893 154.317 178.267 154.317C179.641 154.317 180.582 153.191 180.582 150.958Z" fill="#001640"/>
<path d="M99.3394 150.841C99.3394 153.83 97.6493 155.423 95.2034 155.423C94.3789 155.423 93.5888 155.259 93.0323 154.908L93.5064 153.933C93.9667 154.235 94.5576 154.345 95.1965 154.345C96.9691 154.345 98.0959 153.232 98.0959 151.047V150.738C97.5806 151.5 96.6599 151.885 95.5744 151.885C93.8362 151.885 92.5858 150.848 92.5858 149.233C92.5858 147.619 93.9324 146.471 95.6706 146.471C98.0203 146.471 99.3463 148.045 99.3463 150.834L99.3394 150.841ZM97.8004 149.178C97.8004 148.278 97.079 147.488 95.7118 147.488C94.5713 147.488 93.7881 148.148 93.7881 149.185C93.7881 150.223 94.5507 150.875 95.7736 150.875C96.9966 150.875 97.8004 150.14 97.8004 149.178Z" fill="#001640"/>
<path d="M113.06 150.958C113.06 148.106 114.585 146.485 116.632 146.485C118.68 146.485 120.191 148.113 120.191 150.958C120.191 153.802 118.666 155.43 116.632 155.43C114.599 155.43 113.06 153.809 113.06 150.958ZM118.948 150.958C118.948 148.718 118 147.598 116.632 147.598C115.265 147.598 114.31 148.725 114.31 150.958C114.31 153.191 115.258 154.317 116.632 154.317C118.006 154.317 118.948 153.191 118.948 150.958Z" fill="#001640"/>
<path d="M140.335 154.242V155.327H134.049V154.475L137.608 151.04C138.535 150.14 138.707 149.59 138.707 149.041C138.707 148.141 138.068 147.591 136.845 147.591C135.911 147.591 135.148 147.893 134.605 148.539L133.753 147.804C134.427 146.966 135.588 146.478 136.955 146.478C138.783 146.478 139.957 147.412 139.957 148.917C139.957 149.769 139.71 150.532 138.522 151.665L135.849 154.242H140.335Z" fill="#001640"/>
<path d="M158.721 146.581V155.327H157.484V147.667H155.512V146.581H158.721Z" fill="#001640"/>
<g opacity="0.6">
<path d="M121.806 138.675V138.984H119.422V135.618H121.73V135.927H119.779V137.122H121.524V137.425H119.779V138.675H121.806Z" fill="white"/>
<path d="M124.897 137.512V138.982H124.554V137.547C124.554 137.011 124.272 136.736 123.791 136.736C123.249 136.736 122.905 137.072 122.905 137.65V138.976H122.562V136.447H122.891V136.914C123.077 136.605 123.413 136.427 123.853 136.427C124.472 136.427 124.891 136.784 124.891 137.512H124.897Z" fill="white"/>
<path d="M127.158 138.824C127.02 138.941 126.821 139.003 126.622 139.003C126.148 139.003 125.88 138.735 125.88 138.268V136.736H125.427V136.447H125.88V135.891H126.223V136.447H126.993V136.736H126.223V138.247C126.223 138.543 126.375 138.708 126.663 138.708C126.801 138.708 126.945 138.666 127.041 138.577L127.158 138.824Z" fill="white"/>
<path d="M129.885 137.821H127.769C127.811 138.35 128.209 138.701 128.766 138.701C129.075 138.701 129.35 138.591 129.542 138.371L129.734 138.591C129.508 138.859 129.157 139.003 128.759 139.003C127.969 139.003 127.433 138.467 127.433 137.711C127.433 136.956 127.955 136.427 128.669 136.427C129.384 136.427 129.899 136.949 129.899 137.711C129.899 137.739 129.899 137.78 129.899 137.814L129.885 137.821ZM127.769 137.567H129.563C129.521 137.072 129.157 136.722 128.662 136.722C128.168 136.722 127.811 137.066 127.769 137.567Z" fill="white"/>
<path d="M131.864 136.427V136.756C131.864 136.756 131.809 136.756 131.782 136.756C131.253 136.756 130.93 137.093 130.93 137.691V138.982H130.586V136.454H130.916V136.949C131.074 136.612 131.397 136.434 131.864 136.434V136.427Z" fill="white"/>
<path d="M135.904 136.447L134.64 139.278C134.427 139.773 134.159 139.931 133.795 139.931C133.561 139.931 133.334 139.855 133.176 139.697L133.334 139.443C133.458 139.566 133.616 139.635 133.795 139.635C134.021 139.635 134.173 139.532 134.317 139.209L134.427 138.962L133.293 136.433H133.65L134.605 138.584L135.56 136.433H135.897L135.904 136.447Z" fill="white"/>
<path d="M136.055 137.711C136.055 136.963 136.605 136.427 137.347 136.427C138.089 136.427 138.632 136.963 138.632 137.711C138.632 138.46 138.089 139.003 137.347 139.003C136.605 139.003 136.055 138.467 136.055 137.711ZM138.281 137.711C138.281 137.121 137.883 136.722 137.34 136.722C136.797 136.722 136.399 137.114 136.399 137.711C136.399 138.309 136.804 138.701 137.34 138.701C137.876 138.701 138.281 138.309 138.281 137.711Z" fill="white"/>
<path d="M141.606 136.447V138.976H141.277V138.515C141.098 138.824 140.768 139.003 140.37 139.003C139.724 139.003 139.298 138.639 139.298 137.917V136.447H139.641V137.883C139.641 138.419 139.923 138.694 140.404 138.694C140.933 138.694 141.263 138.35 141.263 137.773V136.447H141.606Z" fill="white"/>
<path d="M143.839 136.427V136.756C143.839 136.756 143.784 136.756 143.757 136.756C143.228 136.756 142.905 137.093 142.905 137.691V138.982H142.561V136.454H142.891V136.949C143.049 136.612 143.372 136.434 143.839 136.434V136.427Z" fill="white"/>
<path d="M145.523 137.292C145.523 136.31 146.271 135.582 147.295 135.582C148.319 135.582 149.061 136.31 149.061 137.292C149.061 138.275 148.305 139.003 147.295 139.003C146.285 139.003 145.523 138.275 145.523 137.292ZM148.704 137.292C148.704 136.488 148.099 135.898 147.295 135.898C146.491 135.898 145.873 136.488 145.873 137.292C145.873 138.096 146.478 138.687 147.295 138.687C148.113 138.687 148.704 138.096 148.704 137.292Z" fill="white"/>
<path d="M150.462 135.918H149.281V135.609H152.001V135.918H150.82V138.976H150.462V135.918Z" fill="white"/>
<path d="M155.21 136.763C155.21 137.478 154.688 137.911 153.836 137.911H152.929V138.976H152.572V135.609H153.829C154.688 135.609 155.203 136.042 155.203 136.763H155.21ZM154.853 136.763C154.853 136.227 154.495 135.918 153.822 135.918H152.929V137.601H153.822C154.495 137.601 154.853 137.292 154.853 136.763Z" fill="white"/>
</g>
<g opacity="0.6">
<path d="M123.812 167.598L123.949 167.323C124.19 167.557 124.616 167.728 125.062 167.728C125.694 167.728 125.969 167.467 125.969 167.131C125.969 166.21 123.894 166.773 123.894 165.53C123.894 165.035 124.279 164.609 125.138 164.609C125.516 164.609 125.914 164.719 126.182 164.905L126.065 165.186C125.777 165.001 125.44 164.905 125.145 164.905C124.526 164.905 124.252 165.18 124.252 165.516C124.252 166.437 126.327 165.88 126.327 167.11C126.327 167.605 125.935 168.031 125.069 168.031C124.561 168.031 124.066 167.852 123.819 167.591L123.812 167.598Z" fill="white"/>
<path d="M129.219 166.849H127.103C127.144 167.378 127.543 167.728 128.099 167.728C128.408 167.728 128.683 167.618 128.875 167.399L129.068 167.618C128.841 167.886 128.491 168.031 128.092 168.031C127.302 168.031 126.766 167.495 126.766 166.739C126.766 165.983 127.288 165.454 128.003 165.454C128.717 165.454 129.233 165.976 129.233 166.739C129.233 166.767 129.233 166.808 129.233 166.842L129.219 166.849ZM127.103 166.595H128.896C128.855 166.1 128.491 165.75 127.996 165.75C127.501 165.75 127.144 166.093 127.103 166.595Z" fill="white"/>
<path d="M132.249 166.54V168.01H131.905V166.574C131.905 166.038 131.624 165.763 131.143 165.763C130.6 165.763 130.256 166.1 130.256 166.677V168.003H129.913V165.475H130.243V165.942C130.428 165.633 130.765 165.454 131.205 165.454C131.823 165.454 132.242 165.812 132.242 166.54H132.249Z" fill="white"/>
<path d="M135.499 164.438V168.01H135.169V167.509C134.963 167.852 134.612 168.031 134.193 168.031C133.472 168.031 132.929 167.509 132.929 166.739C132.929 165.97 133.465 165.454 134.193 165.454C134.599 165.454 134.942 165.626 135.155 165.956V164.438H135.499ZM135.162 166.746C135.162 166.155 134.757 165.757 134.221 165.757C133.685 165.757 133.279 166.148 133.279 166.746C133.279 167.344 133.685 167.735 134.221 167.735C134.757 167.735 135.162 167.344 135.162 166.746Z" fill="white"/>
<path d="M139.621 166.437V168.003H139.291V167.612C139.14 167.873 138.838 168.031 138.419 168.031C137.848 168.031 137.498 167.735 137.498 167.296C137.498 166.904 137.745 166.581 138.474 166.581H139.277V166.43C139.277 165.997 139.03 165.763 138.563 165.763C138.233 165.763 137.931 165.88 137.718 166.059L137.567 165.805C137.821 165.585 138.199 165.461 138.597 165.461C139.25 165.461 139.621 165.791 139.621 166.444V166.437ZM139.277 167.247V166.835H138.48C137.993 166.835 137.828 167.028 137.828 167.289C137.828 167.584 138.061 167.763 138.467 167.763C138.872 167.763 139.133 167.577 139.27 167.247H139.277Z" fill="white"/>
<path d="M142.898 165.475V167.701C142.898 168.574 142.472 168.965 141.634 168.965C141.174 168.965 140.72 168.828 140.452 168.574L140.624 168.312C140.864 168.532 141.229 168.656 141.62 168.656C142.259 168.656 142.555 168.361 142.555 167.735V167.412C142.342 167.735 141.984 167.9 141.565 167.9C140.844 167.9 140.294 167.392 140.294 166.67C140.294 165.949 140.844 165.447 141.565 165.447C141.991 165.447 142.355 165.619 142.568 165.956V165.468H142.898V165.475ZM142.568 166.677C142.568 166.128 142.163 165.757 141.606 165.757C141.05 165.757 140.651 166.135 140.651 166.677C140.651 167.22 141.05 167.605 141.606 167.605C142.163 167.605 142.568 167.227 142.568 166.677Z" fill="white"/>
<path d="M145.763 166.437V168.003H145.433V167.612C145.282 167.873 144.98 168.031 144.561 168.031C143.99 168.031 143.64 167.735 143.64 167.296C143.64 166.904 143.887 166.581 144.616 166.581H145.42V166.43C145.42 165.997 145.172 165.763 144.705 165.763C144.375 165.763 144.073 165.88 143.86 166.059L143.709 165.805C143.963 165.585 144.341 165.461 144.739 165.461C145.392 165.461 145.763 165.791 145.763 166.444V166.437ZM145.42 167.247V166.835H144.623C144.135 166.835 143.97 167.028 143.97 167.289C143.97 167.584 144.203 167.763 144.609 167.763C145.014 167.763 145.275 167.577 145.413 167.247H145.42Z" fill="white"/>
<path d="M146.615 164.678C146.615 164.547 146.725 164.438 146.862 164.438C147 164.438 147.11 164.541 147.11 164.671C147.11 164.809 147.007 164.918 146.862 164.918C146.718 164.918 146.615 164.809 146.615 164.671V164.678ZM146.691 165.475H147.034V168.003H146.691V165.475Z" fill="white"/>
<path d="M150.311 166.54V168.01H149.968V166.574C149.968 166.038 149.686 165.763 149.205 165.763C148.662 165.763 148.319 166.1 148.319 166.677V168.003H147.975V165.475H148.305V165.942C148.491 165.633 148.827 165.454 149.267 165.454C149.885 165.454 150.304 165.812 150.304 166.54H150.311Z" fill="white"/>
</g>
<path opacity="0.4" d="M156.316 185.186H118.027C114.873 185.186 112.318 182.63 112.318 179.477C112.318 176.323 114.873 173.768 118.027 173.768H156.316C159.47 173.768 162.025 176.323 162.025 179.477C162.025 182.63 159.47 185.186 156.316 185.186Z" fill="white"/>
<path d="M122.239 179.181C122.239 178.048 123.104 177.217 124.279 177.217C124.87 177.217 125.392 177.423 125.743 177.814L125.385 178.158C125.09 177.849 124.726 177.704 124.307 177.704C123.441 177.704 122.795 178.33 122.795 179.181C122.795 180.033 123.441 180.659 124.307 180.659C124.733 180.659 125.09 180.507 125.385 180.198L125.743 180.542C125.392 180.94 124.877 181.146 124.279 181.146C123.111 181.146 122.246 180.315 122.246 179.181H122.239Z" fill="white"/>
<path d="M126.134 179.181C126.134 178.055 127 177.217 128.182 177.217C129.363 177.217 130.222 178.055 130.222 179.181C130.222 180.308 129.356 181.146 128.182 181.146C127.007 181.146 126.134 180.308 126.134 179.181ZM129.672 179.181C129.672 178.33 129.034 177.704 128.182 177.704C127.33 177.704 126.684 178.33 126.684 179.181C126.684 180.033 127.323 180.659 128.182 180.659C129.04 180.659 129.672 180.033 129.672 179.181Z" fill="white"/>
<path d="M134.372 177.265V181.112H133.918L131.61 178.247V181.112H131.06V177.265H131.514L133.822 180.13V177.265H134.372Z" fill="white"/>
<path d="M136.289 177.739H134.97V177.258H138.151V177.739H136.832V181.105H136.289V177.739Z" fill="white"/>
<path d="M138.748 177.265H139.298V181.112H138.748V177.265Z" fill="white"/>
<path d="M143.764 177.265V181.112H143.31L141.002 178.247V181.112H140.452V177.265H140.906L143.214 180.13V177.265H143.764Z" fill="white"/>
<path d="M144.884 179.449V177.265H145.433V179.429C145.433 180.281 145.825 180.666 146.512 180.666C147.199 180.666 147.597 180.281 147.597 179.429V177.265H148.133V179.449C148.133 180.562 147.522 181.153 146.505 181.153C145.488 181.153 144.877 180.562 144.877 179.449H144.884Z" fill="white"/>
<path d="M152.056 180.631V181.112H149.267V177.265H151.981V177.746H149.817V178.927H151.747V179.394H149.817V180.638H152.056V180.631Z" fill="white"/>
<path opacity="0.1" d="M203.743 90.3946C181.27 112.909 123.551 163.015 58.1511 159.312V90.3946H203.743Z" fill="white"/>
<path opacity="0.1" d="M220.679 131.775V198.24H122.823C126.574 184.815 134.076 166.43 148.628 153.294C174.804 129.659 205.186 129.728 220.679 131.775Z" fill="white"/>
<path d="M241.352 79.7935L243.633 89.8655L245.914 79.7935H241.352Z" fill="#3F80FF"/>
<path opacity="0.7" d="M241.352 79.7935L243.633 89.8655L245.914 79.7935H241.352Z" fill="white"/>
<path d="M269.163 51.2742H218.109C214.849 51.2742 212.207 53.9165 212.207 57.1759V76.1246C212.207 79.384 214.849 82.0263 218.109 82.0263H269.163C272.423 82.0263 275.065 79.384 275.065 76.1246V57.1759C275.065 53.9165 272.423 51.2742 269.163 51.2742Z" fill="#3F80FF"/>
<path opacity="0.7" d="M269.163 51.2742H218.109C214.849 51.2742 212.207 53.9165 212.207 57.1759V76.1246C212.207 79.384 214.849 82.0263 218.109 82.0263H269.163C272.423 82.0263 275.065 79.384 275.065 76.1246V57.1759C275.065 53.9165 272.423 51.2742 269.163 51.2742Z" fill="white"/>
<g opacity="0.5">
<path d="M224.76 62.5555V63.8883H224.217V62.5486L222.692 60.0409H223.282L224.512 62.0677L225.749 60.0409H226.292L224.766 62.5555H224.76Z" fill="#001640"/>
<path d="M226.168 62.4318C226.168 61.5661 226.814 60.9478 227.686 60.9478C228.559 60.9478 229.198 61.5661 229.198 62.4318C229.198 63.2975 228.559 63.9227 227.686 63.9227C226.814 63.9227 226.168 63.3043 226.168 62.4318ZM228.662 62.4318C228.662 61.8134 228.243 61.4081 227.686 61.4081C227.13 61.4081 226.704 61.8066 226.704 62.4318C226.704 63.057 227.13 63.4623 227.686 63.4623C228.243 63.4623 228.662 63.057 228.662 62.4318Z" fill="#001640"/>
<path d="M232.64 60.9753V63.8884H232.138V63.4486C231.925 63.7509 231.561 63.9227 231.149 63.9227C230.393 63.9227 229.899 63.5105 229.899 62.6517V60.9753H230.428V62.5898C230.428 63.1601 230.716 63.4486 231.211 63.4486C231.761 63.4486 232.111 63.1051 232.111 62.4799V60.9753H232.64Z" fill="#001640"/>
<path d="M235.216 60.9478V61.4562C235.175 61.4562 235.134 61.4562 235.093 61.4562C234.529 61.4562 234.172 61.7997 234.172 62.4386V63.8883H233.643V60.9752H234.151V61.463C234.337 61.1195 234.701 60.9478 235.21 60.9478H235.216Z" fill="#001640"/>
<path d="M237.147 61.9646C237.147 60.8378 238.013 59.9996 239.194 59.9996C240.376 59.9996 241.235 60.831 241.235 61.9646C241.235 63.0982 240.369 63.9295 239.194 63.9295C238.02 63.9295 237.147 63.0913 237.147 61.9646ZM240.685 61.9646C240.685 61.1126 240.046 60.4874 239.194 60.4874C238.342 60.4874 237.697 61.1126 237.697 61.9646C237.697 62.8165 238.336 63.4417 239.194 63.4417C240.053 63.4417 240.685 62.8165 240.685 61.9646Z" fill="#001640"/>
<path d="M242.788 60.5218H241.468V60.0409H244.649V60.5218H243.33V63.8883H242.788V60.5218Z" fill="#001640"/>
<path d="M248.353 61.3806C248.353 62.2188 247.748 62.7203 246.752 62.7203H245.804V63.8815H245.254V60.034H246.752C247.755 60.034 248.353 60.5424 248.353 61.3737V61.3806ZM247.803 61.3806C247.803 60.831 247.432 60.5149 246.731 60.5149H245.797V62.2394H246.731C247.432 62.2394 247.803 61.9234 247.803 61.3737V61.3806Z" fill="#001640"/>
<path d="M250.379 61.9646C250.379 60.8241 251.245 59.9996 252.42 59.9996C253.011 59.9996 253.533 60.2057 253.883 60.5974L253.526 60.9409C253.231 60.6248 252.867 60.4874 252.447 60.4874C251.582 60.4874 250.936 61.1126 250.936 61.9646C250.936 62.8165 251.582 63.4417 252.447 63.4417C252.873 63.4417 253.231 63.2906 253.526 62.9814L253.883 63.3249C253.533 63.7234 253.018 63.9295 252.42 63.9295C251.252 63.9295 250.386 63.0982 250.386 61.9646H250.379Z" fill="#001640"/>
<path d="M254.199 62.4318C254.199 61.5661 254.845 60.9478 255.718 60.9478C256.59 60.9478 257.229 61.5661 257.229 62.4318C257.229 63.2975 256.59 63.9227 255.718 63.9227C254.845 63.9227 254.199 63.3043 254.199 62.4318ZM256.693 62.4318C256.693 61.8134 256.274 61.4081 255.718 61.4081C255.161 61.4081 254.735 61.8066 254.735 62.4318C254.735 63.057 255.161 63.4623 255.718 63.4623C256.274 63.4623 256.693 63.057 256.693 62.4318Z" fill="#001640"/>
<path d="M260.706 59.8141V63.8883H260.197V63.428C259.964 63.7578 259.586 63.9227 259.16 63.9227C258.308 63.9227 257.69 63.325 257.69 62.4318C257.69 61.5386 258.308 60.9478 259.16 60.9478C259.572 60.9478 259.936 61.0989 260.177 61.415V59.8141H260.706ZM260.184 62.4318C260.184 61.8135 259.758 61.4081 259.208 61.4081C258.658 61.4081 258.226 61.8066 258.226 62.4318C258.226 63.057 258.651 63.4624 259.208 63.4624C259.765 63.4624 260.184 63.057 260.184 62.4318Z" fill="#001640"/>
<path d="M264.326 62.6104H261.963C262.032 63.1188 262.444 63.4624 263.021 63.4624C263.365 63.4624 263.646 63.3456 263.859 63.112L264.148 63.4555C263.887 63.7647 263.481 63.9296 263 63.9296C262.059 63.9296 261.434 63.3112 261.434 62.4387C261.434 61.5661 262.052 60.9547 262.897 60.9547C263.742 60.9547 264.34 61.5593 264.34 62.4524C264.34 62.4936 264.34 62.5623 264.326 62.6104ZM261.963 62.2326H263.832C263.777 61.7448 263.406 61.3944 262.897 61.3944C262.389 61.3944 262.018 61.7379 261.963 62.2326Z" fill="#001640"/>
</g>
<g opacity="0.5">
<path d="M235.69 69.9068C235.69 72.071 234.467 73.2253 232.695 73.2253C232.097 73.2253 231.527 73.1085 231.122 72.8543L231.465 72.1466C231.802 72.3665 232.228 72.442 232.688 72.442C233.973 72.442 234.783 71.6382 234.783 70.0511V69.8244C234.412 70.374 233.746 70.6557 232.956 70.6557C231.699 70.6557 230.792 69.9068 230.792 68.7389C230.792 67.5709 231.767 66.7396 233.025 66.7396C234.729 66.7396 235.684 67.8801 235.684 69.9L235.69 69.9068ZM234.577 68.7045C234.577 68.0518 234.055 67.4816 233.066 67.4816C232.241 67.4816 231.671 67.9625 231.671 68.7114C231.671 69.4603 232.221 69.9343 233.107 69.9343C233.993 69.9343 234.57 69.3984 234.57 68.7045H234.577Z" fill="#001640"/>
<path d="M236.563 69.9893C236.563 67.9281 237.669 66.7533 239.153 66.7533C240.637 66.7533 241.729 67.9281 241.729 69.9893C241.729 72.0504 240.623 73.2253 239.153 73.2253C237.683 73.2253 236.563 72.0504 236.563 69.9893ZM240.823 69.9893C240.823 68.3679 240.136 67.5571 239.146 67.5571C238.157 67.5571 237.463 68.3747 237.463 69.9893C237.463 71.6038 238.15 72.4214 239.146 72.4214C240.142 72.4214 240.823 71.6038 240.823 69.9893Z" fill="#001640"/>
<path d="M247.027 72.3665V73.1566H242.478V72.5382L245.055 70.0511C245.721 69.3984 245.852 68.9999 245.852 68.6015C245.852 67.9488 245.391 67.5503 244.505 67.5503C243.825 67.5503 243.275 67.7701 242.884 68.2373L242.265 67.7014C242.753 67.0968 243.598 66.7396 244.581 66.7396C245.9 66.7396 246.752 67.4197 246.752 68.5053C246.752 69.1236 246.573 69.6732 245.714 70.4977L243.777 72.3596H247.027V72.3665Z" fill="#001640"/>
<path d="M249.734 66.822V73.1566H248.84V67.6121H247.411V66.822H249.734Z" fill="#001640"/>
<path d="M251.115 69.9893C251.115 67.9281 252.221 66.7533 253.705 66.7533C255.189 66.7533 256.281 67.9281 256.281 69.9893C256.281 72.0504 255.175 73.2253 253.705 73.2253C252.234 73.2253 251.115 72.0504 251.115 69.9893ZM255.374 69.9893C255.374 68.3679 254.687 67.5571 253.698 67.5571C252.709 67.5571 252.015 68.3747 252.015 69.9893C252.015 71.6038 252.702 72.4214 253.698 72.4214C254.694 72.4214 255.374 71.6038 255.374 69.9893Z" fill="#001640"/>
</g>
<path d="M237.985 109.336L238.693 109.804L239.469 110.298C239.998 110.628 240.541 110.944 241.084 111.253C242.176 111.865 243.289 112.456 244.423 112.971C246.697 114.008 249.033 114.853 251.41 115.382L251.52 115.41C251.561 115.417 251.609 115.431 251.561 115.424C251.527 115.424 251.486 115.424 251.389 115.424C251.231 115.431 250.915 115.479 250.538 115.705C250.167 115.932 249.919 116.282 249.837 116.482C249.747 116.695 249.754 116.791 249.754 116.805C249.775 116.846 249.796 116.667 249.789 116.461C249.789 116.255 249.754 116.001 249.713 115.733C249.528 114.647 249.191 113.397 248.792 112.174C248.009 109.714 247.075 107.186 246.147 104.699L248.799 103.277C250.386 105.571 251.802 107.921 253.045 110.463C253.65 111.748 254.248 113.046 254.68 114.585C254.79 114.977 254.887 115.389 254.962 115.85C255.031 116.317 255.093 116.818 255.024 117.533C254.99 117.876 254.907 118.309 254.667 118.825C254.44 119.326 253.973 119.951 253.313 120.35C252.647 120.755 251.987 120.858 251.493 120.879C251.231 120.886 251.018 120.879 250.819 120.851L250.613 120.824L250.476 120.803C247.528 120.405 244.677 119.601 242.011 118.467C240.672 117.904 239.359 117.292 238.088 116.592C237.456 116.234 236.831 115.87 236.213 115.479C235.903 115.279 235.594 115.087 235.292 114.881C234.976 114.668 234.701 114.469 234.337 114.194L237.971 109.33L237.985 109.336Z" fill="#DC897C"/>
<path d="M237.217 108.554C241.174 109.007 243.833 111.24 243.833 111.24L241.071 119.746C241.071 119.746 227.736 107.468 237.224 108.554H237.217Z" fill="#3F80FF"/>
<path opacity="0.6" d="M237.188 115.733C239.078 117.918 241.056 119.738 241.056 119.738L242.19 116.241L243.818 111.233C243.818 111.233 241.159 108.993 237.209 108.546C231.376 107.88 234.165 112.256 237.181 115.726L237.188 115.733Z" fill="white"/>
<path opacity="0.2" d="M237.188 115.733C239.078 117.918 241.056 119.738 241.056 119.738L242.19 116.241C239.765 114.372 237.202 114.524 237.202 114.524C237.154 114.936 237.154 115.348 237.181 115.733H237.188Z" fill="black"/>
<path d="M207.535 96.0078C207.535 96.0078 201.146 117.251 214.605 120.102C228.064 122.954 229.473 113.177 229.473 113.177C229.473 113.177 218.446 96.4406 207.535 96.0078Z" fill="#001640"/>
<path d="M204.375 102.878C204.375 102.878 205.034 101.655 206.216 101.58" stroke="#001640" stroke-width="0.48" stroke-linecap="round" stroke-linejoin="round"/>
<path d="M206.299 105.681C206.299 105.681 206.154 107.124 205.742 108.107C205.742 108.107 206.381 108.567 207.151 108.134L206.299 105.688V105.681Z" fill="#DE5753"/>
<path d="M205 104.754C205.144 105.132 205.46 105.358 205.715 105.262C205.969 105.166 206.051 104.781 205.907 104.41C205.763 104.032 205.447 103.806 205.192 103.902C204.938 103.998 204.856 104.383 205 104.754Z" fill="#001640"/>
<path d="M205.309 103.874H204.368C204.368 103.874 205.041 104.397 205.309 103.874Z" fill="#001640"/>
<path d="M218.679 108.313C218.652 108.375 218.624 108.436 218.583 108.484C218.521 108.601 218.452 108.711 218.384 108.828C217.978 109.515 217.477 110.195 216.804 110.717C214.722 112.359 212.949 112.854 211.39 112.38C211.314 112.359 211.238 112.332 211.163 112.304H211.156C208.841 111.37 207.061 108.601 205.598 104.939C204.918 103.263 204.478 101.738 204.409 100.419C204.409 100.405 204.389 100.364 204.389 100.35C204.389 100.295 204.375 100.226 204.375 100.171C204.32 98.3093 204.966 96.7841 206.546 95.5199C207.096 95.0802 207.755 94.668 208.538 94.2901C215.443 90.9373 222.121 101.834 218.679 108.313Z" fill="#E4897B"/>
<path opacity="0.2" d="M218.384 108.828C217.978 109.515 217.477 110.195 216.804 110.717C214.722 112.359 212.949 112.854 211.39 112.38C212.654 112.043 214.165 111.37 215.299 110.01C216.041 109.137 217.168 108.835 218.384 108.828Z" fill="black"/>
<path d="M204.382 100.377C204.382 100.377 206.299 105.42 211.898 105.331C211.898 105.331 216.268 109.446 219.215 108.141C223.234 106.362 224.066 99.0513 219.964 93.9397C214.646 87.3166 203.049 92.0572 204.382 100.37V100.377Z" fill="#001640"/>
<path d="M208.903 105.036C208.545 104.273 208.552 102.713 209.816 102.329C211.122 101.93 213.224 104.623 210.538 106.712C210.153 107.014 209.651 106.623 208.903 105.036Z" fill="#E4897B"/>
<path d="M210.407 91.1984C210.407 91.1984 205.213 92.2221 203.53 95.3001C201.565 98.8933 201.496 101.69 206.697 103.51C206.697 103.51 213.293 97.2994 216.137 96.6123C218.981 95.9253 221.194 95.8016 221.194 95.8016C219.304 90.3946 212.51 88.9243 210.414 91.2053L210.407 91.1984Z" fill="#001640"/>
<path d="M215.443 110.855C215.443 110.855 219.016 113.328 219.95 117.409L231.087 110.91C231.087 110.91 222.369 108.917 220.864 105.544C220.864 105.544 215.038 106.265 215.443 110.848V110.855Z" fill="#E4897B"/>
<path d="M226.505 137.615C226.505 137.615 212.104 123.435 210.524 118.983C210.524 118.983 216.591 109.536 228.717 109.137C240.843 108.739 249.095 131.81 249.095 131.81L226.505 137.608V137.615Z" fill="#3F80FF"/>
<path opacity="0.6" d="M249.095 131.817L226.512 137.615C226.512 137.615 223.365 134.517 219.847 130.765C218.762 129.591 217.628 128.354 216.536 127.131C213.671 123.881 211.142 120.707 210.531 118.983C210.531 118.983 216.591 109.536 228.717 109.137C240.85 108.746 249.095 131.817 249.095 131.817Z" fill="white"/>
<path d="M213.011 102.906C213.011 102.906 215.12 109.914 222.527 112.243C229.933 114.572 228.071 122.122 235.251 121.236C239.071 120.762 242.341 112.985 230.627 106.128C223.798 102.136 226.45 89.0136 211.953 90.2435C211.953 90.2435 214.955 99.2369 213.011 102.906Z" fill="#001640"/>
<path d="M220.218 244.437L216.79 243.654C217.305 226.491 219.785 205.708 221.977 190.105C222.321 187.66 222.657 185.351 222.98 183.194C223.138 182.17 223.282 181.188 223.427 180.239C224.134 175.561 224.746 171.864 225.124 169.577C225.398 167.907 225.563 166.993 225.563 166.993L237.91 170.009L237.023 173.129L234.103 183.42L233.774 184.595L231.836 191.39L228.552 202.96C228.772 220.432 220.218 244.437 220.218 244.437Z" fill="#E4897B"/>
<path d="M249.624 241.558L246.106 241.38C243.427 222.912 242.3 199.82 241.812 183.757C241.736 181.27 241.682 178.941 241.633 176.839C241.633 176.729 241.633 176.626 241.633 176.529C241.544 172.345 241.503 169.02 241.482 166.911C241.475 165.262 241.469 164.355 241.469 164.355L254.158 165.186L253.615 170.477L252.819 178.247L252.66 179.772L252.111 185.063L250.647 199.257C253.89 216.426 249.631 241.558 249.631 241.558H249.624Z" fill="#E4897B"/>
<path d="M250.943 240.878C250.929 240.439 245.515 240.782 245.515 240.782C245.515 240.782 242.183 244.169 238.947 244.932C235.711 245.694 237.518 247.632 241.139 247.632H250.084C252.654 247.632 251.046 245.44 250.943 240.878Z" fill="#001640"/>
<path d="M242.19 242.039C242.087 241.95 241.977 241.785 242.059 241.462C242.101 241.304 242.197 241.18 242.348 241.098C242.636 240.933 243.104 240.919 243.564 240.968C243.124 240.734 242.74 240.445 242.719 240.164C242.705 239.978 242.829 239.827 243.076 239.71C243.31 239.6 243.543 239.593 243.777 239.69C244.512 239.992 244.966 241.256 244.986 241.311C245 241.345 244.993 241.387 244.986 241.421C244.986 241.435 244.972 241.442 244.966 241.448C244.966 241.448 244.938 241.476 244.917 241.483C244.636 241.62 243.433 242.17 242.671 242.17C242.472 242.17 242.307 242.135 242.197 242.039H242.19ZM242.492 241.345C242.41 241.393 242.355 241.455 242.334 241.538C242.279 241.751 242.348 241.806 242.369 241.826C242.623 242.039 243.619 241.737 244.416 241.4C243.811 241.263 242.877 241.126 242.492 241.352V241.345ZM243.2 239.964C243.124 239.999 243.001 240.067 243.007 240.143C243.021 240.384 243.798 240.809 244.601 241.112C244.416 240.7 244.072 240.116 243.674 239.951C243.598 239.923 243.53 239.903 243.454 239.903C243.372 239.903 243.289 239.923 243.207 239.964H243.2Z" fill="#001640"/>
<path d="M221.963 240.878C221.95 240.439 216.536 240.782 216.536 240.782C216.536 240.782 213.203 244.169 209.967 244.932C206.731 245.694 208.538 247.632 212.159 247.632H221.104C223.674 247.632 222.066 245.44 221.963 240.878Z" fill="#001640"/>
<path d="M213.21 242.039C213.107 241.95 212.997 241.785 213.08 241.462C213.121 241.304 213.217 241.18 213.368 241.098C213.657 240.933 214.124 240.919 214.584 240.968C214.145 240.734 213.76 240.445 213.739 240.164C213.726 239.978 213.849 239.827 214.097 239.71C214.33 239.6 214.564 239.593 214.797 239.69C215.533 239.992 215.986 241.256 216.007 241.311C216.02 241.345 216.013 241.387 216.007 241.421C216.007 241.435 215.993 241.442 215.986 241.448C215.986 241.448 215.959 241.476 215.938 241.483C215.656 241.62 214.447 242.17 213.691 242.17C213.492 242.17 213.327 242.135 213.21 242.039ZM213.513 241.345C213.43 241.393 213.375 241.455 213.355 241.538C213.3 241.751 213.368 241.806 213.389 241.826C213.643 242.039 214.639 241.737 215.436 241.4C214.832 241.263 213.897 241.126 213.513 241.352V241.345ZM214.22 239.964C214.145 239.999 214.021 240.067 214.028 240.143C214.042 240.384 214.818 240.809 215.622 241.112C215.436 240.7 215.093 240.116 214.694 239.951C214.619 239.923 214.55 239.903 214.474 239.903C214.392 239.903 214.31 239.923 214.227 239.964H214.22Z" fill="#001640"/>
<path d="M223.578 172.153L226.512 151.562V137.615C234.227 131.817 249.102 131.817 249.102 131.817C249.102 131.817 260.534 147.66 254.976 173.754L240.63 175.849L239.717 170.985L237.917 175.849L223.585 172.16L223.578 172.153Z" fill="#001640"/>
<path opacity="0.2" d="M223.578 172.153L226.512 151.562V137.615C234.227 131.817 249.102 131.817 249.102 131.817C249.102 131.817 260.534 147.66 254.976 173.754L240.63 175.849L239.717 170.985L237.917 175.849L223.585 172.16L223.578 172.153Z" fill="white"/>
<path opacity="0.2" d="M239.71 170.978L242.472 162.397C242.472 162.397 245.371 161.518 249.095 155.76C249.095 155.76 248.449 165.564 239.71 170.978Z" fill="black"/>
<path opacity="0.2" d="M233.595 141.573L240.033 140.954C240.033 140.954 241.592 144.032 241.063 148.601L236.934 151.081L233.945 148.958C233.945 148.958 233.856 143.503 233.595 141.573Z" fill="black"/>
<path opacity="0.2" d="M249.095 139.992C249.095 139.992 250.297 142.72 250.998 146.581L253.286 147.55L254.515 146.018C254.515 146.018 253.677 141.525 252.276 139.333L249.102 139.992H249.095Z" fill="black"/>
<path d="M223.31 170.978L238.535 175.451L237.58 177.491L223.111 173.046L223.31 170.978Z" fill="#001640"/>
<path d="M240.033 175.155L240.287 177.031L255.216 175.155L255.443 172.778L240.033 175.155Z" fill="#001640"/>
<path d="M243.166 134.668C247.569 133.967 250.551 133.946 250.551 133.946L249.631 132.428C247.123 132.352 244.704 132.531 242.43 132.861L243.166 134.668Z" fill="#001640"/>
<path d="M229.473 136.564C227.508 137.416 226.367 138.062 226.367 138.062L226.381 139.937C227.487 139.374 228.607 138.866 229.713 138.405L229.473 136.571V136.564Z" fill="#001640"/>
<path d="M230.421 138.117C234.667 136.427 238.823 135.424 242.245 134.826L241.558 132.998C236.858 133.768 232.853 135.156 230.139 136.282L230.421 138.117Z" fill="#001640"/>
<path d="M189.143 143.496L185.241 141.93L184.581 145.612C184.581 145.612 188.099 147.749 189.562 145.207L189.136 143.496H189.143Z" fill="#E4897B"/>
<path d="M183.303 142.15L182.053 145.001L184.581 145.606L185.241 141.93L183.303 142.15Z" fill="#E4897B"/>
<path d="M249.033 103.916L248.573 99.7384L245.014 100.9C245.014 100.9 244.794 105.008 247.727 105.097L249.033 103.916Z" fill="#E4897B"/>
<path d="M247.453 98.1376L244.354 98.378L245.014 100.893L248.573 99.7315L247.453 98.1376Z" fill="#E4897B"/>
<path opacity="0.2" d="M219.847 130.765C218.762 129.591 217.628 128.354 216.536 127.131C216.117 124.575 215.849 122.328 215.849 122.328C215.849 122.328 220.136 125.187 219.847 130.765Z" fill="black"/>
<path d="M216.247 121.14C215.842 122.851 215.361 124.403 214.859 126.018C214.351 127.612 213.767 129.178 213.169 130.745C212.578 132.311 211.919 133.857 211.197 135.382C210.847 136.145 210.476 136.908 210.084 137.663C209.899 138.041 209.686 138.412 209.487 138.79L209.184 139.353L209.026 139.642C208.937 139.8 208.841 139.965 208.745 140.109C207.934 141.284 206.999 141.964 206.127 142.5C205.241 143.029 204.375 143.421 203.523 143.751C201.812 144.396 200.129 144.809 198.453 145.138C195.093 145.757 191.809 146.08 188.429 146.093L188.154 143.098C189.686 142.768 191.266 142.418 192.798 142.019C194.337 141.641 195.862 141.222 197.34 140.734C198.81 140.26 200.253 139.724 201.531 139.092C202.17 138.783 202.76 138.44 203.241 138.082C203.715 137.732 204.073 137.354 204.148 137.162C204.162 137.134 204.162 137.121 204.169 137.107L204.286 136.846L204.526 136.317C204.684 135.959 204.849 135.616 205 135.252C205.302 134.537 205.612 133.823 205.9 133.088C206.477 131.638 207.027 130.161 207.556 128.677C208.085 127.193 208.559 125.688 209.033 124.177C209.514 122.686 209.954 121.126 210.359 119.683L216.254 121.147L216.247 121.14Z" fill="#DC897C"/>
<path d="M212.881 115.966C209.514 118.165 207.721 123.881 207.151 126.677L214.131 131.817L217.655 128.381C219.085 120.494 214.158 115.135 212.881 115.966Z" fill="#3F80FF"/>
<path opacity="0.6" d="M212.881 115.966C209.514 118.165 207.721 123.881 207.151 126.677L214.131 131.817L217.655 128.381C219.085 120.494 214.158 115.135 212.881 115.966Z" fill="white"/>
<path d="M246.958 105.255L241.977 105.784C241.695 105.812 241.462 105.578 241.455 105.248L241.152 94.6886C241.146 94.3657 241.365 94.0771 241.64 94.0497L246.621 93.5206C246.903 93.4931 247.137 93.7267 247.143 94.0565L247.446 104.616C247.453 104.939 247.233 105.228 246.958 105.255Z" fill="#001640"/>
<path opacity="0.6" d="M246.958 105.255L241.977 105.784C241.695 105.812 241.462 105.578 241.455 105.248L241.152 94.6886C241.146 94.3657 241.365 94.0771 241.64 94.0497L246.621 93.5206C246.903 93.4931 247.137 93.7267 247.143 94.0565L247.446 104.616C247.453 104.939 247.233 105.228 246.958 105.255Z" fill="white"/>
<path d="M246.518 105.306L241.537 105.835C241.256 105.862 241.022 105.629 241.015 105.299L240.713 94.739C240.706 94.416 240.926 94.1275 241.201 94.1L246.182 93.571C246.463 93.5435 246.697 93.7771 246.704 94.1069L247.006 104.667C247.013 104.99 246.793 105.278 246.518 105.306Z" fill="#001640"/>
<path opacity="0.7" d="M246.518 105.306L241.537 105.835C241.256 105.862 241.022 105.629 241.015 105.299L240.713 94.739C240.706 94.416 240.926 94.1275 241.201 94.1L246.182 93.571C246.463 93.5435 246.697 93.7771 246.704 94.1069L247.006 104.667C247.013 104.99 246.793 105.278 246.518 105.306Z" fill="white"/>
<path d="M246.189 93.7749L244.883 93.9123L244.718 94.3108L242.698 94.5237L242.506 94.1596L241.201 94.297C241.022 94.3176 240.878 94.5031 240.885 94.7161L241.187 105.276C241.187 105.489 241.345 105.64 241.53 105.62L246.511 105.091C246.69 105.07 246.834 104.884 246.827 104.671L246.525 94.1115C246.525 93.8985 246.367 93.7474 246.182 93.768L246.189 93.7749Z" fill="#3F80FF"/>
<path opacity="0.8" d="M245.522 97.5879L241.86 97.9795C241.681 98.0002 241.53 97.849 241.523 97.6429L241.496 96.6261C241.496 96.42 241.633 96.2345 241.812 96.2207L245.474 95.8291C245.653 95.8085 245.804 95.9596 245.811 96.1657L245.838 97.1826C245.838 97.3887 245.701 97.5742 245.522 97.5879Z" fill="white"/>
</g>
<defs>
<clipPath id="clip0_570_8366">
<rect width="343.523" height="256" fill="white" transform="translate(0.0407715)"/>
</clipPath>
</defs>
</svg>
