<svg width="249" height="256" viewBox="0 0 249 256" fill="none" xmlns="http://www.w3.org/2000/svg">
<g clip-path="url(#clip0_570_9929)">
<path d="M204.867 207.154H224.918V200.773H204.867V207.154Z" fill="#EBEBEB"/>
<path d="M83.0002 104.296H103.052V97.9141H83.0002V104.296Z" fill="#EBEBEB"/>
<path d="M216.05 215.201C219.381 215.144 227.918 215.001 231.135 214.967L236.102 214.944L235.839 215.207L235.817 208.825L236.102 209.11C232.771 209.099 224.28 209.07 221.063 209.025L216.05 208.962L216.187 208.825L216.05 215.207V215.201ZM216.05 215.201L215.913 208.819V208.688H216.05C218.554 208.654 223.572 208.597 226.076 208.58L236.102 208.54H236.387V208.825L236.364 215.207V215.469H236.102L231.043 215.446C227.85 215.412 219.347 215.27 216.05 215.212V215.201Z" fill="#EBEBEB"/>
<path d="M120.702 167.633C124.033 167.576 132.57 167.433 135.787 167.399L140.754 167.376L140.492 167.638L140.469 161.257L140.754 161.542C137.423 161.531 128.932 161.502 125.715 161.456L120.702 161.394L120.839 161.257L120.702 167.638V167.633ZM120.702 167.633L120.566 161.251V161.12H120.702C123.206 161.086 128.225 161.029 130.728 161.012L140.754 160.972H141.039V161.257L141.016 167.638V167.901H140.754L135.695 167.878C132.502 167.844 123.999 167.701 120.702 167.644V167.633Z" fill="#EBEBEB"/>
<path d="M131.886 175.679C135.216 175.622 143.754 175.48 146.97 175.446L151.937 175.423L151.675 175.685L151.652 169.304L151.937 169.589C148.607 169.577 140.115 169.549 136.899 169.503L131.886 169.44L132.023 169.304L131.886 175.685V175.679ZM131.886 175.679L131.749 169.298V169.167H131.886C134.389 169.132 139.408 169.075 141.912 169.058L151.937 169.018H152.223V169.304L152.2 175.685V175.948H151.937L146.879 175.925C143.685 175.891 135.182 175.748 131.886 175.691V175.679Z" fill="#EBEBEB"/>
<path d="M143.024 167.627H163.075V161.245H143.024V167.627Z" fill="#EBEBEB"/>
<path d="M0.176189 215.201H20.2278V208.819H0.176189V215.201Z" fill="#EBEBEB"/>
<path d="M11.3654 10.2825L31.417 10.2825V3.90086L11.3654 3.90086V10.2825Z" fill="#EBEBEB"/>
<path d="M0.176178 18.3293L10.2704 18.1639L15.2605 18.0955L20.2278 18.0727L19.9654 18.335L19.9426 11.9534L20.2278 12.2386L10.202 12.1986L5.18907 12.153L0.176178 12.0903L0.313048 11.9534L0.176178 18.335V18.3293ZM0.176178 18.3293L0.0393066 11.9477V11.8166H0.176178L5.18907 11.7538L10.202 11.7082L20.2278 11.6683H20.5129V11.9534L20.4901 18.335V18.5974H20.2278L15.1692 18.5746L10.1335 18.5061L0.176178 18.3407V18.3293Z" fill="#EBEBEB"/>
<path d="M204.861 10.2825L214.955 10.1171L219.945 10.0486L224.912 10.0258L224.65 10.2882L224.627 3.90655L224.912 4.19169L214.887 4.15177L209.874 4.10615L204.861 4.04342L204.998 3.90655L204.861 10.2882V10.2825ZM204.861 10.2825L204.724 3.90084V3.76968H204.861L209.874 3.70694L214.887 3.66132L224.912 3.6214H225.198V3.90655L225.175 10.2882V10.5505H224.912L219.854 10.5277L214.818 10.4592L204.861 10.2939V10.2825Z" fill="#EBEBEB"/>
<path d="M164.923 230.023H231.511L233.655 187.77H162.779L164.923 230.023Z" fill="#EBEBEB"/>
<path d="M167.455 192.703H227.296L226.39 206.852H168.231L167.455 192.703Z" stroke="#DBDBDB" stroke-miterlimit="10"/>
<path d="M169.286 211.004L169.919 223.727H225.597L226.39 211.004H169.286Z" stroke="#DBDBDB" stroke-miterlimit="10"/>
<path d="M203.829 201.109H191.853L191.459 198.087H204.217L203.829 201.109Z" stroke="#DBDBDB" stroke-miterlimit="10"/>
<path d="M203.829 218.874H191.853L191.459 215.857H204.217L203.829 218.874Z" stroke="#DBDBDB" stroke-miterlimit="10"/>
<path d="M174.156 230.023L173.512 234.625L172.211 243.876H169.668V230.023H174.156Z" fill="#EBEBEB"/>
<path d="M174.156 230.023L173.512 234.625H169.668V230.023H174.156Z" fill="#DBDBDB"/>
<path d="M222.278 230.023L222.928 234.625L224.228 243.876H226.772V230.023H222.278Z" fill="#EBEBEB"/>
<path d="M222.278 230.023L222.928 234.625H226.772V230.023H222.278Z" fill="#DBDBDB"/>
<path d="M237.174 0.285156H141.9V82.2024H237.174V0.285156Z" stroke="#EBEBEB" stroke-miterlimit="10"/>
<path d="M146.4 3.15376C146.4 3.79819 145.875 4.31716 145.237 4.31716C144.598 4.31716 144.073 3.79249 144.073 3.15376C144.073 2.51503 144.598 1.99036 145.237 1.99036C145.875 1.99036 146.4 2.51503 146.4 3.15376Z" fill="#A6A6A6"/>
<path d="M151.156 3.15376C151.156 3.79819 150.632 4.31716 149.993 4.31716C149.354 4.31716 148.829 3.79249 148.829 3.15376C148.829 2.51503 149.354 1.99036 149.993 1.99036C150.632 1.99036 151.156 2.51503 151.156 3.15376Z" fill="#EBEBEB"/>
<path d="M155.918 3.15376C155.918 3.79819 155.394 4.31716 154.755 4.31716C154.116 4.31716 153.591 3.79249 153.591 3.15376C153.591 2.51503 154.116 1.99036 154.755 1.99036C155.394 1.99036 155.918 2.51503 155.918 3.15376Z" fill="#3F80FF"/>
<path d="M141.9 5.99951H237.174" stroke="#EBEBEB" stroke-miterlimit="10"/>
<path d="M204.73 180.578C205.198 183.772 205.021 187.068 204.245 190.194C203.88 191.659 203.378 193.068 202.774 194.442C202.01 196.199 201.211 197.921 201.399 199.843C201.588 199.968 200.949 199.946 200.926 199.757C195.782 196.832 189.184 196.29 185.226 191.505C183.349 189.235 182.403 186.361 181.958 183.487C181.473 180.356 181.336 176.889 182.146 173.809C182.825 171.197 184.353 168.682 186.805 167.405C189.338 166.087 192.651 166.196 195.314 167.028C201.063 168.813 203.92 175.018 204.736 180.578H204.73Z" fill="#3F80FF"/>
<path d="M207.37 218.657C206.669 216.319 205.967 213.975 205.249 211.642C203.835 207.069 202.369 202.518 200.744 198.012C199.768 195.315 198.742 192.646 197.664 190C197.846 188.34 197.921 186.681 198.28 185.027C198.708 183.031 199.335 181.109 199.917 179.153C199.951 179.033 199.757 178.97 199.711 179.084C198.554 181.77 197.048 185.215 197.014 188.397C195.759 185.403 194.413 182.455 192.97 179.546C192.891 177.071 192.799 174.67 193.199 172.178C193.216 172.064 193.045 172.03 193.027 172.144C192.64 174.237 192.372 176.484 192.526 178.651C191.419 176.467 190.256 174.311 189.018 172.189C188.904 171.995 188.642 172.189 188.739 172.383C190.672 176.107 192.463 179.905 194.145 183.755C191.813 181.691 188.995 180.122 186.081 179.084C185.956 179.039 185.859 179.221 185.984 179.278C189.298 180.664 192.081 182.62 194.71 185.055C195.919 187.873 197.071 190.718 198.166 193.581C194.949 190.427 190.541 188.352 186.281 187.239C186.138 187.2 186.098 187.422 186.235 187.468C191.168 188.95 194.995 191.745 198.748 195.104C199.181 196.262 199.609 197.425 200.031 198.583C201.622 202.991 203.127 207.428 204.57 211.888C205.26 214.026 205.945 216.165 206.612 218.309C207.33 220.619 207.895 223.054 208.83 225.278C208.922 225.489 209.304 225.444 209.252 225.187C208.83 222.98 208.026 220.807 207.382 218.651L207.37 218.657Z" fill="#001640"/>
<path d="M198.839 176.079C197.915 177.493 197.305 179.044 196.985 180.698C196.98 180.738 197.042 180.767 197.059 180.721C197.635 179.164 198.308 177.664 199.067 176.187C199.147 176.039 198.924 175.942 198.839 176.073V176.079Z" fill="#001640"/>
<path d="M189.663 186.795C188.334 186.036 186.566 185.437 185.049 185.238C185.009 185.238 184.981 185.295 185.026 185.312C185.768 185.62 186.549 185.837 187.302 186.122C188.054 186.413 188.79 186.766 189.554 187.028C189.714 187.085 189.822 186.874 189.668 186.789L189.663 186.795Z" fill="#001640"/>
<path d="M187.074 173.9C186.606 173.592 186.11 173.193 185.591 172.982C185.511 172.948 185.437 173.051 185.505 173.113C185.916 173.495 186.492 173.775 186.971 174.06C187.068 174.117 187.171 173.957 187.079 173.895L187.074 173.9Z" fill="#001640"/>
<path d="M222.073 198.052C218.366 199.153 214.642 200.168 210.94 201.257C210.621 201.354 204.353 189.355 206.618 183.167C208.711 177.447 213.501 173.165 219.21 171.22C221.856 170.319 225.107 169.566 227.901 170.182C230.387 170.729 232.138 172.765 232.948 175.104C234.049 178.28 233.684 182.067 233.085 185.312C232.532 188.317 231.431 191.283 229.441 193.644C227.473 195.982 224.964 197.197 222.073 198.058V198.052Z" fill="#3F80FF"/>
<path d="M227.439 186.646C225.078 187.838 222.688 188.699 220.173 189.504C218.599 190.011 216.832 190.467 215.326 191.26C216.889 187.77 218.605 184.359 220.43 180.972C222.825 180.282 225.34 179.198 227.148 177.504C227.245 177.413 227.12 177.271 227.011 177.351C225.038 178.748 222.86 179.586 220.675 180.527C221.166 179.615 221.662 178.708 222.17 177.801C222.312 177.55 221.964 177.299 221.793 177.544C219.854 180.345 218.103 183.316 216.529 186.384C216.136 183.675 215.999 181.04 216.147 178.286C216.147 178.217 216.05 178.212 216.039 178.28C215.583 181.194 215.6 184.274 216.13 187.182C214.83 189.777 213.649 192.435 212.583 195.121C212.161 193.507 211.613 191.916 211.243 190.285C210.718 187.941 210.467 185.551 210.712 183.15C210.718 183.082 210.615 183.076 210.604 183.145C209.885 187.399 210.541 192.195 212.161 196.239C211.539 197.858 210.952 199.484 210.41 201.109C207.644 209.447 205.939 218.041 205.494 226.812C205.483 227.018 205.785 227.035 205.808 226.835C206.817 218.229 208.591 209.658 211.328 201.434C212.4 198.206 213.638 195.07 214.995 191.99C217.185 191.346 219.364 190.467 221.514 189.72C223.612 188.996 225.762 188.152 227.519 186.777C227.587 186.726 227.513 186.612 227.433 186.652L227.439 186.646Z" fill="#001640"/>
<path d="M230.895 183.156C228.631 183.96 226.481 185.089 224.217 185.905C224.109 185.945 224.171 186.11 224.28 186.087C226.675 185.591 229.053 184.85 230.981 183.282C231.055 183.219 230.975 183.122 230.895 183.15V183.156Z" fill="#001640"/>
<path d="M212.395 178.269C212.423 178.149 212.246 178.081 212.212 178.206C211.591 180.293 211.163 182.512 211.767 184.645C211.79 184.73 211.921 184.73 211.927 184.633C212.035 182.483 211.916 180.39 212.395 178.269Z" fill="#001640"/>
<path d="M221.759 173.444C221 174.414 220.727 175.788 220.778 176.997C220.778 177.077 220.909 177.122 220.932 177.031C221.206 175.834 221.668 174.75 222.038 173.587C222.09 173.415 221.873 173.313 221.765 173.45L221.759 173.444Z" fill="#001640"/>
<path d="M178 203.345C179.084 206.789 181.667 211.557 185.756 211.597C188.408 211.62 191.077 211.306 193.729 211.272C196.575 211.226 199.426 211.232 202.26 211.403C202.494 211.414 201.918 202.888 195.086 198.731C193.17 197.567 190.832 197.197 188.659 196.729C186.172 196.187 183.612 195.822 181.063 195.936C179.494 195.999 178.188 196.33 177.629 197.938C177.048 199.621 177.487 201.708 178.006 203.345H178Z" fill="#3F80FF"/>
<path d="M180.943 199.033C182.602 199.461 184.279 199.951 185.944 200.482C185.499 200.02 185.066 199.552 184.564 199.136C183.846 198.543 183.058 198.064 182.294 197.545C182.232 197.499 182.266 197.379 182.351 197.408C183.868 198.001 185.442 199.25 186.383 200.613C188.459 201.286 190.518 202.027 192.497 202.837C193.9 203.413 195.2 204.103 196.415 204.901C195.981 204.057 195.582 203.191 195 202.438C194.094 201.263 192.868 200.607 191.676 199.775C191.562 199.695 191.659 199.535 191.784 199.592C194.464 200.784 196.095 202.717 197.116 205.375C198.519 206.373 199.802 207.542 200.994 208.894C205.517 214.032 209.081 220.864 209.093 227.839C209.093 228.004 208.824 228.05 208.796 227.879C207.513 220.95 204.775 214.728 200.173 209.35C199.848 208.973 199.517 208.614 199.181 208.266C197.938 208.135 196.706 207.97 195.445 207.987C193.991 208.01 192.548 208.203 191.1 208.318C188.716 208.511 186.075 208.54 183.92 207.337C183.823 207.285 183.891 207.12 183.994 207.16C188.79 208.905 193.826 206.692 198.633 207.73C196.58 205.763 194.248 204.28 191.539 203.156C191.391 203.094 191.242 203.037 191.1 202.98C188.02 203.35 184.769 204.154 181.77 203.151C181.678 203.122 181.718 202.985 181.81 203.008C184.707 203.732 187.49 202.82 190.347 202.677C187.233 201.463 184.062 200.499 180.937 199.295C180.675 199.193 180.669 198.953 180.954 199.027L180.943 199.033Z" fill="#001640"/>
<path d="M179.585 202.061C181.091 202.307 182.557 202.318 184.068 202.404C184.102 202.404 184.114 202.461 184.074 202.466C182.602 202.797 180.988 202.592 179.551 202.175C179.477 202.153 179.511 202.05 179.58 202.061H179.585Z" fill="#001640"/>
<path d="M189.708 199.107C190.524 199.392 191.288 200.082 191.927 200.653C192.006 200.721 191.898 200.864 191.813 200.801C191.436 200.527 191.048 200.271 190.661 200.02C190.307 199.792 189.908 199.609 189.583 199.335C189.48 199.25 189.588 199.073 189.714 199.113L189.708 199.107Z" fill="#001640"/>
<path d="M213.843 210.205C213.792 210.319 213.957 210.428 214.02 210.308C214.02 210.308 214.022 210.306 214.026 210.302C214.049 210.336 214.083 210.365 214.134 210.371C216.894 210.969 219.672 211.574 222.483 211.825C224.742 212.025 227.348 212.15 229.327 210.838C232.007 209.059 233.769 204.308 232.321 201.286C230.604 197.699 225.437 199.649 222.848 200.921C218.862 202.866 215.657 206.156 213.843 210.2V210.205Z" fill="#3F80FF"/>
<path d="M211.841 211.865C213.364 210.376 215.046 209.139 216.826 208.067C218.046 205.991 219.923 204.268 221.884 202.911C221.981 202.843 222.067 202.997 221.976 203.065C220.288 204.365 218.97 205.888 217.715 207.548C219.712 206.436 221.822 205.517 223.972 204.702C224.719 203.327 225.939 202.044 227.331 201.337C227.359 201.326 227.393 201.36 227.365 201.383C226.15 202.335 225.181 203.316 224.331 204.565C225.603 204.092 226.886 203.647 228.169 203.225C228.283 203.185 228.329 203.362 228.22 203.407C225.939 204.303 223.601 205.244 221.337 206.327C224.194 206.709 226.766 206.801 229.669 206.304C229.743 206.293 229.777 206.401 229.703 206.424C226.897 207.223 223.686 207.371 220.858 206.555C219.415 207.263 218.006 208.038 216.666 208.905C217.79 208.757 218.919 208.956 220.054 209.184C222.038 209.578 223.977 209.926 226.013 209.857C226.087 209.857 226.11 209.977 226.03 209.994C222.574 210.587 219.307 209.019 215.879 209.424C214.613 210.297 213.41 211.26 212.309 212.338C210.159 214.448 208.431 216.975 207.108 219.678C205.665 222.615 204.884 225.723 203.72 228.757C203.669 228.888 203.487 228.837 203.509 228.7C204.507 222.723 207.484 216.131 211.841 211.865Z" fill="#001640"/>
<path d="M222.261 203.664C222.46 203.253 222.814 202.9 223.145 202.592C223.436 202.318 223.789 201.97 224.166 201.828C224.2 201.816 224.217 201.862 224.2 201.885C223.915 202.204 223.521 202.444 223.219 202.751C222.911 203.059 222.654 203.424 222.346 203.727C222.301 203.767 222.238 203.715 222.266 203.664H222.261Z" fill="#001640"/>
<path d="M227.964 205.517C228.477 205.386 229.019 205.398 229.538 205.289C230.062 205.181 230.553 204.993 231.066 204.833C231.134 204.81 231.174 204.913 231.112 204.947C230.273 205.449 228.945 205.871 227.964 205.677C227.884 205.66 227.89 205.535 227.964 205.517Z" fill="#001640"/>
<path d="M197.601 221.332L198.052 226.481L199.591 243.876H213.216L215.138 226.481L215.708 221.332H197.601Z" fill="#37474F"/>
<path d="M197.601 221.332L198.052 226.481H215.138L215.708 221.332H197.601Z" fill="#001640"/>
<path d="M196.25 224.103H217.054V219.923H196.25V224.103Z" fill="#37474F"/>
<path d="M2.6228 243.875L31.4969 243.739L60.3766 243.687L118.136 243.59L175.896 243.687L204.776 243.733L233.655 243.875L204.776 244.012L175.896 244.064L118.136 244.161L60.3766 244.064L31.4969 244.012L2.6228 243.875Z" fill="#001640"/>
<path d="M223.15 10.5676H13.1276V143.435H223.15V10.5676Z" fill="white"/>
<path d="M223.15 143.435C223.116 143.469 13.0819 143.498 13.042 143.521C12.9964 143.492 13.0192 10.6189 12.985 10.5676V10.425H13.1276C13.1276 10.425 223.179 10.5276 223.207 10.5105C223.253 10.539 223.116 143.395 223.15 143.435ZM223.15 143.435C223.15 143.435 223.019 10.3223 223.15 10.6246L13.1276 10.7101L13.2701 10.5676C13.253 10.5219 13.3329 143.817 13.1276 143.35L223.15 143.435Z" fill="#001640"/>
<path d="M223.15 10.5676H13.1276V15.6774H223.15V10.5676Z" fill="#001640"/>
<path d="M18.0549 13.1225C18.0549 13.6928 17.593 14.1547 17.0227 14.1547C16.4524 14.1547 15.9905 13.6928 15.9905 13.1225C15.9905 12.5522 16.4524 12.0903 17.0227 12.0903C17.593 12.0903 18.0549 12.5522 18.0549 13.1225Z" fill="#3F80FF"/>
<path d="M22.2637 13.1225C22.2637 13.6928 21.8017 14.1547 21.2315 14.1547C20.6612 14.1547 20.1992 13.6928 20.1992 13.1225C20.1992 12.5522 20.6612 12.0903 21.2315 12.0903C21.8017 12.0903 22.2637 12.5522 22.2637 13.1225Z" fill="white"/>
<path d="M26.4668 13.1225C26.4668 13.6928 26.0049 14.1547 25.4346 14.1547C24.8643 14.1547 24.4023 13.6928 24.4023 13.1225C24.4023 12.5522 24.8643 12.0903 25.4346 12.0903C26.0049 12.0903 26.4668 12.5522 26.4668 13.1225Z" fill="#455A64"/>
<path d="M76.7098 79.9839H55.0044V108.447H76.7098V79.9839Z" fill="#EBEBEB"/>
<path d="M102.846 79.9839H81.141V108.447H102.846V79.9839Z" fill="#EBEBEB"/>
<path d="M128.989 79.9839H107.283V108.447H128.989V79.9839Z" fill="#EBEBEB"/>
<path d="M155.131 79.9839H133.426V108.447H155.131V79.9839Z" fill="#EBEBEB"/>
<path d="M181.274 79.9839H159.568V108.447H181.274V79.9839Z" fill="#EBEBEB"/>
<path d="M68.9937 92.7472C70.0374 93.768 70.5449 95.1253 70.5449 96.4883C70.5449 97.8513 70.0146 99.1858 68.9937 100.207C67.9729 101.25 66.6156 101.758 65.2754 101.758H65.2355C63.9181 101.758 62.538 101.25 61.54 100.207C61.0495 99.7618 61.0495 98.9976 61.54 98.5072C61.9848 98.0395 62.7718 98.0395 63.2394 98.5072C63.7926 99.0832 64.5169 99.3569 65.2811 99.3569C66.0054 99.3569 66.7468 99.0832 67.3 98.5072C67.8531 97.954 68.1497 97.2126 68.1497 96.4883C68.1497 95.7241 67.8759 94.9998 67.3 94.4467C66.7468 93.8707 66.0225 93.6197 65.2811 93.6197C64.5397 93.6197 63.7926 93.8764 63.2394 94.4467C62.7718 94.9143 62.0076 94.9143 61.54 94.4467C61.4544 94.3611 61.3917 94.2528 61.3061 94.1729C61.3061 94.133 61.3061 94.1102 61.2833 94.1102C61.2833 94.0703 61.2605 94.0246 61.2434 94.0018C61.2434 93.9391 61.2206 93.8935 61.2206 93.8536C61.2206 93.8307 61.1978 93.8307 61.1978 93.8136C61.175 93.6882 61.175 93.557 61.1978 93.4543L61.8365 87.951C61.8992 87.5917 62.0931 87.2951 62.3669 87.1012C62.4068 87.0784 62.4296 87.0784 62.4524 87.0613C62.4752 87.0385 62.4924 87.0385 62.5152 87.0214C62.6863 86.9359 62.8573 86.8959 63.0684 86.8959H69.3359C70.0146 86.8959 70.5449 87.4263 70.5449 88.105C70.5449 88.7437 70.0146 89.2969 69.3359 89.2969H64.1063L63.8497 91.4013C64.3173 91.2758 64.8078 91.2074 65.2754 91.2074C66.6156 91.2074 67.9729 91.7149 68.9937 92.7586V92.7472Z" fill="#C7C7C7"/>
<path d="M95.1247 92.7243C96.1683 93.7451 96.6759 95.1024 96.6759 96.4426C96.6759 97.7828 96.1683 99.1401 95.1247 100.184C94.1038 101.205 92.7465 101.735 91.3835 101.735C90.0205 101.735 88.686 101.205 87.6652 100.184C87.1975 99.7161 87.1975 98.9519 87.6652 98.4843C88.1328 98.0166 88.897 98.0166 89.3647 98.4843C89.9179 99.0375 90.6421 99.3112 91.3835 99.3112C92.1249 99.3112 92.8492 99.0375 93.4252 98.4843C94.0012 97.9083 94.2749 97.1897 94.2749 96.4426C94.2749 95.6955 94.0012 94.977 93.4252 94.4238C92.872 93.8478 92.1477 93.5969 91.4063 93.574C91.0642 93.5969 90.7505 93.4486 90.5338 93.1919C90.5338 93.1919 90.5262 93.1843 90.511 93.1691C90.0205 92.7015 90.0205 91.9601 90.471 91.4696L92.6382 89.2569H89.1936C88.5377 89.2569 88.0017 88.7265 88.0017 88.0479C88.0017 87.3692 88.532 86.856 89.1936 86.856H95.4611C96.1398 86.856 96.6702 87.3863 96.6702 88.0479C96.6702 88.2589 96.6074 88.4528 96.5219 88.6239C96.4591 88.7322 96.3964 88.8349 96.3109 88.9204L93.6362 91.6807C94.1894 91.9373 94.6969 92.2738 95.1247 92.7243Z" fill="#C7C7C7"/>
<path d="M121.267 92.7243C122.305 93.7451 122.818 95.1024 122.818 96.4426C122.818 97.7828 122.311 99.1401 121.267 100.184C120.246 101.205 118.889 101.735 117.526 101.735C116.163 101.735 114.828 101.205 113.808 100.184C113.34 99.7161 113.34 98.9519 113.808 98.4843C114.275 98.0166 115.039 98.0166 115.507 98.4843C116.06 99.0375 116.784 99.3112 117.526 99.3112C118.267 99.3112 118.991 99.0375 119.567 98.4843C120.143 97.9083 120.417 97.1897 120.417 96.4426C120.417 95.6955 120.143 94.977 119.567 94.4238C119.014 93.8478 118.29 93.5969 117.549 93.574C117.206 93.5969 116.893 93.4486 116.676 93.1919C116.676 93.1919 116.668 93.1843 116.653 93.1691C116.163 92.7015 116.163 91.9601 116.613 91.4696L118.78 89.2569H115.336C114.68 89.2569 114.144 88.7265 114.144 88.0479C114.144 87.3692 114.674 86.856 115.336 86.856H121.603C122.282 86.856 122.812 87.3863 122.812 88.0479C122.812 88.2589 122.75 88.4528 122.664 88.6239C122.601 88.7322 122.539 88.8349 122.453 88.9204L119.779 91.6807C120.332 91.9373 120.839 92.2738 121.267 92.7243Z" fill="#C7C7C7"/>
<path d="M149.36 96.6993C149.36 99.4823 147.084 101.758 144.301 101.758C141.518 101.758 139.203 99.4823 139.203 96.6993C139.203 94.9371 140.098 93.3859 141.478 92.4734C141.034 91.8974 140.777 91.156 140.777 90.369C140.777 88.4585 142.351 86.8845 144.301 86.8845C146.252 86.8845 147.786 88.4585 147.786 90.369C147.786 91.156 147.529 91.8974 147.084 92.4734C148.442 93.3859 149.36 94.9371 149.36 96.6993ZM147.044 96.6993C147.044 95.188 145.813 93.9391 144.301 93.9391C142.79 93.9391 141.541 95.1937 141.518 96.6993C141.541 98.2106 142.773 99.4424 144.301 99.4424C145.83 99.4424 147.044 98.2106 147.044 96.6993ZM143.092 90.369C143.092 91.0249 143.623 91.578 144.301 91.578C144.94 91.578 145.47 91.0249 145.47 90.369C145.47 89.7132 144.94 89.1999 144.301 89.1999C143.623 89.1999 143.092 89.7303 143.092 90.369Z" fill="#C7C7C7"/>
<path d="M133.568 118.405H102.704V128.077H133.568V118.405Z" fill="#3F80FF"/>
<path d="M109.285 123.988C109.371 123.88 109.53 123.868 109.633 123.954C109.844 124.125 110.209 124.324 110.545 124.324C110.785 124.324 111.002 124.25 111.144 124.148C111.287 124.045 111.35 123.925 111.35 123.805C111.35 123.743 111.332 123.703 111.304 123.651C111.275 123.606 111.23 123.555 111.161 123.509C111.024 123.418 110.791 123.338 110.505 123.286H110.494C110.272 123.247 110.061 123.184 109.878 123.098C109.696 123.013 109.542 122.893 109.433 122.728C109.359 122.614 109.325 122.477 109.325 122.334C109.325 122.049 109.485 121.798 109.707 121.638C109.929 121.479 110.226 121.387 110.534 121.387C110.99 121.387 111.332 121.61 111.578 121.769C111.686 121.844 111.72 121.998 111.646 122.112C111.572 122.226 111.424 122.26 111.304 122.186C111.059 122.02 110.825 121.878 110.534 121.878C110.317 121.878 110.129 121.946 109.998 122.038C109.867 122.134 109.815 122.237 109.815 122.34C109.815 122.397 109.827 122.437 109.85 122.471C109.872 122.511 109.918 122.551 109.981 122.596C110.106 122.682 110.323 122.762 110.58 122.807H110.591C110.836 122.853 111.059 122.916 111.253 123.007C111.446 123.104 111.623 123.229 111.732 123.406C111.8 123.52 111.846 123.663 111.846 123.811C111.846 124.119 111.675 124.381 111.435 124.553C111.201 124.724 110.888 124.826 110.551 124.826C110.032 124.826 109.599 124.564 109.331 124.347C109.228 124.262 109.211 124.102 109.291 123.999L109.285 123.988Z" fill="white"/>
<path d="M113.961 124.821C113.192 124.821 112.581 124.199 112.581 123.44V121.741C112.581 121.593 112.695 121.479 112.844 121.479C112.992 121.479 113.112 121.593 113.112 121.741V123.44C113.112 123.908 113.494 124.29 113.961 124.29C114.429 124.29 114.811 123.908 114.811 123.44V121.741C114.811 121.593 114.931 121.479 115.079 121.479C115.227 121.479 115.342 121.593 115.342 121.741V123.44C115.342 124.199 114.726 124.821 113.961 124.821Z" fill="white"/>
<path d="M116.459 124.558V121.741C116.459 121.593 116.579 121.479 116.722 121.479H117.4C117.902 121.479 118.307 121.884 118.307 122.385C118.307 122.591 118.239 122.779 118.125 122.933C118.41 123.115 118.609 123.435 118.609 123.8C118.609 124.37 118.153 124.826 117.589 124.826H116.744C116.733 124.826 116.733 124.826 116.733 124.826C116.591 124.826 116.471 124.707 116.471 124.564L116.459 124.558ZM116.99 122.773H117.4C117.611 122.773 117.777 122.596 117.777 122.385C117.777 122.174 117.611 122.009 117.4 122.009H116.99V122.773ZM116.99 124.29H117.589C117.862 124.29 118.079 124.068 118.079 123.794C118.079 123.52 117.857 123.309 117.589 123.304H116.99V124.29Z" fill="white"/>
<path d="M122.174 121.741V124.558C122.174 124.701 122.048 124.821 121.906 124.821C121.763 124.821 121.643 124.701 121.643 124.558V122.545L120.953 123.503C120.902 123.577 120.822 123.612 120.737 123.612H120.725C120.64 123.612 120.56 123.572 120.503 123.503L119.818 122.545V124.558C119.818 124.701 119.699 124.821 119.55 124.821C119.402 124.821 119.288 124.701 119.288 124.558V121.741C119.288 121.598 119.408 121.479 119.55 121.479H119.568C119.642 121.479 119.727 121.519 119.779 121.587L120.731 122.904L121.683 121.587C121.735 121.513 121.814 121.479 121.9 121.479C122.043 121.479 122.168 121.598 122.168 121.741H122.174Z" fill="white"/>
<path d="M123.366 121.741C123.366 121.593 123.48 121.479 123.628 121.479C123.776 121.479 123.896 121.593 123.896 121.741V124.558C123.896 124.707 123.771 124.821 123.628 124.821C123.485 124.821 123.366 124.707 123.366 124.558V121.741Z" fill="white"/>
<path d="M126.833 122.009H126.075V124.558C126.075 124.707 125.961 124.821 125.812 124.821C125.664 124.821 125.55 124.707 125.55 124.558V122.009H124.797C124.649 122.009 124.535 121.884 124.535 121.741C124.535 121.598 124.649 121.479 124.797 121.479H126.839C126.981 121.479 127.101 121.593 127.101 121.741C127.101 121.889 126.981 122.009 126.839 122.009H126.833Z" fill="white"/>
<path d="M122.163 33.8641V38.2041H120.937V33.8641C120.937 32.2103 119.683 30.8701 118.143 30.8701C116.603 30.8701 115.348 32.2103 115.348 33.8641V38.2041H114.122V33.8641C114.122 31.4974 115.924 29.5755 118.149 29.5755C120.373 29.5755 122.175 31.4974 122.175 33.8641H122.163Z" fill="#EBEBEB"/>
<path d="M114.115 34.9933L115.342 35.0446V38.2041H114.115V34.9933Z" fill="#C7C7C7"/>
<path d="M122.162 35.3184V38.2041H120.936V35.2728L122.162 35.3184Z" fill="#C7C7C7"/>
<path d="M123.736 36.6016H112.542V45.8917H123.736V36.6016Z" fill="#3F80FF"/>
<path d="M118.609 41.181L119.077 43.4051H117.087L117.554 41.181C117.275 41.0042 117.087 40.6962 117.087 40.3427C117.087 39.7895 117.532 39.3503 118.079 39.3503C118.627 39.3503 119.071 39.7895 119.071 40.3427C119.071 40.6962 118.883 41.0042 118.604 41.181H118.609Z" fill="#001640"/>
<path d="M57.4738 69.2589C57.4738 69.1905 57.5308 69.1334 57.5992 69.1334H58.6315C59.2075 69.1334 59.6694 69.6011 59.6694 70.1771C59.6694 70.7531 59.2075 71.215 58.6315 71.215L57.7304 71.2264V72.6578C57.7304 72.7263 57.6734 72.7833 57.5992 72.7833C57.5308 72.7833 57.4738 72.7263 57.4738 72.6578V69.2589ZM58.6315 70.9698C59.0649 70.9698 59.4185 70.6105 59.4185 70.1771C59.4185 69.7436 59.0649 69.3901 58.6315 69.3901H57.7304V70.9698H58.6315Z" fill="#001640"/>
<path d="M60.4906 69.2566C60.4906 69.1882 60.5476 69.1312 60.6161 69.1312C60.6902 69.1312 60.7472 69.1882 60.7472 69.2566V72.6556C60.7472 72.724 60.6902 72.7811 60.6161 72.7811C60.5476 72.7811 60.4906 72.724 60.4906 72.6556V69.2566Z" fill="#001640"/>
<path d="M61.8022 71.5093C61.8022 70.8021 62.3554 70.2261 63.0455 70.2261C63.7355 70.2261 64.226 70.7451 64.2773 71.4124V71.4352C64.2773 71.5036 64.2203 71.5492 64.1519 71.5492H62.0589C62.0874 72.1081 62.5208 72.5301 63.0512 72.5301C63.3877 72.5301 63.7013 72.3533 63.8724 72.0682C63.9066 72.0055 63.9865 71.9941 64.0378 72.0283C64.0948 72.0682 64.1176 72.1423 64.0777 72.2051C63.861 72.5529 63.4789 72.7811 63.0455 72.7811C62.3554 72.7811 61.8022 72.2051 61.8022 71.5093ZM62.0703 71.304H64.0036C63.918 70.8249 63.5131 70.4771 63.0455 70.4771C62.5778 70.4771 62.1672 70.8192 62.0703 71.304Z" fill="#001640"/>
<path d="M67.2999 70.3516V72.6556C67.2999 72.724 67.2429 72.7811 67.1744 72.7811C67.106 72.7811 67.049 72.724 67.049 72.6556V72.2735C66.8322 72.5758 66.4787 72.7811 66.0909 72.7811C65.4179 72.7811 64.8818 72.2051 64.8818 71.5036C64.8818 70.8021 65.4179 70.2261 66.0909 70.2261C66.4844 70.2261 66.8322 70.4257 67.049 70.728V70.3516C67.049 70.2775 67.106 70.2261 67.1744 70.2261C67.2429 70.2261 67.2999 70.2775 67.2999 70.3516ZM67.049 71.5036C67.049 70.9276 66.6155 70.4714 66.0909 70.4714C65.5662 70.4714 65.1328 70.9276 65.1328 71.5036C65.1328 72.0796 65.5719 72.5301 66.0909 72.5301C66.6098 72.5301 67.049 72.0739 67.049 71.5036Z" fill="#001640"/>
<path d="M68.2067 72.2507C68.2467 72.1994 68.3265 72.188 68.3835 72.2336C68.5603 72.3647 68.8398 72.5301 69.1648 72.5301C69.3644 72.5301 69.5355 72.4674 69.6496 72.3762C69.7751 72.2906 69.8435 72.1765 69.8435 72.0625C69.8435 71.9427 69.7922 71.8572 69.661 71.7488C69.5526 71.6633 69.3701 71.6005 69.1192 71.5606H69.1078C68.8797 71.515 68.6744 71.4637 68.5318 71.3553C68.3721 71.2641 68.2581 71.093 68.2581 70.8991C68.2581 70.7052 68.3721 70.517 68.5318 70.3972C68.6858 70.2946 68.8968 70.2261 69.1591 70.2261C69.4899 70.2261 69.7237 70.3801 69.9176 70.4999C69.9747 70.5398 69.9918 70.6196 69.9518 70.6767C69.9176 70.7337 69.8378 70.7508 69.7808 70.7109C69.5926 70.5854 69.4044 70.4543 69.1534 70.4543C68.9424 70.4543 68.777 70.5113 68.6687 70.6025C68.566 70.6881 68.509 70.7907 68.509 70.8934C68.509 70.996 68.5546 71.0702 68.6573 71.15C68.7713 71.2299 68.9424 71.2926 69.1762 71.3268H69.1876C69.4329 71.361 69.6325 71.4352 69.8093 71.5378C69.9747 71.6462 70.0944 71.8458 70.0944 72.0568C70.0944 72.2678 69.9747 72.4446 69.8036 72.5758C69.6268 72.7069 69.4158 72.7811 69.1648 72.7811C68.7542 72.7811 68.4292 72.5815 68.2238 72.4161C68.1725 72.3704 68.1668 72.302 68.2067 72.2507Z" fill="#001640"/>
<path d="M70.7673 71.5093C70.7673 70.8021 71.3205 70.2261 72.0106 70.2261C72.7006 70.2261 73.1911 70.7451 73.2424 71.4124V71.4352C73.2424 71.5036 73.1854 71.5492 73.117 71.5492H71.024C71.0525 72.1081 71.4859 72.5301 72.0163 72.5301C72.3528 72.5301 72.6664 72.3533 72.8375 72.0682C72.8717 72.0055 72.9516 71.9941 73.0029 72.0283C73.0599 72.0682 73.0827 72.1423 73.0428 72.2051C72.8261 72.5529 72.444 72.7811 72.0106 72.7811C71.3205 72.7811 70.7673 72.2051 70.7673 71.5093ZM71.0354 71.304H72.9687C72.8831 70.8249 72.4782 70.4771 72.0106 70.4771C71.5429 70.4771 71.1323 70.8192 71.0354 71.304Z" fill="#001640"/>
<path d="M75.5065 71.5093C75.5065 70.8021 76.0597 70.2261 76.7497 70.2261C77.4398 70.2261 77.9302 70.7451 77.9816 71.4124V71.4352C77.9816 71.5036 77.9245 71.5492 77.8561 71.5492H75.7631C75.7916 72.1081 76.225 72.5301 76.7554 72.5301C77.0919 72.5301 77.4056 72.3533 77.5766 72.0682C77.6109 72.0055 77.6907 71.9941 77.742 72.0283C77.7991 72.0682 77.8219 72.1423 77.782 72.2051C77.5652 72.5529 77.1831 72.7811 76.7497 72.7811C76.0597 72.7811 75.5065 72.2051 75.5065 71.5093ZM75.7745 71.304H77.7078C77.6223 70.8249 77.2174 70.4771 76.7497 70.4771C76.2821 70.4771 75.8715 70.8192 75.7745 71.304Z" fill="#001640"/>
<path d="M80.6905 71.2698C80.6905 70.8364 80.3426 70.4828 79.9035 70.4828C79.4644 70.4828 79.1222 70.8364 79.1108 71.2698V72.6784C79.1108 72.6784 79.0994 72.7183 79.0823 72.7354C79.0594 72.764 79.0252 72.7811 78.991 72.7811H78.9625C78.9283 72.7697 78.8941 72.7468 78.877 72.7126C78.877 72.7126 78.877 72.7012 78.877 72.6955V72.6841V70.3516C78.877 70.2832 78.9283 70.2261 79.0024 70.2261C79.0709 70.2261 79.1222 70.2832 79.1222 70.3516V70.5968C79.3104 70.3744 79.5955 70.2261 79.9149 70.2261C80.4909 70.2261 80.9528 70.6938 80.9528 71.2641V72.6499C80.9528 72.724 80.8958 72.7754 80.8274 72.7754C80.7589 72.7754 80.7019 72.724 80.7019 72.6499V71.2641L80.6905 71.2698Z" fill="#001640"/>
<path d="M82.9488 70.3516C82.9488 70.4143 82.8861 70.4771 82.8233 70.4771H82.4926V72.3362C82.4926 72.4617 82.618 72.5244 82.6808 72.5244C82.7435 72.5244 82.8119 72.5929 82.8119 72.6556C82.8119 72.7183 82.7435 72.7811 82.6808 72.7811C82.4241 72.7811 82.2302 72.5929 82.2302 72.3362V70.4771H81.9109C81.7854 70.4771 81.7854 70.4143 81.7854 70.3516C81.7854 70.2889 81.7854 70.2261 81.9109 70.2261H82.2302V69.2795C82.2302 69.2167 82.293 69.154 82.3557 69.154C82.4241 69.154 82.4926 69.2167 82.4926 69.2795V70.2261H82.8233C82.8861 70.2261 82.9488 70.2889 82.9488 70.3516Z" fill="#001640"/>
<path d="M83.7529 71.5093C83.7529 70.8021 84.3061 70.2261 84.9962 70.2261C85.6862 70.2261 86.1767 70.7451 86.228 71.4124V71.4352C86.228 71.5036 86.171 71.5492 86.1026 71.5492H84.0096C84.0381 72.1081 84.4715 72.5301 85.0019 72.5301C85.3384 72.5301 85.652 72.3533 85.8231 72.0682C85.8573 72.0055 85.9372 71.9941 85.9885 72.0283C86.0455 72.0682 86.0683 72.1423 86.0284 72.2051C85.8117 72.5529 85.4296 72.7811 84.9962 72.7811C84.3061 72.7811 83.7529 72.2051 83.7529 71.5093ZM84.021 71.304H85.9543C85.8687 70.8249 85.4638 70.4771 84.9962 70.4771C84.5285 70.4771 84.1122 70.8192 84.021 71.304Z" fill="#001640"/>
<path d="M86.998 70.3573C86.998 70.2832 87.055 70.2319 87.1292 70.2319C87.1919 70.2319 87.2489 70.2832 87.2489 70.3573V70.9219C87.2489 70.9219 87.2718 70.882 87.2832 70.8592C87.4771 70.5569 87.8135 70.2319 88.304 70.2319C88.3724 70.2319 88.4295 70.2832 88.4295 70.3573C88.4295 70.4258 88.3724 70.4828 88.304 70.4828C87.9732 70.4828 87.7394 70.671 87.5626 70.8991C87.3915 71.1272 87.2889 71.3896 87.2546 71.4922C87.2432 71.515 87.2432 71.5207 87.2432 71.5321V72.6556C87.2432 72.7298 87.1862 72.7811 87.1235 72.7811C87.0493 72.7811 86.9923 72.7298 86.9923 72.6556V70.3573H86.998Z" fill="#001640"/>
<path d="M91.7428 70.3516C91.7428 70.4143 91.68 70.4771 91.6173 70.4771H91.2865V72.3362C91.2865 72.4617 91.412 72.5244 91.4747 72.5244C91.5374 72.5244 91.6059 72.5929 91.6059 72.6556C91.6059 72.7183 91.5374 72.7811 91.4747 72.7811C91.2181 72.7811 91.0242 72.5929 91.0242 72.3362V70.4771H90.7048C90.5793 70.4771 90.5793 70.4143 90.5793 70.3516C90.5793 70.2889 90.5793 70.2261 90.7048 70.2261H91.0242V69.2795C91.0242 69.2167 91.0869 69.154 91.1496 69.154C91.2181 69.154 91.2865 69.2167 91.2865 69.2795V70.2261H91.6173C91.68 70.2261 91.7428 70.2889 91.7428 70.3516Z" fill="#001640"/>
<path d="M94.7083 71.2299C94.7083 70.7793 94.3433 70.4771 93.8928 70.4771C93.4422 70.4771 93.083 70.7793 93.083 71.2299V72.667C93.083 72.667 93.083 72.6841 93.083 72.6898C93.083 72.7012 93.083 72.7069 93.0716 72.7126C93.0544 72.7411 93.0316 72.7639 92.9917 72.7754C92.9917 72.7754 92.9917 72.7754 92.9803 72.7754H92.9518C92.9176 72.7754 92.8777 72.7582 92.8548 72.7354C92.8434 72.7183 92.8377 72.7069 92.832 72.6955C92.832 72.6784 92.832 72.667 92.832 72.6556V69.2566C92.832 69.1882 92.8891 69.1312 92.9575 69.1312C93.0316 69.1312 93.0887 69.1882 93.0887 69.2566V70.6025C93.2826 70.3744 93.5734 70.2261 93.8985 70.2261C94.4859 70.2261 94.9649 70.6424 94.9649 71.2299V72.6556C94.9649 72.724 94.9079 72.7811 94.8338 72.7811C94.7653 72.7811 94.7083 72.724 94.7083 72.6556V71.2299Z" fill="#001640"/>
<path d="M95.8489 71.5093C95.8489 70.8021 96.4021 70.2261 97.0921 70.2261C97.7822 70.2261 98.2726 70.7451 98.324 71.4124V71.4352C98.324 71.5036 98.2669 71.5492 98.1985 71.5492H96.1055C96.134 72.1081 96.5675 72.5301 97.0978 72.5301C97.4343 72.5301 97.748 72.3533 97.9191 72.0682C97.9533 72.0055 98.0331 71.9941 98.0844 72.0283C98.1415 72.0682 98.1643 72.1423 98.1244 72.2051C97.9076 72.5529 97.5255 72.7811 97.0921 72.7811C96.4021 72.7811 95.8489 72.2051 95.8489 71.5093ZM96.1169 71.304H98.0502C97.9647 70.8249 97.5598 70.4771 97.0921 70.4771C96.6245 70.4771 96.2139 70.8192 96.1169 71.304Z" fill="#001640"/>
<path d="M102.424 69.0798C103.4 69.0798 104.164 69.9068 104.17 70.9333C104.17 71.9541 103.4 72.7868 102.424 72.7868C101.449 72.7868 100.668 71.9598 100.662 70.9333C100.662 69.9125 101.438 69.0798 102.424 69.0798ZM102.424 72.5244C103.229 72.5244 103.907 71.823 103.913 70.9276C103.913 70.0265 103.229 69.3365 102.424 69.3365C101.62 69.3365 100.919 70.0265 100.919 70.9276C100.919 71.8287 101.598 72.5244 102.424 72.5244Z" fill="#001640"/>
<path d="M105.915 69.3878H104.814C104.746 69.3878 104.688 69.3308 104.688 69.2566C104.688 69.1882 104.746 69.1312 104.814 69.1312H107.266C107.335 69.1312 107.392 69.1882 107.392 69.2566C107.392 69.3308 107.335 69.3878 107.266 69.3878H106.166V72.6556C106.166 72.724 106.109 72.7811 106.04 72.7811C105.972 72.7811 105.915 72.724 105.915 72.6556V69.3878Z" fill="#001640"/>
<path d="M108.344 69.2566C108.344 69.1882 108.401 69.1312 108.47 69.1312H109.502C110.078 69.1312 110.54 69.5988 110.54 70.1748C110.54 70.7508 110.078 71.2127 109.502 71.2127L108.601 71.2241V72.6556C108.601 72.724 108.544 72.7811 108.47 72.7811C108.401 72.7811 108.344 72.724 108.344 72.6556V69.2566ZM109.502 70.9675C109.935 70.9675 110.289 70.6082 110.289 70.1748C110.289 69.7414 109.935 69.3878 109.502 69.3878H108.601V70.9675H109.502Z" fill="#001640"/>
<path d="M112.707 71.4979C112.707 70.7907 113.289 70.2261 114.019 70.2261C114.321 70.2261 114.606 70.3288 114.834 70.5056C114.885 70.5398 114.897 70.6196 114.851 70.6767C114.811 70.7223 114.737 70.7394 114.68 70.6995C114.498 70.5512 114.27 70.4714 114.024 70.4714C113.431 70.4714 112.964 70.9333 112.964 71.4979C112.964 72.0625 113.431 72.5301 114.024 72.5301C114.27 72.5301 114.498 72.4446 114.68 72.3077C114.737 72.2678 114.811 72.2792 114.851 72.3305C114.897 72.3876 114.885 72.4674 114.823 72.513C114.612 72.6784 114.321 72.7868 114.019 72.7868C113.289 72.7868 112.707 72.2222 112.707 71.5036V71.4979Z" fill="#001640"/>
<path d="M116.881 70.2261C117.554 70.2261 118.09 70.8078 118.09 71.5036C118.09 72.1994 117.554 72.7811 116.881 72.7811C116.208 72.7811 115.672 72.1994 115.672 71.5036C115.672 70.8078 116.214 70.2261 116.881 70.2261ZM116.881 72.5301C117.4 72.5301 117.839 72.0739 117.839 71.5036C117.839 70.9333 117.4 70.4714 116.881 70.4714C116.362 70.4714 115.923 70.9333 115.923 71.5036C115.923 72.0739 116.362 72.5301 116.881 72.5301Z" fill="#001640"/>
<path d="M121.09 72.2849C120.868 72.5872 120.514 72.7811 120.109 72.7811C119.419 72.7811 118.872 72.2051 118.872 71.5093C118.872 70.8135 119.419 70.2261 120.109 70.2261C120.509 70.2261 120.868 70.4257 121.09 70.728V69.2566C121.09 69.1882 121.147 69.1312 121.221 69.1312C121.29 69.1312 121.347 69.1882 121.347 69.2566V72.6556C121.347 72.724 121.29 72.7811 121.221 72.7811C121.147 72.7811 121.09 72.724 121.09 72.6556V72.2849ZM121.09 71.5492V71.4637C121.067 70.9162 120.634 70.4771 120.109 70.4771C119.585 70.4771 119.128 70.9333 119.128 71.5036C119.128 72.0739 119.573 72.5187 120.109 72.5187C120.645 72.5187 121.067 72.0853 121.09 71.5435V71.5492Z" fill="#001640"/>
<path d="M122.225 71.5093C122.225 70.8021 122.778 70.2261 123.468 70.2261C124.158 70.2261 124.649 70.7451 124.7 71.4124V71.4352C124.7 71.5036 124.643 71.5492 124.575 71.5492H122.482C122.51 72.1081 122.944 72.5301 123.474 72.5301C123.811 72.5301 124.124 72.3533 124.295 72.0682C124.329 72.0055 124.409 71.9941 124.461 72.0283C124.518 72.0682 124.541 72.1423 124.501 72.2051C124.284 72.5529 123.902 72.7811 123.468 72.7811C122.778 72.7811 122.225 72.2051 122.225 71.5093ZM122.493 71.304H124.426C124.341 70.8249 123.936 70.4771 123.468 70.4771C123.001 70.4771 122.59 70.8192 122.493 71.304Z" fill="#001640"/>
<path d="M126.97 72.2507C127.01 72.1994 127.09 72.188 127.147 72.2336C127.324 72.3647 127.603 72.5301 127.928 72.5301C128.128 72.5301 128.299 72.4674 128.413 72.3762C128.538 72.2906 128.607 72.1765 128.607 72.0625C128.607 71.9427 128.555 71.8572 128.424 71.7488C128.316 71.6633 128.133 71.6005 127.882 71.5606H127.871C127.643 71.515 127.438 71.4637 127.295 71.3553C127.135 71.2641 127.021 71.093 127.021 70.8991C127.021 70.7052 127.135 70.517 127.295 70.3972C127.449 70.2946 127.66 70.2261 127.922 70.2261C128.253 70.2261 128.487 70.3801 128.681 70.4999C128.738 70.5398 128.755 70.6196 128.715 70.6767C128.681 70.7337 128.601 70.7508 128.544 70.7109C128.356 70.5854 128.168 70.4543 127.917 70.4543C127.706 70.4543 127.54 70.5113 127.432 70.6025C127.329 70.6881 127.272 70.7907 127.272 70.8934C127.272 70.996 127.318 71.0702 127.42 71.15C127.535 71.2299 127.706 71.2926 127.939 71.3268H127.951C128.196 71.361 128.396 71.4352 128.572 71.5378C128.738 71.6462 128.858 71.8458 128.858 72.0568C128.858 72.2678 128.738 72.4446 128.567 72.5758C128.39 72.7069 128.179 72.7811 127.928 72.7811C127.517 72.7811 127.192 72.5815 126.987 72.4161C126.936 72.3704 126.93 72.302 126.97 72.2507Z" fill="#001640"/>
<path d="M129.531 71.5093C129.531 70.8021 130.084 70.2261 130.774 70.2261C131.464 70.2261 131.954 70.7451 132.006 71.4124V71.4352C132.006 71.5036 131.949 71.5492 131.88 71.5492H129.787C129.816 72.1081 130.249 72.5301 130.78 72.5301C131.116 72.5301 131.43 72.3533 131.601 72.0682C131.635 72.0055 131.715 71.9941 131.766 72.0283C131.823 72.0682 131.846 72.1423 131.806 72.2051C131.589 72.5529 131.207 72.7811 130.774 72.7811C130.084 72.7811 129.531 72.2051 129.531 71.5093ZM129.799 71.304H131.732C131.646 70.8249 131.242 70.4771 130.774 70.4771C130.306 70.4771 129.896 70.8192 129.799 71.304Z" fill="#001640"/>
<path d="M134.715 71.2698C134.715 70.8364 134.367 70.4828 133.928 70.4828C133.488 70.4828 133.146 70.8364 133.135 71.2698V72.6784C133.135 72.6784 133.123 72.7183 133.106 72.7354C133.083 72.764 133.049 72.7811 133.015 72.7811H132.987C132.952 72.7697 132.918 72.7468 132.901 72.7126C132.901 72.7126 132.901 72.7012 132.901 72.6955V72.6841V70.3516C132.901 70.2832 132.952 70.2261 133.026 70.2261C133.095 70.2261 133.146 70.2832 133.146 70.3516V70.5968C133.334 70.3744 133.62 70.2261 133.939 70.2261C134.515 70.2261 134.977 70.6938 134.977 71.2641V72.6499C134.977 72.724 134.92 72.7754 134.851 72.7754C134.783 72.7754 134.726 72.724 134.726 72.6499V71.2641L134.715 71.2698Z" fill="#001640"/>
<path d="M136.973 70.3516C136.973 70.4143 136.91 70.4771 136.848 70.4771H136.517V72.3362C136.517 72.4617 136.642 72.5244 136.705 72.5244C136.768 72.5244 136.836 72.5929 136.836 72.6556C136.836 72.7183 136.768 72.7811 136.705 72.7811C136.448 72.7811 136.254 72.5929 136.254 72.3362V70.4771H135.935C135.81 70.4771 135.81 70.4143 135.81 70.3516C135.81 70.2889 135.81 70.2261 135.935 70.2261H136.254V69.2795C136.254 69.2167 136.317 69.154 136.38 69.154C136.448 69.154 136.517 69.2167 136.517 69.2795V70.2261H136.848C136.91 70.2261 136.973 70.2889 136.973 70.3516Z" fill="#001640"/>
<path d="M140.623 70.3516C140.623 70.4143 140.56 70.4771 140.497 70.4771H140.167V72.3362C140.167 72.4617 140.292 72.5244 140.355 72.5244C140.418 72.5244 140.486 72.5929 140.486 72.6556C140.486 72.7183 140.418 72.7811 140.355 72.7811C140.098 72.7811 139.904 72.5929 139.904 72.3362V70.4771H139.585C139.459 70.4771 139.459 70.4143 139.459 70.3516C139.459 70.2889 139.459 70.2261 139.585 70.2261H139.904V69.2795C139.904 69.2167 139.967 69.154 140.03 69.154C140.098 69.154 140.167 69.2167 140.167 69.2795V70.2261H140.497C140.56 70.2261 140.623 70.2889 140.623 70.3516Z" fill="#001640"/>
<path d="M142.83 70.2261C143.503 70.2261 144.039 70.8078 144.039 71.5036C144.039 72.1994 143.503 72.7811 142.83 72.7811C142.157 72.7811 141.621 72.1994 141.621 71.5036C141.621 70.8078 142.163 70.2261 142.83 70.2261ZM142.83 72.5301C143.349 72.5301 143.788 72.0739 143.788 71.5036C143.788 70.9333 143.349 70.4714 142.83 70.4714C142.311 70.4714 141.872 70.9333 141.872 71.5036C141.872 72.0739 142.311 72.5301 142.83 72.5301Z" fill="#001640"/>
<path d="M146.349 70.3459C146.349 70.2775 146.406 70.2261 146.468 70.2261C146.542 70.2261 146.6 70.2775 146.6 70.3459V71.7317C146.6 72.1708 146.947 72.5187 147.381 72.5187C147.814 72.5187 148.168 72.1708 148.174 71.7317V70.3459C148.174 70.3459 148.174 70.3003 148.196 70.2832C148.196 70.2832 148.196 70.2718 148.196 70.2661C148.196 70.2661 148.196 70.2661 148.208 70.2661C148.219 70.2489 148.236 70.2375 148.253 70.2375H148.265C148.265 70.2375 148.276 70.2375 148.282 70.2375H148.31C148.31 70.2375 148.35 70.2546 148.373 70.2661C148.385 70.2775 148.402 70.2946 148.402 70.306C148.413 70.3231 148.419 70.3402 148.419 70.3573V72.5872C148.419 73.2544 147.877 73.7848 147.204 73.7848C147.016 73.7848 146.839 73.7392 146.679 73.665C146.622 73.6308 146.594 73.5567 146.628 73.4996C146.657 73.4369 146.725 73.4198 146.788 73.4369C146.913 73.4996 147.061 73.5339 147.204 73.5339C147.734 73.5339 148.162 73.1118 148.168 72.5872V72.4218C147.974 72.6385 147.694 72.7868 147.375 72.7868C146.805 72.7868 146.343 72.3191 146.343 71.7431V70.3573L146.349 70.3459Z" fill="#001640"/>
<path d="M150.557 70.2261C151.23 70.2261 151.766 70.8078 151.766 71.5036C151.766 72.1994 151.23 72.7811 150.557 72.7811C149.884 72.7811 149.348 72.1994 149.348 71.5036C149.348 70.8078 149.89 70.2261 150.557 70.2261ZM150.557 72.5301C151.076 72.5301 151.516 72.0739 151.516 71.5036C151.516 70.9333 151.076 70.4714 150.557 70.4714C150.038 70.4714 149.599 70.9333 149.599 71.5036C149.599 72.0739 150.038 72.5301 150.557 72.5301Z" fill="#001640"/>
<path d="M152.593 70.3459C152.593 70.2718 152.65 70.2205 152.719 70.2205C152.787 70.2205 152.844 70.2718 152.844 70.3459V71.7374C152.844 72.1766 153.192 72.5245 153.626 72.5302C154.065 72.5302 154.418 72.1766 154.418 71.7374V70.3459C154.418 70.2718 154.481 70.2205 154.544 70.2205C154.618 70.2205 154.675 70.2718 154.675 70.3459V71.7374C154.675 72.3134 154.213 72.7811 153.626 72.7811C153.038 72.7811 152.593 72.3134 152.593 71.7374V70.3459Z" fill="#001640"/>
<path d="M155.838 70.3573C155.838 70.2832 155.895 70.2319 155.97 70.2319C156.032 70.2319 156.089 70.2832 156.089 70.3573V70.9219C156.089 70.9219 156.112 70.882 156.123 70.8592C156.317 70.5569 156.654 70.2319 157.144 70.2319C157.213 70.2319 157.27 70.2832 157.27 70.3573C157.27 70.4258 157.213 70.4828 157.144 70.4828C156.814 70.4828 156.58 70.671 156.403 70.8991C156.232 71.1272 156.129 71.3896 156.095 71.4922C156.084 71.515 156.084 71.5207 156.084 71.5321V72.6556C156.084 72.7298 156.027 72.7811 155.964 72.7811C155.89 72.7811 155.833 72.7298 155.833 72.6556V70.3573H155.838Z" fill="#001640"/>
<path d="M161.513 71.2698C161.513 70.8364 161.165 70.4828 160.726 70.4828C160.287 70.4828 159.944 70.8364 159.933 71.2698V72.6784C159.933 72.6784 159.922 72.7183 159.905 72.7354C159.882 72.764 159.848 72.7811 159.813 72.7811H159.785C159.751 72.7697 159.716 72.7468 159.699 72.7126C159.699 72.7126 159.699 72.7012 159.699 72.6955V72.6841V70.3516C159.699 70.2832 159.751 70.2261 159.825 70.2261C159.893 70.2261 159.944 70.2832 159.944 70.3516V70.5968C160.133 70.3744 160.418 70.2261 160.737 70.2261C161.313 70.2261 161.775 70.6938 161.775 71.2641V72.6499C161.775 72.724 161.718 72.7754 161.65 72.7754C161.581 72.7754 161.524 72.724 161.524 72.6499V71.2641L161.513 71.2698Z" fill="#001640"/>
<path d="M162.836 70.3459C162.836 70.2718 162.893 70.2205 162.961 70.2205C163.03 70.2205 163.087 70.2718 163.087 70.3459V71.7374C163.087 72.1766 163.435 72.5245 163.868 72.5302C164.307 72.5302 164.661 72.1766 164.661 71.7374V70.3459C164.661 70.2718 164.724 70.2205 164.786 70.2205C164.86 70.2205 164.918 70.2718 164.918 70.3459V71.7374C164.918 72.3134 164.456 72.7811 163.868 72.7811C163.281 72.7811 162.836 72.3134 162.836 71.7374V70.3459Z" fill="#001640"/>
<path d="M169.736 71.2698C169.725 70.8364 169.383 70.4771 168.944 70.4771C168.505 70.4771 168.157 70.8364 168.157 71.2698V72.6784V72.6898V72.7012C168.145 72.7297 168.122 72.7525 168.094 72.7697C168.071 72.7811 168.054 72.7868 168.031 72.7868H168.003H167.991C167.98 72.7868 167.969 72.7754 167.963 72.7697C167.963 72.7697 167.951 72.7697 167.946 72.7582L167.929 72.7411C167.929 72.7411 167.929 72.7297 167.917 72.7297C167.917 72.7297 167.917 72.7259 167.917 72.7183C167.917 72.7183 167.917 72.7183 167.917 72.7069C167.917 72.7069 167.917 72.6955 167.917 72.6898V71.2698C167.917 70.8364 167.569 70.4771 167.13 70.4771C166.691 70.4771 166.343 70.8364 166.343 71.2698V72.6613C166.343 72.7012 166.32 72.7411 166.286 72.7582C166.286 72.7582 166.263 72.7754 166.258 72.7754C166.258 72.7754 166.246 72.7754 166.235 72.7754H166.206C166.161 72.7754 166.115 72.7297 166.104 72.6841V70.3459C166.104 70.2775 166.161 70.2261 166.223 70.2261C166.298 70.2261 166.349 70.2775 166.349 70.3459V70.5911C166.537 70.3687 166.817 70.2261 167.136 70.2261C167.529 70.2261 167.872 70.4428 168.048 70.7679C168.231 70.4428 168.573 70.2261 168.967 70.2261C169.543 70.2261 170.004 70.6881 170.004 71.2641V72.6556C170.004 72.7183 169.953 72.7754 169.879 72.7754C169.811 72.7754 169.759 72.7183 169.759 72.6556V71.2641L169.736 71.2698Z" fill="#001640"/>
<path d="M171.037 71.5606V69.2566C171.037 69.1882 171.094 69.1312 171.162 69.1312C171.236 69.1312 171.293 69.1882 171.293 69.2566V70.728C171.516 70.4257 171.869 70.2261 172.274 70.2261C172.964 70.2261 173.512 70.8021 173.512 71.5093C173.512 72.2165 172.964 72.7811 172.274 72.7811C171.875 72.7811 171.516 72.5872 171.293 72.2849V72.6556C171.293 72.724 171.236 72.7811 171.162 72.7811C171.094 72.7811 171.037 72.724 171.037 72.6556V71.5606ZM171.293 71.5093C171.293 72.0739 171.738 72.5244 172.274 72.5244C172.81 72.5244 173.255 72.0682 173.255 71.5093C173.255 70.9504 172.816 70.4828 172.274 70.4828C171.733 70.4828 171.316 70.9219 171.293 71.4694V71.5093Z" fill="#001640"/>
<path d="M174.299 71.5093C174.299 70.8021 174.852 70.2261 175.542 70.2261C176.232 70.2261 176.723 70.7451 176.774 71.4124V71.4352C176.774 71.5036 176.717 71.5492 176.648 71.5492H174.555C174.584 72.1081 175.017 72.5301 175.548 72.5301C175.884 72.5301 176.198 72.3533 176.369 72.0682C176.403 72.0055 176.483 71.9941 176.534 72.0283C176.591 72.0682 176.614 72.1423 176.574 72.2051C176.358 72.5529 175.975 72.7811 175.542 72.7811C174.852 72.7811 174.299 72.2051 174.299 71.5093ZM174.567 71.304H176.5C176.415 70.8249 176.01 70.4771 175.542 70.4771C175.074 70.4771 174.664 70.8192 174.567 71.304Z" fill="#001640"/>
<path d="M177.544 70.3573C177.544 70.2832 177.601 70.2319 177.675 70.2319C177.738 70.2319 177.795 70.2832 177.795 70.3573V70.9219C177.795 70.9219 177.818 70.882 177.829 70.8592C178.023 70.5569 178.359 70.2319 178.85 70.2319C178.918 70.2319 178.975 70.2832 178.975 70.3573C178.975 70.4258 178.918 70.4828 178.85 70.4828C178.519 70.4828 178.285 70.671 178.108 70.8991C177.937 71.1272 177.835 71.3896 177.8 71.4922C177.789 71.515 177.789 71.5207 177.789 71.5321V72.6556C177.789 72.7298 177.732 72.7811 177.669 72.7811C177.595 72.7811 177.538 72.7298 177.538 72.6556V70.3573H177.544Z" fill="#001640"/>
<path d="M92.5754 58.94C92.5754 58.94 92.5355 58.9115 92.507 58.8887C92.507 58.8773 92.4956 58.8773 92.4956 58.8602C92.4728 58.8374 92.4557 58.8203 92.4443 58.7975C92.4443 58.7975 92.4329 58.7975 92.4329 58.7861C92.4214 58.7632 92.4043 58.7233 92.3815 58.7062L89.9179 52.8265C89.7981 52.5527 89.9293 52.2219 90.2201 52.1136C90.4939 51.9938 90.8132 52.125 90.933 52.4044L92.8948 57.0638L94.8566 52.4044C94.9764 52.125 95.3071 51.9938 95.5809 52.1136C95.8603 52.2219 95.9915 52.5584 95.8831 52.8265L93.3967 58.7062C93.3967 58.7062 93.3738 58.7689 93.3567 58.7861C93.3567 58.7861 93.3529 58.7899 93.3453 58.7975C93.3453 58.7975 93.3054 58.8374 93.294 58.8602C93.294 58.8602 93.2864 58.8697 93.2712 58.8887C93.2712 58.8887 93.2313 58.9172 93.2085 58.94L93.1856 58.9514C93.1856 58.9514 93.1343 58.9914 93.1058 59.0028C93.1058 59.0028 93.0982 59.0066 93.083 59.0142C93.0545 59.0142 93.0317 59.0256 93.0031 59.037H92.9803C92.9404 59.0484 92.9119 59.0484 92.8777 59.0484C92.8435 59.0484 92.8092 59.0484 92.775 59.037H92.7522C92.7522 59.037 92.6895 59.0142 92.6724 59.0142C92.6724 59.0028 92.661 59.0028 92.661 59.0028H92.6496C92.6496 59.0028 92.5868 58.9628 92.5583 58.94H92.5469H92.5754Z" fill="#001640"/>
<path d="M96.6645 56.522C96.6759 55.1533 97.7424 54.007 99.1225 54.007C100.503 54.007 101.466 54.9822 101.546 56.3452V56.3965C101.546 56.3965 101.546 56.4649 101.535 56.4877C101.506 56.7273 101.295 56.8927 101.01 56.8927H97.8108C97.8621 57.1265 97.9705 57.3888 98.153 57.5542C98.364 57.7937 98.7689 57.9762 99.1168 58.0047C99.4818 58.0332 99.9095 57.942 100.166 57.7538C100.377 57.5314 100.788 57.5599 100.919 57.7253C101.05 57.8679 101.153 58.1701 100.919 58.3811C100.423 58.8317 99.8297 59.0427 99.1168 59.0427C97.7367 59.0313 96.6702 57.8964 96.6588 56.5277L96.6645 56.522ZM97.7595 56.0258H100.611C100.508 55.6209 99.995 55.0278 99.1225 54.9594C98.2671 54.9993 97.845 55.6152 97.7652 56.0258H97.7595Z" fill="#001640"/>
<path d="M106.04 54.5374C106.04 54.8168 105.806 55.0734 105.504 55.0734C105.27 55.0734 105.071 55.1362 104.9 55.2673C104.706 55.3871 104.557 55.5582 104.438 55.7521C104.198 56.0715 104.073 56.4593 104.027 56.5961V58.5066C104.027 58.7975 103.776 59.0427 103.474 59.0427C103.172 59.0427 102.938 58.8032 102.938 58.5066V54.5431C102.938 54.2522 103.177 54.0184 103.474 54.0184C103.77 54.0184 104.027 54.2522 104.027 54.5431V54.6115C104.09 54.5431 104.17 54.4575 104.238 54.4119C104.569 54.1895 105.002 54.007 105.504 54.0184C105.806 54.0184 106.04 54.2522 106.04 54.5431V54.5374Z" fill="#001640"/>
<path d="M108.458 52.7466C108.458 53.0489 108.224 53.2998 107.916 53.2998C107.608 53.2998 107.375 53.0489 107.375 52.7466V52.5356C107.375 52.2334 107.614 51.9938 107.916 51.9938C108.219 51.9938 108.458 52.2334 108.458 52.5356V52.7466ZM108.458 54.5659V58.4895C108.458 58.7918 108.224 59.0313 107.916 59.0313C107.608 59.0313 107.375 58.7918 107.375 58.4895V54.5659C107.375 54.2465 107.614 54.0127 107.916 54.0127C108.219 54.0127 108.458 54.2465 108.458 54.5659Z" fill="#001640"/>
<path d="M111.84 53.6705V53.8131H112.142C112.445 53.8131 112.695 54.0526 112.695 54.3663C112.695 54.6799 112.445 54.9194 112.142 54.9194H111.84V58.4724C111.84 58.7746 111.601 59.0256 111.287 59.0256C110.973 59.0256 110.734 58.7746 110.734 58.4724V54.9194H110.471C110.158 54.9194 109.907 54.6685 109.907 54.3663C109.907 54.064 110.158 53.8131 110.471 53.8131H110.734V53.6705C110.734 53.2998 110.774 52.9747 110.928 52.6839C111.07 52.3816 111.35 52.1478 111.652 52.0623C111.851 51.9995 112.045 51.9824 112.256 51.9824C112.559 51.9824 112.81 52.2334 112.81 52.5356C112.81 52.8379 112.559 53.1002 112.256 53.1002C112.125 53.1002 112.034 53.1116 111.994 53.1287C111.954 53.1401 111.943 53.1515 111.931 53.1572C111.92 53.1572 111.84 53.2998 111.84 53.6705Z" fill="#001640"/>
<path d="M114.937 52.7466C114.937 53.0489 114.703 53.2998 114.395 53.2998C114.087 53.2998 113.853 53.0489 113.853 52.7466V52.5356C113.853 52.2334 114.093 51.9938 114.395 51.9938C114.697 51.9938 114.937 52.2334 114.937 52.5356V52.7466ZM114.937 54.5659V58.4895C114.937 58.7918 114.703 59.0313 114.395 59.0313C114.087 59.0313 113.853 58.7918 113.853 58.4895V54.5659C113.853 54.2465 114.093 54.0127 114.395 54.0127C114.697 54.0127 114.937 54.2465 114.937 54.5659Z" fill="#001640"/>
<path d="M116.317 56.5334C116.317 55.1361 117.486 54.0184 118.872 54.007C119.476 54.007 120.041 54.2294 120.474 54.5601C120.708 54.7426 120.748 55.0848 120.583 55.3072C120.383 55.5468 120.058 55.5867 119.83 55.4099C119.568 55.216 119.248 55.0905 118.872 55.0905C118.056 55.0905 117.383 55.7635 117.383 56.5391C117.383 57.3147 118.056 57.9762 118.872 57.9762C119.231 57.9762 119.568 57.845 119.83 57.6569C120.052 57.4858 120.383 57.5257 120.583 57.7652C120.742 57.9876 120.702 58.307 120.474 58.5123C120.041 58.826 119.476 59.0484 118.872 59.0484C117.48 59.0484 116.317 57.9192 116.317 56.5391V56.5334Z" fill="#001640"/>
<path d="M126.679 56.5334V58.5066C126.679 58.7974 126.44 59.0427 126.143 59.0427C125.881 59.0427 125.681 58.8488 125.618 58.6092C125.236 58.883 124.78 59.0427 124.278 59.0427C123.594 59.0427 123.001 58.7632 122.567 58.307C122.134 57.845 121.883 57.2177 121.883 56.5334C121.883 55.849 122.134 55.216 122.567 54.7597C123.001 54.2978 123.594 54.007 124.278 54.007C124.78 54.007 125.236 54.1781 125.618 54.4518C125.681 54.2009 125.881 54.007 126.143 54.007C126.434 54.007 126.679 54.2465 126.679 54.5487V56.5334ZM125.613 56.5334C125.613 56.1113 125.464 55.7464 125.219 55.4954C124.98 55.2217 124.637 55.0848 124.284 55.0848C123.93 55.0848 123.577 55.2274 123.349 55.4954C123.109 55.7464 122.967 56.1113 122.967 56.5334C122.967 56.9554 123.109 57.309 123.349 57.5713C123.582 57.8222 123.925 57.9648 124.284 57.9648C124.643 57.9648 124.98 57.8222 125.219 57.5713C125.459 57.309 125.613 56.9497 125.613 56.5334Z" fill="#001640"/>
<path d="M130.916 54.5602C130.916 54.8624 130.654 55.1134 130.352 55.1134H130.101V57.9249C130.415 57.9249 130.654 58.1758 130.654 58.4895C130.654 58.8032 130.415 59.0427 130.101 59.0427C129.485 59.0427 128.983 58.5408 128.983 57.9249V55.1134H128.692C128.379 55.1134 128.139 54.8624 128.139 54.5602C128.139 54.2579 128.379 54.007 128.692 54.007H128.983V52.547C128.983 52.2334 129.234 51.9938 129.548 51.9938C129.861 51.9938 130.101 52.2334 130.101 52.547V54.007H130.352C130.654 54.007 130.916 54.2465 130.916 54.5602Z" fill="#001640"/>
<path d="M133.779 52.7466C133.779 53.0489 133.546 53.2998 133.238 53.2998C132.93 53.2998 132.696 53.0489 132.696 52.7466V52.5356C132.696 52.2334 132.935 51.9938 133.238 51.9938C133.54 51.9938 133.779 52.2334 133.779 52.5356V52.7466ZM133.779 54.5659V58.4895C133.779 58.7918 133.546 59.0313 133.238 59.0313C132.93 59.0313 132.696 58.7918 132.696 58.4895V54.5659C132.696 54.2465 132.935 54.0127 133.238 54.0127C133.54 54.0127 133.779 54.2465 133.779 54.5659Z" fill="#001640"/>
<path d="M135.975 58.3013C135.542 57.8565 135.279 57.2349 135.279 56.5277C135.279 55.8205 135.542 55.2502 135.975 54.7655C136.425 54.2921 137.013 54.0013 137.709 54.0013C138.404 54.0013 138.975 54.2921 139.391 54.7655C139.847 55.2502 140.098 55.8433 140.098 56.5277C140.098 57.212 139.847 57.8565 139.391 58.3013C138.98 58.7747 138.376 59.0655 137.709 59.0655C137.041 59.0655 136.431 58.7747 135.975 58.3013ZM136.38 56.5277C136.38 56.9611 136.511 57.3147 136.745 57.5941C136.996 57.8337 137.327 57.9648 137.714 57.9648C138.068 57.9648 138.387 57.8337 138.638 57.5941C138.889 57.3147 139.032 56.9611 139.032 56.5277C139.032 56.0943 138.889 55.7521 138.638 55.4783C138.387 55.2559 138.062 55.0962 137.714 55.0962C137.332 55.0962 137.001 55.2559 136.745 55.4783C136.511 55.7521 136.38 56.1114 136.38 56.5277Z" fill="#001640"/>
<path d="M146.001 56.0999V58.5066C146.001 58.7974 145.767 59.0427 145.476 59.0427C145.185 59.0427 144.94 58.8031 144.94 58.5066V56.0999C144.94 55.5354 144.467 55.0848 143.891 55.0848C143.315 55.0848 142.881 55.5354 142.881 56.0999V58.5066C142.881 58.5351 142.881 58.5693 142.858 58.6092C142.807 58.8488 142.585 59.0427 142.322 59.0427C142.02 59.0427 141.786 58.8031 141.786 58.5066V54.543C141.786 54.2522 142.02 54.007 142.322 54.007C142.533 54.007 142.727 54.1267 142.813 54.3206C143.115 54.1267 143.486 54.007 143.879 54.007C145.048 54.007 145.984 54.9651 145.984 56.0999H146.001Z" fill="#001640"/>
<path d="M248.865 22.3328C248.865 22.3328 245.118 52.3303 238.959 59.0826C231.568 67.1808 226.201 65.9946 223.219 70.1692C223.213 70.1692 223.213 70.1749 223.213 70.1749C220.23 65.9946 214.864 67.1865 207.467 59.0769C201.308 52.3246 197.567 22.3271 197.567 22.3271C213.792 14.4513 223.213 5.62311 223.213 5.62311H223.219C223.51 5.90255 232.891 14.5767 248.865 22.3271V22.3328Z" fill="#3F80FF"/>
<path opacity="0.1" d="M223.219 5.63451V70.1692L223.213 70.1749C220.23 65.9946 214.864 67.1865 207.467 59.0769C201.308 52.3246 197.567 22.3271 197.567 22.3271C213.792 14.4513 223.213 5.62311 223.213 5.62311H223.219V5.63451Z" fill="black"/>
<path d="M201.548 24.7508C201.548 24.7508 204.713 50.0947 209.914 55.7977C216.164 62.647 220.698 61.6432 223.219 65.1677C225.74 61.6375 230.273 62.647 236.524 55.7977C241.725 50.0947 244.884 24.7508 244.884 24.7508C231.174 18.0955 223.219 10.636 223.219 10.636C223.219 10.636 215.252 18.0955 201.548 24.7508Z" fill="#3F80FF"/>
<path opacity="0.2" d="M244.879 24.7508C244.879 24.7508 241.714 50.089 236.512 55.7977C230.268 62.6412 225.74 61.6432 223.213 65.1619V10.6417C223.458 10.8698 231.385 18.1924 244.879 24.7508Z" fill="white"/>
<path d="M223.219 47.9504C228.768 47.9504 233.267 43.4515 233.267 37.9018C233.267 32.3521 228.768 27.8532 223.219 27.8532C217.669 27.8532 213.17 32.3521 213.17 37.9018C213.17 43.4515 217.669 47.9504 223.219 47.9504Z" fill="#455A64"/>
<path d="M222.073 44.4317L217.596 39.7781L219.255 38.1813L221.725 40.7476L227.04 32.5867L228.973 33.8413L222.073 44.4317Z" fill="white"/>
<path d="M244.879 65.7665L243.459 66.0288L243.139 67.5287L242.826 66.0288L241.406 65.7665L242.82 65.4186L243.139 64.0043L243.464 65.4186L244.879 65.7665Z" fill="#3F80FF"/>
<path d="M202.785 54.3777L201.365 54.64L201.046 56.1342L200.732 54.64L199.312 54.372L200.726 54.0298L201.046 52.6155L201.371 54.0298L202.785 54.3777Z" fill="#3F80FF"/>
<path d="M209.275 14.8847L207.849 15.147L207.536 16.6469L207.216 15.147L205.796 14.8847L207.211 14.5368L207.536 13.1225L207.855 14.5368L209.275 14.8847Z" fill="#3F80FF"/>
<path d="M242.335 59.0313L241.542 59.1739L241.366 60.0122L241.189 59.1739L240.396 59.0256L241.183 58.8374L241.366 58.0447L241.548 58.8374L242.335 59.0313Z" fill="#3F80FF"/>
<path d="M247.833 42.3616L247.034 42.5099L246.857 43.3482L246.681 42.5099L245.888 42.3616L246.675 42.1677L246.857 41.375L247.04 42.1677L247.833 42.3616Z" fill="#3F80FF"/>
<path d="M241.086 13.1225L240.293 13.2708L240.117 14.1091L239.94 13.2708L239.147 13.1225L239.934 12.9286L240.117 12.1416L240.299 12.9286L241.086 13.1225Z" fill="#3F80FF"/>
<path d="M220.801 73.7735L220.008 73.9217L219.831 74.7601L219.654 73.9217L218.856 73.7735L219.649 73.5796L219.831 72.7925L220.008 73.5796L220.801 73.7735Z" fill="#3F80FF"/>
<path d="M198.371 56.3224L197.578 56.4707L197.401 57.309L197.225 56.4707L196.426 56.3224L197.219 56.1342L197.401 55.3415L197.578 56.1342L198.371 56.3224Z" fill="#3F80FF"/>
<path d="M199.609 33.1171L198.816 33.2597L198.633 34.098L198.457 33.2597L197.664 33.1171L198.457 32.9232L198.633 32.1305L198.816 32.9232L199.609 33.1171Z" fill="#3F80FF"/>
<path d="M232.925 62.7839C232.629 62.7839 232.629 63.2458 232.925 63.2458C233.222 63.2458 233.222 62.7839 232.925 62.7839Z" fill="#3F80FF"/>
<path d="M196.312 21.0554C196.016 21.0554 196.016 21.5173 196.312 21.5173C196.609 21.5173 196.609 21.0554 196.312 21.0554Z" fill="#3F80FF"/>
<path d="M240.117 64.0842C239.82 64.0842 239.82 64.5461 240.117 64.5461C240.413 64.5461 240.413 64.0842 240.117 64.0842Z" fill="#3F80FF"/>
<path d="M216.797 28.1213C216.501 28.1213 216.501 28.5832 216.797 28.5832C217.094 28.5832 217.094 28.1213 216.797 28.1213Z" fill="#3F80FF"/>
<path d="M195.48 37.3943C195.183 37.3943 195.183 37.8562 195.48 37.8562C195.776 37.8562 195.776 37.3943 195.48 37.3943Z" fill="#3F80FF"/>
<path d="M190.113 34.885C189.902 34.885 189.902 35.2101 190.113 35.2101C190.324 35.2101 190.324 34.885 190.113 34.885Z" fill="#3F80FF"/>
<path d="M234.049 10.1171C233.838 10.1171 233.838 10.4421 234.049 10.4421C234.26 10.4421 234.26 10.1171 234.049 10.1171Z" fill="#3F80FF"/>
<path d="M211.311 65.8749C211.1 65.8749 211.1 66.1999 211.311 66.1999C211.522 66.1999 211.522 65.8749 211.311 65.8749Z" fill="#3F80FF"/>
<path d="M206.224 62.8865C205.654 62.8865 205.654 63.7705 206.224 63.7705C206.794 63.7705 206.794 62.8865 206.224 62.8865Z" fill="#3F80FF"/>
<path d="M96.5846 101.461V111.059H99.111V115.428L103.485 111.059H133.18V101.461H96.5846Z" fill="white"/>
<path d="M96.5847 101.461C96.6075 104.695 96.7045 107.894 96.7045 111.054L96.5847 110.934H99.1168L99.2423 110.928V111.054L99.2537 115.428L99.0142 115.331L103.371 110.945C103.423 110.894 103.411 110.9 103.48 110.9C110.876 110.877 125.778 110.854 133.175 110.848L132.97 111.054L132.998 101.461L133.175 101.638C124.05 101.621 105.698 101.524 96.579 101.461H96.5847ZM96.5847 101.461L114.834 101.347L133.181 101.284H133.357V101.461L133.386 111.054V111.259H133.181L118.336 111.242C118.416 111.191 103.052 111.299 103.599 111.162L99.2137 115.519L98.9742 115.753V115.416L98.9856 111.042L99.1111 111.168H96.579L96.4592 111.162V111.042C96.4592 107.809 96.5562 104.609 96.579 101.45L96.5847 101.461Z" fill="#001640"/>
<path d="M102.983 104.934V106.223H102.618V104.934C102.618 104.444 102.248 104.045 101.791 104.045C101.335 104.045 100.964 104.444 100.964 104.934V106.223H100.599V104.934C100.599 104.233 101.136 103.663 101.791 103.663C102.447 103.663 102.983 104.233 102.983 104.934Z" fill="#001640"/>
<path d="M100.599 105.271L100.964 105.282V106.223H100.599V105.271Z" fill="#001640"/>
<path d="M102.983 105.368V106.223H102.618V105.351L102.983 105.368Z" fill="#001640"/>
<path d="M103.445 105.744H100.132V108.499H103.445V105.744Z" fill="#001640"/>
<path d="M108.738 105.123C108.259 106.012 107.569 106.708 106.679 107.181C107.152 106.292 107.848 105.602 108.738 105.123Z" fill="#001640"/>
<path d="M106.679 105.123C107.569 105.602 108.264 106.292 108.738 107.181C107.848 106.708 107.158 106.012 106.679 105.123Z" fill="#001640"/>
<path d="M109.165 106.155C108.196 106.446 107.221 106.451 106.251 106.155C107.221 105.858 108.196 105.864 109.165 106.155Z" fill="#001640"/>
<path d="M107.706 104.695C107.996 105.664 108.002 106.64 107.706 107.609C107.409 106.64 107.415 105.664 107.706 104.695Z" fill="#001640"/>
<path d="M113.762 105.123C113.283 106.012 112.593 106.708 111.703 107.181C112.177 106.292 112.872 105.602 113.762 105.123Z" fill="#001640"/>
<path d="M111.703 105.123C112.593 105.602 113.289 106.292 113.762 107.181C112.872 106.708 112.182 106.012 111.703 105.123Z" fill="#001640"/>
<path d="M114.19 106.155C113.22 106.446 112.245 106.451 111.276 106.155C112.245 105.858 113.22 105.864 114.19 106.155Z" fill="#001640"/>
<path d="M112.73 104.695C113.021 105.664 113.026 106.64 112.73 107.609C112.433 106.64 112.439 105.664 112.73 104.695Z" fill="#001640"/>
<path d="M118.786 105.123C118.307 106.012 117.617 106.708 116.728 107.181C117.201 106.292 117.897 105.602 118.786 105.123Z" fill="#001640"/>
<path d="M116.728 105.123C117.617 105.602 118.313 106.292 118.786 107.181C117.897 106.708 117.207 106.012 116.728 105.123Z" fill="#001640"/>
<path d="M119.208 106.155C118.239 106.446 117.264 106.451 116.294 106.155C117.264 105.858 118.239 105.864 119.208 106.155Z" fill="#001640"/>
<path d="M117.754 104.695C118.045 105.664 118.051 106.64 117.754 107.609C117.457 106.64 117.463 105.664 117.754 104.695Z" fill="#001640"/>
<path d="M123.805 105.123C123.326 106.012 122.636 106.708 121.746 107.181C122.22 106.292 122.915 105.602 123.805 105.123Z" fill="#001640"/>
<path d="M121.746 105.123C122.636 105.602 123.332 106.292 123.805 107.181C122.915 106.708 122.225 106.012 121.746 105.123Z" fill="#001640"/>
<path d="M124.233 106.155C123.263 106.446 122.288 106.451 121.318 106.155C122.288 105.858 123.263 105.864 124.233 106.155Z" fill="#001640"/>
<path d="M122.778 104.695C123.069 105.664 123.075 106.64 122.778 107.609C122.482 106.64 122.488 105.664 122.778 104.695Z" fill="#001640"/>
<path d="M128.829 105.123C128.35 106.012 127.66 106.708 126.771 107.181C127.244 106.292 127.94 105.602 128.829 105.123Z" fill="#001640"/>
<path d="M126.771 105.123C127.66 105.602 128.356 106.292 128.829 107.181C127.94 106.708 127.25 106.012 126.771 105.123Z" fill="#001640"/>
<path d="M129.257 106.155C128.287 106.446 127.312 106.451 126.343 106.155C127.312 105.858 128.287 105.864 129.257 106.155Z" fill="#001640"/>
<path d="M127.803 104.695C128.094 105.664 128.099 106.64 127.803 107.609C127.506 106.64 127.512 105.664 127.803 104.695Z" fill="#001640"/>
<path d="M56.4928 217.323L23.564 243.876H25.4174L63.4504 217.323H56.4928Z" fill="#C7C7C7"/>
<path d="M59.5895 217.323L43.3132 243.876H45.1724L65.1156 217.323H59.5895Z" fill="#C7C7C7"/>
<path d="M67.568 217.323L83.8385 243.876H81.9851L62.0361 217.323H67.568Z" fill="#C7C7C7"/>
<path d="M70.408 217.323L103.337 243.876H101.483L63.4504 217.323H70.408Z" fill="#C7C7C7"/>
<path d="M125.367 207.582V199.814L80.1487 197.955L56.259 134.185H1.53345L20.895 207.582L67.163 220.568H70.0602L125.367 207.582Z" fill="#455A64"/>
<path opacity="0.1" d="M1.53345 134.185H7.79529L27.9666 201.086L68.9025 212.68L125.367 199.814V207.582L70.0602 220.568H67.163L20.895 207.582L1.53345 134.185Z" fill="black"/>
<path d="M100.748 255.949C99.3675 255.424 68.3263 229.989 67.756 228.272C67.5336 227.622 70.9782 222.883 75.2954 217.277C76.2306 216.068 77.2001 214.825 78.1925 213.564C84.6254 205.386 91.6457 196.86 91.6457 196.86L112.462 213.815L98.4322 230.052L95.3584 233.616C95.3584 233.616 102.886 248.672 103.314 250.622C103.73 252.567 102.133 256.473 100.753 255.949H100.748Z" fill="#AD6359"/>
<path d="M100.748 255.949C99.3676 255.424 68.3264 229.989 67.7561 228.272C67.4938 227.48 72.6264 220.653 78.1925 213.564L98.4323 230.052L95.3584 233.616C95.3584 233.616 102.886 248.672 103.314 250.622C103.73 252.567 102.134 256.473 100.753 255.949H100.748Z" fill="#EBEBEB"/>
<path d="M100.748 255.949C99.3675 255.424 68.3263 229.989 67.756 228.272C67.5336 227.622 70.9782 222.883 75.2954 217.277L95.3584 233.616C95.3584 233.616 102.886 248.672 103.314 250.622C103.73 252.567 102.133 256.473 100.753 255.949H100.748Z" fill="#3F80FF"/>
<path d="M101.324 254.34C96.2252 249.949 75.244 232.721 69.8719 228.768C69.8262 228.734 69.8034 228.768 69.8433 228.803C74.7992 233.262 95.9229 250.326 101.255 254.432C101.369 254.517 101.432 254.437 101.324 254.346V254.34Z" fill="#001640"/>
<path d="M102.23 247.873C101.038 246.813 99.3504 246.408 98.0787 246.596C96.8525 246.773 95.4895 247.314 94.6398 248.421C94.617 248.455 94.674 248.501 94.7025 248.472C96.67 246.681 99.9835 246.408 102.179 247.942C102.225 247.97 102.276 247.913 102.23 247.879V247.873Z" fill="#001640"/>
<path d="M96.9495 235.789C94.8908 234.055 91.8739 232.812 89.1821 233.45C89.0795 233.473 89.1137 233.622 89.2049 233.644C91.8853 234.215 94.2634 234.962 96.7785 236.074C96.9552 236.154 97.0978 235.914 96.9552 235.789H96.9495Z" fill="#001640"/>
<path d="M98.0445 237.733C95.9857 236 92.9689 234.756 90.2771 235.395C90.1744 235.418 90.2086 235.566 90.2999 235.589C92.9803 236.159 95.3584 236.906 97.8734 238.019C98.0502 238.098 98.1928 237.859 98.0502 237.733H98.0445Z" fill="#001640"/>
<path d="M99.1394 239.678C97.0806 237.944 94.0637 236.701 91.3719 237.34C91.2693 237.363 91.3035 237.511 91.3947 237.534C94.0751 238.104 96.4533 238.851 98.9683 239.963C99.1451 240.043 99.2876 239.804 99.1451 239.678H99.1394Z" fill="#001640"/>
<path d="M100.234 241.623C98.1757 239.889 95.1588 238.646 92.467 239.285C92.3644 239.307 92.3986 239.456 92.4898 239.479C95.1702 240.049 97.5484 240.796 100.063 241.908C100.24 241.988 100.383 241.748 100.24 241.623H100.234Z" fill="#001640"/>
<path d="M75.2441 224.913C72.9001 223.008 69.9346 226.641 72.2785 228.552C74.6224 230.462 77.588 226.824 75.2441 224.913Z" fill="white"/>
<path d="M103.753 232.076C103.417 230.337 101.386 230.103 99.9948 230.479C97.7365 231.089 95.3241 232.555 93.7387 234.255C93.6988 234.295 93.7216 234.34 93.7558 234.369C93.6759 234.557 93.7558 234.825 93.9953 234.842C96.3164 235.03 98.7801 235.521 101.09 234.99C102.441 234.682 104.078 233.719 103.759 232.076H103.753ZM97.5711 234.409C96.4248 234.346 95.2899 234.22 94.1436 234.198C95.364 233.462 96.5502 232.681 97.8448 232.07C98.4607 231.779 99.1052 231.494 99.7553 231.289C100.77 230.97 104.244 230.907 102.595 233.342C101.689 234.682 98.9341 234.483 97.5711 234.403V234.409Z" fill="#001640"/>
<path d="M87.9331 230.787C89.5185 232.549 91.8111 233.57 93.8186 234.751C94.0296 234.876 94.2406 234.694 94.2862 234.5C94.3318 234.5 94.3718 234.471 94.366 234.414C94.0467 232.11 92.9232 229.521 91.429 227.725C90.5051 226.613 88.7144 225.637 87.437 226.864C86.2279 228.021 87.0149 229.755 87.9388 230.782L87.9331 230.787ZM87.648 228.574C87.705 225.632 90.4994 227.685 91.1496 228.529C91.5659 229.071 91.9252 229.675 92.2617 230.268C92.9688 231.511 93.4878 232.835 94.0638 234.135C93.1114 233.49 92.1134 232.937 91.1439 232.333C89.9862 231.608 87.6195 230.194 87.648 228.569V228.574Z" fill="#001640"/>
<path d="M134.081 181.97C132.507 192.874 105.213 224.063 102.059 227.645C101.592 228.17 101.341 228.46 101.341 228.46L79.2875 211.084L79.5498 210.758L99.4645 185.329L41.0035 184.274L63.4105 167.285C63.4105 167.285 65.2012 168.346 68.948 167.844C81.8766 166.11 111.019 162.283 117.874 162.643C126.719 163.116 135.524 171.967 134.081 181.97Z" fill="#001640"/>
<path d="M106.622 175.868C105.852 176.626 105.236 177.584 104.569 178.434C103.867 179.335 103.149 180.225 102.447 181.126C102.441 181.137 102.436 181.143 102.424 181.154C102.55 180.892 102.675 180.624 102.806 180.362C103.251 179.461 103.616 178.531 104.141 177.676C104.175 177.624 104.095 177.573 104.061 177.624C103.519 178.474 102.892 179.284 102.43 180.185C102.213 180.607 102.002 181.035 101.808 181.468C101.7 181.708 101.592 181.947 101.501 182.187C101.455 182.295 101.404 182.415 101.369 182.534C101.056 182.951 100.742 183.373 100.44 183.801C99.7668 184.747 99.1737 185.751 98.495 186.692C98.4608 186.743 98.5407 186.789 98.5749 186.743C99.2592 185.859 100.029 185.038 100.731 184.16C101.443 183.27 102.116 182.352 102.784 181.422C103.434 180.521 104.073 179.609 104.723 178.702C105.379 177.79 106.148 176.894 106.684 175.908C106.702 175.873 106.662 175.834 106.627 175.862L106.622 175.868Z" fill="#37474F"/>
<path d="M104.386 223.333C103.131 222.238 101.786 221.229 100.462 220.214C99.1337 219.193 97.8049 218.178 96.4647 217.174C93.79 215.161 91.1211 213.131 88.4179 211.158C86.9351 210.074 85.4352 209.002 83.8954 207.998C83.827 207.953 83.7528 208.061 83.8156 208.118C86.3591 210.291 89.0623 212.27 91.7313 214.277C94.4117 216.29 97.0977 218.292 99.8067 220.265C101.289 221.343 102.766 222.455 104.312 223.442C104.375 223.482 104.437 223.385 104.386 223.339V223.333Z" fill="#37474F"/>
<path d="M56.9262 138.479C62.9885 150.028 70.1856 162.283 77.0064 164.057C83.4963 165.745 98.9342 149.577 101.552 144.211C102.453 142.363 90.2315 134.253 88.5035 135.616C85.2414 138.183 78.107 146.321 77.0862 146.115C76.0311 145.899 67.4083 138.194 59.5952 131.71C54.8618 127.78 52.7232 130.472 56.9205 138.473L56.9262 138.479Z" fill="#AD6359"/>
<path d="M90.7048 116.859L86.0341 133.21C85.8459 133.689 86.074 134.088 86.5473 134.105L95.0505 134.373C95.5238 134.39 96.0656 134.014 96.2595 133.535L100.93 117.184C101.124 116.705 100.89 116.306 100.417 116.289L91.9138 116.021C91.4405 116.004 90.8987 116.38 90.7048 116.859Z" fill="#A6A6A6"/>
<path d="M91.7142 116.882L87.0435 133.232C86.8496 133.712 87.0834 134.111 87.5568 134.128L96.0599 134.396C96.5332 134.413 97.075 134.037 97.2689 133.558L101.94 117.207C102.134 116.728 101.9 116.329 101.426 116.312L92.9233 116.044C92.4499 116.027 91.9081 116.403 91.7142 116.882Z" fill="#DBDBDB"/>
<path d="M94.0239 117.709C94.0011 118.108 93.6646 118.416 93.2654 118.393C92.8662 118.371 92.5582 118.034 92.581 117.635C92.6038 117.236 92.9403 116.928 93.3395 116.951C93.7387 116.973 94.0467 117.31 94.0239 117.709Z" fill="#455A64"/>
<path d="M105.487 134.96C106.205 130.21 105.658 128.875 108.395 125.186C110.192 122.762 109.416 120.578 106.593 121.941C101.974 124.165 99.7611 130.102 99.5844 132.383L105.487 134.96Z" fill="#AD6359"/>
<path d="M99.3562 147.416C99.3562 147.416 103.793 142.237 105.059 137.247C105.932 133.797 107.004 126.081 99.4588 118.593C97.6681 116.819 93.8642 115.559 95.7291 119.517C97.0579 122.328 98.746 123.714 99.225 125.488C99.225 125.488 94.1893 124.461 92.4841 126.321C91.7199 127.153 89.6897 129.474 88.3666 131.505C88.3666 131.505 88.7316 131.909 89.2677 132.36C89.2677 132.36 87.8362 134.248 88.1385 137.84L99.3619 147.41L99.3562 147.416Z" fill="#AD6359"/>
<path d="M105.361 133.82C104.517 132.155 102.67 128.659 100.166 126.326C97.383 123.731 91.3207 119.488 89.4274 121.558C88.0415 123.081 90.2087 124.906 90.2087 124.906C90.2087 124.906 87.3344 123.68 86.382 125.328C85.5151 126.828 87.2773 128.14 87.2773 128.14C87.2773 128.14 85.4068 127.695 84.8479 129.303C84.1749 131.236 88.2069 131.852 89.222 134.396C89.4502 134.966 105.361 133.82 105.361 133.82Z" fill="#AD6359"/>
<path d="M97.9191 129.725C96.8697 128.288 93.6476 125.642 90.2885 124.883C90.2144 124.866 90.1573 124.912 90.2258 124.946C93.7445 126.571 96.6986 128.75 97.8963 129.754C97.9134 129.765 97.9305 129.742 97.9191 129.725Z" fill="#001640"/>
<path d="M95.2159 132.457C94.1836 131.311 90.739 128.733 87.3116 128.077C87.2374 128.06 87.1861 128.117 87.2545 128.14C91.0014 129.685 93.9441 131.55 95.1987 132.48C95.2159 132.491 95.233 132.468 95.2216 132.451L95.2159 132.457Z" fill="#001640"/>
<path d="M84.289 137.726L97.018 151.225C97.018 151.225 83.5705 166.298 77.2573 164.724C70.9441 163.15 59.0078 146.058 55.1811 135.211C52.535 127.706 56.7095 128.91 61.0951 132.588C65.4807 136.266 76.9493 145.403 77.4512 145.266C77.953 145.129 84.2833 137.726 84.2833 137.726H84.289Z" fill="#3F80FF"/>
<path opacity="0.1" d="M79.9786 164.582C78.9863 164.85 78.0681 164.924 77.264 164.725C70.9508 163.151 59.0145 146.059 55.1878 135.212C53.4427 130.262 54.6632 129.104 56.9557 129.943C63.8335 140.145 72.9868 153.821 79.9786 164.582Z" fill="black"/>
<path d="M92.8948 153.467C91.0528 151.607 83.7815 143.714 82.3272 141.901C82.2246 141.775 82.2816 141.679 82.4014 141.798C88.0587 147.245 91.2467 151.476 92.9632 153.392C93.0089 153.438 92.9404 153.518 92.8948 153.467Z" fill="#001640"/>
<path d="M71.081 175.029C71.081 175.029 29.284 182.671 29.073 182.42C28.8791 182.198 33.6696 136.985 47.8585 129.343C50.1055 128.134 55.5347 127.415 57.8558 129.782C64.4656 136.523 71.6342 174.419 71.0867 175.035L71.081 175.029Z" fill="#3F80FF"/>
<path d="M70.6476 171.277L29.4836 178.337C29.6376 177.094 29.8486 175.611 30.1053 173.94L69.8891 167.114C70.1913 168.693 70.448 170.096 70.6476 171.271V171.277Z" fill="#EBEBEB"/>
<path d="M69.4442 164.912L30.4702 171.602C30.59 170.861 30.7211 170.102 30.8637 169.315L68.9937 162.774C69.1534 163.504 69.3016 164.222 69.4385 164.918L69.4442 164.912Z" fill="#EBEBEB"/>
<path d="M56.0081 136.66C53.6756 136.649 50.7044 132.36 49.866 129.269C49.809 129.058 50.5732 127.153 51.3944 124.792C51.8849 123.361 52.3981 121.752 52.7631 120.247L61.6255 124.809C61.6255 124.809 59.9375 127.735 59.3215 130.352C59.2702 130.575 59.2474 130.78 59.236 130.985C59.236 131.014 59.236 131.048 59.2246 131.088C59.1333 132.303 58.2608 136.666 56.0024 136.66H56.0081Z" fill="#AD6359"/>
<path d="M61.6255 124.809C61.6255 124.809 59.9374 127.729 59.3215 130.358C59.2759 130.575 59.2417 130.786 59.2359 130.985C59.2359 131.014 59.2359 131.048 59.2245 131.088C58.9223 131.065 58.5972 131.003 58.2436 130.906C52.7973 129.457 52.8886 122.306 53.0197 120.378L61.6255 124.809Z" fill="#001640"/>
<path d="M52.3811 109.913C50.961 113.209 51.6796 123.269 53.8638 125.739C57.0347 129.315 62.7604 130.255 65.937 126.32C69.0166 122.511 67.8532 109.417 65.361 107.119C61.6883 103.737 54.4797 105.037 52.3868 109.913H52.3811Z" fill="#AD6359"/>
<path d="M61.5628 117.15C61.5628 117.15 61.5115 117.184 61.5172 117.213C61.6027 117.88 61.5799 118.661 60.9982 118.941C60.9811 118.947 60.9868 118.981 61.0096 118.975C61.7396 118.804 61.7567 117.766 61.5685 117.144L61.5628 117.15Z" fill="#001640"/>
<path d="M60.8955 116.506C59.8062 116.523 59.9203 118.696 60.9297 118.684C61.922 118.667 61.808 116.494 60.8955 116.506Z" fill="#001640"/>
<path d="M65.5149 116.933C65.5149 116.933 65.5719 116.962 65.5719 116.991C65.5834 117.663 65.7145 118.433 66.3361 118.627C66.3533 118.633 66.3533 118.667 66.3361 118.667C65.5891 118.604 65.4237 117.578 65.5206 116.933H65.5149Z" fill="#001640"/>
<path d="M66.0802 116.203C67.1581 116.067 67.3577 118.234 66.3597 118.359C65.3731 118.485 65.1735 116.318 66.0802 116.203Z" fill="#001640"/>
<path d="M59.983 115.559C60.2739 115.468 60.5305 115.337 60.8099 115.217C61.1236 115.08 61.3916 115.006 61.5855 114.709C61.6882 114.55 61.6312 114.276 61.4829 114.156C61.1407 113.882 60.713 113.951 60.3252 114.099C59.9032 114.259 59.6237 114.487 59.3956 114.875C59.1789 115.251 59.5952 115.679 59.9773 115.559H59.983Z" fill="#001640"/>
<path d="M66.8665 115.063C66.5643 115.029 66.2848 114.949 65.9883 114.886C65.6518 114.812 65.3781 114.789 65.1271 114.532C64.996 114.396 65.0017 114.11 65.1271 113.968C65.4123 113.637 65.8457 113.626 66.2506 113.694C66.6897 113.768 67.0148 113.945 67.3057 114.282C67.5908 114.607 67.2657 115.108 66.8608 115.063H66.8665Z" fill="#001640"/>
<path d="M61.1635 123.144C61.3004 123.321 61.4316 123.56 61.6711 123.617C61.8992 123.669 62.1901 123.606 62.4125 123.555C62.4353 123.555 62.4524 123.577 62.4353 123.594C62.2243 123.828 61.8365 123.937 61.5342 123.834C61.2377 123.737 61.1293 123.458 61.0951 123.167C61.0951 123.127 61.1407 123.121 61.1635 123.144Z" fill="#001640"/>
<path d="M61.9106 121.159C62.3212 121.724 62.8915 122.015 63.496 122.1C63.7641 122.14 64.0492 122.135 64.323 122.095C64.3743 122.095 64.5739 122.049 64.6252 122.038C64.7051 122.02 64.745 121.952 64.7507 121.878C64.7507 121.849 64.6309 120.435 64.6309 120.435C64.8248 120.521 65.8171 120.903 65.7829 120.635C65.532 118.399 65.2525 115.913 64.5283 113.74C64.5055 113.666 64.3971 113.688 64.4085 113.763C64.5682 115.924 65.1043 118.04 65.2925 120.201C64.9788 120.099 64.4655 119.91 64.1918 119.927C64.1519 119.939 64.3857 121.69 64.38 121.701C63.5131 121.861 62.8459 121.633 61.9676 121.091C61.9163 121.057 61.865 121.102 61.9106 121.154V121.159Z" fill="#001640"/>
<path d="M64.1006 121.992C64.1006 121.992 63.6216 122.648 62.96 122.887C62.7148 122.979 62.4525 123.013 62.1787 122.939C61.6141 122.79 61.597 122.271 61.6997 121.827C61.7852 121.462 61.9506 121.148 61.9506 121.148C61.9506 121.148 62.7775 121.918 64.1063 121.998L64.1006 121.992Z" fill="#001640"/>
<path d="M62.96 122.887C62.7148 122.979 62.4525 123.013 62.1787 122.939C61.6141 122.79 61.597 122.271 61.6997 121.827C62.3042 121.889 62.9087 122.294 62.96 122.887Z" fill="#FF9CBD"/>
<path d="M51.4515 118.998C54.0748 119.203 55.4663 116.084 54.8675 113.563C54.8675 113.563 61.8365 114.538 62.2129 108.944C62.2129 108.944 63.8725 111.487 67.0319 111.595L67.4939 113.563C68.2124 113.363 68.988 111.333 67.2486 109.725C67.2486 109.725 67.146 106.93 65.1043 105.242C63.057 103.554 61.0039 104.638 61.0039 104.638C61.0039 104.638 59.3786 103.258 56.8065 103.571C54.2345 103.879 53.1566 106.218 53.1566 106.218C53.1566 106.218 49.6949 106.851 49.0904 109.303C48.4859 111.755 49.7406 113.409 49.7406 113.409C49.7406 113.409 48.868 114.367 49.29 116.466C49.5638 117.817 50.6587 118.947 51.4457 119.004L51.4515 118.998Z" fill="#001640"/>
<path d="M62.0647 108.447C62.1103 108.904 62.1217 109.366 62.0647 109.816C62.0361 110.267 61.9392 110.712 61.8023 111.139C61.5172 111.983 60.9526 112.719 60.1713 113.135C59.4128 113.614 58.4832 113.683 57.5935 113.763C57.143 113.745 56.6868 113.763 56.2305 113.717C55.7743 113.666 55.3238 113.609 54.8618 113.569C55.3066 113.683 55.7572 113.774 56.2077 113.877C56.664 113.951 57.1259 113.968 57.5935 114.014C58.5117 113.985 59.4869 113.911 60.3253 113.42C61.1579 112.947 61.7852 112.126 62.0304 111.213C62.2757 110.301 62.27 109.343 62.0532 108.453L62.0647 108.447Z" fill="#001640"/>
<path d="M65.6347 111.71C64.8591 111.419 64.1406 111.059 63.5303 110.552C63.2167 110.307 62.9544 110.01 62.7205 109.696C62.4753 109.383 62.3213 109.012 62.1445 108.63C62.1902 109.041 62.2928 109.457 62.5152 109.828C62.7205 110.198 63 110.535 63.3307 110.803C63.6615 111.071 64.0322 111.288 64.4257 111.436C64.8192 111.584 65.2298 111.692 65.6461 111.704L65.6347 111.71Z" fill="#001640"/>
<path d="M60.234 120.549C58.9281 120.486 57.7761 119.545 57.5023 118.205C57.183 116.62 58.2095 115.069 59.7892 114.744C61.3746 114.418 62.9258 115.445 63.2509 117.03C63.5703 118.616 62.5437 120.167 60.964 120.492C60.7188 120.543 60.4736 120.561 60.2397 120.549H60.234ZM60.5021 115.08C60.2968 115.069 60.0858 115.08 59.8748 115.126C58.5003 115.405 57.6107 116.751 57.8901 118.12C58.1696 119.494 59.5155 120.384 60.8842 120.104C62.2586 119.825 63.1483 118.479 62.8688 117.11C62.635 115.947 61.637 115.131 60.5021 115.08Z" fill="#3F80FF"/>
<path d="M66.9463 120.059C65.8229 120.002 64.8648 118.804 64.7621 117.281C64.7108 116.511 64.8819 115.77 65.2412 115.194C65.6119 114.595 66.1479 114.247 66.741 114.207C67.3398 114.168 67.9101 114.441 68.3607 114.983C68.7941 115.502 69.0678 116.215 69.1192 116.985C69.2275 118.599 68.3436 119.979 67.1402 120.059C67.0775 120.059 67.0091 120.059 66.9463 120.059ZM66.9121 114.595C66.8608 114.595 66.8152 114.595 66.7638 114.595C66.2962 114.629 65.8742 114.915 65.5662 115.399C65.2469 115.907 65.0986 116.563 65.1442 117.253C65.2412 118.65 66.1194 119.734 67.106 119.665C68.0926 119.597 68.8169 118.405 68.72 117.008C68.6743 116.318 68.4348 115.69 68.0527 115.228C67.7219 114.835 67.3227 114.612 66.9064 114.595H66.9121Z" fill="#3F80FF"/>
<path d="M63.1767 117.384L62.903 117.099C63.3193 116.694 64.3116 116.124 65.0815 116.842L64.8134 117.127C64.1291 116.483 63.2166 117.344 63.1767 117.384Z" fill="#3F80FF"/>
<path d="M50.7785 119.095L50.4192 118.941C50.4933 118.775 51.1549 117.298 52.016 117.093C52.8258 116.905 57.5137 116.973 57.7418 116.979L57.7304 117.373C56.2191 117.333 52.7289 117.333 52.1073 117.481C51.537 117.612 50.9553 118.696 50.7785 119.101V119.095Z" fill="#3F80FF"/>
<path d="M53.9265 118.821C53.9265 118.821 51.9818 115.422 50.4591 116.089C48.9364 116.757 50.2025 121.541 51.8449 122.328C53.4874 123.115 54.2459 121.604 54.2459 121.604L53.9265 118.821Z" fill="#AD6359"/>
<path d="M50.8584 117.452C50.8584 117.452 50.8241 117.487 50.847 117.498C51.9989 118.091 52.5236 119.255 52.8601 120.441C52.5464 119.967 52.0845 119.682 51.4515 120.053C51.4173 120.07 51.4458 120.121 51.48 120.121C51.9761 120.059 52.324 120.178 52.6206 120.6C52.8316 120.897 52.957 121.262 53.0939 121.598C53.1395 121.713 53.3391 121.673 53.3106 121.541C53.3106 121.53 53.3106 121.524 53.3049 121.513C53.4703 119.996 52.4837 117.76 50.8584 117.458V117.452Z" fill="#001640"/>
<path d="M59.3671 132.16C59.3671 132.16 59.3329 132.138 59.3329 132.16C59.2359 134.059 58.8938 138.456 55.8313 137.852C54.5994 137.607 53.5501 136.74 52.6832 135.907C51.7936 135.052 49.866 132.662 48.5942 130.039C48.5714 129.987 48.4973 130.027 48.5144 130.084C48.7197 130.797 49.2786 132.08 50.0029 133.261C50.6986 134.396 51.5198 135.474 52.5122 136.392C53.4417 137.253 54.5652 138.126 55.8769 138.325C57.1258 138.513 58.1239 137.869 58.62 136.803C59.2702 135.4 59.4412 133.689 59.3671 132.166V132.16Z" fill="#001640"/>
<path d="M43.1707 132.947C36.6466 138.667 19.9198 161.177 24.0259 166.002C28.1606 170.861 53.9436 167.479 61.3689 164.81C63.5759 164.017 56.8863 150.073 54.4398 149.52C52.4038 149.058 41.3743 152.822 41.1291 152.183C40.8553 151.465 43.0339 146.572 46.4899 137.664C50.4762 127.393 46.0507 130.415 43.165 132.942L43.1707 132.947Z" fill="#AD6359"/>
<path d="M65.3324 146.332C70.5278 146.133 71.8908 146.88 76.1851 144.382C79.0024 142.745 81.2607 143.84 79.4586 146.709C76.5102 151.402 69.8662 153.067 67.3912 152.982L65.3324 146.326V146.332Z" fill="#AD6359"/>
<path d="M51.2347 149.897C51.2347 149.897 57.3083 147.279 62.8231 146.52C66.6384 145.996 75.0616 145.773 82.196 154.784C83.8898 156.923 84.7852 161.166 80.7532 158.679C77.8903 156.917 76.6071 154.932 74.7537 154.208C74.7537 154.208 75.2555 159.74 73.0485 161.354C72.0619 162.072 69.3245 163.977 66.9863 165.158C66.9863 165.158 66.5928 164.719 66.1707 164.086C66.1707 164.086 63.9694 165.397 60.1427 164.644L51.229 149.908L51.2347 149.897Z" fill="#AD6359"/>
<path d="M66.5415 146.595C68.2296 147.701 71.7654 150.108 73.9724 153.079C76.4247 156.381 80.2571 163.407 77.7991 165.192C75.997 166.504 74.2975 163.949 74.2975 163.949C74.2975 163.949 75.2727 167.188 73.385 168.015C71.6684 168.768 70.4708 166.715 70.4708 166.715C70.4708 166.715 70.7217 168.779 68.9253 169.184C66.7639 169.674 66.5928 165.266 63.9752 163.869C63.3877 163.555 66.5358 146.595 66.5358 146.595H66.5415Z" fill="#AD6359"/>
<path d="M70.0545 155.092C71.4688 156.392 73.9268 160.173 74.3431 163.875C74.3545 163.96 74.2918 164.011 74.269 163.937C72.9459 159.957 70.9555 156.523 70.026 155.12C70.0146 155.103 70.0431 155.081 70.0545 155.098V155.092Z" fill="#001640"/>
<path d="M66.7924 157.664C67.8988 158.913 70.2598 162.922 70.545 166.686C70.5507 166.772 70.4879 166.817 70.4651 166.743C69.2561 162.529 67.6022 159.147 66.7525 157.687C66.7411 157.67 66.7696 157.647 66.7867 157.664H66.7924Z" fill="#001640"/>
<path d="M74.7594 154.168C76.3791 154.83 77.3828 155.753 78.6945 156.877C79.3446 157.43 80.0005 157.978 80.7076 158.457C81.3521 158.89 82.2987 159.552 83.0801 159.044C83.5135 158.765 83.5705 158.183 83.5249 157.71C83.4736 157.185 83.0629 156.176 82.8006 155.719C82.7892 155.696 82.8291 155.674 82.8405 155.696C83.0858 156.107 83.5534 157.025 83.6732 157.487C83.7815 157.909 83.85 158.388 83.696 158.805C83.3595 159.7 82.2588 159.711 81.5174 159.381C81.0726 159.181 80.662 158.896 80.2685 158.611C79.8864 158.337 79.5214 158.046 79.1564 157.75C78.415 157.134 77.7136 156.478 76.9779 155.85C76.1738 155.166 75.6035 154.813 74.7309 154.219C74.7024 154.197 74.7309 154.151 74.7594 154.168Z" fill="#001640"/>
<path d="M77.6678 160.39C77.3314 159.392 75.3924 155.195 74.7251 154.202C74.708 154.179 74.7422 154.151 74.765 154.174C75.9399 155.537 77.7021 159.021 78.0842 160.122C78.4606 161.205 78.8826 162.591 78.7685 163.743C78.5917 165.488 77.4055 165.699 76.9664 165.745C76.4474 165.796 75.9399 165.637 75.5064 165.352C75.0217 165.038 74.5826 164.439 74.286 163.954C74.2689 163.931 74.3031 163.897 74.3259 163.926C74.862 164.673 75.7973 165.454 76.7554 165.426C77.1717 165.414 77.6051 165.266 77.8903 164.952C78.2267 164.582 78.3009 164.057 78.3123 163.578C78.3294 162.489 78.0157 161.416 77.6678 160.396V160.39Z" fill="#001640"/>
<path d="M51.2347 149.897L57.6049 167.69C57.6049 167.69 25.3148 171.613 23.1419 165.842C20.9691 160.071 35.3919 139.785 41.5454 134.077C48.6798 127.455 49.2501 130.01 47.1913 136.306C45.0356 142.899 41.2089 152.355 41.2089 152.355L51.2347 149.897Z" fill="#3F80FF"/>
<path d="M31.1546 155.913C32.7172 155.035 34.3597 154.311 36.0306 153.672C37.6845 153.039 39.4011 152.583 41.1234 152.201C42.11 151.978 43.1023 151.807 44.1003 151.63C44.1288 151.63 44.1403 151.67 44.106 151.676C42.3666 152.035 40.65 152.548 38.9677 153.107C37.291 153.66 35.6257 154.248 33.9662 154.864C33.0309 155.212 32.107 155.605 31.1831 155.987C31.1375 156.004 31.1147 155.942 31.1546 155.925V155.913Z" fill="#001640"/>
<path d="M51.1549 149.839C50.9895 149.862 42.0701 151.853 41.7735 151.955C41.8248 151.83 43.8323 147.393 44.1345 146.743C44.163 146.68 44.1916 146.612 44.2201 146.549C44.4083 146.264 44.5965 145.984 44.7733 145.688C45.0014 145.311 45.2238 144.941 45.4462 144.564C45.4519 144.553 45.4348 144.541 45.4291 144.553C45.1896 144.918 44.9501 145.277 44.7105 145.648C44.6022 145.819 44.4938 145.99 44.3912 146.161C44.5908 145.699 44.7847 145.237 44.9786 144.775C45.2865 144.034 45.5717 143.287 45.8568 142.54C45.8682 142.517 45.8283 142.505 45.8169 142.528C45.2238 143.823 44.5908 145.095 43.992 146.389C43.3988 147.678 41.1234 152.429 41.1405 152.429C41.1576 152.44 50.9895 150.028 51.1777 149.971C51.2518 149.948 51.2347 149.839 51.1549 149.851V149.839Z" fill="#001640"/>
<path d="M50.6245 160.977C49.9288 158.993 49.2444 157.002 48.4688 155.041C48.0297 153.928 47.5963 152.811 47.1457 151.704C47.1286 151.664 47.0545 151.687 47.0659 151.727C47.6875 153.746 48.3148 155.771 49.0334 157.761C49.7463 159.74 50.4363 161.73 51.1777 163.703C51.594 164.827 52.0503 165.927 52.535 167.022C52.5464 167.045 52.5806 167.034 52.5749 167.011C52.0218 164.969 51.326 162.973 50.6245 160.977Z" fill="#001640"/>
<path d="M57.9813 167.998C57.719 167.445 57.3939 166.652 57.1088 166.104C57.0346 165.962 56.9263 165.979 56.9833 166.127C57.1772 166.623 57.3198 167.182 57.5137 167.69C57.0631 167.735 56.6069 167.77 56.1564 167.815C55.6317 167.872 55.1127 167.929 54.5881 167.986C53.5615 168.095 52.5407 168.186 51.5142 168.271C49.4383 168.443 47.3567 168.574 45.2751 168.654C41.1006 168.825 36.9089 168.836 32.7343 168.574C31.5652 168.5 30.4018 168.403 29.2384 168.271C28.0579 168.135 26.7862 167.986 25.8224 167.764C25.7938 167.758 25.7824 167.81 25.811 167.821C26.8033 168.129 27.7328 168.351 28.7594 168.511C29.8087 168.671 30.8581 168.796 31.9131 168.893C34.0175 169.081 36.1276 169.155 38.2377 169.173C42.418 169.207 46.6039 169.058 50.7785 168.751C51.9476 168.665 53.1167 168.562 54.2801 168.448C54.8675 168.391 55.4549 168.334 56.0423 168.26C56.6297 168.192 58.0326 168.1 57.987 168.003L57.9813 167.998Z" fill="#001640"/>
<path d="M99.5843 167.604H58.928V169.423H99.5843V167.604Z" fill="#C7C7C7"/>
<path d="M99.5844 167.604V169.423H71.9479L73.3451 167.604H99.5844Z" fill="#A6A6A6"/>
<path d="M77.5425 169.423H113.123L118.273 144.319H82.6866L77.5425 169.423Z" fill="#A6A6A6"/>
<path d="M79.202 169.423H114.783L119.933 144.319H84.3518L79.202 169.423Z" fill="#C7C7C7"/>
<path d="M102.778 155.936C102.818 157.122 102.02 158.257 101.004 158.468C99.9894 158.679 99.1339 157.892 99.0997 156.706C99.0598 155.52 99.8582 154.385 100.873 154.174C101.888 153.963 102.744 154.75 102.778 155.936Z" fill="white"/>
<path d="M182.443 221.531C181.912 222.912 156.38 253.873 154.658 254.437C154.008 254.654 149.28 251.198 143.691 246.864C142.482 245.929 141.244 244.953 139.99 243.955C131.835 237.494 123.331 230.445 123.331 230.445L140.349 209.686L156.54 223.767L160.098 226.852C160.098 226.852 175.177 219.37 177.127 218.954C179.072 218.543 182.973 220.151 182.443 221.531Z" fill="#AD6359"/>
<path d="M182.443 221.531C181.912 222.912 156.38 253.873 154.658 254.437C153.865 254.7 147.05 249.544 139.984 243.955L156.534 223.767L160.093 226.852C160.093 226.852 175.171 219.37 177.122 218.954C179.066 218.543 182.967 220.151 182.437 221.531H182.443Z" fill="#EBEBEB"/>
<path d="M182.443 221.531C181.912 222.911 156.38 253.873 154.658 254.437C154.008 254.654 149.28 251.198 143.691 246.864L160.093 226.858C160.093 226.858 175.171 219.376 177.122 218.959C179.066 218.549 182.967 220.157 182.437 221.537L182.443 221.531Z" fill="#3F80FF"/>
<path d="M180.84 220.955C176.432 226.042 159.135 246.967 155.165 252.327C155.131 252.373 155.165 252.396 155.2 252.356C159.676 247.411 176.802 226.35 180.926 221.029C181.011 220.915 180.931 220.853 180.84 220.961V220.955Z" fill="#001640"/>
<path d="M174.367 220.031C173.301 221.223 172.896 222.906 173.072 224.183C173.244 225.409 173.78 226.778 174.886 227.628C174.92 227.651 174.966 227.594 174.937 227.565C173.152 225.592 172.89 222.273 174.43 220.089C174.458 220.043 174.401 219.992 174.367 220.037V220.031Z" fill="#001640"/>
<path d="M162.271 225.267C160.532 227.32 159.277 230.331 159.91 233.023C159.933 233.125 160.081 233.091 160.104 233C160.686 230.325 161.433 227.941 162.556 225.438C162.636 225.261 162.397 225.119 162.271 225.261V225.267Z" fill="#001640"/>
<path d="M164.222 224.178C162.482 226.231 161.227 229.242 161.861 231.934C161.883 232.036 162.032 232.002 162.054 231.911C162.636 229.236 163.383 226.852 164.507 224.349C164.587 224.172 164.347 224.029 164.222 224.172V224.178Z" fill="#001640"/>
<path d="M166.166 223.094C164.427 225.147 163.172 228.158 163.805 230.85C163.828 230.953 163.976 230.918 163.999 230.827C164.581 228.152 165.328 225.769 166.451 223.265C166.531 223.088 166.292 222.946 166.166 223.088V223.094Z" fill="#001640"/>
<path d="M168.117 222.005C166.377 224.058 165.123 227.069 165.756 229.761C165.778 229.863 165.927 229.829 165.95 229.738C166.531 227.063 167.284 224.679 168.402 222.176C168.482 221.999 168.242 221.856 168.117 221.999V222.005Z" fill="#001640"/>
<path d="M151.321 246.938C149.405 249.276 153.032 252.253 154.954 249.915C156.87 247.577 153.243 244.6 151.321 246.938Z" fill="white"/>
<path d="M158.581 218.452C156.842 218.783 156.602 220.813 156.973 222.204C157.572 224.463 159.032 226.881 160.726 228.472C160.766 228.512 160.811 228.495 160.84 228.455C161.028 228.535 161.296 228.455 161.313 228.221C161.507 225.9 162.009 223.442 161.484 221.126C161.182 219.775 160.224 218.138 158.576 218.452H158.581ZM160.897 224.639C160.828 225.786 160.703 226.921 160.674 228.067C159.944 226.841 159.169 225.655 158.564 224.36C158.273 223.738 157.988 223.1 157.789 222.444C157.475 221.429 157.418 217.956 159.853 219.615C161.193 220.528 160.982 223.276 160.902 224.645L160.897 224.639Z" fill="#001640"/>
<path d="M157.241 234.272C159.009 232.692 160.036 230.399 161.222 228.398C161.347 228.192 161.17 227.976 160.971 227.93C160.971 227.884 160.942 227.845 160.891 227.85C158.587 228.164 155.992 229.276 154.19 230.77C153.078 231.688 152.097 233.479 153.317 234.762C154.475 235.971 156.209 235.196 157.241 234.272ZM155.023 234.551C152.08 234.488 154.144 231.694 154.988 231.05C155.53 230.633 156.135 230.28 156.734 229.943C157.983 229.242 159.306 228.728 160.606 228.152C159.961 229.099 159.403 230.097 158.792 231.067C158.068 232.224 156.642 234.585 155.017 234.551H155.023Z" fill="#001640"/>
<path d="M155.701 220.596L136.75 243.054L79.5898 202.352L73.9609 198.343C73.9609 198.343 72.3413 199.404 69.9062 200.716C66.5243 202.535 61.5684 204.827 57.2057 205.415C49.8831 206.407 38.865 206.156 32.8027 197.847C27.6986 190.849 29.4437 181.822 29.4437 181.822L37.5077 178.474C37.5077 178.474 56.6924 162.882 68.9994 162.557C74.229 162.414 81.7854 166.464 88.7829 170.689C95.7747 174.904 155.696 220.607 155.696 220.607L155.701 220.596Z" fill="#001640"/>
<path d="M73.9667 198.343C73.9667 198.343 72.3471 199.404 69.9119 200.716C65.6974 195.543 56.7552 186.133 56.4814 185.797L73.9667 198.343Z" fill="#37474F"/>
<path d="M44.5394 173.256C43.3931 174.031 42.2867 174.853 41.1576 175.651C40.0455 176.432 38.8992 177.168 37.8441 178.024C36.7663 178.896 35.7455 179.826 34.7303 180.767C34.2399 181.223 33.7551 181.679 33.2818 182.147C32.8141 182.614 32.2895 183.082 31.896 183.612C31.8617 183.664 31.9302 183.721 31.9758 183.692C32.5233 183.35 33.0137 182.882 33.5099 182.472C34.046 182.033 34.5764 181.582 35.1124 181.143C36.1447 180.288 37.194 179.455 38.2262 178.6C39.2471 177.75 40.1995 176.814 41.2089 175.948C42.2925 175.024 43.433 174.163 44.5565 173.29C44.5793 173.273 44.5565 173.239 44.5337 173.256H44.5394Z" fill="#37474F"/>
<path d="M149.85 218.429C148.704 219.638 147.637 220.938 146.565 222.216C145.487 223.499 144.421 224.788 143.36 226.077C141.239 228.666 139.094 231.243 137.007 233.861C135.861 235.298 134.726 236.747 133.66 238.247C133.614 238.315 133.717 238.389 133.774 238.332C136.055 235.886 138.142 233.268 140.264 230.685C142.385 228.095 144.501 225.495 146.588 222.872C147.729 221.434 148.904 220.009 149.953 218.509C149.993 218.446 149.902 218.378 149.85 218.435V218.429Z" fill="#37474F"/>
<path d="M106.89 221.725C103.987 219.381 97.383 214.79 94.3718 212.589C91.3778 210.399 88.3837 208.204 85.344 206.076C84.4715 205.466 83.5875 204.867 82.7093 204.269C81.831 203.67 80.9185 203.117 80.0574 202.495C80.0061 202.461 79.9604 202.541 80.0118 202.58C80.7988 203.162 81.5459 203.812 82.3215 204.411C83.0628 204.987 83.7985 205.569 84.5456 206.133C86.0056 207.24 87.4769 208.329 88.9483 209.418C91.9309 211.631 94.9364 213.815 97.9704 215.948C99.6927 217.163 105.002 220.75 106.764 221.908C106.867 221.976 106.998 221.811 106.895 221.731L106.89 221.725Z" fill="#37474F"/>
<path d="M125.664 197.63C122.984 195.355 116.864 190.969 114.053 188.859C111.207 186.726 108.378 184.576 105.521 182.455C102.687 180.356 99.8523 178.252 97.0237 176.153C94.2749 174.117 91.5431 172.047 88.6403 170.239C87.0492 169.247 85.4182 168.328 83.7415 167.502C82.1105 166.697 80.4167 165.871 78.6716 165.357C78.6203 165.34 78.5917 165.42 78.6374 165.443C80.0688 166.264 81.5744 166.96 83.0286 167.758C84.4601 168.545 85.8744 169.372 87.2602 170.233C90.1459 172.03 92.8605 174.066 95.5922 176.079C101.267 180.265 106.924 184.468 112.638 188.597C115.838 190.906 122.208 195.68 125.533 197.807C125.635 197.875 125.761 197.716 125.664 197.63Z" fill="#37474F"/>
</g>
<defs>
<clipPath id="clip0_570_9929">
<rect width="248.826" height="256" fill="white" transform="translate(0.0393066)"/>
</clipPath>
</defs>
</svg>
