<svg width="41" height="40" viewBox="0 0 41 40" fill="none" xmlns="http://www.w3.org/2000/svg">
<rect x="1.12659" y="0.5" width="39" height="39" rx="19.5" stroke="#B2CCFF" stroke-opacity="0.7"/>
<path d="M27.2904 31.0371C25.9981 32.3036 24.5872 32.1036 23.229 31.5037C21.7917 30.8904 20.473 30.8638 18.9566 31.5037C17.0577 32.3303 16.0556 32.0903 14.9215 31.0371C8.48653 24.3313 9.43595 14.1192 16.7412 13.7459C18.5214 13.8393 19.7609 14.7325 20.8027 14.8125C22.3587 14.4925 23.8487 13.5726 25.5102 13.6926C27.5014 13.8526 29.0047 14.6525 29.9936 16.0923C25.8795 18.5853 26.8553 24.0646 30.6266 25.5978C29.875 27.5975 28.8992 29.5839 27.2772 31.0504L27.2904 31.0371ZM20.6708 13.666C20.473 10.693 22.8598 8.23997 25.6025 8C25.985 11.4396 22.5169 13.9992 20.6708 13.666Z" fill="#001640"/>
</svg>
