<svg width="23" height="22" viewBox="0 0 23 22" fill="none" xmlns="http://www.w3.org/2000/svg">
<path d="M17.9867 17.6C18.5702 17.6 19.1298 17.8318 19.5424 18.2444C19.9549 18.6569 20.1867 19.2165 20.1867 19.8C20.1867 20.3835 19.9549 20.9431 19.5424 21.3556C19.1298 21.7682 18.5702 22 17.9867 22C17.4032 22 16.8437 21.7682 16.4311 21.3556C16.0185 20.9431 15.7867 20.3835 15.7867 19.8C15.7867 18.579 16.7657 17.6 17.9867 17.6ZM0.386719 0H3.98372L5.01772 2.2H21.2867C21.5785 2.2 21.8582 2.31589 22.0645 2.52218C22.2708 2.72847 22.3867 3.00826 22.3867 3.3C22.3867 3.487 22.3317 3.674 22.2547 3.85L18.3167 10.967C17.9427 11.638 17.2167 12.1 16.3917 12.1H8.19672L7.20672 13.893L7.17372 14.025C7.17372 14.0979 7.20269 14.1679 7.25426 14.2195C7.30584 14.271 7.37578 14.3 7.44872 14.3H20.1867V16.5H6.98672C6.40324 16.5 5.84366 16.2682 5.43108 15.8556C5.0185 15.4431 4.78672 14.8835 4.78672 14.3C4.78672 13.915 4.88572 13.552 5.05072 13.244L6.54672 10.549L2.58672 2.2H0.386719V0ZM6.98672 17.6C7.5702 17.6 8.12977 17.8318 8.54235 18.2444C8.95493 18.6569 9.18672 19.2165 9.18672 19.8C9.18672 20.3835 8.95493 20.9431 8.54235 21.3556C8.12977 21.7682 7.5702 22 6.98672 22C6.40324 22 5.84366 21.7682 5.43108 21.3556C5.0185 20.9431 4.78672 20.3835 4.78672 19.8C4.78672 18.579 5.76572 17.6 6.98672 17.6ZM16.8867 9.9L19.9447 4.4H6.04072L8.63672 9.9H16.8867Z" fill="#3F80FF"/>
</svg>
