<svg width="19" height="18" viewBox="0 0 19 18" fill="none" xmlns="http://www.w3.org/2000/svg">
<path d="M14.3242 1.6875H4.19922C3.60268 1.68815 3.03076 1.92541 2.60895 2.34723C2.18713 2.76904 1.94987 3.34096 1.94922 3.9375V14.0625C1.94987 14.659 2.18713 15.231 2.60895 15.6528C3.03076 16.0746 3.60268 16.3118 4.19922 16.3125H14.3242C14.9208 16.3118 15.4927 16.0746 15.9145 15.6528C16.3363 15.231 16.5736 14.659 16.5742 14.0625V3.9375C16.5736 3.34096 16.3363 2.76904 15.9145 2.34723C15.4927 1.92541 14.9208 1.68815 14.3242 1.6875ZM13.0674 6.54926L8.34238 12.1743C8.29055 12.236 8.22606 12.2859 8.15327 12.3205C8.08049 12.3551 8.0011 12.3737 7.92051 12.375H7.91102C7.83217 12.375 7.75422 12.3584 7.68221 12.3263C7.61019 12.2942 7.54573 12.2473 7.49301 12.1887L5.46801 9.93867C5.41658 9.88413 5.37657 9.81985 5.35034 9.74962C5.32411 9.67939 5.31218 9.60463 5.31526 9.52973C5.31833 9.45482 5.33635 9.38129 5.36825 9.31345C5.40015 9.2456 5.44528 9.18482 5.50101 9.13468C5.55673 9.08453 5.62192 9.04602 5.69274 9.02143C5.76356 8.99683 5.83858 8.98664 5.91339 8.99146C5.9882 8.99627 6.0613 9.01599 6.12838 9.04945C6.19547 9.08292 6.25518 9.12945 6.30402 9.18633L7.89625 10.9554L12.2061 5.82574C12.3027 5.71397 12.4395 5.64474 12.5868 5.633C12.7341 5.62126 12.8801 5.66796 12.9933 5.76301C13.1064 5.85806 13.1776 5.99382 13.1915 6.14095C13.2054 6.28807 13.1608 6.43474 13.0674 6.54926Z" fill="#3F80FF"/>
</svg>
