<svg width="17" height="16" viewBox="0 0 17 16" fill="none" xmlns="http://www.w3.org/2000/svg">
<g clip-path="url(#clip0_570_11607)">
<path d="M13.8617 1.6001H2.66172C2.0252 1.6001 1.41475 1.85295 0.964663 2.30304C0.514575 2.75313 0.261719 3.36358 0.261719 4.0001V12.0001C0.261719 12.6366 0.514575 13.2471 0.964663 13.6972C1.41475 14.1472 2.0252 14.4001 2.66172 14.4001H13.8617C14.4982 14.4001 15.1087 14.1472 15.5588 13.6972C16.0089 13.2471 16.2617 12.6366 16.2617 12.0001V4.0001C16.2617 3.36358 16.0089 2.75313 15.5588 2.30304C15.1087 1.85295 14.4982 1.6001 13.8617 1.6001ZM13.3257 3.2001L8.26172 7.0001L3.19772 3.2001H13.3257ZM13.8617 12.8001H2.66172C2.44955 12.8001 2.24606 12.7158 2.09603 12.5658C1.946 12.4158 1.86172 12.2123 1.86172 12.0001V4.2001L7.78172 8.6401C7.9202 8.74396 8.08862 8.8001 8.26172 8.8001C8.43482 8.8001 8.60324 8.74396 8.74172 8.6401L14.6617 4.2001V12.0001C14.6617 12.2123 14.5774 12.4158 14.4274 12.5658C14.2774 12.7158 14.0739 12.8001 13.8617 12.8001Z" fill="#001640"/>
</g>
<defs>
<clipPath id="clip0_570_11607">
<rect width="16" height="16" fill="white" transform="translate(0.261719)"/>
</clipPath>
</defs>
</svg>
