<svg width="17" height="16" viewBox="0 0 17 16" fill="none" xmlns="http://www.w3.org/2000/svg">
<g clip-path="url(#clip0_570_11614)">
<path d="M8.00566 5.27513L10.2724 7.53468V7.42027C10.2724 6.85134 10.0463 6.30572 9.64406 5.90343C9.24177 5.50114 8.69614 5.27513 8.12722 5.27513H8.00566ZM4.93096 5.84717L6.03928 6.95549C6.00353 7.10565 5.98208 7.25581 5.98208 7.42027C5.98208 7.98919 6.20809 8.53482 6.61038 8.93711C7.01267 9.3394 7.55829 9.5654 8.12722 9.5654C8.28453 9.5654 8.44184 9.54395 8.592 9.5082L9.70032 10.6165C9.22124 10.8525 8.6921 10.9955 8.12722 10.9955C7.17901 10.9955 6.26963 10.6188 5.59915 9.94834C4.92866 9.27785 4.55199 8.36848 4.55199 7.42027C4.55199 6.85538 4.695 6.32625 4.93096 5.84717ZM0.976764 1.89297L2.60707 3.52327L2.92884 3.84504C1.74901 4.7746 0.819454 5.99018 0.261719 7.42027C1.49875 10.5593 4.55199 12.7831 8.12722 12.7831C9.23554 12.7831 10.2938 12.5686 11.2591 12.1825L11.5666 12.4828L13.6545 14.5707L14.5626 13.6626L1.88487 0.984863M8.12722 3.84504C9.07543 3.84504 9.9848 4.22172 10.6553 4.8922C11.3258 5.56269 11.7024 6.47206 11.7024 7.42027C11.7024 7.8779 11.6095 8.32123 11.445 8.72165L13.5401 10.8167C14.6127 9.92293 15.4707 8.75025 15.9927 7.42027C14.7557 4.28122 11.7024 2.05743 8.12722 2.05743C7.12615 2.05743 6.16799 2.23619 5.26704 2.55796L6.81868 4.09531C7.22626 3.938 7.66244 3.84504 8.12722 3.84504Z" fill="#001640"/>
</g>
<defs>
<clipPath id="clip0_570_11614">
<rect width="16" height="16" fill="white" transform="translate(0.261719)"/>
</clipPath>
</defs>
</svg>
