<svg width="27" height="26" viewBox="0 0 27 26" fill="none" xmlns="http://www.w3.org/2000/svg">
<rect x="1.76172" y="1" width="24" height="24" rx="8" fill="white"/>
<rect x="1.26172" y="0.5" width="25" height="25" rx="8.5" stroke="#B2CCFF" stroke-opacity="0.7"/>
<path fill-rule="evenodd" clip-rule="evenodd" d="M12.6202 6.093H21.7877C22.3256 6.093 22.7617 6.56155 22.7617 7.13951C22.7617 7.71748 22.3256 8.18601 21.7877 8.18601H12.6202C12.2181 9.40405 11.1354 10.279 9.86562 10.279C8.59584 10.279 7.51315 9.40405 7.11107 8.18601H5.73575C5.19781 8.18601 4.76172 7.71748 4.76172 7.13951C4.76172 6.56155 5.19781 6.093 5.73575 6.093H7.11107C7.51318 4.87496 8.59584 4 9.86562 4C11.1354 4 12.2181 4.87496 12.6202 6.093ZM8.89258 7.13996C8.89258 7.717 9.32952 8.18647 9.8666 8.18647C10.4037 8.18647 10.8406 7.717 10.8406 7.13996C10.8406 6.56292 10.4037 6.09346 9.8666 6.09346C9.32952 6.09346 8.89258 6.56292 8.89258 7.13996ZM12.6202 17.8139H21.7877C22.3256 17.8139 22.7617 18.2825 22.7617 18.8605C22.7617 19.4385 22.3256 19.907 21.7877 19.907H12.6202C12.2181 21.125 11.1354 22 9.86562 22C8.59584 22 7.51315 21.125 7.11107 19.907H5.73575C5.19781 19.907 4.76172 19.4385 4.76172 18.8605C4.76172 18.2825 5.19781 17.8139 5.73575 17.8139H7.11107C7.51318 16.596 8.59584 15.721 9.86562 15.721C11.1354 15.721 12.2181 16.596 12.6202 17.8139ZM8.89258 18.8607C8.89258 19.4377 9.32952 19.9072 9.8666 19.9072C10.4037 19.9072 10.8406 19.4377 10.8406 18.8607C10.8406 18.2836 10.4037 17.8142 9.8666 17.8142C9.32952 17.8142 8.89258 18.2836 8.89258 18.8607ZM21.7877 11.9536H20.4124C20.0103 10.7355 18.9276 9.86056 17.6579 9.86056C16.3881 9.86056 15.3054 10.7355 14.9033 11.9536H5.73575C5.19781 11.9536 4.76172 12.4221 4.76172 13.0001C4.76172 13.578 5.19781 14.0466 5.73575 14.0466H14.9033C15.3054 15.2646 16.3881 16.1396 17.6579 16.1396C18.9276 16.1396 20.0103 15.2646 20.4124 14.0466H21.7877C22.3256 14.0466 22.7617 13.578 22.7617 13.0001C22.7617 12.4221 22.3256 11.9536 21.7877 11.9536ZM17.6587 14.0468C17.1217 14.0468 16.6847 13.5773 16.6847 13.0003C16.6847 12.4232 17.1217 11.9538 17.6587 11.9538C18.1959 11.9538 18.6328 12.4232 18.6328 13.0003C18.6328 13.5773 18.1959 14.0468 17.6587 14.0468Z" fill="#3F80FF"/>
</svg>
