<svg width="43" height="42" viewBox="0 0 43 42" fill="none" xmlns="http://www.w3.org/2000/svg">
<rect x="1.12659" y="0.5" width="41" height="41" rx="20.5" stroke="#B2CCFF" stroke-opacity="0.7"/>
<path d="M10.8752 15.612C11.8515 13.6239 13.3493 11.9526 15.2011 10.785C17.0529 9.61731 19.1857 8.9993 21.3613 9C24.5238 9 27.1805 10.1892 29.2118 12.126L25.8475 15.5676C24.6306 14.3784 23.0839 13.7724 21.3613 13.7724C18.3044 13.7724 15.7169 15.8844 14.7957 18.72C14.561 19.44 14.4273 20.208 14.4273 21C14.4273 21.792 14.561 22.56 14.7957 23.28C15.7181 26.1168 18.3044 28.2276 21.3613 28.2276C22.9396 28.2276 24.2832 27.8016 25.3346 27.0816C25.9442 26.6712 26.466 26.1387 26.8686 25.5162C27.2712 24.8937 27.5462 24.1942 27.6769 23.46H21.3613V18.8184H32.413C32.5515 19.6032 32.6266 20.4216 32.6266 21.2724C32.6266 24.9276 31.3475 28.0044 29.1273 30.0924C27.1864 31.926 24.5296 33 21.3613 33C19.8201 33.0006 18.2939 32.6907 16.8699 32.0878C15.4459 31.485 14.152 30.6011 13.0622 29.4867C11.9724 28.3723 11.1081 27.0491 10.5186 25.5929C9.92908 24.1368 9.62597 22.576 9.62659 21C9.62659 19.0632 10.0795 17.232 10.8752 15.612Z" fill="#001640"/>
</svg>
