<svg width="25" height="24" viewBox="0 0 25 24" fill="none" xmlns="http://www.w3.org/2000/svg">
<rect x="0.396851" width="24" height="24" rx="12" fill="white"/>
<path d="M20.3969 10.5219C20.3969 15.6273 12.9833 19.7597 12.6676 19.9304C12.5844 19.9761 12.4913 20 12.3969 20C12.3024 20 12.2093 19.9761 12.1261 19.9304C11.8104 19.7597 4.39685 15.6273 4.39685 10.5219C4.39817 9.32303 4.86518 8.17365 5.69541 7.32593C6.52564 6.4782 7.6513 6.00135 8.82542 6C10.3004 6 11.5919 6.64765 12.3969 7.74239C13.2019 6.64765 14.4933 6 15.9683 6C17.1424 6.00135 18.2681 6.4782 19.0983 7.32593C19.9285 8.17365 20.3955 9.32303 20.3969 10.5219Z" fill="#001640"/>
</svg>
