<svg width="21" height="20" viewBox="0 0 21 20" fill="none" xmlns="http://www.w3.org/2000/svg">
<g clip-path="url(#clip0_570_11520)">
<path d="M19.1828 15.7896C19.5883 15.7898 19.9781 15.946 20.2716 16.2258C20.5651 16.5056 20.7396 16.8876 20.7591 17.2926C20.7786 17.6977 20.6415 18.0947 20.3763 18.4014C20.111 18.7081 19.7379 18.901 19.3343 18.9401L19.1828 18.9475H2.34067C1.93517 18.9473 1.5453 18.7911 1.25184 18.5113C0.958373 18.2314 0.783811 17.8494 0.764325 17.4444C0.744838 17.0394 0.881921 16.6424 1.14717 16.3357C1.41241 16.029 1.78549 15.8361 2.18909 15.7969L2.34067 15.7896H19.1828ZM19.1828 8.42116C19.6015 8.42116 20.0031 8.58751 20.2993 8.88362C20.5954 9.17973 20.7617 9.58134 20.7617 10.0001C20.7617 10.4189 20.5954 10.8205 20.2993 11.1166C20.0031 11.4127 19.6015 11.5791 19.1828 11.5791H2.34067C1.9219 11.5791 1.52029 11.4127 1.22418 11.1166C0.928072 10.8205 0.761719 10.4189 0.761719 10.0001C0.761719 9.58134 0.928072 9.17973 1.22418 8.88362C1.52029 8.58751 1.9219 8.42116 2.34067 8.42116H19.1828ZM19.1828 1.05273C19.6015 1.05273 20.0031 1.21909 20.2993 1.5152C20.5954 1.81131 20.7617 2.21292 20.7617 2.63168C20.7617 3.05044 20.5954 3.45206 20.2993 3.74817C20.0031 4.04428 19.6015 4.21063 19.1828 4.21063H2.34067C1.9219 4.21063 1.52029 4.04428 1.22418 3.74817C0.928072 3.45206 0.761719 3.05044 0.761719 2.63168C0.761719 2.21292 0.928072 1.81131 1.22418 1.5152C1.52029 1.21909 1.9219 1.05273 2.34067 1.05273H19.1828Z" fill="#67687E"/>
</g>
<defs>
<clipPath id="clip0_570_11520">
<rect width="20" height="20" fill="white" transform="translate(0.886719)"/>
</clipPath>
</defs>
</svg>
