<svg width="17" height="16" viewBox="0 0 17 16" fill="none" xmlns="http://www.w3.org/2000/svg">
<g clip-path="url(#clip0_570_11611)">
<path d="M13.4132 5.33333H12.6167V3.80952C12.6167 1.70667 10.8325 0 8.63401 0C6.43557 0 4.65133 1.70667 4.65133 3.80952V5.33333H3.85479C2.9786 5.33333 2.26172 6.01905 2.26172 6.85714V14.4762C2.26172 15.3143 2.9786 16 3.85479 16H13.4132C14.2894 16 15.0063 15.3143 15.0063 14.4762V6.85714C15.0063 6.01905 14.2894 5.33333 13.4132 5.33333ZM6.2444 3.80952C6.2444 2.54476 7.31176 1.52381 8.63401 1.52381C9.95626 1.52381 11.0236 2.54476 11.0236 3.80952V5.33333H6.2444V3.80952ZM13.4132 14.4762H3.85479V6.85714H13.4132V14.4762ZM8.63401 12.1905C9.5102 12.1905 10.2271 11.5048 10.2271 10.6667C10.2271 9.82857 9.5102 9.14286 8.63401 9.14286C7.75782 9.14286 7.04094 9.82857 7.04094 10.6667C7.04094 11.5048 7.75782 12.1905 8.63401 12.1905Z" fill="#001640"/>
</g>
<defs>
<clipPath id="clip0_570_11611">
<rect width="16" height="16" fill="white" transform="translate(0.261719)"/>
</clipPath>
</defs>
</svg>
