<svg width="17" height="16" viewBox="0 0 17 16" fill="none" xmlns="http://www.w3.org/2000/svg">
<path d="M11.6289 0H5.62439C4.79589 0 4.12439 0.6715 4.12439 1.5V14.5C4.12439 15.3285 4.79589 16 5.62439 16H11.6289C12.4574 16 13.1289 15.3285 13.1289 14.5V1.5C13.1289 0.6715 12.4574 0 11.6289 0ZM12.1289 14.5C12.1289 14.776 11.9049 15 11.6289 15H5.62439C5.34839 15 5.12439 14.776 5.12439 14.5V1.5C5.12439 1.224 5.34839 1 5.62439 1H11.6289C11.9049 1 12.1289 1.224 12.1289 1.5V14.5ZM8.62739 12.5028C8.07614 12.5028 7.62989 12.9495 7.62989 13.5C7.62989 14.0505 8.07639 14.4975 8.62739 14.4975C9.17864 14.4975 9.62489 14.0505 9.62489 13.5C9.62489 12.9495 9.17864 12.5028 8.62739 12.5028ZM9.62739 1.5H7.62739C7.35139 1.5 7.12739 1.724 7.12739 2C7.12739 2.276 7.35139 2.5 7.62739 2.5H9.62739C9.90339 2.5 10.1274 2.276 10.1274 2C10.1274 1.724 9.90339 1.5 9.62739 1.5Z" fill="#001640"/>
</svg>
