<svg width="19" height="18" viewBox="0 0 19 18" fill="none" xmlns="http://www.w3.org/2000/svg">
<path d="M16.3734 7.2958C16.3292 7.1619 16.2489 7.04429 16.1422 6.95723C16.0355 6.87017 15.907 6.8174 15.7722 6.80532L11.7946 6.19771L10.012 2.41296C9.95478 2.28919 9.86541 2.18481 9.75414 2.11177C9.64287 2.03874 9.5142 2 9.38288 2C9.25156 2 9.1229 2.03874 9.01163 2.11177C8.90036 2.18481 8.81098 2.28919 8.75374 2.41296L6.97117 6.19039L2.99358 6.80532C2.8642 6.82458 2.74257 6.88143 2.64248 6.96942C2.5424 7.05741 2.46787 7.17302 2.42735 7.30312C2.39026 7.43026 2.38693 7.56558 2.41772 7.69455C2.44851 7.82352 2.51225 7.94128 2.60211 8.03518L5.48918 10.9634L4.79013 15.1215C4.76518 15.2588 4.77825 15.4006 4.82779 15.5303C4.87734 15.6601 4.9613 15.7722 5.06975 15.8536C5.17546 15.9327 5.30014 15.9794 5.4298 15.9885C5.55945 15.9975 5.68895 15.9686 5.80375 15.9048L9.38288 13.9502L12.948 15.9121C13.0461 15.9701 13.1569 16.0004 13.2696 16C13.4177 16.0005 13.5621 15.9518 13.682 15.8609C13.7905 15.7795 13.8744 15.6674 13.924 15.5377C13.9735 15.4079 13.9866 15.2661 13.9617 15.1288L13.2626 10.9707L16.1497 8.0425C16.2506 7.95296 16.3252 7.83526 16.3648 7.70308C16.4044 7.57091 16.4074 7.42968 16.3734 7.2958ZM12.0742 10.224C11.9922 10.3071 11.9309 10.4099 11.8956 10.5234C11.8602 10.637 11.852 10.7579 11.8715 10.8756L12.3748 13.9429L9.74639 12.4788C9.64525 12.4224 9.53242 12.3929 9.41784 12.3929C9.30325 12.3929 9.19042 12.4224 9.08928 12.4788L6.46086 13.9429L6.96418 10.8756C6.9837 10.7579 6.97544 10.637 6.9401 10.5234C6.90477 10.4099 6.84343 10.3071 6.76145 10.224L4.66431 8.02786L7.6073 7.58131C7.72054 7.56481 7.8282 7.51948 7.92082 7.44928C8.01345 7.37908 8.08822 7.28617 8.13858 7.17867L9.38288 4.38952L10.6971 7.18599C10.7475 7.29349 10.8222 7.3864 10.9148 7.4566C11.0075 7.5268 11.1151 7.57213 11.2284 7.58863L14.1714 8.03518L12.0742 10.224Z" fill="#001640"/>
</svg>
