<svg width="17" height="16" viewBox="0 0 17 16" fill="none" xmlns="http://www.w3.org/2000/svg">
<path fill-rule="evenodd" clip-rule="evenodd" d="M8.49321 8.79999C10.41 8.79999 12.1532 9.35519 13.4356 10.1368C14.0756 10.5288 14.6228 10.9888 15.018 11.4888C15.4068 11.9816 15.6932 12.5704 15.6932 13.2C15.6932 13.876 15.3644 14.4088 14.8908 14.7888C14.4428 15.1488 13.8516 15.3872 13.2236 15.5536C11.9612 15.8872 10.2764 16 8.49321 16C6.71001 16 5.02521 15.888 3.76281 15.5536C3.13481 15.3872 2.54361 15.1488 2.09561 14.7888C1.62121 14.408 1.29321 13.876 1.29321 13.2C1.29321 12.5704 1.57961 11.9816 1.96841 11.4888C2.36361 10.9888 2.91001 10.5288 3.55081 10.1368C4.83321 9.35519 6.57721 8.79999 8.49321 8.79999ZM8.49321 10.4C6.87481 10.4 5.41881 10.872 4.38441 11.5032C3.86681 11.8184 3.47641 12.1608 3.22441 12.4808C2.96521 12.8088 2.89321 13.0568 2.89321 13.2C2.89321 13.2976 2.92281 13.4008 3.09721 13.5408C3.29641 13.7008 3.64281 13.8664 4.17241 14.0064C5.22681 14.2864 6.74201 14.4 8.49321 14.4C10.2452 14.4 11.7596 14.2856 12.8132 14.0064C13.3436 13.8664 13.69 13.7008 13.8892 13.5408C14.0636 13.4008 14.0932 13.2976 14.0932 13.2C14.0932 13.056 14.0212 12.8088 13.7628 12.4808C13.51 12.1608 13.1196 11.8184 12.602 11.5032C11.5676 10.8712 10.1116 10.4 8.49321 10.4ZM8.49321 0C9.55407 0 10.5715 0.421427 11.3216 1.17157C12.0718 1.92172 12.4932 2.93913 12.4932 4C12.4932 5.06086 12.0718 6.07828 11.3216 6.82842C10.5715 7.57857 9.55407 7.99999 8.49321 7.99999C7.43234 7.99999 6.41493 7.57857 5.66478 6.82842C4.91464 6.07828 4.49321 5.06086 4.49321 4C4.49321 2.93913 4.91464 1.92172 5.66478 1.17157C6.41493 0.421427 7.43234 0 8.49321 0ZM8.49321 1.6C8.17804 1.6 7.86595 1.66208 7.57477 1.78269C7.28359 1.9033 7.01901 2.08008 6.79615 2.30294C6.57329 2.5258 6.39651 2.79038 6.2759 3.08156C6.15529 3.37274 6.09321 3.68482 6.09321 4C6.09321 4.31517 6.15529 4.62725 6.2759 4.91844C6.39651 5.20962 6.57329 5.47419 6.79615 5.69705C7.01901 5.91991 7.28359 6.09669 7.57477 6.21731C7.86595 6.33792 8.17804 6.39999 8.49321 6.39999C9.12973 6.39999 9.74018 6.14714 10.1903 5.69705C10.6404 5.24696 10.8932 4.63652 10.8932 4C10.8932 3.36348 10.6404 2.75303 10.1903 2.30294C9.74018 1.85285 9.12973 1.6 8.49321 1.6Z" fill="#001640"/>
</svg>
